<?xml version="1.0" standalone="no"?>
<!DOCTYPE svg PUBLIC "-//W3C//DTD SVG 1.1//EN" "http://www.w3.org/Graphics/SVG/1.1/DTD/svg11.dtd" >
<svg xmlns="http://www.w3.org/2000/svg" xmlns:xlink="http://www.w3.org/1999/xlink" version="1.1">
<metadata>
Created by FontForge 20170731 at Sun Aug 10 12:11:23 2014
 By Aleksey,,,
Copyright (c) 2014 by Tyler Finck. All rights reserved.
</metadata>
<defs>
<font id="GranstanderClean" horiz-adv-x="689" >
  <font-face 
    font-family="Granstander Clean"
    font-weight="400"
    font-stretch="normal"
    units-per-em="1000"
    panose-1="2 0 5 3 0 0 0 2 0 4"
    ascent="750"
    descent="-250"
    x-height="581"
    cap-height="774"
    bbox="-202.5 -361.6 1521.47 1587.46"
    underline-thickness="50"
    underline-position="-150"
    unicode-range="U+0009-FB06"
  />
<missing-glyph horiz-adv-x="321" 
 />
    <glyph glyph-name="ht" unicode="ht" horiz-adv-x="1019" 
d="M684 851q3 2 21.5 3.5t41 2t42.5 -0.5t26 -5q5 -4 8.5 -15.5t4.5 -22.5q1 -9 1 -13.5v-6.5v-3v-5q2 -11 1 -13.5t2 -5.5q4 -4 13.5 -5t21 -1t22 1.5t18.5 1.5q11 0 24 1t25.5 1.5t22 0t14.5 -2.5q-1 1 2.5 -5.5t4.5 -8.5q0 1 -2 -2t-1 -5q0 -1 3 -2q2 -1 4 -1
q3 -18 1 -37.5t-5 -38.5t-5.5 -27t-21.5 -10q-9 -2 -21.5 -1.5t-25.5 1t-25 0t-21 -3.5q-2 0 -8 -1t-13 -1.5t-13 -2t-7 -2.5q-2 -2 -3.5 -14t-2.5 -27t-1 -28.5v-19.5q0 -12 0.5 -41t1.5 -61t2.5 -62t2.5 -44q2 -25 2.5 -56.5t0 -65.5l-1 -68t-1.5 -64q-1 -11 -1.5 -19.5
t-2.5 -18.5q-2 -13 -3 -22.5t-4 -11.5q-2 -2 -15 -0.5t-19 0.5q-9 -1 -16.5 -2.5t-14.5 -1.5h-16.5t-20.5 0.5t-18.5 1.5t-9.5 2q-2 8 -5 15q-2 6 -4 11.5t-2 7.5q-1 11 1 23t3 22q2 37 0 76t0 79q0 12 2 23.5t1 24.5q0 3 -3 15.5t-4 21.5q-1 14 1.5 31.5t2.5 37.5v28v26
t-0.5 40t-1.5 39.5t-2 26.5q0 2 -2 4t-1 6v10.5v15.5t-1 14.5t-2 7.5q-3 2 -26 2.5t-56 -1t-71.5 -4t-72.5 -5t-59 -4.5t-30 -3q-2 -1 -7 0t-7 0q-2 -2 -0.5 -4t-2.5 -3q-16 -4 -22.5 0t-11.5 17q-2 3 -0.5 4t0.5 6q-1 2 -4 4t-3 3q-2 8 -1 22t1 26q-1 16 -3.5 30.5
t-0.5 21.5q2 5 13.5 11.5t21.5 8.5q8 2 25 0.5t48 0.5q36 2 77 1.5t75 1.5q24 1 47.5 6t31.5 6t21 3.5t13 3.5q1 3 0.5 7.5t-1.5 9t-1.5 6.5t-0.5 -1q0 -5 -0.5 5t0 24.5t3 28.5t7.5 18zM72 874q0 1 1 2q0 2 2 2q4 0 15 1t23 1t22 -0.5t13 -1.5q4 -2 5.5 -16.5t4.5 -28.5
q6 -34 9 -71.5t5 -69.5q1 -23 1 -47t2 -52q0 -5 1.5 -24.5t2.5 -42.5t2 -43.5t1 -27.5q0 -15 -1 -25.5t0 -16t6 -4.5t19 8q10 5 16 8.5t18 8.5q6 2 11 4.5t13 5.5l6 4t5 3q5 2 10 0t10 0q3 1 4.5 3.5t6.5 3.5q20 3 41.5 2.5t37.5 -2.5q4 -1 8 -3t9 -4q6 -2 11 -1.5t10 -1.5
q2 -1 4.5 -3t5.5 -4q8 -4 18.5 -11t19.5 -17q1 -1 -0.5 -3t0.5 -4q1 -1 3 0.5t3 -0.5q2 -1 2 -3t2 -3q3 -4 12 -13.5t12 -14.5t5 -12.5t5 -14.5q15 -32 24 -79q2 -12 3.5 -22t3.5 -23q0 1 3 -0.5t1 -3.5q-7 -5 -3 -8t6 -9q2 -8 2.5 -22.5t1.5 -25.5q0 -13 0.5 -14t0.5 0.5
t0 -0.5t-1 -16q-1 -4 0 -8.5t0 -8.5q-1 -3 -4 -5t-3 -6q-1 -5 1 -10t2 -10t-1 -10t-2 -11q-2 -9 -2 -17.5t-5 -13.5q-8 -8 -27 -8.5t-42 -1.5h-20t-22 0.5t-19 2t-11 4.5t-3.5 10.5t0.5 16.5t2 17.5t1 13.5q0 2 2 3.5t1 3.5q0 1 -2 3t-1 4q2 18 6 36.5t4 35.5q0 12 -2 37.5
t-18 54.5q-5 9 -18 25t-27 20q-8 2 -19 1.5t-22.5 -2.5t-21.5 -4.5t-16 -4.5q-40 -17 -69 -52q-2 -2 -1.5 -5t-1.5 -5t-7.5 -8t-6.5 -9q-5 -21 -2.5 -43.5t2.5 -42.5q0 -9 0 -4.5v11v9.5t0 -9q0 -4 -2 -7.5t-1 -9.5q0 -4 1.5 -8t1.5 -9q0 -4 -3.5 -7t-3.5 -7q0 -5 3.5 -8
t3.5 -6q0 -1 -3 -4.5t-4 -8.5q-1 -6 -1 -14.5t-0.5 -16.5t-1.5 -14.5t-4 -9.5q-4 -4 -20 -4.5t-35 -2.5q-14 -2 -29.5 -3.5t-28.5 -0.5q-8 1 -24.5 5t-20.5 9q-5 8 -3 30t3 42q2 23 0.5 46t-0.5 47q1 20 3.5 41t3.5 42q4 82 0.5 170.5t-3.5 179.5q0 57 -0.5 109t-6.5 101
q-2 8 -4 16.5t0 14.5q3 8 11.5 13.5t19 9t21 5z" />
    <glyph glyph-name="ll" unicode="ll" horiz-adv-x="600" 
d="M113 885q2 0 11 1t20.5 1.5t22 -0.5t15.5 -6l4 -16q2 -7 3 -14.5t3 -13.5q6 -33 8.5 -66.5t5.5 -71.5q4 -69 6 -120q1 -14 0.5 -31.5t-0.5 -37.5q1 -24 3.5 -49t3.5 -50q2 -26 2.5 -52t1.5 -52q2 -54 1 -107t2 -102q1 -9 3.5 -23t4 -28.5t1 -26.5t-4.5 -18
q-3 -3 -11 -4.5t-18.5 -2t-22.5 -1.5t-21 -3q-2 0 -2.5 -2.5t-3.5 -3.5q-11 -4 -25.5 -1.5t-33.5 4.5q-6 1 -13 1.5t-14 1.5t-11.5 2t-5.5 2q-2 1 -2.5 7t-1 14t-0.5 17v17q2 152 2.5 310t-5.5 301q-1 18 -1.5 48t-2.5 62q-1 14 -3 29.5t-3 29.5t-1 25t4 16q5 7 12.5 4.5
t18.5 2.5l3 7q6 1 10.5 -1.5t10.5 -2.5q8 0 12 1.5t12 2.5zM364 836l16.5 1.5t37.5 2t40.5 -0.5t26.5 -7q3 -3 5.5 -13t4 -24.5t2.5 -31.5t1 -34q1 -39 4 -84t5.5 -91t5 -90.5t3.5 -81.5q0 -16 2 -48t3 -72.5t0.5 -84t-4.5 -81.5t-11.5 -66.5t-20.5 -37.5q-2 -2 -15 0t-23 0
q1 0 -1 -3t-3 -4q-4 -2 -12 -2h-18t-19.5 1t-15.5 1q-4 1 -9.5 2.5t-10.5 2.5t-8 2t-3 0q-2 2 -2 8.5t0.5 14t1 14.5t0.5 11q0 7 0.5 7t1.5 -1.5t1.5 -2.5t0.5 5q0 9 -2 20t-2 22q1 17 3.5 33t3.5 32q0 32 0.5 46.5t0.5 20.5t1 6.5t1 5t0.5 16t0.5 39.5q0 100 -2 202t-2 211
q0 19 -1.5 38t-2 36.5t0 31t3.5 21.5q1 2 4.5 3.5t5.5 3.5z" />
    <glyph glyph-name="ff" unicode="ff" horiz-adv-x="933" 
d="M698 823q13 3 32 4.5t36 -0.5q14 -2 33 -11t33 -17q13 -8 18 -11t16 -16q6 -7 11.5 -14.5t12.5 -16.5q11 -14 15.5 -25.5t12.5 -26.5q3 -6 7.5 -10.5t7 -8.5t1.5 -8t-9 -10q-4 -3 -7 -6t-7 -8q-5 -7 -11.5 -12.5t-12.5 -11.5q-4 -4 -10 -12.5t-13 -17.5t-13.5 -15.5
t-11.5 -6.5q-4 0 -10.5 3.5t-13 9t-12.5 11.5t-9 11q-1 2 -6 6.5t-11.5 9t-13 8t-10.5 3.5q-11 0 -25.5 -13.5t-19.5 -24.5q-1 -3 -3 -13.5t-3.5 -22.5t-2.5 -22.5t-1 -13.5t1.5 -10.5l3 -15t2 -13.5t0.5 -5q2 -2 8.5 -2t15.5 1t19 2.5t18 1.5q12 1 28 2.5t24 -5.5
q1 -1 2.5 -9t3 -18t3 -18.5t1.5 -9.5t1 -13t1.5 -26.5t0 -27.5t-2.5 -16q-5 -8 -21 -9t-35 -1t-35.5 -2t-21.5 -12q-4 -8 0 -28.5t7 -40.5q1 -10 1.5 -15.5t1.5 -9.5t1.5 -8.5t2.5 -11.5q1 -5 4.5 -11.5t5.5 -12.5q2 -7 3 -18.5t1.5 -23.5t1 -21.5t0.5 -12.5q3 -13 8.5 -27
t8 -26.5t-1.5 -21.5t-21 -11t-40.5 -2.5t-42.5 -0.5q-6 0 -15 -1t-18 -1.5t-16 0t-9 2.5q-5 10 -7.5 17t-3.5 14t-1.5 15t-1.5 19q-1 6 -4 20t-6 29.5t-6 30.5t-4 23q-2 21 -3 39t-4 37q-1 5 -3.5 10.5t-3.5 13.5v5.5v9v8.5v5q-3 3 -13.5 3.5t-24 0.5h-28t-26.5 1h-1
q-6 0 -23.5 1t-40 2t-48 1.5t-47 -0.5t-37 -4.5t-18.5 -9.5q-4 -8 0 -28.5t7 -40.5q2 -20 3 -35.5t4 -29.5q1 -5 4.5 -11.5t5.5 -12.5q4 -14 3 -28t0 -20q3 -13 8.5 -27t8 -26.5t-1.5 -21.5t-21 -11q-8 -1 -15 1.5t-16 1.5q-4 0 -11 -1t-14.5 -2l-15 -2t-11.5 -1
q-6 0 -15 -1t-18 -1.5t-16 0t-9 2.5q-4 2 -3 8t-1 12q-2 5 -6 10t-4 4q-1 2 0 12.5t0 18.5q-2 13 -8.5 35.5t-8.5 39.5q-2 21 -3 39t-4 37q-1 5 -3.5 10.5t-3.5 13.5v5.5v9v8.5v5q-5 3 -11.5 1t-14 -5t-15.5 -5t-14 2q-3 2 -5.5 16.5t-4.5 24.5q-2 11 -2.5 22.5t-1.5 22.5
q-1 15 -2 26.5t0.5 20t7 14.5t18.5 11q5 2 14.5 2t13.5 5q1 1 2.5 8t2.5 15t1.5 16t0.5 12q-1 9 -4 16t-3 15q0 7 3.5 16.5t3.5 17.5q0 5 -2 6.5t-2 4.5q1 5 3.5 10t3.5 10q1 6 -1.5 12.5t-1.5 11.5q1 6 3 11.5t4 12.5q2 15 5 37t8 36q3 8 9.5 15.5t11.5 15.5q2 3 3.5 8
t3.5 9l3.5 3.5l3.5 3.5q3 5 13 13t18 14q11 8 32.5 19t39.5 15q13 3 32 4.5t36 -0.5q14 -2 33 -11t33 -17q13 -8 18 -11t16 -16q6 -7 11.5 -14.5t12.5 -16.5q5 -6 9.5 -10t7.5 -11q3 -5 5.5 -14t5.5 -17q5 -14 8 -20.5t-1 -16.5q-2 -5 -6 -12t-8 -12q-5 -7 -11.5 -12.5
t-12.5 -11.5q-3 -3 -5.5 -8.5t-5.5 -9.5t-6.5 -5.5t-6.5 -4.5q-1 -1 -5 -4.5t-8 -8t-7.5 -8l-3.5 -3.5q-4 0 -10.5 5t-13 12.5t-12.5 15t-9 12.5q-1 2 -6 6.5t-11.5 9t-13 8t-10.5 3.5q-11 0 -25.5 -13.5t-19.5 -24.5q-2 -5 -2 -13t-1 -18q-2 -11 -5.5 -28.5t-1.5 -32.5
q0 -3 1.5 -7.5t3 -8.5t2 -6.5t0.5 -1.5q2 -2 8.5 -2t15.5 1t19 2.5t18 1.5q6 0 25.5 1t42.5 1t44 -0.5t30 -2.5q16 -1 33 -2t31 -1h23t10 2q8 8 10 30.5t1 47t-3 46t-1 27.5t3 11.5t4 12.5q2 15 5 37t8 36q9 26 27.5 46.5t38.5 35.5q11 8 32.5 19t39.5 15z" />
    <glyph glyph-name="fi" unicode="fi" horiz-adv-x="720" 
d="M539 805q21 2 33.5 0.5t28.5 -11.5q5 -3 7.5 -4t4.5 -2.5t3.5 -4.5l4.5 -9q2 -4 2 -4.5t2 -2.5q8 -9 12 -30.5t2 -38.5q-1 -4 -3 -7.5t-4 -9.5q-2 -4 -2 -9t-2 -8q-1 -2 -4.5 -4.5t-5.5 -5.5q-3 -5 -4 -8.5t-3 -5.5q-4 -3 -10.5 -5.5t-13.5 -4.5q-10 -5 -17.5 -9.5
t-20.5 -1.5q-2 1 -3.5 4t-3.5 3q-10 2 -16.5 1t-14.5 3q-3 1 -9.5 6t-13.5 10.5t-13 11.5t-8 9q-6 11 -10.5 26t-3.5 26q0 9 4.5 16t9.5 18q4 8 6 13.5t5 10t7.5 8.5t12.5 9q10 7 16 8t25 3zM-2 450q11 6 20.5 8t16.5 2t11 -1t5 0t2.5 8t2.5 15t1.5 16t0.5 12t-1.5 5t-2.5 1
t-2 0.5t-1 4.5q0 7 3.5 16.5t3.5 17.5q0 5 -2 6.5t-2 4.5q1 5 3.5 10t3.5 10q1 6 -1.5 12.5t-1.5 11.5q1 6 3 11.5t4 12.5q2 15 5 37t8 36q3 8 9.5 15.5t11.5 15.5q2 3 3.5 8t3.5 9l3.5 3.5l3.5 3.5q3 5 13 13t18 14q11 8 32.5 19t39.5 15q13 3 32 4.5t36 -0.5q3 0 17 -6.5
t30 -14.5t30.5 -15.5t18.5 -8.5q9 -6 10 -13t-1 -13q-3 -7 -10 -15l-8 -19q-2 -31 -6 -57q-4 -22 -10 -42t-16 -25l-28 10q-7 5 -21 10.5t-19 5.5q-11 0 -25.5 -13.5t-19.5 -24.5q-1 -3 -3 -13.5t-3.5 -22.5t-2.5 -22.5t-1 -13.5t1.5 -10.5l3 -15t2 -13.5t0.5 -5
q2 -2 8.5 -2t15.5 1t19 2.5t18 1.5q4 0 24.5 1t50 2.5t62.5 3t62 2.5q16 1 39 1.5t45.5 -0.5t40 -4t22.5 -9q2 -2 4.5 -12.5t4.5 -19.5q1 -11 0 -25.5t0 -29.5q1 -18 3.5 -35.5t2.5 -29.5t-0.5 -18t-1.5 -12t-2.5 -13.5t-1.5 -22.5q-2 -26 -0.5 -54t0.5 -56
q-1 -16 -3.5 -38.5t-3.5 -44.5q-1 -5 -2.5 -9.5t-1.5 -10.5t2 -10.5t2 -10.5q-1 -4 -3.5 -8t-3.5 -9q-2 -11 -2 -15.5t-1.5 -6t-6 -1.5t-14.5 -1q-7 -2 -12.5 -3t-11.5 -1q-11 1 -22 4t-23 3q-7 0 -17 -2t-21 -1h-9t-12 0.5t-11 1t-6 1.5q-6 6 -5.5 25.5t3 42t6 43.5t3.5 30
q2 15 0.5 27t-0.5 25q1 7 3.5 13t3.5 14q2 16 2.5 28t0.5 23.5v25t1 31.5v8.5t1 9.5q-25 -2 -64.5 -2.5t-78 -1t-67 -3.5t-32.5 -11t0 -28.5t7 -40.5q1 -10 1.5 -15.5t1.5 -9.5t1.5 -8.5t2.5 -11.5q1 -5 4.5 -11.5t5.5 -12.5q2 -7 3 -18.5t1.5 -23.5t1 -21.5t0.5 -12.5
q3 -13 8.5 -27t8 -26.5t-1.5 -21.5t-21 -11t-40.5 -2.5t-42.5 -0.5q-6 0 -15 -1t-18 -1.5t-16 0t-9 2.5q-5 10 -7.5 17t-3.5 14t-1.5 15t-1.5 19q-1 6 -4 20t-6 29.5t-6 30.5t-4 23q-2 21 -3 39t-4 37q-1 5 -3.5 10.5t-3.5 13.5v5.5v9v8.5v5q-3 2 -10.5 3t-17.5 1h-22h-23
q-8 11 -8 32t-2 41q-1 18 -2.5 23t-1.5 17q0 9 1.5 15.5t15.5 16.5z" />
    <glyph glyph-name="fl" unicode="fl" horiz-adv-x="767" 
d="M18 451q13 4 28.5 5t17.5 3q1 1 2.5 8t2.5 15t1.5 16t0.5 12t-1.5 5t-2.5 1t-2 0.5t-1 4.5q0 7 3.5 16.5t3.5 17.5q0 5 -2 6.5t-2 4.5q1 5 3.5 10t3.5 10q1 6 -1.5 12.5t-1.5 11.5q1 6 3 11.5t4 12.5q2 15 5 37t8 36q3 8 9.5 15.5t11.5 15.5q2 3 3.5 8t3.5 9q1 1 5.5 4
t10 6.5t10 7t5.5 4.5q1 3 11.5 5.5t22.5 5t23.5 5.5t15.5 6q5 4 27.5 8t49 8t51 7t33.5 5q13 3 35 2.5t39 -2.5q19 -3 37.5 -5.5t38.5 -6.5q38 -3 65 -21.5t43 -30.5q14 -11 20.5 -24.5t8.5 -26.5q3 -17 4 -20t1 -3.5v-4.5t2 -23q1 -17 2 -30t1.5 -24.5t1.5 -22t1 -23.5
q1 -14 0.5 -31.5t-0.5 -37.5q1 -24 3.5 -49t3.5 -50q2 -26 2.5 -52t1.5 -52q2 -54 1 -107t2 -102q1 -9 3.5 -23t4 -28.5t1 -26.5t-4.5 -18q-3 -3 -11 -4.5t-18.5 -2t-22.5 -1.5t-21 -3q-2 0 -2.5 -2.5t-3.5 -3.5q-11 -4 -25.5 -1.5t-33.5 4.5q-6 1 -13 1.5t-14 1.5t-11.5 2
t-5.5 2q-2 1 -2.5 7t-1 14t-0.5 17v17q2 150 2.5 296t-5.5 288q-5 3 -9 8.5t-9 11t-12 9.5t-17 5q-17 2 -33.5 3.5t-37.5 -0.5q-18 -1 -36.5 -4t-33.5 -6.5t-25.5 -6.5t-13.5 -4q-14 -5 -28 -20t-19 -26q-1 -3 -3 -13.5t-3.5 -22.5t-2.5 -22.5t-1 -13.5t1.5 -10.5l3 -15
t2 -13.5t0.5 -5q2 -2 8.5 -2t15.5 1t19 2.5t18 1.5q12 1 28 2.5t24 -5.5q1 -1 2.5 -9t3 -18t3 -18.5t1.5 -9.5t1 -13t1.5 -26.5t0 -27.5t-2.5 -16q-5 -8 -21 -9t-35 -1t-35.5 -2t-21.5 -12q-4 -8 0 -28.5t7 -40.5q1 -10 1.5 -15.5t1.5 -9.5t1.5 -8.5t2.5 -11.5
q1 -5 4.5 -11.5t5.5 -12.5q2 -7 3 -18.5t1.5 -23.5t1 -21.5t0.5 -12.5q3 -13 8.5 -27t8 -26.5t-1.5 -21.5t-21 -11t-40.5 -2.5t-42.5 -0.5q-6 0 -15 -1t-18 -1.5t-16 0t-9 2.5q-5 10 -7.5 17t-3.5 14t-1.5 15t-1.5 19q-1 6 -4 20t-6 29.5t-6 30.5t-4 23q-2 21 -3 39t-4 37
q-1 5 -3.5 10.5t-3.5 13.5v5.5v9v8.5v5q-5 4 -25.5 4h-41.5q-10 0 -14.5 11t-5 28t1.5 36.5t5.5 35.5t8 26.5t8.5 8.5z" />
    <glyph glyph-name="ffi" unicode="ffi" horiz-adv-x="1198" 
d="M1021 805q21 2 33.5 0.5t28.5 -11.5q5 -3 7.5 -4t4.5 -2.5t3.5 -4.5l4.5 -9q2 -4 2 -4.5t2 -2.5q8 -9 12 -30.5t2 -38.5q-1 -4 -3 -7.5t-4 -9.5q-2 -4 -2 -9t-2 -8q-1 -2 -4.5 -4.5t-5.5 -5.5q-3 -5 -4 -8.5t-3 -5.5q-4 -3 -10.5 -5.5t-13.5 -4.5q-10 -5 -17.5 -9.5
t-20.5 -1.5q-2 1 -3.5 4t-3.5 3q-10 2 -16.5 1t-14.5 3q-3 1 -9.5 6t-13.5 10.5t-13 11.5t-8 9q-6 11 -10.5 26t-3.5 26q0 9 4.5 16t9.5 18q4 8 6 13.5t5 10t7.5 8.5t12.5 9q10 7 16 8t25 3zM793 608q-7 5 -21 10.5t-19 5.5q-11 0 -25.5 -13.5t-19.5 -24.5q-1 -3 -3 -13.5
t-3.5 -22.5t-2.5 -22.5t-1 -13.5t1.5 -10.5l3 -15t2 -13.5t0.5 -5q2 -2 8.5 -2t15.5 1t19 2.5t18 1.5q4 0 24.5 1t50 2.5t62.5 3t62 2.5q16 1 39 1.5t45.5 -0.5t40 -4t22.5 -9q2 -2 4.5 -12.5t4.5 -19.5q1 -11 0 -25.5t0 -29.5q1 -18 3.5 -35.5t2.5 -29.5t-0.5 -18t-1.5 -12
t-2.5 -13.5t-1.5 -22.5q-2 -26 -0.5 -54t0.5 -56q-1 -16 -3.5 -38.5t-3.5 -44.5q-1 -5 -2.5 -9.5t-1.5 -10.5t2 -10.5t2 -10.5q-1 -4 -3.5 -8t-3.5 -9q-2 -11 -2 -15.5t-1.5 -6t-6 -1.5t-14.5 -1q-7 -2 -12.5 -3t-11.5 -1q-11 1 -22 4t-23 3q-7 0 -17 -2t-21 -1h-9t-12 0.5
t-11 1t-6 1.5q-6 6 -5.5 25.5t3 42t6 43.5t3.5 30q2 15 0.5 27t-0.5 25q1 7 3.5 13t3.5 14q2 16 2.5 28t0.5 23.5v25t1 31.5v8.5t1 9.5q-25 -2 -64.5 -2.5t-78 -1t-67 -3.5t-32.5 -11t0 -28.5t7 -40.5q1 -10 1.5 -15.5t1.5 -9.5t1.5 -8.5t2.5 -11.5q1 -5 4.5 -11.5
t5.5 -12.5q2 -7 3 -18.5t1.5 -23.5t1 -21.5t0.5 -12.5q3 -13 8.5 -27t8 -26.5t-1.5 -21.5t-21 -11t-40.5 -2.5t-42.5 -0.5q-6 0 -15 -1t-18 -1.5t-16 0t-9 2.5q-5 10 -7.5 17t-3.5 14t-1.5 15t-1.5 19q-1 6 -4 20t-6 29.5t-6 30.5t-4 23q-2 21 -3 39t-4 37q-1 5 -3.5 10.5
t-3.5 13.5v5.5v9v8.5v5q-3 3 -13.5 3.5t-24 0.5h-28t-26.5 1h-1q-6 0 -23.5 1t-40 2t-48 1.5t-47 -0.5t-37 -4.5t-18.5 -9.5q-4 -8 0 -28.5t7 -40.5q2 -20 3 -35.5t4 -29.5q1 -5 4.5 -11.5t5.5 -12.5q4 -14 3 -28t0 -20q3 -13 8.5 -27t8 -26.5t-1.5 -21.5t-21 -11
q-8 -1 -15 1.5t-16 1.5q-4 0 -11 -1t-14.5 -2l-15 -2t-11.5 -1q-6 0 -15 -1t-18 -1.5t-16 0t-9 2.5q-4 2 -3 8t-1 12q-2 5 -6 10t-4 4q-1 2 0 12.5t0 18.5q-2 13 -8.5 35.5t-8.5 39.5q-2 21 -3 39t-4 37q-1 5 -3.5 10.5t-3.5 13.5v5.5v9v8.5v5q-5 3 -11.5 1t-14 -5t-15.5 -5
t-14 2q-3 2 -5.5 16.5t-4.5 24.5q-2 11 -2.5 22.5t-1.5 22.5q-1 15 -2 26.5t0.5 20t7 14.5t18.5 11q5 2 14.5 2t13.5 5q1 1 2.5 8t2.5 15t1.5 16t0.5 12q-1 9 -4 16t-3 15q0 7 3.5 16.5t3.5 17.5q0 5 -2 6.5t-2 4.5q1 5 3.5 10t3.5 10q1 6 -1.5 12.5t-1.5 11.5q1 6 3 11.5
t4 12.5q2 15 5 37t8 36q3 8 9.5 15.5t11.5 15.5q2 3 3.5 8t3.5 9l3.5 3.5l3.5 3.5q3 5 13 13t18 14q11 8 32.5 19t39.5 15q13 3 32 4.5t36 -0.5q14 -2 33 -11t33 -17q13 -8 18 -11t16 -16q6 -7 11.5 -14.5t12.5 -16.5q5 -6 9.5 -10t7.5 -11q3 -5 5.5 -14t5.5 -17
q5 -14 8 -20.5t-1 -16.5q-2 -5 -6 -12t-8 -12q-5 -7 -11.5 -12.5t-12.5 -11.5q-3 -3 -5.5 -8.5t-5.5 -9.5t-6.5 -5.5t-6.5 -4.5q-1 -1 -5 -4.5t-8 -8t-7.5 -8l-3.5 -3.5q-4 0 -10.5 5t-13 12.5t-12.5 15t-9 12.5q-1 2 -6 6.5t-11.5 9t-13 8t-10.5 3.5q-11 0 -25.5 -13.5
t-19.5 -24.5q-2 -5 -2 -13t-1 -18q-2 -11 -5.5 -28.5t-1.5 -32.5q0 -3 1.5 -7.5t3 -8.5t2 -6.5t0.5 -1.5q2 -2 8.5 -2t15.5 1t19 2.5t18 1.5q6 0 25.5 1t42.5 1t44 -0.5t30 -2.5q16 -1 33 -2t31 -1h23t10 2q1 1 2.5 8t2.5 15t1.5 16t0.5 12t-1.5 5t-2.5 1t-2 0.5t-1 4.5
q0 7 3.5 16.5t3.5 17.5q0 5 -2 6.5t-2 4.5q1 5 3.5 10t3.5 10q1 6 -1.5 12.5t-1.5 11.5q1 6 3 11.5t4 12.5q2 15 5 37t8 36q3 8 9.5 15.5t11.5 15.5q2 3 3.5 8t3.5 9l3.5 3.5l3.5 3.5q3 5 13 13t18 14q11 8 32.5 19t39.5 15q13 3 32 4.5t36 -0.5q3 0 17 -6.5t30 -14.5
t30.5 -15.5t18.5 -8.5q9 -6 10 -13t-1 -13q-3 -7 -10 -15l-8 -19q-2 -31 -6 -57q-4 -22 -10 -42t-16 -25z" />
    <glyph glyph-name="ffl" unicode="ffl" horiz-adv-x="1247" 
d="M1111 763q14 -11 20.5 -24.5t8.5 -26.5q3 -17 4 -20t1 -3.5v-4.5t2 -23q1 -17 2 -30t1.5 -24.5t1.5 -22t1 -23.5q1 -14 0.5 -31.5t-0.5 -37.5q1 -24 3.5 -49t3.5 -50q2 -26 2.5 -52t1.5 -52q2 -54 1 -107t2 -102q1 -9 3.5 -23t4 -28.5t1 -26.5t-4.5 -18q-3 -3 -11 -4.5
t-18.5 -2t-22.5 -1.5t-21 -3q-2 0 -2.5 -2.5t-3.5 -3.5q-11 -4 -25.5 -1.5t-33.5 4.5q-6 1 -13 1.5t-14 1.5t-11.5 2t-5.5 2q-2 1 -2.5 7t-1 14t-0.5 17v17q2 150 2.5 296t-5.5 288q-5 3 -8 8.5t-7 10.5t-10 8.5t-16 4.5q-17 2 -31.5 3t-31.5 2q-18 1 -39.5 -3.5t-40.5 -10
t-31.5 -10.5t-13.5 -5q-11 0 -25.5 -13.5t-19.5 -24.5q-1 -3 -3 -13.5t-3.5 -22.5t-2.5 -22.5t-1 -13.5t1.5 -10.5l3 -15t2 -13.5t0.5 -5q2 -2 8.5 -2t15.5 1t19 2.5t18 1.5q12 1 28 2.5t24 -5.5q1 -1 2.5 -9t3 -18t3 -18.5t1.5 -9.5t1 -13t1.5 -26.5t0 -27.5t-2.5 -16
q-5 -8 -21 -9t-35 -1t-35.5 -2t-21.5 -12q-4 -8 0 -28.5t7 -40.5q1 -10 1.5 -15.5t1.5 -9.5t1.5 -8.5t2.5 -11.5q1 -5 4.5 -11.5t5.5 -12.5q2 -7 3 -18.5t1.5 -23.5t1 -21.5t0.5 -12.5q3 -13 8.5 -27t8 -26.5t-1.5 -21.5t-21 -11t-40.5 -2.5t-42.5 -0.5q-6 0 -15 -1
t-18 -1.5t-16 0t-9 2.5q-5 10 -7.5 17t-3.5 14t-1.5 15t-1.5 19q-1 6 -4 20t-6 29.5t-6 30.5t-4 23q-2 21 -3 39t-4 37q-1 5 -3.5 10.5t-3.5 13.5v5.5v9v8.5v5q-3 3 -13.5 3.5t-24 0.5h-28t-26.5 1h-1q-6 0 -23.5 1t-40 2t-48 1.5t-47 -0.5t-37 -4.5t-18.5 -9.5
q-4 -8 0 -28.5t7 -40.5q2 -20 3 -35.5t4 -29.5q1 -5 4.5 -11.5t5.5 -12.5q4 -14 3 -28t0 -20q3 -13 8.5 -27t8 -26.5t-1.5 -21.5t-21 -11q-8 -1 -15 1.5t-16 1.5q-4 0 -11 -1t-14.5 -2l-15 -2t-11.5 -1q-6 0 -15 -1t-18 -1.5t-16 0t-9 2.5q-4 2 -3 8t-1 12q-2 5 -6 10t-4 4
q-1 2 0 12.5t0 18.5q-2 13 -8.5 35.5t-8.5 39.5q-2 21 -3 39t-4 37q-1 5 -3.5 10.5t-3.5 13.5v5.5v9v8.5v5q-5 3 -11.5 1t-14 -5t-15.5 -5t-14 2q-3 2 -5.5 16.5t-4.5 24.5q-2 11 -2.5 22.5t-1.5 22.5q-1 15 -2 26.5t0.5 20t7 14.5t18.5 11q5 2 14.5 2t13.5 5q1 1 2.5 8
t2.5 15t1.5 16t0.5 12q-1 9 -4 16t-3 15q0 7 3.5 16.5t3.5 17.5q0 5 -2 6.5t-2 4.5q1 5 3.5 10t3.5 10q1 6 -1.5 12.5t-1.5 11.5q1 6 3 11.5t4 12.5q2 15 5 37t8 36q3 8 9.5 15.5t11.5 15.5q2 3 3.5 8t3.5 9l3.5 3.5l3.5 3.5q3 5 13 13t18 14q11 8 32.5 19t39.5 15
q13 3 32 4.5t36 -0.5q14 -2 33 -11t33 -17q13 -8 18 -11t16 -16q6 -7 11.5 -14.5t12.5 -16.5q5 -6 9.5 -10t7.5 -11q3 -5 5.5 -14t5.5 -17q5 -14 8 -20.5t-1 -16.5q-2 -5 -6 -12t-8 -12q-5 -7 -11.5 -12.5t-12.5 -11.5q-3 -3 -5.5 -8.5t-5.5 -9.5t-6.5 -5.5t-6.5 -4.5
q-1 -1 -5 -4.5t-8 -8t-7.5 -8l-3.5 -3.5q-4 0 -10.5 5t-13 12.5t-12.5 15t-9 12.5q-1 2 -6 6.5t-11.5 9t-13 8t-10.5 3.5q-11 0 -25.5 -13.5t-19.5 -24.5q-2 -5 -2 -13t-1 -18q-2 -11 -5.5 -28.5t-1.5 -32.5q0 -3 1.5 -7.5t3 -8.5t2 -6.5t0.5 -1.5q2 -2 8.5 -2t15.5 1
t19 2.5t18 1.5q6 0 25.5 1t42.5 1t44 -0.5t30 -2.5q16 -1 33 -2t31 -1h23t10 2q1 1 2.5 8t2.5 15t1.5 16t0.5 12t-1.5 5t-2.5 1t-2 0.5t-1 4.5q0 7 3.5 16.5t3.5 17.5q0 5 -2 6.5t-2 4.5q1 5 3.5 10t3.5 10q1 6 -1.5 12.5t-1.5 11.5q1 6 3 11.5t4 12.5q2 15 5 37t8 36
q3 8 9.5 15.5t11.5 15.5q2 3 3.5 8t3.5 9l3.5 3.5l3.5 3.5q3 5 16 11t21 12q18 14 49 25.5t66.5 19t71.5 10t64 -1.5q9 -2 30 -5t44 -6.5t44 -6.5t31 -5q19 -2 31 -8t20 -13.5t14 -16t14 -14.5z" />
    <glyph glyph-name="s_t" unicode="st" horiz-adv-x="1005" 
d="M619 845q3 2 21.5 3.5t41 2t42.5 -0.5t26 -5q5 -4 8.5 -15.5t4.5 -22.5q2 -19 0 -46t0 -50q2 -11 1.5 -18t2.5 -10q4 -4 13.5 -5t21 -1t22 1.5t18.5 1.5q11 0 24 1t25.5 1.5t22 0t14.5 -2.5q-1 1 2.5 -5.5t4.5 -8.5q0 1 -2 -2t-1 -5q0 -1 3 -2q2 -1 4 -1q3 -18 1 -37.5
t-5 -38.5t-5.5 -27t-21.5 -10q-9 -2 -21.5 -1.5t-25.5 1t-25 0t-21 -3.5q-2 0 -8 -1t-13 -1.5t-13 -2t-7 -2.5q-2 -2 -3.5 -14t-2.5 -27t-1 -28.5v-19.5q0 -12 0.5 -29t1.5 -35t2.5 -35.5t2.5 -31.5q2 -25 2.5 -56.5t0 -65.5l-1 -68t-1.5 -64q-1 -11 -1.5 -19.5t-2.5 -18.5
q-2 -13 -3 -22.5t-4 -11.5q-2 -2 -15 -0.5t-19 0.5q-9 -1 -16.5 -2.5t-14.5 -1.5h-16.5t-20.5 0.5t-18.5 1.5t-9.5 2q-2 8 -5 15q-2 6 -4 11.5t-2 7.5q-1 11 1 23t3 22q2 37 0 76t0 79q0 12 2 23.5t1 24.5q0 3 -3 15.5t-4 21.5q-1 14 1.5 31.5t2.5 37.5v28q0 15 -0.5 27.5
t-3.5 27.5q0 2 -2 4t-1 6v10.5v15.5t-1 14.5t-2 7.5q-5 4 -24 6.5t-41.5 4t-43.5 1.5t-29 -1q-2 -1 -15 -0.5t-30 0.5h-25.5t-28.5 1t-26 2.5t-18 4.5q-2 1 -7 3t-11 4t-11.5 4t-6.5 2q-11 2 -27.5 2.5t-27.5 -2.5q-2 0 -12.5 -5.5t-14.5 -10.5q-11 -10 -13 -22.5t6 -26.5
l3 -10q2 -2 5.5 -1.5t5.5 -1.5q9 -8 18 -11.5t16 -8.5q5 -2 7.5 -6t6.5 -6q2 -2 5 -2t5 -2q2 -1 3.5 -3.5t3.5 -3.5q9 -5 17.5 -8t16.5 -8q22 -12 41.5 -26.5t38.5 -28.5q17 -14 32 -25.5t27 -31.5q5 -9 7 -16.5t6 -19.5l8 -16t7 -19q3 -17 2.5 -38.5t-2.5 -37.5
q-1 -4 -3 -8.5t-4 -11.5q-6 -18 -14.5 -35t-20.5 -33l-3.5 -3.5l-3.5 -3.5q-2 -4 -8.5 -9.5t-12.5 -10.5q-11 -8 -28 -15t-37 -14q-5 -2 -11.5 -5.5t-9.5 -4.5q-11 -2 -26 -1.5t-26 -1.5q-6 -2 -11 -4t-10 -3q-8 -1 -20.5 -1.5t-23.5 1.5q-2 0 -2 3t-2 4q-8 3 -22.5 2
t-22.5 1q-2 1 -5.5 3t-8.5 4q-17 5 -36.5 14.5t-35.5 17.5q-3 2 -4 2t-3 2q-5 4 -18 10t-21 13q-1 1 -1.5 3.5t-1.5 2.5q-4 2 -11.5 5t-9.5 8q-6 13 -11 22t4 25l7 5q1 2 0 4t0 3t3.5 0t3.5 0q2 3 1.5 5.5t1.5 4.5q3 3 8 9t9 11q11 13 26 28.5t30 16.5t21.5 -5.5t20.5 -17.5
q6 -5 17.5 -13t19.5 -12q9 -5 21.5 -11t24.5 -9q26 -8 49 -6.5t40 15.5q8 7 14 13t7 17q1 15 -7 29t-20.5 26.5t-26.5 23t-25 16.5q-8 5 -15.5 8.5t-15.5 7.5q-3 2 -6 5t-8 5q-4 2 -9 3.5t-9 3.5q-2 2 -5.5 4.5t-8.5 5.5q-6 3 -12 5t-12 7q-1 2 -1 4t-2 3q-2 2 -5 2t-5 2
q-2 1 -2 3.5t-2 3.5q-2 2 -8 2.5t-9 2.5l-3.5 3.5l-3.5 3.5q-23 14 -41 38.5t-25 56.5q-2 6 -2 13t-2 13q-6 33 7 70q8 20 27.5 43t39.5 35q8 6 20.5 10.5t23.5 9.5q13 5 25 8.5t20 5.5q22 5 39 5q14 1 36 0t44 -5q16 -2 33 -2t34 -5q23 0 52 -0.5t56.5 -1t49.5 -0.5t32 2
q8 1 20.5 3.5t13.5 3.5l1 8.5t1.5 19t1 20.5t0.5 14q-1 8 -3.5 18t-3.5 19q-1 11 -1.5 22.5t0 22t3.5 19t8 12.5z" />
    <glyph glyph-name="tt" unicode="tt" horiz-adv-x="960" 
d="M595 850q3 2 17.5 3t32.5 0.5t34 -2t22 -5.5q5 -4 11 -17t7 -24q2 -19 0 -46t0 -50q2 -11 1.5 -18t2.5 -10q4 -4 13.5 -5t21 -1t22 1.5t18.5 1.5q11 0 24 1t25.5 1.5t22 0t14.5 -2.5q-1 1 2.5 -5.5t4.5 -8.5q0 1 -2 -2t-1 -5q0 -1 3 -2q2 -1 4 -1q3 -18 1 -37.5t-5 -38.5
t-5.5 -27t-21.5 -10q-9 -2 -21.5 -1.5t-25.5 1t-25 0t-21 -3.5q-2 0 -8 -1t-13 -1.5t-13 -2t-7 -2.5q-2 -2 -3.5 -14t-2.5 -27t-1 -28.5v-19.5q0 -12 0.5 -29t1.5 -35t2.5 -35.5t2.5 -31.5q2 -25 2.5 -56.5t0 -65.5l-1 -68t-1.5 -64q-1 -11 -1.5 -19.5t-2.5 -18.5
q-2 -13 -3 -22.5t-4 -11.5q-2 -2 -15 -0.5t-19 0.5q-9 -1 -16.5 -2.5t-14.5 -1.5q-21 0 -32 0.5t-18 7.5t-11 24.5t-11 50.5q-8 36 -5 75.5t5 79.5q0 25 -1 41t-3 44q-1 14 1.5 35t2.5 62q0 15 -0.5 27.5t-3.5 27.5q0 2 -2 4t-1 6v10.5v15.5t-1 14.5t-2 7.5q-5 4 -6.5 10
t-9 12t-25 10.5t-53.5 3.5q-11 0 -15.5 -1.5t-8.5 -2t-10 -1t-21 1.5q-1 0 -6.5 0.5t-12 1t-12 1t-6.5 0.5q-5 -1 -10 -1.5t-9 -2.5q-2 0 -8 -1t-13 -1.5t-13 -2t-7 -2.5q-2 -2 -3.5 -14t-2.5 -27t-1 -28.5v-19.5q0 -12 0.5 -29t1.5 -35t2.5 -35.5t2.5 -31.5
q2 -25 2.5 -56.5t0 -65.5l-1 -68t-1.5 -64q-1 -11 -1.5 -19.5t-2.5 -18.5q-2 -13 -3 -22.5t-4 -11.5q-2 -2 -15 -0.5t-19 0.5q-9 -1 -16.5 -2.5t-14.5 -1.5h-16.5t-20.5 0.5t-18.5 1.5t-9.5 2q-2 8 -5 15q-2 6 -4 11.5t-2 7.5q-1 11 1 23t3 22q2 37 0 76t0 79q0 12 2 23.5
t1 24.5q0 3 -3 15.5t-4 21.5q-1 14 1.5 31.5t2.5 37.5v28q0 15 -0.5 27.5t-3.5 27.5q0 2 -2 4t-1 6v10.5v15.5t-1 14.5t-2 7.5q-5 4 -19 4.5t-31 -1t-33 -3.5l-24 -3q-2 -1 -7 0t-7 0q-2 -2 -0.5 -4t-2.5 -3q-16 -4 -22.5 0t-11.5 17q-2 3 -0.5 4t0.5 6q-1 2 -4 4t-3 3
q-2 8 -1 22t1 26q-1 16 -3.5 30.5t-0.5 21.5q2 5 13.5 11.5t21.5 8.5q22 5 46 2.5t50 1.5q8 1 20.5 3.5t13.5 3.5l1 8.5t1.5 19t1 20.5t0.5 14q-1 8 -3.5 18t-3.5 19q-1 11 -1.5 22.5t0 22t3.5 19t8 12.5q3 2 21.5 3.5t41 2t42.5 -0.5t26 -5q5 -4 8.5 -15.5t4.5 -22.5
q2 -19 0 -46t0 -50q2 -11 1.5 -18t2.5 -10q4 -4 13.5 -5t20 -1t21.5 1.5t19 1.5h1q17 1 38 2.5t35 -0.5q29 2 55.5 8t46.5 19q1 1 2 4t1 11q-1 8 -3.5 18t-3.5 19q-1 11 1.5 23.5t7 24.5t10.5 21.5t11 13.5z" />
    <glyph glyph-name="th" unicode="th" horiz-adv-x="1103" 
d="M171 851q3 2 21.5 3.5t41 2t42.5 -0.5t26 -5q5 -4 8.5 -15.5t4.5 -22.5q2 -19 0 -46t0 -50q2 -11 1.5 -18t2.5 -10q4 -4 13.5 -5t21 -1t22 1.5t18.5 1.5q9 0 25 1.5t33.5 3t33 2t24.5 0.5q-1 31 -2.5 61t-4.5 59q-2 8 -4 16.5t0 14.5q3 8 11.5 13.5t19 9t21 5l17.5 2.5
q0 1 1 2q0 2 2 2q4 0 15 1t23 1t22 -0.5t13 -1.5q4 -2 5.5 -16.5t4.5 -28.5q6 -34 9 -71.5t5 -69.5q1 -23 1 -47t2 -52q1 -10 4 -22t3 -26q0 -15 -1 -25.5t0 -16t6 -4.5t19 8q10 5 16 8.5t18 8.5l24 10l11 7q5 2 10 0t10 0q3 1 4.5 3.5t6.5 3.5q20 3 41.5 2.5t37.5 -2.5
q4 -1 8 -3t9 -4q6 -2 11 -1.5t10 -1.5q2 -1 4.5 -3t5.5 -4q8 -4 18.5 -11t19.5 -17q1 -1 -0.5 -3t0.5 -4q1 -1 3 0.5t3 -0.5q2 -1 2 -3t2 -3q3 -4 12 -13.5t12 -14.5t5 -12.5t5 -14.5q15 -32 24 -79q2 -12 3.5 -22t3.5 -23q0 1 3 -0.5t1 -3.5q-7 -5 -3 -8t6 -9
q2 -8 2.5 -22.5t1.5 -25.5q1 -26 1.5 -58.5t-1.5 -61.5q-1 -4 0 -8.5t0 -8.5q-1 -3 -4 -5t-3 -6q-1 -5 1 -10t2 -10t-1 -10t-2 -11q-2 -9 -2 -17.5t-5 -13.5q-8 -8 -27 -8.5t-42 -1.5h-20t-22 0.5t-19 2t-11 4.5t-3.5 10.5t0.5 16.5t2 17.5t1 13.5q0 2 2 3.5t1 3.5q0 1 -2 3
t-1 4q2 18 6 36.5t4 35.5q0 8 -1.5 15.5t-1.5 12.5q0 16 2 38.5t1 33.5q-2 26 -7.5 47.5t-12.5 34.5q-5 9 -18 25t-27 20q-8 2 -19 1.5t-22.5 -2.5t-21.5 -4.5t-16 -4.5q-40 -17 -69 -52q-2 -2 -1.5 -5t-1.5 -5t-7.5 -8t-6.5 -9q-5 -21 -2.5 -43.5t2.5 -42.5q0 -18 0.5 -39
t-0.5 -44q0 -4 -2 -7.5t-1 -9.5q0 -4 1.5 -8t1.5 -9q0 -4 -3.5 -7t-3.5 -7q0 -5 3.5 -8t3.5 -6q0 -1 -3 -4.5t-4 -8.5q-1 -6 -1 -14.5t-0.5 -16.5t-1.5 -14.5t-4 -9.5q-4 -4 -20 -4.5t-35 -2.5q-14 -2 -29.5 -3.5t-28.5 -0.5q-8 1 -24.5 5t-20.5 9q-5 8 -3 30t3 42
q2 23 0.5 46t-0.5 47q1 20 3.5 41t3.5 42q3 69 1 143.5t-4 151.5q-12 -1 -33 -0.5t-42.5 1t-40.5 0t-27 -3.5q-2 0 -8 -1t-13 -1.5t-13 -2t-7 -2.5q-2 -2 -3.5 -14t-2.5 -27t-1 -28.5v-19.5q0 -12 0.5 -29t1.5 -35t2.5 -35.5t2.5 -31.5q2 -25 2.5 -56.5t0 -65.5l-1 -68
t-1.5 -64q-1 -11 -1.5 -19.5t-2.5 -18.5q-2 -13 -3 -22.5t-4 -11.5q-2 -2 -15 -0.5t-19 0.5q-9 -1 -16.5 -2.5t-14.5 -1.5h-16.5t-20.5 0.5t-18.5 1.5t-9.5 2q-2 8 -5 15q-2 6 -4 11.5t-2 7.5q-1 11 1 23t3 22q2 37 0 76t0 79q0 12 2 23.5t1 24.5q0 3 -3 15.5t-4 21.5
q-1 14 1.5 31.5t2.5 37.5v28q0 15 -0.5 27.5t-3.5 27.5q0 2 -2 4t-1 6v10.5v15.5t-1 14.5t-2 7.5q-5 4 -19 4.5t-31 -1t-33 -3.5l-24 -3q-2 -1 -7 0t-7 0q-2 -2 -0.5 -4t-2.5 -3q-16 -4 -22.5 0t-11.5 17q-2 3 -0.5 4t0.5 6q-1 2 -4 4t-3 3q-2 8 -1 22t1 26q-1 16 -3.5 30.5
t-0.5 21.5q2 5 13.5 11.5t21.5 8.5q22 5 46 2.5t50 1.5q8 1 20.5 3.5t13.5 3.5l1 8.5t1.5 19t1 20.5t0.5 14q-1 8 -3.5 18t-3.5 19q-1 11 -1.5 22.5t0 22t3.5 19t8 12.5z" />
    <glyph glyph-name="it" unicode="it" horiz-adv-x="803" 
d="M108 823q21 2 33.5 0.5t28.5 -11.5q5 -3 7.5 -4t4.5 -2.5t3.5 -4.5l4.5 -9q2 -4 2 -4.5t2 -2.5q8 -9 12 -30.5t2 -38.5q-1 -4 -3 -7.5t-4 -9.5q-2 -4 -2 -9t-2 -8q-1 -2 -4.5 -4.5t-5.5 -5.5q-3 -5 -4 -8.5t-3 -5.5q-4 -3 -10.5 -5.5t-13.5 -4.5q-10 -5 -17.5 -9.5
t-20.5 -1.5q-2 1 -3.5 4t-3.5 3q-10 2 -16.5 1t-14.5 3q-3 1 -9.5 6t-13.5 10.5t-13 11.5t-8 9q-6 11 -10.5 26t-3.5 26q0 9 4.5 16t9.5 18q4 8 6 13.5t5 10t7.5 8.5t12.5 9q10 7 16 8t25 3zM419 851q3 2 21.5 3.5t41 2t42.5 -0.5t26 -5q5 -4 8.5 -15.5t4.5 -22.5
q1 -9 1 -38.5t-1 -63.5t-1 -64.5t1 -42.5q2 -11 1.5 -18t2.5 -10q4 -4 13.5 -5t21 -1t22 1.5t18.5 1.5q11 0 24 1t25.5 1.5t22 0t14.5 -2.5q-1 1 2.5 -5.5t4.5 -8.5q0 1 -2 -2t-1 -5q0 -1 3 -2q2 -1 4 -1q3 -18 1 -37.5t-5 -38.5t-5.5 -27t-21.5 -10q-9 -2 -21.5 -1.5
t-25.5 1t-25 0t-21 -3.5q-2 0 -8 -1t-13 -1.5t-13 -2t-7 -2.5q-2 -2 -3.5 -14t-2.5 -27t-1 -28.5v-19.5q0 -17 2.5 -49.5t4.5 -71t1.5 -78.5t-5.5 -73q-1 -11 0.5 -19.5t-0.5 -18.5q-2 -13 -3 -22.5t-4 -11.5q-2 -2 -15 -0.5t-19 0.5q-9 -1 -16.5 -2.5t-14.5 -1.5h-16.5
t-20.5 0.5t-18.5 1.5t-9.5 2q-2 8 -5 15q-2 6 -4 11.5t-2 7.5q-1 11 1 23t3 22q2 37 0 76t0 79q0 19 1 33.5t1 28.5t-1 28.5t-5 33.5q0 2 -2 4t-1 6v10.5v15.5t-1 14.5t-2 7.5q-4 3 -29 2.5t-57.5 -3t-65.5 -5.5t-52 -5q1 -6 1.5 -11t0.5 -10q1 -23 -2 -50t-4 -56
q-2 -26 -0.5 -54t0.5 -56q-1 -16 -3.5 -38.5t-3.5 -44.5q-1 -5 -2.5 -9.5t-1.5 -10.5t2 -10.5t2 -10.5q-1 -4 -3.5 -8t-3.5 -9q-2 -11 -2 -15.5t-1.5 -6t-6 -1.5t-14.5 -1q-7 -2 -12.5 -3t-11.5 -1q-11 1 -22 4t-23 3q-7 0 -17 -2t-21 -1h-9t-12 0.5t-11 1t-6 1.5
q-6 6 -5.5 25.5t3 42t6 43.5t3.5 30q2 15 0.5 27t-0.5 25q1 7 3.5 13t3.5 14q5 32 3.5 71.5t0.5 76.5q1 17 3 38t3 44q2 25 2 49.5t5 33.5q4 5 13 8l15 5q4 1 18.5 1.5t32.5 0.5h36h29q20 1 46.5 2.5t52.5 2.5t47.5 2t31.5 3q8 1 20.5 3.5t13.5 3.5l0.5 12.5t1 31t1 40.5
t1 41.5t0.5 33v16.5q-1 8 -3.5 18t-3.5 19q-1 11 -1.5 22.5t0 22t3.5 19t8 12.5z" />
    <glyph glyph-name="itt" unicode="itt" horiz-adv-x="1129" 
d="M128 823q21 2 33.5 0.5t28.5 -11.5q5 -3 7.5 -4t4.5 -2.5t3.5 -4.5l4.5 -9q2 -4 2 -4.5t2 -2.5q8 -9 12 -30.5t2 -38.5q-1 -4 -3 -7.5t-4 -9.5q-2 -4 -2 -9t-2 -8q-1 -2 -4.5 -4.5t-5.5 -5.5q-3 -5 -4 -8.5t-3 -5.5q-4 -3 -10.5 -5.5t-13.5 -4.5q-10 -5 -17.5 -9.5
t-20.5 -1.5q-2 1 -3.5 4t-3.5 3q-10 2 -16.5 1t-14.5 3q-3 1 -9.5 6t-13.5 10.5t-13 11.5t-8 9q-6 11 -10.5 26t-3.5 26q0 9 4.5 16t9.5 18q4 8 6 13.5t5 10t7.5 8.5t12.5 9q10 7 16 8t25 3zM803 857q3 2 17.5 3t32.5 0.5t34 -2t22 -5.5q5 -4 11 -17t7 -24q1 -9 1 -36.5
t-1 -59t-1 -60t1 -40.5q2 -11 1.5 -18t2.5 -10q4 -4 13.5 -5t21 -1t22 1.5t18.5 1.5q11 0 24 1t25.5 1.5t22 0t14.5 -2.5q-1 1 2.5 -5.5t4.5 -8.5q0 1 -2 -2t-1 -5q0 -1 3 -2q2 -1 4 -1q3 -18 1 -37.5t-5 -38.5t-5.5 -27t-21.5 -10q-9 -2 -21.5 -1.5t-25.5 1t-25 0t-21 -3.5
q-2 0 -8 -1t-13 -1.5t-13 -2t-7 -2.5q-2 -2 -3.5 -14t-2.5 -27t-1 -28.5v-19.5q0 -27 3 -62t5.5 -72.5t3 -76.5t-4.5 -74q-1 -11 -1.5 -19.5t-2.5 -18.5q-2 -13 -3 -22.5t-4 -11.5q-2 -2 -15 -0.5t-19 0.5q-9 -1 -16.5 -2.5t-14.5 -1.5q-21 0 -32 0.5t-18 7.5t-11 24.5
t-11 50.5q-8 36 -5 75.5t5 79.5q-2 21 -1.5 38.5t1 33.5t0 32t-3.5 33q0 2 -2 4t-1 6v10.5v15.5t-1 14.5t-2 7.5q-5 4 -6.5 10t-9 12t-25 10.5t-53.5 3.5q-11 0 -15.5 -1.5t-8.5 -2t-10 -1t-21 1.5q-1 0 -6.5 0.5t-12 1t-12 1t-6.5 0.5q-5 -1 -10 -1.5t-9 -2.5q-2 0 -8 -1
t-13 -1.5t-13 -2t-7 -2.5q-2 -2 -3.5 -14t-2.5 -27t-1 -28.5v-19.5q0 -27 3 -62t5.5 -72.5t3 -76.5t-4.5 -74q-1 -11 -1.5 -19.5t-2.5 -18.5q-2 -13 -3 -22.5t-4 -11.5q-2 -2 -15 -0.5t-19 0.5q-9 -1 -16.5 -2.5t-14.5 -1.5h-16.5t-20.5 0.5t-18.5 1.5t-9.5 2q-2 8 -5 15
q-2 6 -4 11.5t-2 7.5q-1 11 1 23t3 22q2 37 0 76t0 79v54q0 36 -0.5 52t-3.5 31q0 2 -2 4t-1 6v10.5v15.5t-1 14.5t-2 7.5q-5 4 -19 4.5t-31 -1t-33 -3.5l-24 -3q-2 -1 -7 0t-7 0t-9.5 -2t-16.5 -3q2 -13 3.5 -24.5t1.5 -19.5q1 -23 -2 -50t-4 -56q-2 -26 -0.5 -54t0.5 -56
q-1 -16 -3.5 -38.5t-3.5 -44.5q-1 -5 -2.5 -9.5t-1.5 -10.5t2 -10.5t2 -10.5q-1 -4 -3.5 -8t-3.5 -9q-2 -11 -2 -15.5t-1.5 -6t-6 -1.5t-14.5 -1q-7 -2 -12.5 -3t-11.5 -1q-11 1 -22 4t-23 3q-7 0 -17 -2t-21 -1h-9t-12 0.5t-11 1t-6 1.5q-6 6 -5.5 25.5t3 42t6 43.5t3.5 30
q2 15 0.5 27t-0.5 25q1 7 3.5 13t3.5 14q5 32 3.5 71.5t0.5 76.5q1 17 3 38t3 44q2 25 2 49.5t5 33.5q4 5 13 8l15 5q3 1 17.5 2.5t35 3.5t44.5 3.5t46 1.5q20 4 44.5 5.5t47.5 5.5q8 1 20 8.5t13 8.5l1 8.5t1.5 19t1 20.5t0.5 14l-7 137q-1 11 -1.5 22.5t0 22t3.5 19
t8 12.5q3 2 21.5 3.5t41 2t42.5 -0.5t26 -5q5 -4 8.5 -15.5t4.5 -22.5q1 -9 1 -36.5t-1 -59t-1 -60t1 -40.5q2 -11 1.5 -18t2.5 -10q4 -4 13.5 -5t20 -1t21.5 1.5t19 1.5h1q17 1 38 2.5t35 -0.5q29 2 55.5 8t46.5 19q1 1 2 4t1 11l-7 137q-1 11 1.5 23.5t7 24.5t10.5 21.5
t11 13.5z" />
    <glyph glyph-name="ti" unicode="ti" horiz-adv-x="785" 
d="M585 842q21 2 33.5 0.5t28.5 -11.5q5 -3 7.5 -4t4.5 -2.5t3.5 -4.5l4.5 -9q2 -4 2 -4.5t2 -2.5q8 -9 12 -30.5t2 -38.5q-1 -4 -3 -7.5t-4 -9.5q-2 -4 -2 -9t-2 -8q-1 -2 -4.5 -4.5t-5.5 -5.5q-3 -5 -4 -8.5t-3 -5.5q-4 -3 -10.5 -5.5t-13.5 -4.5q-10 -5 -17.5 -9.5
t-20.5 -1.5q-2 1 -3.5 4t-3.5 3q-10 2 -16.5 1t-14.5 3q-3 1 -9.5 6t-13.5 10.5t-13 11.5t-8 9q-6 11 -10.5 26t-3.5 26q0 9 4.5 16t9.5 18q4 8 6 13.5t5 10t7.5 8.5t12.5 9q10 7 16 8t25 3zM171 851q3 2 21.5 3.5t41 2t42.5 -0.5t26 -5q5 -4 8.5 -15.5t4.5 -22.5
q1 -9 1 -37.5t-1 -61t-1 -62t1 -41.5q2 -11 1.5 -18t2.5 -10q4 -4 14 -6.5t22 -3t23 -0.5h19h24.5t20 -1t21 -1.5t27.5 -1.5q22 -2 47 -5.5t46.5 -6.5t35 -6t13.5 -4q14 -2 25.5 -5t16.5 -8q2 -2 5.5 -15.5t5.5 -22.5q1 -11 0 -25.5t0 -29.5q1 -18 3.5 -35.5t2.5 -29.5
q1 -23 -2 -50t-4 -56q-2 -26 -0.5 -54t0.5 -56q-1 -16 -3.5 -38.5t-3.5 -44.5q-1 -5 -2.5 -9.5t-1.5 -10.5t2 -10.5t2 -10.5q-1 -4 -3.5 -8t-3.5 -9q-2 -11 -2 -15.5t-1.5 -6t-6 -1.5t-14.5 -1q-7 -2 -12.5 -3t-11.5 -1q-11 1 -22 4t-23 3q-7 0 -17 -2t-21 -1h-9t-12 0.5
t-11 1t-6 1.5q-6 6 -5.5 25.5t3 42t6 43.5t3.5 30q2 15 0.5 27t-0.5 25q1 7 3.5 13t3.5 14q5 32 3.5 71.5t0.5 76.5q1 16 3 37t3 43q-17 -2 -36 -2t-30 -1q-9 -2 -21.5 -1.5t-25.5 1t-25 0t-21 -3.5q-2 0 -8 -1t-13 -1.5t-13 -2t-7 -2.5q-2 -2 -3.5 -14t-2.5 -27t-1 -28.5
v-19.5q0 -23 3 -57t5.5 -72t3 -77t-4.5 -73q-1 -11 -1.5 -19.5t-2.5 -18.5q-2 -13 -3 -22.5t-4 -11.5q-2 -2 -15 -0.5t-19 0.5q-9 -1 -16.5 -2.5t-14.5 -1.5h-16.5t-20.5 0.5t-18.5 1.5t-9.5 2q-2 8 -5 15q-2 6 -4 11.5t-2 7.5q-1 11 1 23t3 22q2 37 0 76t0 79q0 17 1 33.5
t-1 42.5q0 15 -0.5 27.5t-3.5 27.5q0 2 -2 4t-1 6v10.5v15.5t-1 14.5t-2 7.5q-5 4 -19 4.5t-31 -1t-33 -3.5l-24 -3q-2 -1 -7 0t-7 0q-2 -2 -0.5 -4t-2.5 -3q-16 -4 -22.5 0t-11.5 17q-2 3 -0.5 4t0.5 6q-1 2 -4 4t-3 3q-2 8 -1 22t1 26q-1 16 -3.5 30.5t-0.5 21.5
q2 5 13.5 11.5t21.5 8.5q22 5 46 2.5t50 1.5q8 1 20.5 3.5t13.5 3.5l0.5 12t1 30t1 39t1 39.5t0.5 31.5v16q-1 8 -3.5 18t-3.5 19q-1 11 -1.5 22.5t0 22t3.5 19t8 12.5z" />
    <glyph glyph-name="iti" unicode="iti" horiz-adv-x="941" 
d="M772 842q21 2 33.5 0.5t28.5 -11.5q5 -3 7.5 -4t4.5 -2.5t3.5 -4.5l4.5 -9q2 -4 2 -4.5t2 -2.5q8 -9 12 -30.5t2 -38.5q-1 -4 -3 -7.5t-4 -9.5q-2 -4 -2 -9t-2 -8q-1 -2 -4.5 -4.5t-5.5 -5.5q-3 -5 -4 -8.5t-3 -5.5q-4 -3 -10.5 -5.5t-13.5 -4.5q-10 -5 -17.5 -9.5
t-20.5 -1.5q-2 1 -3.5 4t-3.5 3q-10 2 -16.5 1t-14.5 3q-3 1 -9.5 6t-13.5 10.5t-13 11.5t-8 9q-6 11 -10.5 26t-3.5 26q0 9 4.5 16t9.5 18q4 8 6 13.5t5 10t7.5 8.5t12.5 9q10 7 16 8t25 3zM72 839q21 5 33.5 3.5t28.5 -11.5q10 -6 12.5 -6.5t8.5 -13.5q3 -4 3 -4.5t2 -2.5
q9 -10 14.5 -32.5t3.5 -40.5q0 -5 -2.5 -8.5t-4.5 -9.5q-1 -5 -1 -10t-2 -9q-10 -29 -39 -38q-10 -5 -17 -10.5t-20 -2.5q-2 1 -4 4t-4 3q-10 2 -16.5 0.5t-14.5 1.5q-3 2 -10 6.5t-14.5 10.5t-14 11.5t-8.5 9.5q-16 24 -15.5 46t11.5 45l5 15t4.5 10.5t7 9t12.5 10.5
q10 8 16 9t25 4zM263 415q-5 -1 -9.5 -1.5t-9.5 -0.5q-7 -2 -10 -1q-2 0 -3 1h-16.5t-14.5 -1q0 -3 0.5 -9t1 -12.5t0.5 -12.5v-8q2 -25 0.5 -53t-0.5 -60q-1 -28 1.5 -58t3.5 -59q0 -8 -0.5 -11t-1 -5t-1 -6.5t-0.5 -16.5q-1 -5 -2.5 -10t-0.5 -12q0 -6 2 -10.5t3 -11.5
q-1 -4 -3.5 -8.5t-2.5 -9.5q-2 -12 -1.5 -17t-1 -6.5t-6 -1.5t-14.5 -3q-7 -2 -12.5 -3t-11.5 -2q-11 0 -22 3.5t-23 2.5q-6 0 -17.5 1t-23.5 2.5t-22 4.5t-14 7q-6 6 -7 16t0.5 21.5t4 23.5t2.5 21q1 16 -1 28.5t-2 26.5q1 8 3 15t3 15q2 33 -1.5 75.5t-2.5 81.5
q0 22 -2 53t-1 60t8.5 51t26.5 27q4 2 18.5 3.5t32.5 2t36 1.5t29 1l26 3q9 4 17 6q22 5 46 2.5t50 1.5q8 1 20.5 3.5t13.5 3.5l0.5 12t1 30t1 39t1 39.5t0.5 31.5v16q-1 8 -3.5 18t-3.5 19q-1 11 -1.5 22.5t0 22t3.5 19t8 12.5q3 2 21.5 3.5t41 2t42.5 -0.5t26 -5
q5 -4 8.5 -15.5t4.5 -22.5q1 -9 1 -37.5t-1 -61t-1 -62t1 -41.5q2 -11 1.5 -18t2.5 -10q4 -4 14 -6.5t22 -3t23 -0.5h19h24.5t20 -1t21 -1.5t27.5 -1.5q22 -2 47 -5.5t46.5 -6.5t35 -6t13.5 -4q14 -2 25.5 -5t16.5 -8q2 -2 5.5 -15.5t5.5 -22.5q1 -11 0 -25.5t0 -29.5
q1 -18 3.5 -35.5t2.5 -29.5q1 -23 -2 -50t-4 -56q-2 -26 -0.5 -54t0.5 -56q-1 -16 -3.5 -38.5t-3.5 -44.5q-1 -5 -2.5 -9.5t-1.5 -10.5t2 -10.5t2 -10.5q-1 -4 -3.5 -8t-3.5 -9q-2 -11 -2 -15.5t-1.5 -6t-6 -1.5t-14.5 -1q-7 -2 -12.5 -3t-11.5 -1q-11 1 -22 4t-23 3
q-7 0 -17 -2t-21 -1h-9t-12 0.5t-11 1t-6 1.5q-6 6 -5.5 25.5t3 42t6 43.5t3.5 30q2 15 0.5 27t-0.5 25q1 7 3.5 13t3.5 14q5 32 3.5 71.5t0.5 76.5q1 16 3 37t3 43q-17 -2 -36 -2t-30 -1q-9 -2 -21.5 -1.5t-25.5 1t-25 0t-21 -3.5q-2 0 -8 -1t-13 -1.5t-13 -2t-7 -2.5
q-2 -2 -3.5 -14t-2.5 -27t-1 -28.5v-19.5q0 -23 3 -57t5.5 -72t3 -77t-4.5 -73q-1 -11 -1.5 -19.5t-2.5 -18.5q-2 -13 -3 -22.5t-4 -11.5q-2 -2 -15 -0.5t-19 0.5q-9 -1 -16.5 -2.5t-14.5 -1.5h-16.5t-20.5 0.5t-18.5 1.5t-9.5 2q-2 8 -5 15q-2 6 -4 11.5t-2 7.5q-1 11 1 23
t3 22q2 37 0 76t0 79q0 17 1 33.5t-1 42.5q0 15 -0.5 27.5t-3.5 27.5q0 2 -2 4t-1 6v10.5v15.5t-1 14.5t-2 7.5q-4 3 -14.5 4t-24 0.5t-28 -1.5t-25.5 -2v-1z" />
    <glyph glyph-name="ft" unicode="ft" horiz-adv-x="932" 
d="M226 811q13 3 32 4.5t36 -0.5q14 -2 33 -11t33 -17q13 -8 18 -11t16 -16q6 -7 11.5 -14.5t12.5 -16.5q5 -6 9.5 -10t7.5 -11q3 -5 7 -11.5t7 -14.5q2 -7 3.5 -9.5t2.5 -3.5t0.5 -2.5t-2.5 -6.5t-6 -12t-8 -12q-5 -7 -11.5 -12.5t-12.5 -11.5q-3 -3 -5.5 -8.5t-5.5 -9.5
t-6.5 -5.5t-6.5 -4.5q-2 -2 -10.5 -9t-9.5 -7q-8 -1 -24 5.5t-22 16.5q-1 2 -6.5 5.5t-12.5 7.5t-14 6.5t-11 2.5q-11 0 -25.5 -13.5t-19.5 -24.5q-2 -5 -2 -13t-1 -18q-2 -11 -5.5 -28.5t-1.5 -32.5q0 -3 1.5 -7.5t3 -8.5t2 -6.5t0.5 -1.5q2 -2 8.5 -2t15.5 1t19 2.5
t18 1.5q5 0 29 0.5t56 -0.5h38.5t44 -0.5t38.5 -1t23 0.5q4 0 12.5 0.5t17 1.5t15.5 1.5l7 0.5l0.5 20t1 49.5t1 64t1 65t0.5 51.5v24q-1 8 -3.5 18t-3.5 19q-1 11 -1.5 22.5t0 22t3.5 19t8 12.5q3 2 21.5 3.5t41 2t42.5 -0.5t26 -5q5 -4 8.5 -15.5t4.5 -22.5q1 -6 1 -29
t-0.5 -55t-0.5 -68t-0.5 -68t-0.5 -56t1 -32q2 -11 1.5 -18t2.5 -10q4 -4 13.5 -5t21 -1t22 1.5t18.5 1.5q11 0 24 1t25.5 1.5t22 0t14.5 -2.5q-1 1 2.5 -5.5t4.5 -8.5q0 1 -2 -2t-1 -5q0 -1 3 -2q2 -1 4 -1q3 -18 1 -37.5t-5 -38.5t-5.5 -27t-21.5 -10q-9 -2 -21.5 -1.5
t-25.5 1t-25 0t-21 -3.5q-2 0 -8 -1t-13 -1.5t-13 -2t-7 -2.5q-2 -2 -3.5 -14t-2.5 -27t-1 -28.5v-19.5q0 -17 2.5 -34t4.5 -37t1.5 -44.5t-5.5 -57.5q-1 -11 0.5 -19.5t-0.5 -18.5q-2 -13 -3 -22.5t-4 -11.5q-2 -2 -15 -0.5t-19 0.5q-9 -1 -16.5 -2.5t-14.5 -1.5h-16.5
t-20.5 0.5t-18.5 1.5t-9.5 2q-2 8 -5 15q-2 6 -4 11.5t-2 7.5q-1 11 1 23t3 22q2 37 0 76t0 79v9l-4 16q0 2 -2 4t-1 6v10.5v15.5t-1 14.5t-2 7.5q-3 2 -15.5 2.5t-32 1t-43.5 0.5h-48q-31 -1 -64.5 -1.5t-62 -2t-48 -4.5t-22.5 -9q-4 -8 0 -28.5t7 -40.5q2 -20 3 -35.5
t4 -29.5q1 -5 4.5 -11.5t5.5 -12.5q4 -14 3 -28t0 -20q3 -13 8.5 -27t8 -26.5t-1.5 -21.5t-21 -11q-8 -1 -15 1.5t-16 1.5q-4 0 -11 -1t-14.5 -2l-15 -2t-11.5 -1q-6 0 -15 -1t-18 -1.5t-16 0t-9 2.5q-4 2 -3 8t-1 12q-2 5 -6 10t-4 4q-1 2 0 12.5t0 18.5q-2 13 -8.5 35.5
t-8.5 39.5q-2 21 -3 39t-4 37q-1 5 -3.5 10.5t-3.5 13.5v5.5v9v8.5v5q-5 3 -11.5 1t-14 -5t-15.5 -5t-14 2q-3 2 -5.5 16.5t-4.5 24.5q-2 11 -2.5 22.5t-1.5 22.5q-1 15 -2 26.5t0.5 20t7 14.5t18.5 11q5 2 14.5 2t13.5 5q1 1 2.5 8t2.5 15t1.5 16t0.5 12q-1 9 -4 16t-3 15
q0 7 3.5 16.5t3.5 17.5q0 5 -2 6.5t-2 4.5q1 5 3.5 10t3.5 10q1 6 -1.5 12.5t-1.5 11.5q1 6 3 11.5t4 12.5q2 15 5 37t8 36q3 8 9.5 15.5t11.5 15.5q2 3 3.5 8t3.5 9l3.5 3.5l3.5 3.5q3 5 13 13t18 14q11 8 32.5 19t39.5 15z" />
    <glyph glyph-name="ity" unicode="ity" horiz-adv-x="1288" 
d="M108 823q21 2 33.5 0.5t28.5 -11.5q5 -3 7.5 -4t4.5 -2.5t3.5 -4.5l4.5 -9q2 -4 2 -4.5t2 -2.5q8 -9 12 -30.5t2 -38.5q-1 -4 -3 -7.5t-4 -9.5q-2 -4 -2 -9t-2 -8q-1 -2 -4.5 -4.5t-5.5 -5.5q-3 -5 -4 -8.5t-3 -5.5q-4 -3 -10.5 -5.5t-13.5 -4.5q-10 -5 -17.5 -9.5
t-20.5 -1.5q-2 1 -3.5 4t-3.5 3q-10 2 -16.5 1t-14.5 3q-3 1 -9.5 6t-13.5 10.5t-13 11.5t-8 9q-6 11 -10.5 26t-3.5 26q0 9 4.5 16t9.5 18q4 8 6 13.5t5 10t7.5 8.5t12.5 9q10 7 16 8t25 3zM765 581q8 -1 19.5 -2t15.5 -5t5.5 -12.5t1.5 -19.5t-0.5 -22.5t-0.5 -20.5v-5
q1 -5 2.5 -8.5t1.5 -8.5t-2 -9t-2 -8q2 -16 5 -33.5t6 -35.5q2 -16 5.5 -32.5t8.5 -32.5q9 -29 24 -55q7 -13 14 -25t17 -20q2 -2 6 -1.5t7 -1.5q5 -3 11 -7.5t17 -6.5q14 -2 25.5 1.5t22.5 8.5l14 7q1 1 1.5 4t1.5 3q5 2 10.5 6.5t10.5 10.5q2 3 1.5 6t1.5 5q3 5 7 9.5
t7 14.5q2 5 1.5 10t1.5 10t5.5 7.5t5.5 6.5q8 24 10.5 51t6.5 52q2 8 5 29t5 57q2 26 1 35.5t6 17.5q4 4 12.5 5.5t18 1t20 -1.5t18.5 -2q33 -2 51 -21t26 -48.5t7.5 -66.5t-4.5 -74.5t-9 -73t-6 -61.5q-1 -13 -3.5 -25.5t-3.5 -25.5q-2 -23 -2 -46.5t-1 -46.5
q-2 -23 -1.5 -47t-2.5 -46q-1 -7 -3 -15l-4 -16t-1.5 -17t-1.5 -17q-2 -5 -5 -9t-5 -12q-2 -5 -2 -12t-2 -12l-10 -20q-5 -13 -9 -20t-12 -18q-6 -9 -11 -18.5t-13 -19.5q-4 -5 -7.5 -10t-6.5 -7q-2 -2 -5 -1.5t-5 -1.5q-1 -2 -1.5 -4t-1.5 -3q-4 -2 -8.5 -3.5t-9.5 -3.5
q-6 -5 -11.5 -11t-12.5 -10l-17 -7l-13 -7q-12 -3 -28 -2t-27 -4q-1 -1 -1.5 -3.5t-2.5 -3.5t-14 -1.5t-17 1.5q-1 0 -1 3t-2 4q-13 3 -36 1t-43 2q-11 2 -24 7t-28 10q-14 5 -29 7.5t-26 6.5q-2 1 -4.5 3t-5.5 4q-8 3 -20 6.5t-24 8.5t-21 11.5t-11 14.5q-2 11 8 27.5
t16 27.5q2 2 4.5 4t2.5 3q1 2 0 5t0 5l3.5 3.5l3.5 3.5q2 5 4 13.5t6 14.5l4 3.5t8.5 8l8.5 8.5t3 4q2 0 14.5 -4.5t23.5 -9.5q2 -1 4 -4t3 -3q2 -1 5 0t5 0q11 -5 23 -12t29 -12q5 -2 10 -1.5t11 -1.5q4 -2 8.5 -4.5t8.5 -2.5q8 -2 16.5 -0.5t17.5 0.5t15.5 -3t15.5 -1
q11 1 23.5 6t24 11.5t20 12.5t11.5 11q2 2 2 3.5t2 3.5q3 4 6.5 15t6.5 20q9 23 15.5 41.5t8.5 50.5l2 26q1 10 0.5 18.5t-2.5 10.5t-7 0q-2 -1 -3 -3q-7 -3 -12 -8t-12 -9q-5 -3 -10.5 -4t-10.5 -3q-5 -3 -8 -6t-5 -4q-14 -4 -31 -3t-35 3q-12 1 -22 -0.5t-19 0.5
q-20 2 -41.5 12.5t-40.5 21.5q-6 3 -11 5t-10 5q-4 3 -6.5 7t-7.5 7q-2 2 -5 2t-5 2q-4 2 -12 12l-12 15q-4 4 -7 15t-7 19q-3 8 -6 15t-8 16q-2 5 -5 9t-5 15q-4 18 -7 42t-5.5 49t-3.5 49.5t-1 45.5v11.5t1 11.5q-17 1 -34 1.5t-28 -4.5q-2 0 -8 -1t-13 -1.5t-13 -2
t-7 -2.5q-2 -2 -3.5 -14t-2.5 -27t-1 -28.5v-19.5q0 -17 2.5 -49.5t4.5 -71t1.5 -78.5t-5.5 -73q-1 -11 0.5 -19.5t-0.5 -18.5q-2 -13 -3 -22.5t-4 -11.5q-2 -2 -15 -0.5t-19 0.5q-9 -1 -16.5 -2.5t-14.5 -1.5h-16.5t-20.5 0.5t-18.5 1.5t-9.5 2q-2 8 -5 15q-2 6 -4 11.5
t-2 7.5q-1 11 1 23t3 22q2 37 0 76t0 79q0 19 1 33.5t1 28.5t-1 28.5t-5 33.5q0 2 -2 4t-1 6v10.5v15.5t-1 14.5t-2 7.5q-4 3 -29 2.5t-57.5 -3t-65.5 -5.5t-52 -5q1 -6 1.5 -11t0.5 -10q1 -23 -2 -50t-4 -56q-2 -26 -0.5 -54t0.5 -56q-1 -16 -3.5 -38.5t-3.5 -44.5
q-1 -5 -2.5 -9.5t-1.5 -10.5t2 -10.5t2 -10.5q-1 -4 -3.5 -8t-3.5 -9q-2 -11 -2 -15.5t-1.5 -6t-6 -1.5t-14.5 -1q-7 -2 -12.5 -3t-11.5 -1q-11 1 -22 4t-23 3q-7 0 -17 -2t-21 -1h-9t-12 0.5t-11 1t-6 1.5q-6 6 -5.5 25.5t3 42t6 43.5t3.5 30q2 15 0.5 27t-0.5 25
q1 7 3.5 13t3.5 14q5 32 3.5 71.5t0.5 76.5q1 17 3 38t3 44q2 25 2 49.5t5 33.5q4 5 13 8l15 5q4 1 18.5 1.5t32.5 0.5h36h29q20 1 46.5 2.5t52.5 2.5t47.5 2t31.5 3q8 1 20.5 3.5t13.5 3.5l0.5 12.5t1 31t1 40.5t1 41.5t0.5 33v16.5q-1 8 -3.5 18t-3.5 19q-1 11 -1.5 22.5
t0 22t3.5 19t8 12.5q3 2 21.5 3.5t41 2t42.5 -0.5t26 -5q5 -4 8.5 -15.5t4.5 -22.5q1 -9 1 -38.5t-1 -63.5t-1 -64.5t1 -42.5q2 -11 1.5 -18t2.5 -10q4 -4 13.5 -5t21 -1t22 1.5t18.5 1.5q29 1 63 5.5t60 2.5z" />
    <glyph glyph-name="Th" unicode="Th" horiz-adv-x="1202" 
d="M671 793q2 -1 5 -1q3 -1 7 -1q28 2 51 -3.5t25 -24.5q2 -17 2 -27.5t-0.5 -19.5t-1 -18.5t0.5 -25.5q1 -23 1 -57t2 -62q1 -10 4 -22t3 -26q0 -34 2 -46t22 8q8 8 15 10t19 7l24 10l11 7q5 2 10 0t10 0q3 1 4.5 3.5t6.5 3.5q20 3 41.5 2.5t37.5 -2.5q4 -1 8 -3t9 -4
q6 -2 11 -1.5t10 -1.5q2 -1 4.5 -3t5.5 -4q8 -4 18.5 -11t19.5 -17q1 -1 -0.5 -3t0.5 -4q1 -1 3 0.5t3 -0.5q2 -1 2 -3t2 -3q3 -4 12 -13.5t12 -14.5t5 -12.5t5 -14.5q15 -32 24 -79q2 -12 3.5 -22t3.5 -23q0 1 3 -0.5t1 -3.5q-7 -5 -3 -8t6 -9q2 -8 2.5 -22.5t1.5 -25.5
q1 -26 1.5 -48.5t-1.5 -51.5q-1 -4 0 -8.5t0 -8.5q-1 -3 -4 -5t-3 -6q-1 -5 1 -10t2 -10t-1 -10t-2 -11q-2 -9 -2 -17.5t-5 -13.5q-8 -8 -27 -8.5t-42 -1.5h-20t-22 0.5t-19 2t-11 4.5t-3.5 10.5t0.5 16.5t2 17.5t1 13.5q0 2 2 3.5t1 3.5q0 1 -2 3t-1 4q2 18 6 36.5t4 35.5
q0 7 -1.5 5t-1.5 3q0 16 2 38.5t1 33.5q-2 26 -7.5 47.5t-12.5 34.5q-5 9 -18 25t-27 20q-8 2 -19 1.5t-22.5 -2.5t-21.5 -4.5t-16 -4.5q-40 -17 -69 -52q-2 -2 -1.5 -5t-1.5 -5t-7.5 -8t-6.5 -9q-5 -21 -2.5 -43.5t2.5 -42.5q0 -18 0.5 -29t-0.5 -34q0 -4 -2 -7.5t-1 -9.5
q0 -4 1.5 -8t1.5 -9q0 -4 -3.5 -7t-3.5 -7q0 -5 3.5 -8t3.5 -6q0 -1 -3 -4.5t-4 -8.5q-1 -6 -1 -14.5t-0.5 -16.5t-1.5 -14.5t-4 -9.5q-4 -4 -20 -4.5t-35 -2.5q-14 -2 -29.5 -3.5t-28.5 -0.5q-8 1 -24.5 5t-20.5 9q-5 8 -3 30t3 42q2 23 0.5 46t-0.5 47q1 20 3.5 41t3.5 42
q4 82 0.5 170.5t-3.5 179.5q0 34 3 58q-24 0 -55.5 1t-61.5 1.5t-53 1.5t-30 1q-8 0 -20.5 -1t-13.5 -2q-5 -4 -6.5 -12t-1 -17.5t2 -19.5t1.5 -17q1 -6 0.5 -11.5t-0.5 -12.5q1 -46 1.5 -93.5t2.5 -98.5q1 -23 3 -46t4 -47q2 -57 3 -112t3 -121q1 -17 3.5 -30t0.5 -15
q1 1 -6 -2.5t-11 -4.5q-12 -2 -27.5 -2.5t-31.5 -0.5t-32.5 1t-29.5 2q-5 0 -11.5 -0.5t-12.5 0.5q-2 0 -10 4q-4 2 -7 3q-1 1 -1.5 10t-0.5 20t-0.5 22.5t-0.5 19.5q-3 52 -2 112.5t-2 117.5q0 3 -1 10.5t-2 16.5t-2.5 17.5t-1.5 14.5q-1 13 -1.5 36t-0.5 49.5t0.5 53
t1.5 46.5q0 3 2 16t2.5 29t0 30t-4.5 18t-13.5 4t-20.5 -1.5t-21.5 -3.5t-16.5 -2q-10 -1 -25 -0.5t-30 0.5q-14 -1 -28 -3t-20 3q-1 1 -4 9t-6 18.5t-5 20t-2 13.5q0 5 1 18t-1 31q-1 11 -3 23.5t0 17.5q4 9 19.5 12.5t36 4.5t42.5 0.5t39 -0.5q50 2 89.5 3t68.5 4
q2 0 10 0.5t18 1t20 0.5t17 -2q13 -4 35.5 -4.5t47.5 0t49.5 0.5t42.5 -3q3 -1 15.5 -1h29t35 -0.5t33.5 -0.5q7 1 12.5 0.5t10.5 0.5z" />
    <glyph glyph-name="to" unicode="to" horiz-adv-x="1164" 
d="M171 871q3 2 21.5 3.5t41 2t42.5 -0.5t26 -5q5 -4 8.5 -15.5t4.5 -22.5q2 -19 0 -36t0 -40q2 -11 1.5 -18t2.5 -10q4 -4 13.5 -5t21 -1t22 1.5t18.5 1.5q7 0 32 1t60 2q9 0 29 1t45 2.5t53 3.5t54 3.5t46.5 2.5t31.5 1q23 1 45 1.5t42 0.5q36 1 60 0.5t26 -2.5
q-1 1 2.5 -5.5t4.5 -8.5q-5 0 -3 -5t7 -5q3 -18 1 -37.5t-5 -38.5t-5.5 -27t-21.5 -10q-6 -1 -43.5 -2t-90 -2.5t-113 -3t-113 -3t-89.5 -3.5t-43 -4q-2 0 -14 -1t-26.5 -2.5t-26.5 -3.5t-13 -3q-2 -2 -3.5 -14t-2.5 -27t-1 -28.5v-19.5q0 -12 0.5 -35t1.5 -48.5t2.5 -49.5
t2.5 -38q2 -25 2.5 -56.5t0 -65.5l-1 -68t-1.5 -64q-1 -11 -1.5 -19.5t-2.5 -18.5q-2 -13 -3 -22.5t-4 -11.5q-2 -2 -15 -0.5t-19 0.5q-9 -1 -16.5 -2.5t-14.5 -1.5h-16.5t-20.5 0.5t-18.5 1.5t-9.5 2q-2 8 -5 15q-2 6 -4 11.5t-2 7.5q-1 11 1 23t3 22q2 37 0 76t0 79
q0 12 2 23.5t1 24.5q0 3 -3 15.5t-4 21.5q-1 14 1.5 31.5t2.5 37.5v28v20t-0.5 27.5t-1.5 27t-2 20.5q0 2 -2 4t-1 6v10.5v15.5t-1 14.5t-2 7.5q-5 4 -20.5 4.5t-34.5 -1t-37 -3.5t-26 -3q-2 -1 -7 0t-7 0q-2 -2 -0.5 -4t-2.5 -3q-16 -4 -22.5 0t-11.5 17q-2 3 -0.5 4t0.5 6
q-1 2 -4 4t-3 3q-2 8 -1 22t1 26q-1 16 -3.5 30.5t-0.5 21.5q2 5 13.5 11.5t21.5 8.5q22 5 51.5 2.5t55.5 1.5q8 1 20.5 3.5t13.5 3.5t2.5 7.5t1.5 14.5q-1 8 -3.5 18t-3.5 19q-1 11 -1.5 25.5t0 29t3.5 26t8 15.5zM731 532q25 2 52.5 -0.5t54.5 -8t51 -13.5t42 -17
q8 -4 17.5 -10.5t17.5 -12.5t16.5 -12t13.5 -12q2 -2 4 -5.5t4 -7.5q5 -9 14.5 -16.5t16.5 -16.5q1 -2 3 -8.5t4 -12.5q11 -25 19.5 -59.5t14.5 -67.5q3 -14 1.5 -28.5t-1.5 -31.5q0 -14 0.5 -15.5t0 -1t-3 -1t-8.5 -15.5q-2 -5 -5.5 -10t-5.5 -10q-4 -8 -7 -16.5t-5 -13.5
q-8 -26 -31 -47.5t-50 -39.5q-9 -7 -16.5 -13.5t-17.5 -10.5q-8 -2 -18.5 -4.5t-19.5 -5.5q-10 -3 -18 -5.5t-17 -4.5t-20 -4t-26 -3q-24 -2 -46.5 -2t-49.5 2q-11 2 -23.5 2t-21.5 2q-5 1 -11.5 4.5t-12.5 5.5l-34 10t-33 13q-1 1 -1.5 3.5t-1.5 3.5q-20 8 -30.5 19
t-24.5 28q-7 8 -12.5 16.5t-10.5 16.5q-4 5 -9 9t-7 9q-1 2 -2 5t-1 4q-2 3 -2.5 5t-2.5 5q-2 5 -1.5 11.5t-1.5 12.5q-2 5 -6 8t-5 8q-4 14 -5 32.5t-3 35.5q-3 17 -4.5 21t-1.5 5.5t1.5 6.5t4.5 23q0 3 1 4l2 2q0 2 -2 3.5t-1 3.5q1 4 3.5 7t4.5 6q2 9 1.5 18.5t1.5 15.5
q2 5 7.5 9.5t8.5 10.5q3 8 3.5 15t4.5 12q1 2 5 3t6 3q2 3 1.5 6t1.5 5t6 3.5t6 3.5t1.5 5t2.5 5q8 6 12.5 12.5t15.5 13.5q12 8 20.5 14t17 11t19.5 10t29 10q7 2 19.5 5.5t27 7.5t29.5 7t27 4zM728 373q-7 -2 -12.5 -0.5t-10.5 0.5q-6 -1 -10 -3t-9 -4t-7.5 -4t-8.5 -6
q-5 -2 -11 -3t-8 -3t-3.5 -8t-4.5 -10q-1 -2 -3.5 -3t-4.5 -3q-2 -3 -1.5 -4.5t-1.5 -5.5q-6 -12 -10 -22t-5.5 -20.5t-1.5 -23t1 -28.5q1 -23 5.5 -35.5t10.5 -19.5t13.5 -11t15.5 -11q8 -8 25 -17.5t26 -11.5q6 -2 17.5 -2h23.5t22 0.5t14 1.5q7 2 21 7.5t21 8.5
q5 2 12 5.5t8 4.5q4 5 9.5 8.5t9.5 5.5q9 7 14 12t7.5 11t4 14t4.5 20t3.5 22t-0.5 16.5t-2.5 8.5t-0.5 -1q-1 8 -0.5 16.5t-2.5 16.5q-3 6 -10 13t-9 11q-11 13 -23.5 27.5t-23.5 18.5q-11 6 -27 11q-8 2 -16.5 1.5t-18.5 1.5q-5 1 -6 3.5t-5 3.5q-8 2 -17 -0.5t-10 -3.5
q0 -2 -1 -3l-1 -2q0 -1 -1 -1z" />
    <glyph glyph-name="ta" unicode="ta" horiz-adv-x="1176" 
d="M741 280q-8 -1 -15.5 0.5t-14.5 -0.5q-4 -1 -8.5 -4.5t-9.5 -5.5q-14 -7 -23.5 -12t-17.5 -16q-2 -4 -3.5 -9.5t-3.5 -10.5q-2 -8 -4.5 -11.5t-2.5 -9.5q1 -11 7.5 -21.5t16.5 -19.5q9 -8 21.5 -15t23.5 -9q17 -3 38.5 -3t40.5 3q5 1 9.5 4.5t11.5 5.5q6 2 13.5 1.5
t13.5 1.5q7 3 14 8.5t14 9.5l22 12t19 12t16.5 21t4.5 27q-2 6 -9 8t-19 9q-8 5 -15 10t-12 7q-3 2 -9 2t-12 2q-12 2 -22 3t-19 3q-7 2 -11.5 4.5t-9.5 2.5q-13 2 -24 0t-14 -3q-1 0 -2.5 -3t-4.5 -4zM161 851q3 2 21.5 3.5t41 2t42.5 -0.5t26 -5q5 -4 8.5 -15.5t4.5 -22.5
q2 -19 0 -41t0 -45q2 -11 0.5 -14.5t1.5 -6.5q4 -4 14 -6.5t21.5 -3t22.5 -0.5h19q5 0 25.5 1.5t46 3t50 3.5t38.5 4l50 3q18 3 49 3h86q18 -1 39.5 -3.5t41.5 -5.5t37.5 -6.5t27.5 -6.5q12 -4 23 -8t22 -9q39 -20 67.5 -47.5t49.5 -69.5q7 -14 13 -30.5t11 -34.5
q6 -20 9.5 -38t7.5 -44q1 -2 2 -3.5t2 -3.5q0 -3 -2 -5l-2 -2q1 -6 4 -8t3 -6q1 -5 -1 -8t-2 -9q-1 -10 2 -25.5t5 -29.5q2 -29 -1 -58t-3 -59q0 -4 -0.5 -11t0.5 -13q1 -4 4 -8t3 -6q0 -3 -3 -7.5t-4 -12.5q0 1 2 -0.5t2 -3.5q0 -8 -3 -27.5t-4 -34.5q-1 -8 -1.5 -21
t-2.5 -27q-2 -15 -3 -24t-5 -14t-12 -7t-24 -3q-20 -2 -40 -1.5t-43 1.5t-33.5 4.5t-11.5 26.5q0 8 4 16.5t0 11.5q-3 3 -9 1.5t-11.5 -4t-9.5 -5.5t-5 -3q-32 -14 -77 -22.5t-98 -4.5l-31 3q-28 3 -49.5 10.5t-46.5 17.5q-8 3 -12.5 5.5t-8 5.5t-7.5 6.5t-10 9.5
q-3 3 -6.5 4t-6.5 3q-7 5 -12 14t-12 17q-5 5 -8 8.5t-5.5 7.5t-5.5 9.5t-6 15.5q-9 29 -8.5 67.5t8.5 70.5q4 12 12.5 23.5t18.5 24.5q3 3 4 7.5t3 6.5q5 5 12 8.5t12 8.5q11 9 16.5 14.5t18.5 12.5q17 10 40.5 19t45.5 19q6 3 17.5 5.5t24.5 5t26 4t24 2.5q17 1 30 1
t25 -1t24.5 -3t27.5 -4q3 0 9 -1.5t12.5 -2t12 -1t7.5 1.5q3 3 1.5 12t-5.5 19t-8 19t-5 12q-10 20 -21 32t-31 23q-2 1 -11 3.5t-19 4.5q-11 3 -26 5q-8 2 -29 5t-45 5t-45 3t-29 0q-5 -1 -18.5 0t-29.5 2l-44 -4q-9 -2 -34.5 -3.5t-53.5 -3.5t-52.5 -4.5t-33.5 -5.5
q-2 0 -8 -1t-13 -1.5t-13 -2t-7 -2.5q-2 -2 -3.5 -14t-2.5 -27t-1 -28.5v-19.5q0 -12 0.5 -29t1.5 -35t2.5 -35.5t2.5 -31.5q2 -25 2.5 -56.5t0 -65.5l-1 -68t-1.5 -64q-1 -11 -1.5 -19.5t-2.5 -18.5q-2 -13 -3 -22.5t-4 -11.5q-2 -2 -15 -0.5t-19 0.5q-9 -1 -16.5 -2.5
t-14.5 -1.5h-16.5t-20.5 0.5t-18.5 1.5t-9.5 2q-2 8 -5 15q-2 6 -4 11.5t-2 7.5q-1 11 1 23t3 22q2 37 0 76t0 79q0 12 2 23.5t1 24.5q0 3 -3 15.5t-4 21.5q-1 14 1.5 31.5t2.5 37.5v28q0 15 -0.5 27.5t-3.5 27.5q0 2 -2 4t-1 6v10.5v15.5t-1 14.5t-2 7.5q-5 4 -19 4.5
t-31 -1t-33 -3.5l-24 -3q-2 -1 -7 0t-7 0q-2 -2 -0.5 -4t-2.5 -3q-16 -4 -22.5 0t-11.5 17q-2 3 -0.5 4t0.5 6q-1 2 -4 4t-3 3q-2 8 -1 22t1 26q-1 16 -3.5 30.5t-0.5 21.5q2 5 13.5 11.5t21.5 8.5q22 5 46 2.5t50 1.5q8 1 20.5 3.5t13.5 3.5l1 8.5t1.5 19t1 20.5t0.5 14
q-1 8 -3.5 18t-3.5 19q-1 11 -1.5 22.5t0 22t3.5 19t8 12.5z" />
    <glyph glyph-name="fa" unicode="fa" horiz-adv-x="1099" 
d="M696 270q-8 -1 -15.5 0.5t-14.5 -0.5q-4 -1 -8.5 -4.5t-9.5 -5.5q-14 -7 -23.5 -12t-17.5 -16q-2 -4 -3.5 -9.5t-3.5 -10.5q-2 -8 -4.5 -11.5t-2.5 -9.5q1 -11 7.5 -21.5t16.5 -19.5q9 -8 21.5 -15t23.5 -9q17 -3 38.5 -3t40.5 3q5 1 9.5 4.5t11.5 5.5q6 2 13.5 1.5
t13.5 1.5q7 3 14 8.5t14 9.5l22 12t19 12t16.5 21t4.5 27q-2 6 -9 8t-19 9q-8 5 -15 10t-12 7q-3 2 -9 2t-12 2q-12 2 -22 3t-19 3q-7 2 -11.5 4.5t-9.5 2.5q-13 2 -24 0t-14 -3q-1 0 -2.5 -3t-4.5 -4zM690 710h59t61 -7q4 -1 9.5 -4.5t10.5 -5.5q12 -5 23 -8.5t22 -8.5
q39 -20 67.5 -53t49.5 -75q7 -14 13 -30.5t11 -34.5q6 -20 9.5 -38t7.5 -44q1 -2 2 -3.5t2 -3.5q0 -3 -2 -5l-2 -2q1 -6 4 -8t3 -6q1 -5 -1 -8t-2 -9q-1 -10 2 -25.5t5 -29.5q2 -29 -1 -58t-3 -59q0 -4 -0.5 -11t0.5 -13q1 -4 4 -8t3 -6q0 -3 -3 -7.5t-4 -12.5q0 1 2 -0.5
t2 -3.5q0 -8 -3 -27.5t-4 -34.5q-1 -8 -1.5 -21t-2.5 -27q-2 -15 -3 -24t-5 -14t-12 -7t-24 -3q-20 -2 -40 -1.5t-43 1.5t-33.5 4.5t-11.5 26.5q0 8 4 16.5t0 11.5q-3 3 -9 1.5t-11.5 -4t-9.5 -5.5t-5 -3q-32 -14 -77 -22.5t-98 -4.5l-31 3q-28 3 -49.5 10.5t-46.5 17.5
q-11 4 -20 11.5t-17 16.5t-14.5 19t-13.5 18q-5 5 -8 8.5t-5.5 7.5t-5.5 9.5t-6 15.5q-9 29 -8.5 67.5t8.5 70.5q4 12 7.5 23.5t13.5 24.5q3 3 4 7.5t3 6.5q5 5 12 8.5t12 8.5q11 9 16.5 14.5t18.5 12.5q17 10 40.5 19t45.5 19q6 3 17.5 5.5t24.5 5t26 4t24 2.5q17 1 30 1
t25 -1t24.5 -3t27.5 -4q3 0 9 -1.5t12.5 -2t12 -1t7.5 1.5q3 3 1.5 12t-5.5 19t-8 19t-5 12q-10 20 -21 32t-31 23q-2 1 -5.5 2.5t-5.5 3.5q-4 2 -6 4q-8 2 -21 2.5t-28 0.5t-28.5 -1t-21.5 -2q-27 -3 -43.5 -4t-30 -3.5t-27 -10t-34.5 -24.5q-3 -3 -11.5 -8.5t-19 -10.5
t-21 -8t-16.5 0q-3 2 -6 5t-8 6q-3 0 -8.5 7.5t-11.5 15.5t-10.5 15.5l-4.5 7.5q-11 17 -28 30.5t-23 23.5q-1 2 -12.5 7t-25.5 10.5t-27 10t-17 4.5q-11 0 -25.5 -13.5t-19.5 -24.5q-2 -5 -2 -13t-1 -18q-2 -11 -5.5 -28.5t-1.5 -32.5q0 -3 1.5 -7.5t3 -8.5t2 -6.5
t0.5 -1.5q2 -2 8.5 -2t15.5 1t19 2.5t18 1.5q12 1 28 2.5t24 -5.5q1 -1 2.5 -9t3 -18t3 -18.5t1.5 -9.5q1 -4 -1 -9t-2 -12q0 -2 1.5 -10.5t2.5 -19t1 -20t-2 -12.5q-5 -8 -21 -9t-35 -1t-35.5 -2t-21.5 -12q-4 -8 0 -28.5t7 -40.5q2 -20 3 -35.5t4 -29.5q1 -5 4.5 -11.5
t5.5 -12.5q4 -14 3 -28t0 -20q3 -13 8.5 -27t8 -26.5t-1.5 -21.5t-21 -11q-8 -1 -15 1.5t-16 1.5q-4 0 -11 -1t-14.5 -2l-15 -2t-11.5 -1q-6 0 -15 -1t-18 -1.5t-16 0t-9 2.5q-4 2 -3 8t-1 12q-2 5 -6 10t-4 4q-1 2 0 12.5t0 18.5q-2 13 -8.5 35.5t-8.5 39.5q-2 21 -3 39
t-4 37q-1 5 -3.5 10.5t-3.5 13.5v5.5v9v8.5v5q-5 3 -11.5 1t-14 -5t-15.5 -5t-14 2q-3 2 -5.5 16.5t-4.5 24.5q-2 11 -2.5 22.5t-1.5 22.5q-1 15 -2 26.5t0.5 20t7 14.5t18.5 11q5 2 14.5 2t13.5 5q1 1 2.5 8t2.5 15t1.5 16t0.5 12q-1 9 -4 16t-3 15q0 7 3.5 16.5t3.5 17.5
q0 5 -2 6.5t-2 4.5q1 5 3.5 10t3.5 10q1 6 -1.5 12.5t-1.5 11.5q1 6 3 11.5t4 12.5q2 15 5 37t8 36q3 8 9.5 15.5t11.5 15.5q2 3 3.5 8t3.5 9l3.5 3.5l3.5 3.5q3 5 13 13t18 14q11 8 32.5 19t39.5 15q13 3 32 4.5t36 -0.5q14 -2 33 -11t33 -17t30.5 -19.5t27.5 -24.5l11 -11
t17 -16.5t17.5 -17t11.5 -12.5q3 -5 12 -21.5t16 -27.5q19 9 34 21t32 21q12 6 27.5 12t32 10t32.5 6.5t29 2.5z" />
    <glyph glyph-name="ss" unicode="ss" horiz-adv-x="1074" 
d="M239 711q14 1 33.5 2.5t41.5 -2.5q20 -2 39.5 -10t39.5 -17q9 -4 18.5 -8.5t18.5 -10t15 -12.5t7 -14q1 -5 -3 -15.5t-7 -18.5q-2 -5 -6 -13t-8 -15q-3 -4 -6.5 -11t-8.5 -14t-11 -12.5t-12 -6.5q-8 -2 -15.5 1t-14.5 8l-14 10t-14 8q-3 2 -7 2t-7 2q-6 2 -11 7t-10 6
q-11 2 -27.5 2.5t-27.5 -2.5q-2 0 -12.5 -6t-14.5 -11q-10 -11 -12.5 -24t5.5 -27q1 -2 1.5 -5.5t1.5 -5.5q2 -2 5.5 -1.5t5.5 -1.5q9 -8 18 -12t16 -9q5 -2 7.5 -6.5t6.5 -6.5q2 -2 5 -2t5 -2q2 -1 3.5 -3.5t3.5 -3.5q9 -5 17.5 -8.5t16.5 -8.5q21 -13 40.5 -28.5
t38.5 -29.5q17 -14 32 -26.5t27 -32.5q5 -10 7 -17.5t6 -20.5q2 -6 7 -16.5t7 -20.5q3 -18 2.5 -40t-2.5 -39q-1 -5 -3 -9.5t-4 -11.5q-11 -40 -34 -72l-3.5 -3.5l-3.5 -3.5q-2 -4 -8.5 -10t-12.5 -11q-11 -8 -28 -15.5t-37 -15.5q-5 -2 -11 -5.5t-9 -4.5q-11 -2 -26 -1.5
t-26 -1.5q-6 -2 -11 -4t-10 -3q-8 -2 -20.5 -2.5t-23.5 2.5q-2 0 -2 3t-2 4q-7 3 -21.5 2t-22.5 1q-2 1 -5.5 3t-8.5 4q-17 5 -36.5 15t-35.5 19q-3 2 -4 2t-3 2q-5 4 -17.5 10.5t-20.5 13.5q-1 1 -1.5 3.5t-1.5 3.5q-4 2 -11.5 5t-9.5 8q-6 14 -11 23t4 26q2 2 3.5 3t3.5 3
q1 2 0 4t0 3t3.5 0t3.5 0q2 3 1.5 6t1.5 5q3 3 8 9t9 11q11 14 25.5 30.5t29.5 17.5t21.5 -6t20.5 -18q6 -5 17.5 -13.5t19.5 -13.5q9 -5 21.5 -11t23.5 -10q26 -8 49 -6.5t40 16.5q8 7 14 13.5t7 17.5q1 15 -7 30t-20.5 28.5t-26.5 24t-25 17.5q-8 5 -15.5 8.5t-15.5 8.5
q-3 2 -6 5t-8 5q-3 2 -8 3.5t-9 3.5q-2 2 -5.5 5t-8.5 6q-6 3 -12 5.5t-12 7.5q-1 2 -1 4t-2 3q-2 2 -5 2t-5 2q-2 1 -2 3.5t-2 3.5q-2 2 -8 3t-9 3l-3.5 3.5l-3.5 3.5q-23 15 -40.5 40.5t-24.5 59.5q-2 6 -2 13t-2 14q-6 35 7 73q8 22 27 45.5t39 36.5q8 6 20.5 11t23.5 10
q13 5 25 11.5t20 8.5q9 2 19.5 1t18.5 -1zM836 691q18 -2 36 -8t37 -14q17 -8 35.5 -17.5t21.5 -23.5q1 -5 -3 -14.5t-6 -17.5q-2 -4 -5.5 -11.5t-6.5 -14.5q-3 -4 -6.5 -10.5t-8 -13.5t-9.5 -12t-11 -6q-15 -3 -27.5 7.5t-26.5 16.5q-20 14 -40 15.5t-44 -2.5
q-2 -1 -11.5 -6.5t-12.5 -9.5q-9 -11 -11 -23.5t5 -24.5q1 -1 1.5 -4.5t1.5 -5.5q2 -2 5 -1.5t5 -1.5q9 -8 18 -11t15 -7q4 -2 6.5 -6t6.5 -6q2 -2 4.5 -2t4.5 -1t4 -3t4 -3q8 -5 16 -8.5t15 -6.5q20 -12 38.5 -25.5t37.5 -26.5q16 -13 29.5 -24t25.5 -30q6 -8 8 -15t5 -19
q2 -5 7 -15t7 -19q4 -17 4 -37.5t-2 -36.5q-1 -4 -2 -8.5t-3 -10.5q-9 -37 -30 -68l-3 -3l-3 -3q-2 -4 -8 -10l-11 -11q-11 -8 -26.5 -15t-33.5 -15q-4 -2 -9.5 -5.5t-8.5 -4.5q-10 -2 -23.5 -2t-24.5 -2q-5 -2 -9.5 -4t-9.5 -3q-8 -2 -19.5 -2t-23.5 1t-23 3t-20 5
q-2 1 -5 3t-8 3q-16 5 -34.5 13t-33.5 16q-2 2 -3 2t-3 2q-5 3 -16.5 9t-19.5 12q-1 1 -1.5 3.5t-1.5 3.5q-21 4 -25 17t0.5 28.5t13 30t14.5 22.5q9 14 22.5 29.5t27.5 16.5t19.5 -5t19.5 -16q5 -5 16 -12t19 -12t20 -10t23 -8q23 -8 44.5 -5.5t36.5 16.5q8 7 13.5 13.5
t5.5 16.5q1 14 -7 28t-20 26t-25.5 21t-23.5 15q-7 5 -14.5 8t-14.5 7q-3 2 -6 5t-7 5q-7 2 -19 8t-25 13.5t-24 15t-16 11.5q-2 1 -7 6q-21 14 -38 36.5t-25 54.5q-2 5 -2.5 12t-1.5 13q-4 17 -2.5 34t6.5 34q6 20 23.5 42.5t35.5 35.5q41 29 91 40t96 3z" />
    <glyph glyph-name="cc" unicode="cc" horiz-adv-x="1058" 
d="M267 660q10 1 30.5 2t41.5 -2q5 -1 12.5 -4.5t14.5 -6.5q41 -14 74.5 -36.5t59.5 -55.5q10 -13 11.5 -22t-3.5 -15.5t-15.5 -13t-22.5 -15.5q-15 -10 -27 -19.5t-28 -7.5q-9 1 -13.5 3.5t-7 6t-5.5 8t-9 9.5q-3 2 -13 5.5t-18 8.5q-6 4 -11 4.5t-20 2.5q-10 1 -16.5 1
t-12.5 -1.5t-13 -4.5t-16 -9q-6 -3 -11.5 -7.5t-12.5 -9.5q-14 -9 -25.5 -28.5t-19.5 -40.5q-10 -29 -10 -64t14 -73q5 -17 12.5 -29.5t18.5 -25.5q6 -8 9 -13.5t11 -10.5q2 -2 5 -2t5 -2q5 -3 8.5 -7.5t5.5 -5.5q5 -2 12 0t12 0t4.5 -4.5t9.5 -2.5q2 0 7 -1t7 1t0.5 3.5
t2.5 3.5q12 2 18 1t17 5q1 1 1.5 4t1.5 3q6 3 13.5 7.5t13.5 10.5q12 10 21 22.5t21 11.5q4 -1 6 -4.5t7 -9.5q4 -4 6.5 -7.5t4.5 -6.5q2 -2 6 -4t8 -6q8 -8 15 -16t15 -18q2 -3 6 -7.5t8 -10t7 -10t3 -7.5q0 -7 -5 -15t-13 -15.5t-17 -14.5t-16 -13q-14 -12 -29.5 -22
t-35.5 -19q-6 -3 -14 -5t-14 -6q-7 -3 -11 -7t-9 -6q-9 -2 -23 -3.5t-30.5 -1.5h-33.5t-30 1q-11 1 -18.5 3t-14 4.5t-12.5 6t-14 7.5q-6 3 -15.5 5t-15.5 5q-3 2 -6 6t-7 8q-31 26 -56 57.5t-41 76.5q-6 18 -11.5 37t-8.5 45q-1 7 0.5 13.5t-0.5 14.5q-1 5 -4 9t-3 8
q0 8 3 17.5t4 20.5q2 24 2 41t5 38q1 4 3.5 6.5t3.5 7.5t-0.5 10t0.5 10q2 6 7 16t10 19q0 4 1 8q0 7 2 9q1 1 4 0t3 0q2 3 2 5.5t1 4.5q5 8 11.5 18.5t13.5 19.5q6 9 10.5 16t10 12.5t12 10.5t15.5 12q11 9 27 18q11 5 20 9t25 8q4 1 8.5 -0.5t8.5 0.5q4 1 4.5 3.5t5.5 3.5
q7 1 14 0t14 0zM804 613q19 0 40 -6.5t41 -16t37.5 -22t29.5 -24.5q10 -10 12.5 -17.5t-1 -14t-11.5 -13t-18 -15.5q-11 -10 -20 -19t-23 -10q-13 -1 -29 10.5t-32 16.5q-5 2 -9.5 2.5t-17.5 0.5q-23 0 -37.5 -11.5t-28.5 -23.5q-11 -10 -18.5 -27.5t-11.5 -36.5
q-5 -26 -1 -55.5t20 -60.5q6 -14 14 -23.5t19 -19.5q5 -6 8 -10t11 -8q2 -2 4 -1.5t4 -1.5q5 -2 8.5 -5t5.5 -4q4 -1 10 1.5t11 1.5t4.5 -3.5t7.5 -1.5q2 1 6 0.5t6 1.5t0.5 3t0.5 3q11 4 16 3.5t13 5.5q1 1 1.5 3.5t1.5 2.5q5 4 10 8.5t10 10.5q12 13 18.5 22t12 10.5
t13.5 -5t24 -22.5q16 -10 30 -25q4 -4 14 -13t11 -14q4 -20 -8 -38t-33 -33.5t-48 -27.5t-53.5 -21t-48.5 -14t-34 -6q-10 0 -16.5 1t-12 2.5t-11 3.5t-12.5 4q-5 2 -13.5 3t-14.5 3q-2 2 -5.5 5t-6.5 5q-29 19 -54 43t-44 60q-9 19 -20.5 50t-16.5 54q-1 8 0.5 16.5
t1.5 17.5q-1 13 -2.5 33.5t-1.5 42.5t3 40.5t11 26.5q1 2 3.5 1t2.5 0q1 4 1 9q4 7 8 17t9 18q8 18 14.5 26.5t20.5 22.5q9 9 21 18q29 22 69 31t74 9z" />
    <glyph glyph-name="dd" unicode="dd" horiz-adv-x="1361" 
d="M526 819q2 1 15.5 3.5t30.5 0.5q5 0 10.5 -2.5t10.5 -4.5q9 -2 14 -1t7 -1q-1 1 3.5 -8.5t4.5 -13.5q1 -14 -4 -36t-6 -36q-2 -22 -2 -49.5v-56.5t-0.5 -57t-1.5 -50q-1 -40 0 -80t0 -74q2 -10 0 -19q2 -20 -1 -38t-4 -41q-2 -19 -1 -43.5t2.5 -51t2.5 -53.5t-1 -51
l-1.5 -15t-5.5 -9q-2 -2 -0.5 -4t-2.5 -3q-4 -2 -13.5 -2.5t-20.5 -0.5t-22 1t-17 1q-5 0 -15.5 2.5t-21.5 4.5q-20 1 -27.5 6.5t-10.5 13t-6.5 15t-15.5 12.5q-2 0 -2 -2.5t-2 -4.5q-8 4 -7 -0.5t-2 -4.5q-8 -3 -19 -7.5t-21 -9.5q-5 -3 -10.5 -8t-7.5 -5q-3 -1 -10.5 -1
t-13.5 -3q-5 -1 -10 -3t-7 -3q-11 -1 -27 -2t-31.5 -0.5t-28.5 2t-19 4.5q-3 0 -4.5 2.5t-2.5 3.5q-4 2 -10 1.5t-11 1.5q-9 5 -18 9q-5 2 -10 3.5t-7 3.5q-5 3 -13 10.5t-16 11.5q-1 1 -4.5 1.5t-5.5 2.5q-2 1 -3.5 5.5t-5.5 7.5q-4 6 -15 14t-15 14q-5 7 -10 23l-5 5t-4 5
q-1 3 0 6t0 7q-2 5 -5 9t-5 9q-2 3 -2.5 7t-1.5 6q-3 10 -5.5 25t-4 31t-2 32t0.5 29q2 23 9 49.5t16 49.5q5 5 7 13q2 5 2 9t1 7q4 7 12.5 15.5l16.5 16.5q10 11 19 19.5t22 16.5q8 5 17.5 11.5t17.5 10.5q3 2 8.5 2t10.5 2q7 2 20.5 8t24.5 8q18 2 41.5 2t46.5 -1.5
t43.5 -5t34.5 -7.5q7 -2 18 -8.5t22 -11.5q2 0 5 -2.5t8 -0.5t8.5 15.5t2.5 26.5q-1 4 0 24t2 43t2.5 43t2.5 23q2 6 0.5 12.5t3.5 13.5q2 7 -0.5 11t-0.5 14q1 6 3 15t3 18q2 8 4 21t4 15t7.5 3t12.5 1t14 0.5t11 0.5zM203 380q-6 -12 -11 -32.5t-7 -43.5t0 -45t9 -37
l3.5 -7t5.5 -9q6 -6 13 -11t12 -8q5 -2 13 -8.5t12 -6.5q33 -8 57 -0.5t42 15.5q17 7 29 14.5t23 15.5q12 9 23.5 18.5t16.5 23.5q2 9 2 26.5t-1.5 36t-4.5 34t-7 18.5q-12 9 -27 15.5t-29 10.5q-8 2 -17 4.5t-16 4.5q-20 8 -38 9.5t-39 1.5q-22 -5 -40.5 -18t-23.5 -22z
M1172 873q2 1 15 4.5t30 1.5q5 -1 10 -3t11 -3q9 -2 13.5 -1t6.5 -1q-1 1 3.5 -9.5t5.5 -14.5q1 -7 0 -18.5t-2.5 -24t-3 -24.5t-1.5 -19q-1 -49 2 -108t3 -108q1 -43 3.5 -85.5t4.5 -79.5v-10t1 -10q2 -21 0 -39.5t-2 -43.5q-1 -21 1.5 -47t5 -54.5t5 -57.5t1.5 -54
q-1 -11 -1 -16.5t-5 -10.5q-2 -2 -1 -3.5t-2 -3.5t-12.5 -3t-21 -1h-22h-16.5q-5 0 -14.5 2t-20.5 4q-20 1 -27.5 0.5t-11.5 14.5q0 1 -2 2t-1 5q1 2 1 5.5t-2 11.5q-2 7 -5 11t-12 -2q-2 0 -2 -3t-2 -4q-1 -1 -3 0t-4 -1q-1 0 -1.5 -3t-1.5 -3l-17 -8.5t-20 -11.5
q-5 -3 -9.5 -8t-6.5 -6q-4 -2 -11 -2t-13 -3q-13 -4 -16 -7q-11 -2 -26.5 -4t-31 -2.5t-28 1t-18.5 4.5q-2 1 -4 3l-3 3q-5 2 -10.5 1.5t-10.5 0.5q-4 2 -8 5t-9 5t-10.5 3t-7.5 3q-5 2 -13 10t-16 12q-1 1 -4.5 1.5t-5.5 2.5t-3.5 6.5t-4.5 7.5q-5 5 -16 13t-16 15
q-2 5 -5 11.5t-6 13.5q-1 2 -4 4.5t-4 4.5q-1 3 0 6.5t0 7.5q-2 5 -5.5 10t-5.5 10q-2 4 -3 8t-2 5q-3 10 -5 26t-3 33t-1 34v31q2 25 3.5 53.5t8.5 53.5q2 3 4 7t2 7q2 5 1.5 9.5t1.5 7.5q3 8 10.5 17t15.5 19q9 12 17.5 21.5t21.5 18.5q8 5 16.5 13t16.5 12q3 2 8 2.5
t10 2.5q7 2 20 9.5t23 9.5q18 3 40.5 4t45 0.5t43 -3.5t33.5 -7q8 -2 18.5 -8.5t20.5 -9.5q2 -1 6 -3.5t8 -0.5t7 17t1 29q-1 5 -2.5 7.5t-1.5 5.5q0 4 2.5 7.5t3.5 6.5q1 8 0.5 22t-0.5 29v29t1 22q0 7 -1 13.5t2 14.5q3 7 0.5 16.5t-1.5 20.5q1 6 2.5 15.5t2.5 19.5
q2 9 3 22.5t3 15.5q2 3 7.5 4.5t12 2l13 1t10.5 1.5zM877 392q-6 -13 -9.5 -35t-4.5 -46.5t1.5 -48t10.5 -38.5q1 -2 4 -7.5t7 -9.5q5 -7 12 -11.5t12 -8.5q5 -2 13.5 -8.5t11.5 -6.5q33 -7 56 2.5t40 18.5q31 16 50 34q11 10 22.5 21t13.5 25q1 8 -2.5 18.5t-3.5 19.5
q0 14 1.5 26.5t2 23t-2 19.5t-11.5 16q-13 9 -27.5 15t-28.5 10q-8 2 -16.5 4.5t-15.5 4.5q-5 2 -7.5 3.5t-6.5 2.5q-16 3 -35.5 2.5t-26.5 -1.5q-10 -3 -20 -8.5t-18.5 -12t-14 -13t-7.5 -11.5z" />
    <glyph glyph-name="ee" unicode="ee" horiz-adv-x="1235" 
d="M282 636q3 1 17.5 3.5t26.5 0.5q2 0 6 0.5t5 -0.5q0 -1 -0.5 -4t0.5 -3q6 -2 18.5 -1.5t19.5 -1.5q5 -2 11 -6.5t13 -7.5q14 -7 23.5 -12t20.5 -16q11 -9 21 -21t21 -23q2 -2 3 -5.5t3 -5.5q3 -2 6 -10.5t6.5 -19t6.5 -21l5 -17.5q7 -20 9 -40.5t2 -56.5q0 -2 0.5 -11
t1 -18.5t0 -18t-1.5 -10.5q-2 -2 -17.5 -2t-34.5 0.5t-36.5 1t-21.5 0.5q-30 1 -56.5 3t-46.5 0q-18 -1 -32.5 -3.5t-22.5 -2.5q-18 -2 -38.5 0t-37.5 -4q-4 -2 -10 -4t-7 -3q-2 -2 0.5 -4t2.5 -3q0 2 -1 0t-2 -5l-2 -6t-1 -2q0 -6 3 -16t6.5 -20t7.5 -18.5t7 -11.5
q8 -9 19 -15.5t25 -11.5q7 -3 19 -5t26 -3t27.5 -1t23.5 2q23 3 46.5 14.5t43.5 23.5q8 5 19 14.5t15 9.5q2 0 11 -6.5t17 -14.5q5 -5 10 -13t10 -14q2 -3 5.5 -7t5.5 -7q1 -2 1 -5t2 -5q2 -4 6 -7.5t8 -13.5q1 -3 -0.5 -7t0.5 -7l7 -3q-1 -5 -8.5 -19t-15.5 -22
q-4 -4 -10 -7t-11 -7t-9 -7.5t-8 -6.5q-5 -3 -10.5 -7t-10.5 -7q-11 -5 -22.5 -8.5t-25.5 -8.5q-5 -2 -10.5 -5.5t-10.5 -4.5q-10 -2 -21.5 -1.5t-22.5 -1.5q-25 -4 -46.5 -6t-53.5 2q-5 1 -11.5 3.5t-12.5 3.5q-16 2 -25 2t-23 5q-5 2 -9 3.5t-8 3.5l-19.5 6.5t-15.5 6.5
q-1 1 -1.5 4t-1.5 3q-11 5 -21.5 16t-19.5 22q-6 8 -12.5 16.5t-11.5 21.5q-2 4 -2 8t-2 9l-3.5 7l-3.5 7q-2 5 -1.5 8t-1.5 9q-2 7 -7 20t-7 25l-2 14t-1 13q0 4 1 5l2 2q-2 14 -5.5 24t-1.5 28q1 5 3 15.5t4 21.5q2 14 3 26.5t4 25.5q4 15 9 31.5t12 33.5q1 3 3 6t4 5
q4 8 6 15.5t7 14.5q2 3 5 6.5t6 7.5q4 6 12.5 13t14.5 15q2 2 2 5t2 5q5 5 13.5 13t16.5 15q12 9 28.5 17.5t36 16t40 12.5t40.5 8zM254 498q-6 -2 -9.5 -4.5t-11.5 -7.5q-5 -3 -14 -5.5t-14 -10.5q-1 -1 -4.5 -7.5t-6.5 -14.5t-4.5 -15t0.5 -9q1 -1 9.5 -1h17.5t16.5 0.5
l7.5 0.5q3 1 5.5 1.5l7.5 1.5q7 2 26.5 2.5t40.5 1t37.5 1.5t18.5 3q7 9 -1.5 23t-17.5 22q-17 16 -37 18.5t-41 0.5q-4 -1 -13.5 -0.5t-12.5 -0.5zM901 611q4 1 19.5 3.5t29.5 0.5q1 0 8 -0.5t15 -2t16.5 -3t13.5 -3.5q6 -2 12.5 -6t14.5 -7q14 -6 25 -11t23 -14
q11 -8 23 -19.5t23 -20.5q2 -2 3.5 -5t3.5 -5q3 -2 6 -9.5t7 -17t7 -19.5t6 -16q8 -18 10 -37t2 -51q0 -2 0.5 -10t1 -17t0 -16.5t-1.5 -9.5q-2 -1 -19 -1h-38t-40 0.5t-24 0.5q-32 1 -61.5 3t-51.5 0q-20 -1 -35.5 -3t-24.5 -2q-20 -2 -42.5 -0.5t-40.5 -3.5
q-5 -2 -11.5 -4t-7.5 -2q-2 -2 -0.5 -13t5 -23.5t8.5 -25t10 -17.5q8 -8 21 -13.5t27 -10.5q7 -2 20.5 -4t29 -3t30.5 -1t26 2q25 2 49.5 7.5t45.5 16.5q8 5 20.5 10.5t17.5 5.5q31 -16 57 -34t29 -47l8 -3q-2 -5 -10.5 -17t-16.5 -20q-4 -4 -11 -6.5t-12 -6.5
q-5 -3 -9.5 -6.5t-8.5 -6.5q-20 -8 -38 -14.5t-38 -13.5q-6 -2 -12 -5t-11 -4q-11 -2 -24 -1.5t-24 -1.5q-27 -3 -51 -5t-59 2q-6 1 -12.5 3t-13.5 3q-17 2 -27.5 2t-25.5 4q-5 2 -9.5 3.5t-8.5 3.5q-11 2 -22 5.5t-17 6.5q-1 1 -1.5 3.5t-1.5 2.5q-11 5 -23 14.5t-22 19.5
l-14 16t-12 19q-2 4 -2.5 7.5t-2.5 7.5l-3.5 7t-3.5 6q-2 5 -2 7.5t-2 8.5t-7.5 17.5t-7.5 22.5q-1 7 -2 13.5t-1 11.5q0 36 0.5 70t10.5 64q8 29 23 59q1 3 3 5.5t4 4.5q5 8 7.5 14.5t7.5 13.5q3 5 12 12q4 6 13.5 12.5t15.5 13.5q2 2 2 4.5t3 4.5q5 5 15 12t18 13
q26 17 70.5 30.5t87.5 18.5zM871 486q-7 -2 -10.5 -4.5t-12.5 -6.5q-6 -3 -15.5 -5t-15.5 -9q-1 -1 -4.5 -7t-7 -13.5t-5 -14t0.5 -7.5q1 -1 10 -1h19t18 0.5t9 0.5q3 1 6 1.5t8 0.5q8 2 29.5 2.5t44 1t41 1.5t20.5 3q3 4 2 9.5t-4.5 11.5t-8.5 11t-10 9q-18 14 -40.5 16.5
t-45.5 0.5q-4 -1 -14.5 -0.5t-13.5 -0.5z" />
    <glyph glyph-name="gg" unicode="gg" horiz-adv-x="1427" 
d="M229 466q-10 -8 -21.5 -16t-18.5 -16q-3 -4 -5 -13t-4 -11q-2 -1 -4 0t-3 0q-11 -8 -10.5 -19.5t-2.5 -25.5q-1 -1 -3 -2l-4 -2q-3 -7 -1.5 -21.5t2.5 -20.5q3 -10 12 -20.5t13 -15.5q3 -5 4.5 -8.5t3.5 -5.5q3 -3 10.5 -7.5t16.5 -8.5t17.5 -7.5t13.5 -5.5t11.5 -5.5
t10.5 -4.5q6 -2 13 0t15 1q0 -1 2 -3.5t4 -3.5q17 -5 28.5 1.5t23.5 10.5q10 3 19.5 3t20.5 5q3 1 6.5 3t7.5 4t12 5.5t15.5 7.5t13.5 7t7 5q3 8 0 21.5t-5 26.5l-5 48q-2 17 -1 35.5t-4 29.5q-1 2 -5 3.5t-6 3.5q-2 3 -3 7t-3 6q-9 8 -18.5 12t-17.5 9q-3 1 -5 4t-5 5
q-4 2 -8.5 1.5t-8.5 1.5q-6 3 -8 4.5t-6 1.5q-8 1 -18 1t-19.5 -1t-17 -2.5t-10.5 -1.5q-17 -5 -27.5 -10.5t-24.5 -15.5zM950 457q-11 -7 -23 -14t-19 -15q-4 -3 -7 -12t-5 -11q-2 0 -4 1t-3 0q-11 -8 -12 -19.5t-5 -25.5q-11 -3 -12 -14.5t3 -25t10.5 -25.5t11.5 -17
q2 -5 3 -8.5t2 -5.5q3 -4 10.5 -9t16 -10t16.5 -9t13 -7t11 -6.5t10 -4.5q23 -13 44 -9t41 6q11 2 21 2t21 3q3 0 6.5 2t7.5 4q5 2 13 5l16 6t14 6t7 4q4 8 2 21.5t-2 26.5q-1 14 -1 26.5v22.5q0 17 2.5 35t-2.5 30q0 2 -4 4t-6 4t-2.5 6.5t-2.5 6.5q-8 9 -17 14t-17 10
q-13 3 -25 9t-24.5 10.5t-26 6.5t-29.5 -3q-17 -3 -28 -8t-25 -13zM1294 666q2 1 1.5 -2t0.5 -4q5 -3 14.5 -2.5t13.5 -2.5q1 -2 2 -8t2.5 -13.5t2 -14.5t0.5 -10q0 -13 -4 -24.5t-6 -22.5q0 -6 1 -15t1 -17q-2 -17 0.5 -32.5t2.5 -32.5q0 -14 -1.5 -28.5t-1.5 -26.5
q0 -13 1.5 -23.5t1.5 -21.5q2 -26 1 -50.5t0 -49.5q3 -5 3.5 -15.5t0.5 -21.5t-0.5 -22t-0.5 -17q2 -19 0 -50t0 -60q1 -11 3 -19t2 -19q-1 -12 -4.5 -24.5t-6.5 -27.5l-4 -23q-2 -7 0.5 -12.5t1.5 -11.5l-9 -24q-2 -11 -7 -23l-10 -24q-9 -25 -25.5 -48t-37.5 -37
q-2 -2 -1.5 -4t-1.5 -4q-11 -7 -29 -21t-33 -19t-35 -5.5t-34 -10.5q-8 -6 -24 -6.5t-35 -1t-39.5 -3t-38.5 -12.5q-9 0 -19 1q-8 1 -19 1t-22 1q-26 1 -59 3q-14 3 -33.5 1t-40 -4.5t-39 -3.5t-29.5 4q-4 1 -27.5 3.5t-56.5 5t-71 5.5t-71 5.5t-56.5 5t-27.5 4.5l-15 7
q-13 -1 -25 -0.5t-23 2.5q-3 1 -7 -0.5t-7 -0.5l-2 4q-1 2 -2 3q-11 2 -23 1t-25 2q-6 1 -11.5 4t-12.5 5t-14 3.5t-14 3.5q-14 3 -26 6.5t-26 8.5q-12 4 -26 8.5t-27 10.5t-22 13t-12 17q-1 4 0 10.5t2 14.5q3 14 5.5 21.5t7.5 19.5q1 1 4 3.5t3 4.5q1 2 0 5t0 5
q4 9 6 19.5t7 18.5t13 18t10 10q1 0 12.5 -5t25 -11.5t26 -12.5t16.5 -7q14 -6 31.5 -10.5t34.5 -12.5q11 -3 17.5 -6t23.5 -5q12 -2 23 -3l22 -2q10 -2 22.5 -0.5t26.5 6.5q13 4 27 12q8 5 18 12.5t15 15.5q4 8 5 19.5t4 22.5q0 1 2 0.5t2 2.5q-2 6 -1 15.5t2 20t1.5 20
t-1.5 16.5q-1 3 -2 6.5t-1 4.5t-0.5 5.5t-0.5 9v8.5v4q-5 3 -13.5 0.5t-17.5 -7.5t-16.5 -10t-10.5 -6q-6 -2 -13 0t-14 0q-13 -2 -30.5 -7.5t-35.5 -7.5q-24 -3 -50 -2t-49 6q-2 0 -5.5 3t-5.5 3q-8 2 -16 2t-19 4q-13 5 -23 13.5t-22 16.5q-2 2 -6 3.5t-7 3.5
q-11 6 -22.5 13.5t-20.5 18.5q-1 2 -1.5 5.5t-2.5 5.5q-1 1 -3.5 1.5t-3.5 1.5l-17 28q-8 9 -13.5 19.5t-12.5 23.5q-5 10 -6 19t-5 26q-2 5 -4 10.5t-3 10.5q-5 26 -6 47t3 45q1 5 0 9t0 9l5.5 16.5t6.5 20.5q2 5 2 7.5t1 6.5q2 5 4 12.5t6 15.5q2 2 3.5 1.5t3.5 1.5
q1 2 -0.5 3.5t-0.5 3.5q2 5 4 9t6 9q3 3 8 10.5l9 13.5q24 35 64.5 60.5t91.5 39.5q4 2 8.5 0.5t8.5 0.5q1 1 0 3.5t0 3.5t16 1.5t33.5 0.5t35 -0.5t21.5 -1.5q8 -3 17.5 -5t20.5 -4q5 -2 12 -5.5t14.5 -6t14.5 -3.5t11 2q5 3 4.5 15t1.5 19q2 9 3.5 16.5t6.5 11.5
q7 5 23.5 5.5t30.5 2.5q1 1 17 4t31 1q2 0 2 -3t1 -4q5 -2 14.5 -0.5t14.5 -1.5q1 -1 2.5 -7t3.5 -13.5t3.5 -14.5t1.5 -10q1 -13 -2 -25t-4 -23q0 -6 1.5 -14.5t3.5 -16.5q0 -9 -0.5 -18.5t1.5 -15.5q1 -10 3.5 -17t3.5 -14q2 -14 1.5 -28.5t0.5 -26.5q1 -13 3.5 -23.5
t3.5 -21.5q4 -26 5.5 -50t4.5 -49l5 -20t3 -21q0 -1 -2 -3l-1 -1q1 -5 3.5 -9.5t3.5 -10.5q1 -2 -1 -4.5t-2 -5.5q3 -19 4.5 -50t5.5 -60q2 -11 4 -19t4 -19q1 -12 -2 -24.5t-4 -27.5q-1 -5 -2 -12t0 -12q-1 -7 1.5 -12.5t1.5 -11.5l-6 -24q-2 -11 -5 -23t-8 -25
q-5 -18 -9.5 -26.5t-13.5 -22.5l-1 -1q29 -3 59.5 -6t58.5 -6t52 -5t40 -4q41 2 86.5 2.5t87 1.5t74 4t48.5 10q4 3 10 10t12.5 15t11.5 16t8 11q5 7 4.5 23.5t4.5 27.5q0 1 1.5 0.5t2.5 2.5q-2 6 0 15.5t4 19.5t3.5 19.5t-0.5 16.5q-2 8 -2 11v5.5t0.5 9t0.5 8.5v4
q-2 1 -23 -2.5t-47 -8.5t-50.5 -9.5t-32.5 -4.5q-14 0 -28.5 3t-28.5 6.5t-27 7t-25 3.5l-25.5 9t-15 6.5t-14 9.5l-22.5 18q-2 2 -6 3.5t-6 4.5q-15 9 -28 24t-24 32.5t-19.5 35.5t-14.5 33q-4 10 -4.5 19t-3.5 26q-1 5 -2.5 11t-2.5 11q-3 27 -1.5 47.5t6.5 43.5q2 5 1 9
t1 9q2 7 6.5 17t8.5 20q2 5 2.5 7.5t1.5 6.5q3 5 5.5 12t7.5 15q2 2 3.5 1t3.5 1q1 2 0 4t0 4q2 5 4 8t7 8l19 22q26 32 66.5 52.5t86 29.5t91 6.5t81.5 -17.5q9 -5 25 -12.5t25 -4.5q15 5 22 12t11 14.5t8 14.5t13 12.5t25 8.5t46 2z" />
    <glyph glyph-name="oo" unicode="oo" horiz-adv-x="1270" 
d="M293 479q-6 -2 -11 -0.5t-10 0.5t-8.5 -3t-8.5 -4t-7 -4.5t-7 -6.5q-4 -2 -9.5 -3t-7.5 -3t-3.5 -8t-3.5 -10q-1 -2 -3 -3t-4 -3q-2 -3 -1.5 -5t-1.5 -6q-11 -24 -13.5 -43.5t-0.5 -52.5q1 -24 4.5 -47.5t9 -45t12.5 -38.5t15 -27q7 -8 22 -18.5t23 -12.5q6 -2 16 -2
h20.5t19.5 0.5t13 1.5q6 2 18.5 8t18.5 9l18 10q4 5 9 8.5t8 5.5q8 7 12.5 12.5t7 11.5t4 14.5t3.5 20.5q2 10 4 20.5t3 20.5q2 28 -1 48t-6 38q-1 8 -0.5 16.5t-2.5 17.5q-2 6 -8.5 13t-8.5 11q-9 14 -20 28.5t-22 19.5q-9 6 -24 11q-7 2 -15 1.5t-16 1.5q-5 1 -6 3.5
t-4 3.5q-8 2 -15.5 -0.5t-8.5 -3.5q0 -2 -1 -3l-1 -2q0 -1 -1 -1zM845 456q-7 -2 -13 -0.5t-11 0.5t-9 -2.5t-10 -3.5q-5 -2 -7 -4.5t-8 -6.5q-5 -2 -11 -2.5t-8 -2.5t-4 -7.5t-4 -9.5q-1 -2 -3.5 -2.5t-4.5 -2.5q-2 -3 -1.5 -5t-1.5 -6q-13 -22 -15.5 -40t-0.5 -48
q3 -44 15 -85.5t31 -60.5q4 -4 10.5 -8.5t14 -8.5t14 -7.5t11.5 -4.5q6 -2 17.5 -2h23.5t22 0.5t14 1.5q7 2 21 7.5t21 8.5l20 9q4 5 9.5 8t9.5 5q18 13 21.5 22.5t8.5 32.5q2 9 4 18.5t4 18.5q2 26 -1.5 44.5t-6.5 35.5q-1 7 -0.5 15t-3.5 16q-2 6 -9 12.5t-10 9.5
q-10 13 -22.5 26.5t-23.5 18.5q-5 3 -12 5.5t-15 4.5t-17 1.5t-18 1.5q-5 1 -6.5 3t-4.5 3q-8 2 -17 -0.5t-10 -2.5q0 -2 -1 -3l-1 -2q0 -1 -1 -1zM837 592q25 2 54.5 2t58 -2.5t54.5 -8t44 -13.5q8 -4 17 -10.5t18 -12.5q8 -5 16.5 -10.5t13.5 -11.5q3 -3 7 -13
q6 -8 15.5 -15t16.5 -16l6 -19q11 -24 20 -56.5t15 -64.5q2 -13 1 -27t-1 -30q1 -26 0.5 -52t-11.5 -52q-2 -5 -5.5 -10t-5.5 -10q-3 -6 -2.5 -12.5t-2.5 -12.5q0 -2 -3 -1.5t-5 -1.5q-8 -25 -30.5 -45t-49.5 -38q-9 -6 -16.5 -12t-18.5 -10l-18 -4.5t-19 -5.5
q-20 -5 -35.5 -9t-45.5 -7q-24 -2 -46.5 -2t-49.5 2q-11 2 -23.5 2t-22.5 2q-5 1 -11 4t-12 5q-17 5 -39 9.5t-38 12.5q-1 1 -1.5 3.5t-1.5 3.5q-20 7 -35.5 18t-29.5 26q-7 8 -12.5 16t-10.5 16l-13 11q-5 0 -5 -2q-7 -26 -27.5 -48t-44.5 -41q-8 -7 -15 -13.5t-16 -10.5
q-7 -3 -16.5 -5.5t-17.5 -5.5q-18 -6 -31.5 -10t-40.5 -7q-22 -2 -42 -2t-44 2q-11 2 -22 2t-19 2q-5 1 -10.5 4.5t-10.5 5.5q-15 5 -35 10.5t-34 13.5q-1 1 -1.5 3.5t-1.5 3.5q-17 8 -31 19.5t-27 28.5q-6 8 -11 17t-10 17q-3 5 -7.5 9t-6.5 9q-1 2 -2 5.5t-1 4.5l-4 10
q-2 5 -1.5 11.5t-1.5 12.5q-2 5 -5.5 8.5t-4.5 8.5q-3 14 -4 33t-3 36q-5 36 -5 68t5 70q0 3 1 4l2 2q0 2 -2 3.5t-1 3.5q1 4 3 7t4 7q2 9 1.5 18.5t1.5 15.5q2 5 7 10t7 11q3 8 3.5 15.5t3.5 12.5q1 2 4.5 3t5.5 3q2 3 1.5 6t1.5 5t5.5 3.5t5.5 3.5t1.5 5t1.5 5
q7 7 16 13.5t18 13.5q22 16 43.5 25t53.5 20q13 5 31.5 6.5t40.5 3.5t48.5 2t52.5 -3t49 -8.5t39 -14.5q8 -4 15.5 -11t15.5 -13t15 -12t12 -12q3 -4 7 -14q5 -9 13.5 -16.5t14.5 -17.5l6 -21l3 -8q0 3 3 8q0 5 9 13.5t20.5 17t22.5 15.5t16 10q25 14 49.5 23t59.5 19
q14 4 35 5.5t45 3.5z" />
    <glyph glyph-name="ry" unicode="ry" horiz-adv-x="1011" 
d="M325 631q8 1 24 2.5t34 2.5t34.5 -0.5t25.5 -6.5q5 -3 15.5 -8.5t22.5 -13t23.5 -15t17.5 -14.5q0 -1 1 -1v-1l2 -2q3 -5 3 -8q3 -13 2.5 -31.5t-1.5 -32.5v-5q1 -5 2.5 -8.5t1.5 -8.5t-2 -9t-2 -8q2 -16 5 -33.5t6 -35.5q2 -16 5.5 -32.5t8.5 -32.5q9 -29 24 -55
q7 -13 14 -25t17 -20q2 -2 6 -1.5t7 -1.5q5 -3 11 -7.5t17 -6.5q14 -2 25.5 1.5t22.5 8.5l14 7q1 1 1.5 4t1.5 3q5 2 10.5 6.5t10.5 10.5q2 3 1.5 6t1.5 5q3 5 7 9.5t7 14.5q2 5 1.5 10t1.5 10t5.5 7.5t5.5 6.5q2 5 1.5 10.5t1.5 10.5q5 20 8 42t6 40q2 8 5 29t5 57
q2 26 1 35.5t6 17.5q4 4 12.5 5.5t18 1t20 -1.5t18.5 -2q9 -1 18.5 -1t18.5 -2q8 -2 17 -4.5t11 -6.5q1 -2 0.5 -9.5t-1.5 -16.5t-1.5 -18t-0.5 -14q0 -25 3 -36t3 -27q0 -10 -1 -20t-2 -21q-2 -39 0 -82t0 -87q-1 -13 -3.5 -25.5t-3.5 -25.5q-2 -23 -2 -46.5t-1 -46.5
q-2 -23 -1.5 -47t-2.5 -46q-1 -7 -3 -15l-4 -16t-1.5 -17t-1.5 -17q-2 -5 -5 -9t-5 -12q-2 -5 -2 -12t-2 -12l-10 -20q-5 -13 -9 -20t-12 -18q-6 -9 -11 -18.5t-13 -19.5q-4 -5 -7.5 -10t-6.5 -7q-2 -2 -5 -1.5t-5 -1.5q-1 -2 -1.5 -4t-1.5 -3q-4 -2 -8.5 -3.5t-9.5 -3.5
q-6 -5 -11.5 -11t-12.5 -10l-17 -7l-13 -7q-12 -3 -28 -2t-27 -4q-1 -1 -1.5 -3.5t-2.5 -3.5t-14 -1.5t-17 1.5q-1 0 -1 3t-2 4q-13 3 -36 1t-43 2q-11 2 -24 7t-28 10q-14 5 -29 7.5t-26 6.5q-2 1 -4.5 3t-5.5 4q-8 3 -20 6.5t-24 8.5t-21 11.5t-11 14.5q-2 11 8 27.5
t16 27.5q2 2 4.5 4t2.5 3q1 2 0 5t0 5l3.5 3.5l3.5 3.5q2 5 4 13.5t6 14.5l4 3.5t8.5 8l8.5 8.5t3 4q2 0 14.5 -4.5t23.5 -9.5q2 -1 4 -4t3 -3q2 -1 5 0t5 0q11 -5 23 -12t29 -12q5 -2 10 -1.5t11 -1.5q4 -2 8.5 -4.5t8.5 -2.5q8 -2 16.5 -0.5t17.5 0.5t15.5 -3t15.5 -1
q11 1 23.5 6t24 11.5t20 12.5t11.5 11q2 2 2 3.5t2 3.5q3 4 6.5 15t6.5 20q9 23 15.5 41.5t8.5 50.5l2 26q1 10 0.5 18.5t-2.5 10.5t-7 0q-2 -1 -3 -3q-7 -3 -12 -8t-12 -9q-5 -3 -10.5 -4t-10.5 -3q-5 -3 -8 -6t-5 -4q-14 -4 -31 -3t-35 3q-12 1 -22 -0.5t-19 0.5
q-20 2 -41.5 12.5t-40.5 21.5q-6 3 -11 5t-10 5q-4 3 -6.5 7t-7.5 7q-2 2 -5 2t-5 2q-4 2 -12 12l-12 15q-4 4 -7 15t-7 19q-3 8 -6 15t-8 16q-2 5 -3.5 9.5t-6.5 14.5q-10 18 -15 43t-7.5 51.5t-1.5 51.5t3 43l2 18q2 2 2 3l-2 -3q1 3 1 8q-2 6 -10 13.5t-20 12t-27 4.5
t-30 -9q-2 -1 -6.5 -3t-10.5 -4t-11.5 -4t-8.5 -3q-11 -4 -16 -8.5t-16 -10.5q-20 -11 -33 -25t-11 -47q0 -2 1.5 -4.5t1.5 -6.5q0 -2 -2 -4t-1 -6q2 -32 8 -70t9 -74q1 -8 1 -20t0.5 -24.5t1.5 -24.5t4 -21q0 -2 1 -2q1 -1 2 -1q1 -4 -3 -5t-4 -9q0 -5 1.5 -17t2 -25
t-0.5 -24.5t-6 -15.5q-3 -3 -12 -5t-20 -2.5t-23 -1t-21 -1.5q-6 -1 -16 -2t-21 -1.5t-20.5 0.5t-14.5 6q-2 2 -1.5 9t-1.5 15q-1 5 -4 10t-3 7q0 12 3.5 15.5t3.5 8.5q0 4 -3 8.5t-4 8.5q-2 11 -2.5 21t-1.5 21q0 4 2 8t2 9q-1 9 -3.5 18t-3.5 20q-1 10 0 20t0 21
q-2 16 -5.5 32t-4.5 33q-1 6 1.5 11t1.5 10q-2 14 -5.5 25t-4.5 19q-2 22 -3 42.5t-4 40.5q-1 6 0.5 12t-0.5 12q-1 2 -3.5 3t-3.5 4q-1 2 0 5t0 5q-3 23 -5 44.5t-5 41.5q-1 5 -6.5 19.5t-0.5 25.5q4 7 20.5 9t27.5 4l24 7q5 2 8 2t6 2q3 1 11.5 2t18 1.5t19 0t13.5 -3.5
t6 -11t3.5 -17t3.5 -17t7 -10t12 1.5t16 8.5q2 2 4.5 5t5.5 5q4 2 7 2t7 2q3 2 5 5t5 5q4 2 7 2t7 2q6 3 11 7t10 6q6 2 14.5 2t15.5 2q8 2 14.5 2t13.5 1z" />
    <glyph glyph-name="ot" unicode="ot" horiz-adv-x="1129" 
d="M755 871q3 2 21.5 3.5t41 2t42.5 -0.5t26 -5q5 -4 8.5 -15.5t4.5 -22.5q2 -19 0 -36t0 -40q2 -11 1.5 -18t2.5 -10q9 -8 24.5 -6t30.5 3h3h2t8.5 0.5t24.5 0.5q13 0 13 0.5t-2.5 0.5t-1.5 0.5t17 0.5h15h4h3h12q36 1 45 0.5t11 -2.5q-1 1 2.5 -5.5t4.5 -8.5q-5 0 -3 -5
t7 -5q3 -18 1 -37.5t-5 -38.5t-5.5 -27t-21.5 -10q-9 -2 -26 0t-35.5 4t-35 2.5t-25.5 -2.5q-2 0 -11 -1t-19.5 -2.5t-19.5 -3.5t-10 -3q-2 -2 -3.5 -14t-2.5 -27t-1 -28.5v-19.5q0 -12 0.5 -36t1.5 -50.5t2.5 -51.5t2.5 -39q2 -25 2.5 -56.5t0 -65.5l-1 -68t-1.5 -64
q-1 -11 -1.5 -19.5t-2.5 -18.5q-2 -13 -3 -22.5t-4 -11.5q-2 -2 -15 -0.5t-19 0.5q-9 -1 -16.5 -2.5t-14.5 -1.5h-16.5t-20.5 0.5t-18.5 1.5t-9.5 2q-2 8 -5 15q-2 6 -4 11.5t-2 7.5q-1 11 1 23t3 22q2 37 0 76t0 79q0 12 2 23.5t1 24.5q0 3 -3 15.5t-4 21.5q-1 14 1.5 31.5
t2.5 37.5v28v22.5t-0.5 32t-1.5 31.5t-2 23q0 2 -2 14t-1 16v10.5v15.5t-1 14.5t-2 7.5q-2 1 -12 2.5t-26.5 2t-37 1.5t-42.5 1q-28 1 -58 1h-59q-23 0 -45.5 -0.5t-41 -1t-31.5 -1t-16 -0.5q-2 -1 -7 0t-7 0q-11 -3 -16.5 3.5t-11.5 19.5q-4 8 -3.5 11t2 6t3.5 8t2 17
q-1 16 -3.5 30.5t-0.5 21.5q2 5 13.5 11.5t21.5 8.5q7 2 27.5 2.5t49.5 0.5q22 0 37 -1.5t28 -3t27.5 -3t34.5 -1.5q11 0 30.5 1t39 2.5t35.5 3t19 1.5q4 0 11 1t14.5 2.5t13 2.5l5.5 1l2.5 2.5t1.5 9.5q-1 8 -3.5 8t-3.5 9q-1 11 -1.5 25.5t0 29t3.5 26t8 15.5zM293 532
q25 2 52.5 -0.5t54.5 -8t51 -13.5t42 -17q8 -4 17.5 -10.5t17.5 -12.5t16.5 -12t13.5 -12q2 -2 4 -5.5t4 -7.5q5 -9 14.5 -16.5t16.5 -16.5q1 -2 3 -8.5t4 -12.5q11 -25 19.5 -59.5t14.5 -67.5q3 -14 1.5 -28.5t-1.5 -31.5q0 -14 0.5 -15.5t0 -1t-3 -1t-8.5 -15.5
q-2 -5 -5.5 -10t-5.5 -10q-4 -8 -7 -16.5t-5 -13.5q-8 -26 -31 -47.5t-50 -39.5q-9 -7 -16.5 -13.5t-17.5 -10.5q-8 -2 -18.5 -4.5t-19.5 -5.5q-10 -3 -18 -5.5t-17 -4.5t-20 -4t-26 -3q-24 -2 -46.5 -2t-49.5 2q-11 2 -23.5 2t-21.5 2q-5 1 -11.5 4.5t-12.5 5.5l-34 10
t-33 13q-1 1 -1.5 3.5t-1.5 3.5q-20 8 -30.5 19t-24.5 28q-7 8 -12.5 16.5t-10.5 16.5q-4 5 -9 9t-7 9q-1 2 -2 5t-1 4q-2 3 -2.5 5t-2.5 5q-2 5 -1.5 11.5t-1.5 12.5q-2 5 -6 8t-5 8q-4 14 -5 32.5t-3 35.5q-3 17 -4.5 21t-1.5 5.5t1.5 6.5t4.5 23q0 3 1 4l2 2q0 2 -2 3.5
t-1 3.5q1 4 3.5 7t4.5 6q2 9 1.5 18.5t1.5 15.5q2 5 7.5 9.5t8.5 10.5q3 8 3.5 15t4.5 12q1 2 5 3t6 3q2 3 1.5 6t1.5 5t6 3.5t6 3.5t1.5 5t2.5 5q8 6 12.5 12.5t15.5 13.5q12 8 20.5 14t17 11t19.5 10t29 10q7 2 19.5 5.5t27 7.5t29.5 7t27 4zM290 373q-7 -2 -12.5 -0.5
t-10.5 0.5q-6 -1 -10 -3t-9 -4t-7.5 -4t-8.5 -6q-5 -2 -11 -3t-8 -3t-3.5 -8t-4.5 -10q-1 -2 -3.5 -3t-4.5 -3q-2 -3 -1.5 -4.5t-1.5 -5.5q-6 -12 -10 -22t-5.5 -20.5t-1.5 -23t1 -28.5q1 -23 5.5 -35.5t10.5 -19.5t13.5 -11t15.5 -11q8 -8 25 -17.5t26 -11.5q6 -2 17.5 -2
h23.5t22 0.5t14 1.5q7 2 21 7.5t21 8.5q5 2 12 5.5t8 4.5q4 5 9.5 8.5t9.5 5.5q9 7 14 12t7.5 11t4 14t4.5 20t3.5 22t-0.5 16.5t-2.5 8.5t-0.5 -1q-1 8 -0.5 16.5t-2.5 16.5q-3 6 -10 13t-9 11q-11 13 -23.5 27.5t-23.5 18.5q-11 6 -27 11q-8 2 -16.5 1.5t-18.5 1.5
q-5 1 -6 3.5t-5 3.5q-8 2 -17 -0.5t-10 -3.5q0 -2 -1 -3l-1 -2q0 -1 -1 -1z" />
    <glyph glyph-name="tu" unicode="tu" horiz-adv-x="1095" 
d="M171 851q3 2 21.5 3.5t41 2t42.5 -0.5t26 -5q5 -4 8.5 -15.5t4.5 -22.5q2 -19 0 -46t0 -50q2 -11 1.5 -18t2.5 -10q4 -4 13.5 -5t21 -1t22 1.5t18.5 1.5t26 1.5t41 2.5t47.5 1.5t46.5 -0.5t38.5 -4.5t22.5 -9.5q18 -11 23 -33t3 -59q-5 -85 -2.5 -168t30.5 -155l3.5 -14
t6.5 -14q3 -6 9 -14t13.5 -15.5t16 -13.5t16.5 -8q16 -4 29.5 -2.5t24.5 5t19 8.5t13 9q18 15 25.5 36t15.5 50q3 10 5 18.5t3.5 17.5t2.5 20t3 27q1 7 -0.5 13t0.5 14q1 7 4 11.5t3 9.5q0 9 -3 23.5t-4 31.5q-1 13 -1.5 26.5t-2.5 28.5q-1 11 -2.5 25t-3.5 30
q-2 14 -3.5 29.5t3.5 21.5q4 6 18.5 9t32.5 3.5t37 -0.5t32 -2q9 0 22.5 -0.5t15.5 -2.5q3 -2 1.5 -5t1.5 -12q1 -2 4 -5.5t3 -4.5q5 -21 4 -52.5t-1 -54.5q0 -44 1.5 -75.5t-1.5 -68.5q-1 -20 -5 -40t-8 -39l-4 -21q-1 -5 -3 -8.5t-4 -8.5q-2 -11 -3 -20.5t-4 -17.5
q-2 -6 -6 -12.5t-7 -14.5q-6 -14 -11 -27.5t-13 -27.5q-2 -3 -3.5 -7t-3.5 -7q-1 -2 -4 -2t-3 -2q-8 -18 -28.5 -34t-40.5 -27q-10 -6 -19 -12t-19 -9q-7 -2 -13 -1.5t-14 -1.5q-6 -2 -12.5 -4.5t-11.5 -2.5q-13 -2 -26.5 -0.5t-28.5 3.5q-14 2 -29 1.5t-26 2.5q-2 0 -4 3
t-3 3q-5 2 -13 4.5t-16 5.5t-15 5.5t-11 5.5l-3.5 3.5l-3.5 3.5q-11 6 -26 21.5t-25 26.5q-7 8 -12.5 17.5t-11.5 20.5q-6 10 -12.5 20.5t-12.5 23.5q-5 12 -9.5 30.5t-10.5 35.5l-4 6t-3 7q-2 5 0 12t0 13q-1 4 -3.5 6.5t-3.5 6.5q-2 15 -3.5 31t-3.5 31q-2 16 -3.5 37.5
t-2.5 45.5t-1.5 49.5t-0.5 49.5q-2 0 -4.5 -0.5t-4.5 -0.5q-9 -2 -21.5 -1.5t-25.5 1t-25 0t-21 -3.5q-2 0 -8 -1t-13 -1.5t-13 -2t-7 -2.5q-2 -2 -3.5 -14t-2.5 -27t-1 -28.5v-19.5q0 -12 0.5 -29t1.5 -35t2.5 -35.5t2.5 -31.5q2 -25 2.5 -56.5t0 -65.5l-1 -68t-1.5 -64
q-1 -11 -1.5 -19.5t-2.5 -18.5q-2 -13 -3 -22.5t-4 -11.5q-2 -2 -15 -0.5t-19 0.5q-9 -1 -16.5 -2.5t-14.5 -1.5h-16.5t-20.5 0.5t-18.5 1.5t-9.5 2q-2 8 -5 15q-2 6 -4 11.5t-2 7.5q-1 11 1 23t3 22q2 37 0 76t0 79q0 12 2 23.5t1 24.5q0 3 -3 15.5t-4 21.5q-1 14 1.5 31.5
t2.5 37.5v28q0 15 -0.5 27.5t-3.5 27.5q0 2 -2 4t-1 6v10.5v15.5t-1 14.5t-2 7.5q-5 4 -19 4.5t-31 -1t-33 -3.5l-24 -3q-2 -1 -7 0t-7 0q-2 -2 -0.5 -4t-2.5 -3q-16 -4 -22.5 0t-11.5 17q-2 3 -0.5 4t0.5 6q-1 2 -4 4t-3 3q-2 8 -1 22t1 26q-1 16 -3.5 30.5t-0.5 21.5
q2 5 13.5 11.5t21.5 8.5q22 5 46 2.5t50 1.5q8 1 20.5 3.5t13.5 3.5l1 8.5t1.5 19t1 20.5t0.5 14q-1 8 -3.5 18t-3.5 19q-1 11 -1.5 22.5t0 22t3.5 19t8 12.5z" />
    <glyph glyph-name="pp" unicode="pp" horiz-adv-x="1478" 
d="M129 676q10 1 23.5 3t26.5 3t24 -0.5t16 -5.5q3 -3 3.5 -9.5t0.5 -14.5t-0.5 -14.5t-0.5 -9.5q-1 -11 1.5 -17.5t15.5 0.5q2 1 3.5 3t3.5 4q2 1 3.5 1t3.5 2q11 6 15 11t12 10q6 3 17 5t18 8q2 2 5 3.5t5 3.5q4 4 8.5 3t15.5 1q6 1 18 6.5t20 6.5q12 2 27 2.5t29.5 0
t27.5 -2t22 -3.5q4 -1 7.5 -3.5t6.5 -3.5q11 -2 20.5 -1.5t14.5 -1.5q8 -3 16 -9.5t15 -11.5q10 -7 17 -12.5t13 -11.5t11.5 -13t12.5 -18q23 -34 38 -79l7 -21q5 -14 7 -28.5t3 -32.5q2 -23 2.5 -42t-2.5 -44q0 -4 -1.5 -7t-1.5 -4q0 -4 1 -5l2 -2q-1 -5 -3 -6.5t-3 -6.5
q-1 -4 -0.5 -5.5t1 -2.5t0.5 -3t-1 -6q-2 -4 -4 -7t-3 -7q-2 -8 -3 -17.5t-4 -17.5q-1 -1 -3.5 -0.5t-3.5 -2.5q-2 -9 -8.5 -19t-12.5 -19q-7 -11 -13.5 -22.5t-13.5 -18.5q-6 -6 -14.5 -10.5t-16.5 -10.5q-2 -1 -5 -1t-5 -2t-2 -5.5t-2 -4.5q-2 -2 -5 -2t-5 -2
q-1 -1 -1.5 -3.5t-2.5 -3.5t-7 -1t-10 -2q-35 -14 -80.5 -20t-101.5 -1q-10 2 -21 2t-20 2q-4 0 -8.5 3t-8.5 4q-6 1 -11.5 -0.5t-9.5 0.5q-4 1 -13.5 6.5t-17.5 10.5q-6 3 -16.5 11t-14.5 6t-7 -12.5t-5 -24.5t-3.5 -28.5t-1.5 -23.5q0 -11 2 -18.5t2 -12.5
q-1 -5 -3.5 -8.5t-3.5 -9.5q-2 -5 1 -14.5t2 -12.5q-1 -5 -3.5 -14t-3.5 -17q-1 -17 0.5 -36t-0.5 -36q-1 -8 -3 -20t-4 -25t-2 -22.5t-1.5 -16.5t-6 -11.5t-14.5 -7.5q-3 -1 -7 0.5t-6 -0.5q-1 -1 -2 -4t-2 -3q-9 -2 -26 -2.5t-32 -0.5q-15 -1 -32.5 -1.5t-22.5 4.5
q-5 4 -6.5 15t-1.5 25t1.5 29t2.5 27q1 13 0 23.5t0 21.5q1 5 4 10t3 10q0 7 -2 11.5t-1 9.5q1 11 3.5 20t3.5 14q2 28 3 63t1.5 72t1.5 74.5t4 72.5q2 20 0.5 39.5t-0.5 39.5q1 23 3 45.5t4 44.5q1 21 -0.5 40t0.5 39q1 11 3.5 22.5t3.5 21.5q0 8 -2 18.5t-2 22.5
q0 14 1 32t6 27q3 4 11.5 8t19 7t22 5.5t19.5 3.5zM359 521q-5 -1 -9 -4.5t-11 -5.5t-14.5 -3t-13.5 -4q-14 -7 -26.5 -17t-24.5 -21q-3 -2 -7.5 -3t-6.5 -4q-3 -2 -5.5 -6t-4.5 -7q-6 -7 -10.5 -14.5t-6.5 -13.5q-4 -13 -3 -21.5t-1 -19.5q-3 -29 0 -43t17 -29
q8 -8 21.5 -15.5t20.5 -12.5q15 -9 27 -13q26 -11 55 -15t65 -3q19 1 32 2.5t22.5 5t18 9t17.5 14.5q12 12 17 24q0 2 3 2.5t4 1.5t0 3t0 4q0 1 3 1.5t4 1.5q2 4 1.5 11.5t1.5 12.5q2 8 4 13t3 11q2 19 -2 38.5t-8 30.5q-5 11 -9 17t-9 14q-10 15 -21.5 25.5t-22.5 19.5
q-18 13 -46 14.5t-54 -1.5q-5 0 -9.5 1t-11.5 -1zM839 586q14 4 31 4t31.5 -3.5t24.5 -12t10 -21.5q0 -10 3 -15.5t15 1.5q2 2 3.5 4t2.5 3q2 1 3.5 1.5t3.5 2.5q10 6 14 11t11 10q36 18 72 31t72.5 18.5t73 2t73.5 -19.5q10 -5 18 -9.5t14.5 -9t12.5 -10.5t14 -15
q20 -20 30 -42t24 -42q6 -12 9.5 -24.5t5.5 -29.5q3 -15 5 -37t1.5 -45.5t-3 -45.5t-7.5 -37q-1 -1 -3.5 -1t-2.5 -3q-2 -8 -7.5 -17.5t-10.5 -18.5q-6 -10 -11.5 -21t-11.5 -17q-15 -19 -32.5 -32t-39.5 -19q-34 -16 -78.5 -25.5t-100.5 -11.5q-10 1 -21 0.5t-20 -1.5
q-4 0 -9 2.5t-9 3.5q-6 0 -11 -2t-10 0q-4 0 -13.5 4.5t-18.5 6.5q-19 7 -28.5 5.5t-12.5 -10.5t-2 -25.5t2 -38.5q3 -29 2.5 -48t-0.5 -48q1 -15 4 -31.5t3 -32.5q0 -8 -1 -18.5t-2 -21.5q0 -12 0.5 -21t-1 -15t-5.5 -10.5t-13 -7.5q-8 0 -25.5 -5.5t-37.5 -10.5
t-38.5 -7.5t-27.5 3.5q-6 3 -8.5 12.5t-3 22.5t-0.5 26v24q-1 12 -2.5 21.5t-1.5 19.5q0 18 0.5 29t1.5 18.5t1.5 11.5t0.5 8q0 26 -2.5 57t-5.5 64t-5 67t-2 65q0 18 -3 35.5t-4 34.5q-2 21 -1 41t0 40q-1 19 -4 36.5t-3 34.5q0 10 1.5 20.5t1.5 18.5q-1 8 -3.5 17t-3.5 20
q-2 12 -3 28.5t4 24.5q3 4 11 8.5t18.5 8.5t21.5 6.5t19 4.5zM1082 471q-5 -1 -9 -4.5t-11 -5.5q-6 -3 -13.5 -4.5t-13.5 -5.5q-13 -8 -24.5 -18t-22.5 -21q-3 -2 -7.5 -3t-6.5 -4q-5 -6 -8 -13q-12 -15 -15 -27q-2 -11 -0.5 -18.5t0.5 -18.5q-1 -26 3 -38t20 -24
q9 -7 23 -12.5t21 -8.5q8 -4 14.5 -5.5t13.5 -3.5q28 -8 57 -8.5t64 4.5q19 3 32 5.5t22 6.5t16.5 10t16.5 15q5 5 9 11t6 11q0 2 3 3t4 2t-0.5 2.5t-0.5 3.5q0 1 3 1.5t4 1.5q1 4 0 10.5t1 11.5q2 7 3 12t1 10q0 17 -5.5 34.5t-10.5 26.5t-9.5 14.5t-10.5 11.5
q-11 12 -23.5 20t-24.5 16q-13 6 -29 8t-32 1t-31.5 -4t-28.5 -6z" />
    <glyph glyph-name="tw" unicode="tw" horiz-adv-x="1404" 
d="M171 851q3 2 21.5 3.5t41 2t42.5 -0.5t26 -5q5 -4 8.5 -15.5t4.5 -22.5q2 -19 0 -46t0 -50q1 -6 1 -19.5v-28.5t0.5 -27t2.5 -13q4 -4 13.5 -5t21 -1t22 1.5t18.5 1.5q9 0 34.5 2t54.5 4t57.5 3t43.5 1q12 1 30 2t35.5 1t31 -1t16.5 -4q4 -3 5 -18.5t0 -34.5t-2.5 -38.5
t-2.5 -31.5q-1 -30 -1.5 -56t0 -50t2 -47.5t3.5 -49.5l-2 -2q-2 -2 -2 -5q1 -1 2 -7t2 -13q1 -8 1 -16t2 -15q2 -6 5.5 -11.5t5.5 -12.5q5 -19 13.5 -36t30.5 -19q12 -2 23 3.5t19 13.5t12 17t8 17q11 23 21 62q2 8 5.5 15.5t1.5 18.5q-2 7 0 9.5t3 11.5q4 61 1.5 123.5
t5.5 130.5q2 12 2.5 22t4.5 13q1 1 9 1.5t18.5 1t22 0.5h19.5q7 0 16.5 0.5t19 0t17.5 -2t12 -5.5t7 -18.5t3 -29.5q0 -7 -1 -23t-2 -28l-4 -52q0 -14 -2 -27.5t-1 -24.5q0 -8 2.5 -18.5t4.5 -22.5q0 -4 -2 -5.5t-2 -4.5q0 -1 1.5 -10.5t2.5 -17.5q2 -43 8 -79t23 -65
q5 -8 7.5 -15t9.5 -12q1 -2 3.5 -2.5t3.5 -1.5q5 -3 9 -4.5t15 -2.5q17 0 27.5 6.5t20.5 17.5q2 2 1.5 5.5t1.5 5.5q1 1 3.5 1.5t3.5 1.5q9 16 14 43.5t10 52.5q4 27 7 52t4.5 51t2 54.5t0.5 62.5q0 7 -1 23.5t-1.5 34t0.5 32.5t5 20q1 1 12 3.5t19 3.5q17 2 33 0.5t33 -3.5
q8 -2 18 -2t12 -2q1 -1 3.5 -8t4.5 -16t4 -19.5t2 -18.5q4 -41 3.5 -90.5t0.5 -87.5q0 -26 -3.5 -50.5t-7.5 -46.5q-2 -14 -2.5 -29t-4.5 -29q-2 -10 -7.5 -20t-9.5 -21q-6 -22 -9 -34.5t-11 -27.5q-7 -11 -13 -22.5t-15 -22.5q-11 -12 -24 -24q-12 -11 -22.5 -17t-28.5 -14
q-17 -8 -42.5 -8.5t-54.5 1.5q-19 2 -35 3.5t-30 7.5q-6 2 -13 5.5t-14 7.5q-8 5 -12 7t-9 7l-10 17q-5 8 -10.5 15t-10.5 20q-3 8 -8 6t-10 -8.5t-10.5 -15t-9.5 -13.5q-11 -12 -26 -30.5t-29 -24.5q-5 -3 -14 -4t-17 -3q-17 -5 -32 -6t-40 3q-18 2 -31.5 5t-26.5 12
q-5 2 -7.5 6.5t-6.5 6.5q-8 6 -17 11t-14 10q-2 2 -3.5 6.5t-3.5 7.5q-1 1 -3.5 1.5t-3.5 1.5q0 2 0.5 4t-0.5 3q-4 6 -9.5 10.5t-7.5 6.5q-2 5 -3 13t-4 15q-5 14 -14 34.5t-13 37.5q-2 9 -2 21t-2 24q-2 20 -5.5 54t-4.5 69q-1 23 0.5 46.5t3.5 46.5v30q-19 -1 -48 -1.5
t-58.5 -2t-53 -3t-30.5 -4.5q-2 0 -8 -1t-13 -1.5t-13 -2t-7 -2.5q-2 -2 -3.5 -14t-2.5 -27t-1 -28.5v-19.5q0 -12 0.5 -19.5t1.5 -14t2.5 -15t2.5 -22.5q2 -25 2.5 -56.5t0 -65.5l-1 -68t-1.5 -64q-1 -11 -1.5 -19.5t-2.5 -18.5q-2 -13 -3 -22.5t-4 -11.5q-2 -2 -15 -0.5
t-19 0.5q-9 -1 -16.5 -2.5t-14.5 -1.5h-16.5t-20.5 0.5t-18.5 1.5t-9.5 2q-2 8 -5 15q-2 6 -4 11.5t-2 7.5q-1 11 1 23t3 22q2 37 0 76t0 79q0 12 2 23.5t1 24.5q0 3 -3 15.5t-4 21.5q-1 14 1.5 31.5t2.5 37.5v28q0 7 0 4.5t-0.5 -7t-1.5 -7.5t-2 5q0 2 -2 4t-1 6v10.5v15.5
t-1 14.5t-2 7.5q-5 4 -19 4.5t-31 -1t-33 -3.5l-24 -3q-2 -1 -7 0t-7 0q-2 -2 -0.5 -4t-2.5 -3q-16 -4 -22.5 0t-11.5 17q-2 3 -0.5 4t0.5 6q-1 2 -4 4t-3 3q-2 8 -1 22t1 26q-1 16 -3.5 30.5t-0.5 21.5q2 5 13.5 11.5t21.5 8.5q22 5 46 2.5t50 1.5q8 1 20.5 3.5t13.5 3.5
l1 18t1.5 39.5t1 41t0.5 23.5q-1 8 -3.5 18t-3.5 19q-1 11 -1.5 22.5t0 22t3.5 19t8 12.5z" />
    <glyph glyph-name="nn" unicode="nn" horiz-adv-x="1595" 
d="M425 636q6 0 16.5 0.5t22.5 1t24.5 0t22.5 -1.5q7 -2 14.5 -2t12.5 -2q4 -1 14.5 -7.5t16.5 -9.5q5 -2 9 -3.5t8 -3.5q20 -11 37.5 -33t28.5 -46q2 -7 3 -15t3 -16q2 -3 4 -6.5t3 -6.5q3 -8 5.5 -20t5.5 -25q1 -8 3 -15.5t4 -15.5q1 -9 -0.5 -19t0.5 -19q1 -8 3.5 -14
t2.5 -13q2 -27 0 -57.5t-3 -59.5q-1 -20 0.5 -38.5t-0.5 -33.5q-1 -10 -3.5 -20.5t-3.5 -21.5q-1 -13 0.5 -28.5t-0.5 -29.5t-5 -30.5t-9 -21.5q-9 -8 -30.5 -6t-41.5 3t-42.5 0.5t-29.5 6.5t-7.5 20.5t1.5 29t5 31t4 25.5q1 5 -1 9t-2 9q0 10 3 22.5t4 28.5q2 33 2 71.5
t-1.5 75.5t-6 66.5t-11.5 44.5q-2 5 -7 11t-10 13q-5 5 -11.5 12t-9.5 9q-7 2 -22 2.5t-26 0.5q-26 0 -40.5 -3.5t-31.5 -10.5q-11 -4 -22.5 -8t-22.5 -9q-9 -5 -21.5 -12.5t-24.5 -17t-22 -20.5t-14 -22q-6 -15 -6.5 -42.5t-0.5 -57.5q-1 -29 -1.5 -53t-1.5 -47.5t-2 -49
t-2 -56.5q0 -3 -1 -15.5t-2.5 -27t-3.5 -26.5t-4 -13q-1 -1 -6.5 -1.5t-13 -1l-15 -1t-13.5 -0.5q-11 1 -23 4t-18 3t-14.5 -2t-19.5 -1q-7 0 -20 1t-15 2q-3 4 -4 18.5t0 33t2 39t2 36.5q4 67 6 128t5 130q2 53 -1.5 97t-2.5 92q0 7 -1 12.5t1 11.5q1 4 2.5 10.5t4.5 10.5
q4 4 12 4.5t16 5.5q5 3 18 4.5t28 1.5t30.5 -1t26.5 -2q2 0 6.5 1t6.5 -1t1 -3.5t3 -3.5q8 -2 13 0.5t8 -0.5q-1 1 0.5 -10.5t2.5 -16.5q-1 -8 -1 -14q0 -5 -0.5 -10.5t1.5 -6.5q4 -4 8.5 -2t8 5.5t5.5 7l2 3.5q7 4 14 6t10 4q14 8 25 16t20 12q11 4 24 6t24 4q16 3 28 4
t27 3zM1222 603q7 0 19 0.5t26 1t28 0t25 -1.5q8 -2 16.5 -2t14.5 -2q5 -1 17 -7t19 -9q5 -2 10 -3t9 -3q23 -10 43.5 -30.5t32.5 -43.5q28 -71 34.5 -139.5t4.5 -143.5q-2 -45 -2.5 -81.5t-5.5 -79.5q-2 -13 -5.5 -28.5t-10.5 -20.5q-11 -7 -35.5 -5t-47.5 3h-23.5
t-24.5 0.5t-21 1.5t-13 4q-9 7 -11.5 36.5t-1 70.5t4.5 88t4.5 89.5t0.5 75.5t-9 45q-2 5 -7.5 10.5t-11.5 12.5q-16 14 -36 19.5t-41.5 5.5t-43 -5t-40.5 -11q-13 -3 -26 -7t-26 -9q-10 -4 -24.5 -11.5t-28.5 -16.5t-25.5 -19t-15.5 -20q-7 -14 -7.5 -39.5t-0.5 -54.5
q-1 -27 -1.5 -49.5t-1.5 -44.5t-2 -45.5t-3 -52.5q0 -3 -1 -15t-2.5 -25t-3.5 -24.5t-5 -12.5q-4 -4 -24.5 -4.5t-44.5 0t-45 2.5t-27 2q-8 0 -23 1t-17 2q-4 3 -4.5 16.5t0 31t2 36.5t2.5 34q5 63 7 120t6 122q2 49 -2 91t-3 86q0 6 -1 11.5t1 10.5q1 4 3 10t5 10
q5 4 14.5 4.5t17.5 4.5q31 21 55.5 18.5t44.5 -16t35.5 -32t29.5 -28.5q5 -3 10 -1.5t9 4.5t6 6.5l2 3.5q8 4 16 6t12 4q17 8 29 15t22 11q13 4 27.5 5.5t27.5 3.5q18 3 32 4t31 3z" />
    <glyph glyph-name=".notdef" horiz-adv-x="321" 
 />
    <glyph glyph-name=".null" horiz-adv-x="0" 
 />
    <glyph glyph-name="nonmarkingreturn" unicode="&#xd;" horiz-adv-x="321" 
 />
    <glyph glyph-name="NULL" horiz-adv-x="0" 
 />
    <glyph glyph-name="NULL" horiz-adv-x="0" 
 />
    <glyph glyph-name="space" unicode=" " horiz-adv-x="321" 
 />
    <glyph glyph-name="exclam" unicode="!" horiz-adv-x="394" 
d="M154 885q3 0 18.5 1t33.5 1t34 -1t21 -5q8 -8 6 -19t-3 -22q-1 -6 0 -12.5t0 -11.5q-1 -6 -3.5 -9t-3.5 -8q-2 -18 0 -26t0 -22q0 -1 -2 -1.5t-1 -2.5q0 -1 2 -1t1 -2q-1 -6 -3.5 -10.5t-3.5 -13.5q0 -6 0.5 -9t1.5 -7t1.5 -9.5t0.5 -16.5q-1 -8 -3.5 -15t-3.5 -16
q-1 -5 1 -11t2 -13q0 -8 -3 -17.5t-4 -19.5q-2 -20 2 -44.5t-2 -45.5q-1 -2 -3.5 -4t-2.5 -6q-1 -5 1 -10.5t2 -10.5v-24q-1 -6 -3.5 -12.5t-3.5 -14.5q-1 -7 2 -13.5t2 -14.5q-1 -5 -4 -10t-3 -10q-2 -11 -0.5 -19.5t0.5 -22.5h-2q-2 0 -2 -3q0 -1 2 -1t2 -2q-1 -7 0 -22
t-7 -23q-6 -6 -25.5 -8t-41 -1t-40.5 5.5t-24 10.5t-7.5 20t-3.5 31t-1.5 35.5t-1.5 33.5q0 14 -2.5 28t-3.5 30q-2 32 0 66.5t0 67.5q-2 32 -4 61t0 53q1 8 4 19t3 19q1 14 -3 34.5t-4 37.5q0 3 1 13t3 20.5t4.5 20t5.5 11.5q4 3 14 4t21.5 1t21.5 -0.5t15 -0.5zM151 201
q25 3 44 1t35 -15q2 -2 3.5 -5t3.5 -5q1 -1 3 0t3 0q2 -1 0.5 -3.5t-0.5 -3.5q2 -2 5.5 -3.5t5.5 -3.5t1.5 -5t1.5 -5q7 -11 10 -17t7 -25q2 -6 4.5 -11.5t2.5 -8.5t-2.5 -8.5t-4.5 -12.5q0 -3 1.5 -2.5t2.5 -0.5q0 1 -3 -9.5t-4 -14.5q-4 -9 -13.5 -19.5t-20.5 -18.5
t-24 -15t-21 -9q-15 -3 -33 -0.5t-35 8t-31 13.5t-21 17q-2 2 -6 9t-8 15.5t-7 17t-3 13.5q-1 4 0 12.5t2.5 18t3.5 18t4 12.5q1 2 4.5 4.5t5.5 6.5q5 7 9 17t12 17q1 1 6 3t7 4q16 9 49 14z" />
    <glyph glyph-name="quotedbl" unicode="&#x22;" horiz-adv-x="427" 
d="M307 634l5 -7h1zM62 849q10 2 22.5 3t26.5 1q10 -1 26.5 -0.5t21.5 -3.5q3 -3 4.5 -17.5t2 -31.5t0.5 -33v-21q-1 -8 -1.5 -18t-2.5 -20q-2 -7 -5.5 -13.5t-4.5 -13.5q-1 -4 -0.5 -6.5t0.5 -7.5q0 -3 -1 -10t-2.5 -15t-3 -15t-3.5 -8t-13 -2t-23.5 -1.5t-24.5 0.5t-15 3
q-2 1 -5 7t-6 14t-6 15.5t-4 11.5q-2 8 -1.5 15.5t-1.5 15.5q-2 9 -3 14.5l-2 11t-2.5 12t-2.5 17.5q-1 6 -4 17.5t-5.5 24.5t-2.5 25t5 19q6 9 14.5 8.5t22.5 1.5zM224 849q5 3 24.5 4.5t41.5 0.5t40 -4t21 -8q1 -2 1 -10.5t-1 -19t-2 -19.5t-1 -12q-2 -8 -4 -15t-3 -13
q-5 -24 -8.5 -50.5t-12.5 -52.5q-2 -6 -5.5 -16t-1.5 -8q-2 -2 -8 -0.5t-9 0.5q-2 -1 -4 -4t-3 -3q-15 -3 -35 -2.5t-23 2.5q-2 1 -4.5 10t-4.5 20.5t-3.5 22.5t-1.5 16q0 8 2 13.5t2 13.5q-1 9 -3.5 15t-3.5 13q-1 5 1 10t2 10q0 10 -3 22t-4 24t1 23t13 17z" />
    <glyph glyph-name="numbersign" unicode="#" horiz-adv-x="864" 
d="M549 845q8 1 22 1t30 -5q-1 0 1.5 0t5.5 -1q4 -1 7 -2q2 -3 2 -10t-0.5 -14.5t-1 -14t-0.5 -9.5q1 -16 1 -29t-0.5 -26.5t-0.5 -28v-33.5q0 -5 1.5 -9.5t1.5 -11.5q0 -10 -0.5 -13t0.5 -4t5.5 -0.5t15.5 -2.5q7 -2 13.5 -7t20.5 0q3 1 4 3.5t6 3.5q8 1 22 1.5t30 1.5
q11 1 24 2t25 1t21 -0.5t12 -2.5q1 0 1.5 -7t2.5 -13q2 -7 4 -8t3 -6q1 -11 -3.5 -21.5t-0.5 -23.5q1 -1 2.5 -1t1.5 -2q0 -1 -2 -1.5t-2 -2.5q-1 -8 -4 -20t-3 -21q0 -1 0.5 -10.5t-3.5 -13.5q-2 -2 -8 0t-13 0q-3 -1 -4.5 -3.5t-5.5 -3.5q-28 -4 -63 -1t-68 -2
q-8 -2 -18.5 -3.5t-12.5 -3.5q-3 -3 -3 -15t0.5 -27t1.5 -30t1 -24q0 -5 -1 -8.5t-1.5 -5.5t-0.5 -4.5t3 -5.5q6 -7 23 -9t38 -2.5t42 0t35 -2.5q12 -2 16.5 -4.5t6 -7t0 -12.5t-1.5 -21q-1 -14 -0.5 -24.5t0.5 -16.5q-3 -19 -11 -41l-3 -14q-3 -3 -12 -3.5t-19.5 0.5l-21 2
t-16.5 1q-7 1 -16 2t-18 1q-8 0 -21 -1t-14 -2q-6 -5 -6.5 -19t1 -32t3.5 -36.5t2 -32.5q0 -5 1 -10.5t-1 -10.5q0 -1 -3 -5.5t-4 -4.5q0 -6 3.5 -16t0.5 -15t-12 -8.5t-20.5 -6t-22.5 -4t-17 -2.5q-3 0 -12.5 -0.5t-20 -0.5t-20 2t-13.5 6q-3 4 -4 15.5t-1.5 25t-0.5 26.5
v19q-2 16 -1 33t2 32t1 26.5t-2 15.5q-4 6 -10 3.5t-14 2.5q-2 2 -1 4t-3 3q-5 1 -16 2t-24.5 1t-26.5 -1t-22 -2q-3 0 -4.5 -2.5t-6.5 -4.5q-2 0 -7 1t-6 -1q-3 -2 -5 -12t-3.5 -21.5t-2 -21.5t-0.5 -13q0 -12 0.5 -28t0.5 -33.5v-34.5t-1 -31q0 -4 1 -13t-1 -11
q-5 -7 -25 -11.5t-40 -6.5q-9 0 -21.5 -1t-25 -1t-22.5 1.5t-13 4.5q-2 1 -3 11.5t-2 24t-1.5 26t-0.5 17.5q0 6 2.5 29t4.5 49.5t2.5 48.5t-2.5 27q1 -1 -5.5 2t-5.5 2q-5 2 -15.5 3t-22.5 1t-24.5 -0.5t-19.5 -0.5q-13 0 -28 -1t-28.5 -1t-24.5 1t-15 5q-5 4 -2 12t2 15
q-2 14 -4.5 16.5t-2.5 7.5q0 6 0.5 16t2.5 20.5t5.5 19.5t8.5 13t17 5.5t26 2.5t28.5 1t24.5 1q11 1 23.5 1h24t20 0.5t11.5 2.5t2.5 4t1.5 10q1 5 3.5 10l3.5 7q0 3 -2 8t-2 12q0 5 2 9t2 8q0 3 -0.5 9.5t-0.5 13v11.5t1 4q-8 8 -24.5 5t-37.5 -5q-4 0 -22 -1t-39 -1.5
t-39 0t-21 2.5q-2 1 -3 8.5t-2 16.5t-1 17v10q0 8 1 19.5t2 21.5q1 5 0.5 9t-0.5 8q1 15 8 19t26 9t39.5 5t46.5 2q11 0 23.5 0.5t21.5 2.5q3 1 2 3t1 4q6 4 11 2t10 5q8 10 8.5 39t1.5 57q1 19 -0.5 37t0.5 32q1 6 3 14t4 17t2 17t2 10q2 3 7.5 4l16.5 3q3 1 7 -0.5t6 0.5
q1 0 0.5 3t-0.5 4q6 1 11 1h9.5t7.5 -1t5 -4t5 -3q6 0 6 2.5t4 4.5q12 4 17.5 -0.5t13.5 -6.5q8 -3 12 -2t6 -1q5 -7 3 -24t-3 -42q-2 -18 0 -36t0 -32q-1 -8 -4 -15t-3 -13q0 -5 0.5 -14t2 -19t4 -18t6.5 -11q18 -2 34 -3q14 -1 25.5 -0.5t16.5 3.5q2 2 1 4t2 3
q14 4 23.5 1t11.5 -1q6 5 9.5 15t4.5 19q0 8 -4 15.5t-3 15.5q0 6 2.5 14t4.5 17q1 15 1 32.5v34t1.5 30t7.5 20.5q4 5 12 5.5t15 4.5q4 2 14.5 2.5t16.5 1.5zM343 457q-2 -2 -3.5 -11t-3.5 -17q-2 -11 -1.5 -18t1 -13t2 -12t2.5 -15q1 -5 -2 -7t-2 -7q1 -8 9 -11.5t19 -5
t23 -1t21 0.5h16h20.5t19 0.5t10.5 2.5q6 5 2.5 14.5t-2.5 13.5q1 14 2 35.5t-2 32.5q-1 3 1 4t2 3q0 9 -0.5 12.5t-2.5 4.5q-4 3 -15 3.5t-24.5 -1t-26.5 -3t-20 -2.5q-8 -1 -23.5 0.5t-21.5 -3.5z" />
    <glyph glyph-name="dollar" unicode="$" horiz-adv-x="581" 
d="M244 833q2 0 15 2.5t30 0.5q4 -1 8 -3t9 -4q9 -2 13.5 -2t7 -1t3.5 -4.5t4 -12.5q3 -12 4.5 -22t2.5 -23q0 -6 -2 -8.5t2 -8.5q3 -5 11.5 -9.5t19 -8.5t21 -7t16.5 -6q21 -8 42 -21q2 -2 8.5 -7t8.5 -10q2 -4 -2 -19t-9 -26q0 -2 -1 -3l-2 -4q-1 -1 -3.5 -1.5t-3.5 -1.5
q-2 -5 -1.5 -9t-1.5 -8t-5.5 -5.5t-5.5 -4.5q-4 -6 -9 -12.5t-11 -8.5q-16 -4 -31.5 6t-27.5 18q-2 2 -5 1.5t-5 1.5l-2 4q-1 2 -1 3q-3 2 -9 0t-12 0q-2 1 -4.5 3.5t-5.5 3.5q-17 5 -26.5 6t-28.5 -6q-2 -1 -5 -3l-6 -4q-14 -5 -25.5 -17t-11.5 -31q0 -16 9.5 -29t24 -24
t30.5 -20t28 -16q20 -12 34 -19.5t32 -21.5q8 -6 20.5 -13t23.5 -15q8 -6 15.5 -13t15.5 -14q7 -7 12.5 -11.5t9.5 -9.5t7.5 -10.5t8.5 -13.5q2 -4 5 -7t5 -7q3 -6 4 -14.5t3 -16.5q2 -7 5.5 -12.5t5.5 -11.5q2 -11 3 -30t0 -32q-1 -11 -4.5 -20.5t-5.5 -20.5
q-3 -11 -4.5 -21.5t-6.5 -19.5q-2 -5 -10 -16t-14 -18q-2 -2 -5 -3.5t-5 -3.5q-5 -7 -10.5 -15t-13.5 -13q-6 -4 -16 -8t-22 -9q-8 -4 -20.5 -8t-17.5 -9q-4 -5 -4 -14.5v-20.5t-0.5 -22t-5.5 -19q-7 -11 -27.5 -12t-44.5 -1h-31.5t-24.5 3.5t-15 13t-5 27.5q1 8 3.5 16.5
t0.5 14.5q-3 6 -11 10.5t-18.5 8t-21 6.5t-18.5 6q-12 5 -26 12.5t-26 15.5q-5 3 -10.5 7.5t-13.5 9.5q-1 1 -1.5 3.5t-1.5 3.5q-5 2 -12 7t-13 11t-11 12t-5 11q-2 11 5.5 19.5t11.5 14.5q6 9 11 15t10.5 12t11.5 12.5t15 15.5q3 3 9.5 13t14.5 11q8 2 17 -5t17 -12t18 -12
t20 -15q5 -4 16.5 -10t25 -12t27 -10.5t21.5 -5.5q27 -4 49 6t33 28t8.5 41t-22.5 45q-5 6 -12 12t-15 12l-3.5 3.5l-3.5 3.5q-4 2 -8 4.5t-9 5.5q-4 2 -10 8t-11 9q-3 2 -8 3.5t-9 3.5q-11 8 -22.5 15.5t-25.5 15.5q-2 2 -5 2t-5 2q-3 2 -6 4.5t-8 5.5l-3.5 3.5l-3.5 3.5
q-3 2 -8.5 3.5t-8.5 3.5q-7 5 -14 12t-14 12q-8 6 -12.5 10t-8.5 7.5t-7.5 9t-9.5 14.5q-2 4 -3 5.5l-3 4.5q-5 5 -6 10.5t-5 17.5q-5 18 -7.5 48.5t4.5 57.5q2 10 7 17.5t10 17.5q11 18 19 28t26 23q14 10 28 17.5t30 17.5q8 5 16 7.5t12 9.5q3 7 1 20t-3.5 26.5t0 23.5
t12.5 12q3 1 14 2t13 2z" />
    <glyph glyph-name="percent" unicode="%" horiz-adv-x="790" 
d="M553 845q9 5 18 3.5t27 -6.5q4 -1 6.5 -3.5t7.5 -3.5q7 -1 11 -1.5t6.5 -1t5.5 -2t8 -5.5q8 -6 20 -13t14 -15q3 -13 -3 -31q-1 -1 -4 -1.5t-3 -1.5q-2 -5 -4 -12.5t-7 -15.5q-1 -2 -3 -3.5t-3 -3.5q-4 -5 -6 -10t-5 -10q-14 -23 -25 -42.5t-19 -36.5q-9 -17 -17 -31
t-18 -31q-3 -6 -7 -10q-6 -8 -13 -22.5t-14 -25.5q-3 -5 -7.5 -8.5t-6.5 -9.5q-2 -5 -3 -12t-4 -12q-5 -8 -11.5 -15t-12.5 -16t-11.5 -19.5t-12.5 -21.5q-2 -3 -4.5 -7.5t-5.5 -9.5t-8 -11t-9 -13q-2 -4 -3.5 -8.5t-3.5 -8.5q-5 -8 -12 -15.5t-12 -15.5q-2 -2 -2 -5t-2 -5
q-2 -5 -7.5 -10t-9.5 -11q-2 -3 -1.5 -5.5t-1.5 -4.5q-7 -11 -17 -27t-18 -28q-11 -17 -26.5 -37t-28.5 -42q-6 -12 -13.5 -22.5t-17.5 -22.5q-6 -8 -13 -18.5t-14 -22.5q-2 -3 -3.5 -4t-3.5 -3t-1.5 -5t-1.5 -5q-3 -4 -8.5 -9.5t-9.5 -11.5q-5 -9 -13.5 -22.5t-23.5 -15.5
q-20 -3 -33 8.5t-29 22.5q-5 3 -9.5 4t-7.5 3q-4 2 -5.5 4.5t-5.5 5.5q-2 2 -5 2t-5 2q-9 8 -9 22.5t9 28.5q3 5 9.5 9.5t11.5 11.5q2 2 3 6.5t3 7.5q5 5 9 10.5t9 13.5q12 20 27.5 42.5t30.5 42.5q9 13 16 23.5t15 25.5q2 3 3.5 6.5t3.5 6.5t5 5.5t5 5.5q5 6 7 13.5t7 13.5
q4 7 8.5 11t8.5 10q5 7 7 13.5t7 13.5q10 17 23 34.5t25 37.5q24 39 46 76t47 76q8 12 15.5 23.5t15.5 24.5q4 6 6.5 13.5t6.5 13.5q8 13 15.5 25t15.5 27l3.5 7t3.5 6q5 7 10 17.5t11 20.5q5 9 10.5 18t13.5 20q2 3 5 5.5t5 4.5q3 5 2.5 9.5t1.5 8.5q0 1 5.5 6.5t7.5 6.5z
M158 780q14 2 27.5 3.5t27.5 -0.5q33 -2 59.5 -18.5t43.5 -36.5q4 -4 6.5 -8t7.5 -9q2 -2 3.5 -7.5t3.5 -16.5q2 -8 3 -14t4 -17t2.5 -22.5t-2.5 -28.5q-3 -18 -5.5 -27.5t-8.5 -24.5q-2 -5 -3.5 -10.5t-3.5 -9.5q-2 -5 -6 -8.5t-8 -9.5q-3 -5 -4.5 -12.5t-2.5 -7.5
q-2 -2 -4.5 -2t-5.5 -2q-2 -1 -2 -3t-1 -3q-3 -2 -6 -2t-5 -2q-5 -5 -19 -15t-25 -12q-8 -2 -15.5 -2t-15.5 -2q-5 -1 -5.5 -3t-4.5 -4l-6 -0.5t-12.5 -0.5h-12.5t-7 1v4v3q-8 2 -15.5 0t-12.5 0q-6 2 -20 10.5t-24 13.5q-8 5 -14 9.5t-14 11.5q-16 13 -26 31.5t-15 47.5
q-5 24 -2.5 41t9.5 41q3 14 6 23.5t7 17.5t8.5 16t12.5 19q1 1 3.5 1.5t3.5 1.5q2 5 5 9t9 9q5 4 12.5 7t14.5 6q8 5 15.5 9t12.5 5q7 2 14 0.5t13 -0.5zM168 663q-3 -2 -8 -1.5t-9 -1.5l-6 -6t-4 -5q-8 -13 -6.5 -28.5t10.5 -27.5t24.5 -17.5t33.5 1.5q3 1 7 6.5t7.5 11.5
t6.5 12t3 8q2 14 -5.5 27t-11.5 18l-4 7q-6 4 -11.5 1t-8.5 2q-4 5 -5.5 3t-5.5 -3q-3 -1 -3.5 -3t-3.5 -4zM553 378q5 1 19 2t23 -2q2 -1 7.5 -1.5t12 -1.5t12.5 -2t9 -2q4 -2 10 -6.5t13 -10t12.5 -11.5t8.5 -10q2 -3 3.5 -9t3.5 -11t5.5 -8t5.5 -6q2 -6 1.5 -13t1.5 -15
l4 -10t3 -10q1 -4 -1.5 -11t-2.5 -13q1 -5 4.5 -9.5t2.5 -7.5q0 -4 -2.5 -6.5t-4.5 -7.5q-2 -12 -2.5 -26.5t-3.5 -25.5q-1 -1 -3 -6t-4 -7q-3 -6 -7.5 -11.5t-9.5 -12.5t-10.5 -10.5t-13.5 -10.5q-5 -4 -8.5 -8t-5.5 -6q-5 -2 -15 -3t-20 -4q-8 -2 -15.5 -5t-15.5 -5
q-18 -3 -37.5 -2t-38.5 6t-35 13.5t-26 20.5q-5 6 -7.5 14t-6.5 17q-3 8 -7 14.5t-6 12.5q-2 8 -2.5 17.5t-1.5 17.5q-1 14 0.5 34.5t6.5 37.5q0 2 3 3.5t4 3.5q2 8 2 11t5 9q4 7 9.5 15t10.5 16q6 9 8.5 12.5t12.5 11.5l18 15t20 13q6 2 12.5 1.5t14.5 1.5q7 2 13 4t11 3z
M526 241q-5 -8 -9 -16.5t-1 -18.5q1 -6 7.5 -12t14.5 -10.5t16 -7t13 -1.5q7 1 13 7.5t10 15.5t5.5 19.5t-0.5 19.5q-2 7 -10.5 14.5t-14.5 9.5q-5 2 -10.5 0.5t-13.5 -3.5q-9 -3 -13 -7.5t-7 -9.5z" />
    <glyph glyph-name="ampersand" unicode="&#x26;" horiz-adv-x="796" 
d="M279 873q5 1 13.5 2t18.5 2t20 1t17 -1q8 -2 17.5 -7.5t20.5 -10.5q9 -4 19.5 -8t18.5 -9q2 -1 4.5 -4.5t5.5 -5.5q8 -7 17 -17q5 -7 11 -19.5t11 -28t8.5 -32t3.5 -30.5q0 -8 -2 -13.5t-4 -14.5q0 2 2.5 0t0.5 -3q-5 -4 -8 -21t-6 -27q-2 -6 -3.5 -13t-3.5 -11
q-2 -5 -8 -10.5t-12 -13.5q-5 -7 -8.5 -15t-8.5 -13q-12 -13 -24 -18.5t-14 -15.5q-1 -8 4.5 -17t13.5 -17.5t16.5 -16.5t13.5 -15q2 -2 1.5 -5t1.5 -5q3 -3 7.5 -5t6.5 -5q3 -4 4 -9t3 -8q1 -1 3.5 0t3.5 0t0 -3.5t0 -3.5q1 -2 3 -2t4 -2q19 -23 33.5 -41t34.5 -41
q3 -4 6.5 -9.5t8 -9t10 -4t13.5 5.5q1 1 2 3.5t2 3.5q5 2 6.5 4.5t6.5 8.5q1 1 4 2t3 2q3 7 11 17q5 6 12 14t18 10q12 1 23 -4t21 -13.5t19 -18.5t16 -19q7 -8 12 -13t6 -11q1 -13 -12.5 -27.5t-25.5 -27.5q-6 -6 -12.5 -11.5t-11.5 -12.5t-11 -15t-6 -13q-1 -7 4.5 -12.5
t12.5 -14.5q4 -5 8.5 -12t8.5 -12q9 -11 18 -19t14 -16.5t4 -18t-12 -22.5t-19.5 -18t-25.5 -16q-7 -5 -11 -9.5t-13 -4.5q-17 0 -28 14t-20 24q-11 12 -21.5 24.5t-22.5 13.5q-14 1 -25.5 -10.5t-23.5 -20.5q-11 -9 -24.5 -17t-23.5 -14q-23 -15 -51 -28q-8 -3 -15.5 -5
t-15.5 -5q-8 -2 -15 -5.5t-13 -4.5q-11 -2 -30.5 -2.5t-40 0.5t-39 3t-27.5 6q-10 4 -19 8t-19 9q-34 17 -65 48l-8.5 8.5l-8.5 8.5q-4 3 -14.5 13.5t-13.5 14.5t-4.5 10.5t-5.5 13.5q-7 12 -19 31.5t-15 33.5q-5 17 -6 33t-1 29q0 20 2.5 37.5t7.5 34.5q4 15 10 26.5
t14 25.5q7 10 16 22t15 26q2 3 4 8.5t6 8.5q2 1 5.5 1t5.5 2t1.5 5.5t1.5 5.5q5 7 15 16t19 18q16 16 33.5 31t18.5 24l-2 6q-2 6 -2 8q0 1 -3 1.5t-3 1.5q-1 2 0 3.5t0 3.5q-1 1 -4 1.5t-3 1.5q-4 8 -9.5 17t-11.5 18q-4 6 -6.5 9.5t-4 7.5t-2.5 9.5t-4 14.5q-2 6 -4 11
t-3 10q-1 9 0.5 19.5t2.5 21.5q2 18 4 29.5t7 25.5q2 6 5 12.5t5 14.5q1 2 1.5 7t2.5 7q1 2 4.5 3.5t5.5 3.5t1.5 5t1.5 5q5 5 10.5 11t10.5 10q2 2 5 1.5t5 1.5q5 4 8 8t6 6q7 4 15 5.5t16 4.5q10 4 17 8t17 6zM255 701q0 -9 6 -22.5t8 -18.5q0 -1 3 -1.5t4 -1.5
q4 -7 5 -13.5t5 -10.5q7 -9 11.5 -12t8 -1.5t7.5 6t11 10.5q5 4 11.5 7.5t8.5 6.5q2 1 1 3t-1 4q1 1 4 1.5t3 1.5q5 10 7.5 24t3.5 21h-2q-2 0 -2 3q0 2 2.5 2.5t1.5 4.5q-2 5 -8 11l-13 13q-8 8 -14.5 12t-16.5 5q-3 1 -4 -1t-3 -2q-20 -4 -33.5 -21.5t-14.5 -30.5z
M269 399q-7 -5 -13.5 -10.5t-14.5 -13.5q-6 -7 -14 -13.5t-13 -14.5q-2 -3 -3.5 -8t-3.5 -9q-1 -1 -3.5 -1.5t-3.5 -1.5q-2 -2 -2 -5.5t-1 -5.5q-11 -17 -21 -36t-10 -43q0 -12 4 -25.5t6 -18.5q2 -4 2 -9t2 -8q5 -11 15 -22t15 -16q15 -13 22 -17.5t23 -10.5
q13 -5 27.5 -9.5t27.5 -3.5q3 0 8 2t13 4q5 2 12.5 2t11.5 2q2 1 3.5 5.5t6.5 8.5q4 2 9 3t8 3q4 3 7 6t7 5t7.5 5t6.5 5q14 10 30.5 22t17.5 26q0 11 -13.5 25.5t-27.5 29.5q-20 23 -35 42t-31 37q-5 6 -9.5 10t-7.5 7q-2 2 -1.5 5.5t-1.5 5.5q-10 11 -21.5 22t-19.5 19
q-2 2 -2 5t-2 5q-3 1 -6 0q-2 -1 -4 -3q-4 -1 -4.5 -3t-2.5 -4z" />
    <glyph glyph-name="quotesingle" unicode="'" horiz-adv-x="231" 
d="M29 849q5 3 24.5 4.5t41.5 0.5t40 -4t21 -8q1 -2 1 -10.5t-1 -19t-2 -19.5t-1 -12q-2 -8 -4 -15t-3 -13q-5 -24 -8.5 -50.5t-12.5 -52.5q-2 -6 -5.5 -16t-1.5 -8q-2 -2 -8 -0.5t-9 0.5q-2 -1 -4 -4t-3 -3q-15 -3 -35 -2.5t-23 2.5q-2 1 -4.5 10t-4.5 20.5t-3.5 22.5
t-1.5 16q0 8 2 13.5t2 13.5q-1 9 -3.5 15t-3.5 13q-1 5 1 10t2 10q0 10 -3 22t-4 24t1 23t13 17z" />
    <glyph glyph-name="parenleft" unicode="(" horiz-adv-x="376" 
d="M160 983q4 1 2.5 1.5t1.5 -1.5q11 -5 29.5 -8t36.5 -8t32.5 -13t18.5 -23q3 -12 -4.5 -28.5t-13.5 -33.5q-5 -16 -9 -33.5t-8 -31.5q-5 -17 -9 -33.5t-8 -31.5q-1 -5 -1 -9t-2 -8t-4 -7t-3 -7q-2 -10 -2 -19t-2 -19q-1 -3 -3 -6t-4 -8q-2 -7 -3 -15.5t-3 -18.5
q-7 -35 -10.5 -75t-7.5 -80l-4 -38t-2 -37q-2 -42 2 -85.5t8 -79.5q2 -23 6.5 -46t10.5 -50q2 -12 4.5 -24.5t5.5 -23.5t8 -21t10 -21q4 -11 6 -22t7 -22q4 -9 10 -18t11 -20q14 -29 10.5 -42.5t-31.5 -29.5q-4 -2 -11 -6t-13 -8q-3 -2 -6 -6t-8 -8q-4 -2 -8.5 -3.5
t-8.5 -3.5q-2 -1 -5.5 -4.5t-7.5 -5.5q-3 -2 -12.5 -4t-5.5 -3q-8 1 -17.5 13t-19.5 28q-24 39 -42 92.5t-30 113.5t-18.5 123.5t-6.5 121.5q0 70 4 143.5t14 137.5q9 65 20 116.5t24 107.5q1 3 3.5 6t3.5 7q1 5 -0.5 9.5t0.5 8.5t6 10t8 14q3 6 6.5 16.5t7 21.5t7 21.5
t6.5 15.5q5 6 12 12.5t12 8.5z" />
    <glyph glyph-name="parenright" unicode=")" horiz-adv-x="361" 
d="M128 973q0 1 1 2q2 2 3 2q-1 0 2.5 -1.5t8 -3t8.5 -3.5t5 -2q2 -2 2.5 -7.5t3.5 -10.5q13 -18 25.5 -45.5t22.5 -57t18 -58t14 -48.5q23 -82 35.5 -182t5.5 -206q-1 -10 -3.5 -19.5t-3.5 -18.5q-1 -5 1.5 -8.5t1.5 -8.5q0 -5 -1.5 -9t-1.5 -9q-2 -19 -4.5 -37t-5.5 -35
q-11 -51 -23.5 -102.5t-28.5 -100.5q-4 -11 -6.5 -22.5t-7.5 -25.5q-2 -5 -6.5 -9.5t-6.5 -10.5l-3 -12t-4 -12q-3 -7 -9 -19.5t-13 -25.5t-13.5 -23t-9.5 -11q1 0 -9 1t-15 2q-11 2 -26 10.5t-22 13.5q-15 9 -32 21.5t-20 26.5q-3 18 5 33.5t16 32.5q6 14 12.5 29.5
t11.5 28.5q6 17 9 33t8 32t10.5 31t10.5 31q8 30 12 68l8 76q4 37 8.5 77t2.5 78q-1 11 -3.5 20.5t-3.5 20.5q-2 24 -2.5 47t-4.5 46q-7 43 -15 84.5t-19 80.5q-5 18 -11 36.5t-13 35.5l-8.5 17t-9.5 18q-1 2 -1 4.5t-2 5.5q-4 8 -11.5 22t-5.5 22q2 10 15 18.5t30 16
t34 12.5t27 8q2 1 3.5 0.5t3.5 -0.5z" />
    <glyph glyph-name="asterisk" unicode="*" horiz-adv-x="532" 
d="M175 929q6 4 27 5t44.5 -1.5t41.5 -7.5t18 -13q0 -2 -2 -3t-2 -4q1 -4 4 -7.5t3 -5.5q1 -8 -2 -15.5t-1 -15.5q0 -2 -1 -7.5t1 -6.5q6 -5 16 -0.5t20.5 12t19.5 14.5t13 8q17 4 25 -1.5t16 -15.5q2 -2 3 -6.5t4 -7.5q5 -7 10.5 -12t13.5 -19q8 -16 9 -24.5t-13 -23.5
q-3 -3 -7.5 -6t-9.5 -7q-6 -6 -20 -11t-24 -10t-11.5 -12.5t17.5 -18.5q4 -2 12.5 -4.5t15.5 -5.5q3 -2 9 -5t13 -7.5t12.5 -9.5t6.5 -9q2 -7 -2 -19.5t-10.5 -25.5t-14 -24.5t-11.5 -16.5q-5 -6 -8.5 -10.5t-11.5 -6.5q-14 -3 -26 5t-19 12q-2 2 -8.5 4.5t-12.5 5.5
q-7 5 -11 9t-9 1q-6 -2 -9.5 -17t-1.5 -27q1 -1 4 -5.5t3 -5.5q0 -2 -3 -6t-4 -7q2 8 2.5 5.5t0 -8.5t-1.5 -12l-1 -6q-2 -2 -12.5 -4t-23.5 -3.5t-26 -2t-20 -0.5q-17 1 -31.5 5.5t-16.5 18.5q0 -1 2 0t1 3q-1 6 -3 11t-3 9.5t-1 7.5q0 7 2 13t2 11q-2 22 -7.5 23t-23.5 -9
l-21 -14q-9 -7 -19.5 -16.5t-31.5 -4.5q-9 2 -18 15.5l-17 25.5q-1 2 -3 2t-3 2q-3 4 -3.5 9.5t-3.5 10.5q-4 6 -9.5 9t-4.5 16q0 7 6 13.5t13.5 12t14.5 9.5t11 6q18 10 34 15t17 16t-6 12.5t-18 7.5q-7 4 -13 8.5t-14 9.5q-17 9 -33.5 15.5t-18.5 21.5q-1 6 2.5 12t9 12
t11 11.5t8.5 9.5q2 3 3 6t4 8l5 5t8.5 9t8.5 9t5 4q16 5 31 -2t24 -12q2 -1 9 -6t12 -7q1 -1 9 -7t12 -4q9 5 8 16.5t-3.5 24.5t-2.5 25t11 20z" />
    <glyph glyph-name="plus" unicode="+" horiz-adv-x="667" 
d="M272 700q9 2 22 3.5t29 0.5q4 0 11.5 -0.5t15 -0.5t13.5 -1t8 -2q3 -2 2.5 -9t1.5 -15q0 -2 3 -3q2 -1 4 -3q0 -3 -2 -5l-2 -2q5 -30 7 -63t4 -68q0 -8 -2.5 -12t2.5 -9q2 -2 12.5 -4t14.5 -2q20 -2 49 0.5t61 2.5q7 0 16 0.5t17.5 0.5h14.5t7 -1l1.5 -8t2.5 -17t2 -15.5
t1 -4.5q0 -5 -1 -9.5t-3 -10.5q-1 -5 -2 -13t-1 -18q0 -3 0.5 -10.5t-0.5 -15.5t-3 -16.5t-7 -12.5q-4 -3 -18.5 -6t-23.5 -4q-20 -2 -44 0.5t-45 2.5q-18 0 -28.5 -1t-15.5 -5t-7 -14t-4 -28q-1 -6 0 -13t0 -15q0 -6 -2 -12.5t-1 -11.5q0 -3 3 -11.5t4 -15.5q0 -6 -0.5 -16
t-1 -20.5t-2 -18.5t-3.5 -10q-3 -3 -12.5 -4t-20 -1t-20.5 0.5t-16 0.5h-27t-21 2t-15 7.5t-9 18.5q-1 3 -0.5 6.5t0.5 6.5q-2 0 -3 1q-2 2 -1 3q5 4 1 18.5t-4 22.5q0 17 3.5 29.5t3.5 22.5q0 2 -0.5 9t-1 15t-2 15t-3.5 9q-4 4 -20.5 6t-36 2.5t-38 1t-25.5 0.5
q-20 1 -43 -1t-40 4q-18 8 -19.5 29t-0.5 50q0 8 1 16t2 19q1 7 0 16.5t3 14.5q5 4 20.5 5.5t34 1t37 -2t29.5 -1.5q25 -2 51 0q14 1 28.5 3t16.5 4q3 4 2 18t-2.5 31t-4 32.5t-2.5 21.5q-1 8 -2 23t-1 29q0 2 -1 7.5t1 12.5q2 9 5.5 12.5t8.5 4t13.5 0t20.5 0.5z" />
    <glyph glyph-name="comma" unicode="," horiz-adv-x="349" 
d="M125 194q23 3 40.5 0.5t35.5 -10.5q11 -5 23.5 -13t20.5 -18q2 -2 2 -5.5t2 -5.5q5 -5 6 -8t4 -16q2 -7 7.5 -21.5t6.5 -26.5q2 -32 -9.5 -66.5t-24.5 -60.5q-5 -10 -13.5 -24t-17.5 -27q-2 -3 -5.5 -5.5t-5.5 -5.5q-4 -6 -12 -17.5t-15 -13.5q-7 -1 -14 2.5t-13.5 8.5
t-12 11t-8.5 9t-5 6.5t-5 7.5q1 -1 -3 5.5t-4 8.5q-1 9 5.5 17t11.5 17t12 18.5t2 19.5q-5 8 -17 5.5t-28 1.5q-1 0 -0.5 3t0.5 4q-2 2 -9 -0.5t-12 0.5q-20 10 -36 38t-15 58q0 18 4.5 27.5t15.5 23.5q3 4 5.5 6t5.5 5q3 4 4 7.5t3 5.5t5 2t5 2q8 8 23 14.5t35 9.5z" />
    <glyph glyph-name="hyphen" unicode="-" horiz-adv-x="716" 
d="M404 532q13 0 37.5 1t52.5 1.5t55.5 -1t47.5 -5.5q8 -2 16.5 -3t7.5 0q2 -2 2 -15t1 -23q1 -5 3 -20t3.5 -32t0.5 -32.5t-7 -21.5q-3 -4 -18 -5.5t-23 -1.5q-13 -1 -24 1t-21 2q-47 2 -102.5 0.5t-113.5 -3.5q-60 -3 -115 -2.5t-102 -1.5q-9 0 -21.5 -2t-24.5 -2.5
t-22.5 0t-16.5 4.5q-2 2 -4 7t-3 10q-3 9 -0.5 27t3.5 35q-1 0 -2 1q-2 2 -1 3q2 9 3.5 25t6.5 30q3 9 5 12t6 3.5t12 0t22 1.5q8 1 12 3.5t15 3.5q32 3 73.5 2.5t84 -1.5t82.5 -2t69 1z" />
    <glyph glyph-name="period" unicode="." horiz-adv-x="302" 
d="M110 201q17 2 30.5 3t27.5 -3q13 -4 26 -14t23 -21q11 -12 14.5 -24t5.5 -37q3 -38 -4 -59t-30 -41q-17 -14 -38 -22.5t-58 -1.5q-6 1 -16.5 6.5t-18.5 10.5q-7 4 -12 6.5t-12 7.5q-7 4 -17 24q-2 3 -1.5 6.5t-1.5 7.5q-2 2 -4 2.5t-3 3.5q-2 7 -2 20.5t1 28t3 27t5 17.5
q0 2 3 2t3 2q3 7 11 17q6 8 14.5 12.5t19.5 11.5q1 1 3.5 4t3.5 3q6 2 12.5 0.5t11.5 -0.5z" />
    <glyph glyph-name="slash" unicode="/" horiz-adv-x="547" 
d="M402 842q10 6 30 2t40 -12t36 -18t18 -17q3 -11 -4 -26t-14 -32q-2 -5 -1.5 -9t-1.5 -9q-8 -17 -18.5 -41t-19.5 -44q-6 -14 -12.5 -26t-11.5 -23q-14 -29 -24 -58.5t-24 -57.5q-1 -2 -1 -6.5t-2 -7.5q-7 -15 -17 -34t-18 -38q-3 -8 -4.5 -14t-5.5 -14q-6 -13 -15 -29.5
t-16 -32.5q-6 -14 -13 -30.5t-14 -30.5q-6 -13 -12.5 -25t-11.5 -24q-17 -35 -36 -71t-37 -73q-4 -9 -8.5 -17.5t-8.5 -20.5q-3 -9 -6 -12.5t-11 -11.5q-9 -10 -14 -24.5t-13 -30.5q-2 -3 -4 -7l-3 -6q-2 -3 -7 -4t-7 -3q-3 -5 -1 -8.5t-6 -5.5q-15 -5 -33.5 5t-35.5 19
q-15 8 -30.5 18t-17.5 23q-2 11 6.5 26.5t17.5 32.5q8 13 14.5 25.5t13.5 25.5q21 41 39 70t33 61q2 4 1.5 8.5t1.5 8.5t5.5 5t5.5 5q14 28 23.5 54.5t24.5 55.5q3 6 6 13.5t7 14.5q4 5 9.5 9.5t8.5 10.5q5 11 7.5 22.5t9.5 22.5q4 7 8 19t9 22q5 12 11 26.5t13 28.5
q2 5 3.5 7.5t3.5 6.5q5 15 14 31t17 34q6 14 12 27.5t12 27.5q5 12 9 22.5t8 22.5q1 2 1.5 6t2.5 8q0 1 3 1.5t3 1.5q2 5 3.5 11.5t3.5 12.5q5 11 12 24.5t12 27.5q3 8 3.5 16.5t3.5 14.5q2 2 7.5 5.5t6.5 4.5t0 3.5t0 3.5z" />
    <glyph glyph-name="zero" unicode="0" horiz-adv-x="586" 
d="M250 803q4 0 14 1t22 1.5t24.5 0t21.5 -2.5q5 -1 11.5 -6t12.5 -8q19 -8 33.5 -16.5t28.5 -24.5q8 -8 13.5 -18t10.5 -20q17 -27 31 -65q2 -6 5.5 -11t5.5 -10q4 -14 5.5 -29.5t4.5 -32.5q2 -14 5 -28.5t5 -29.5l-2 -2q-3 -3 -1 -5q1 -2 3 -5.5t4 -11.5q4 -39 2.5 -79.5
t-6.5 -78.5q-2 -13 -1.5 -26t-1.5 -26q-2 -8 -6.5 -19.5t-4.5 -21.5q0 -1 2.5 -3.5t1.5 -6.5q-2 -5 -5.5 -10.5t-4.5 -10.5q-5 -16 -7 -25t-7 -23q-5 -13 -10.5 -28.5t-13.5 -29.5q-5 -8 -11.5 -15.5t-12.5 -15.5q-7 -9 -17 -20t-21 -21.5t-22.5 -18.5t-22.5 -12
q-13 -5 -30.5 -7.5t-37 -2.5t-39 2.5t-34.5 7.5q-23 8 -47.5 28.5t-41.5 43.5q-20 28 -37 69t-28 85q-2 5 -4 9.5t-3 8.5q-1 5 0 9.5t0 10.5q-3 19 -7.5 36.5t-6.5 35.5q-2 14 -0.5 29t0.5 30q-1 13 -4 26t-3 25q0 15 2.5 32t4.5 34q3 31 7.5 59.5t13.5 56.5q0 2 3 5.5
t4 5.5q1 4 -0.5 8.5t0.5 8.5q-1 -2 3 1t3 2q4 5 2 9t2 12q1 2 4.5 4.5t5.5 5.5q4 5 6.5 13t7.5 15q1 1 3.5 1.5t3.5 1.5q11 25 32 42t47 30q11 6 24 12.5t24 8.5q8 1 15.5 0t15.5 0zM236 631q-9 -6 -14.5 -11t-9.5 -13q0 -1 -3 -1.5t-4 -1.5q-2 -4 -4.5 -12t-5.5 -16
q-17 -48 -21.5 -111t0.5 -126q1 -6 3.5 -12t3.5 -12q1 -4 -1 -6t-2 -4q0 -4 3 -6t4 -5q1 -4 -1.5 -6t-2.5 -4q0 -4 3 -6t4 -4q6 -23 9.5 -39t11.5 -33q5 -14 10 -25t10 -17q2 -2 5.5 -2t5.5 -1q2 -2 3 -3.5t3 -3.5q15 -8 23 -6.5t19 6.5q4 2 9 3t8 4q2 2 3.5 7.5t3.5 9.5
q1 2 3 3.5t4 3.5q1 4 3 10q4 9 7 18.5t7 19.5q3 10 7.5 19t6.5 19q4 18 7.5 41t5.5 45q4 34 3 71t-6 63q-5 23 -10.5 46t-10.5 40q-2 5 -2 12t-1 8l-4 2q-3 1 -3 2q-2 2 -1.5 5t-1.5 5q-8 11 -13 15t-15 9q-14 8 -28.5 9.5t-26.5 -2.5q-4 -2 -4.5 -3.5t-2.5 -3.5z" />
    <glyph glyph-name="one" unicode="1" horiz-adv-x="423" 
d="M137 791q1 0 14 1.5t30 3t33 0.5t22 -5q2 -2 11.5 -1.5t12.5 -2.5t5 -10.5t3.5 -16.5t2 -17t0.5 -11q3 -48 4.5 -93.5t2 -92.5t0 -96t-0.5 -103v-96q0 -15 -0.5 -30.5t-0.5 -29v-22.5t1 -11t8 -3t15.5 -1.5t16.5 -0.5t12 -1q11 -2 24.5 -5t16.5 -9q3 -5 2.5 -13t-2.5 -18
t-4 -19.5t-3 -15.5q-1 -9 -1 -18.5t-0.5 -18t-2.5 -15t-6 -9.5l-12 -1.5t-27 -2.5t-29 -2t-18 -1q-33 -2 -68 -2.5t-56 -1.5q-12 0 -19 0.5t-14 0.5h-14.5t-20.5 -1q-3 0 -14 -2.5t-17 2.5q-2 2 -3.5 13.5t-3.5 21.5q-2 11 -3 20t0 17q1 14 5 33.5t12 25.5q7 6 18 7t19 3
q12 2 22.5 2.5t15.5 4.5q0 1 1 2l3 3q2 2 3 5q1 5 -1.5 6.5t-1.5 4.5q2 14 4 14.5t3 5.5q0 8 -1.5 19t-2.5 23q-1 17 0.5 43t-0.5 46q-1 20 1 43.5t3 52.5v41q0 10 0.5 25.5t1 30.5t0.5 27t-2 14q-3 2 -7 0t-8.5 -5.5t-8 -7.5t-4.5 -5q-11 -8 -16.5 -11.5t-10 -2.5t-9 6
t-12.5 15q-6 8 -10 14q-2 3 -5.5 5.5t-5.5 4.5q-2 5 -3 9t-3 8q-5 8 -13 19t-8 26q0 18 14 35t31 37q11 13 19 25t16 23t16.5 20.5t20.5 17.5q2 2 7 4z" />
    <glyph glyph-name="two" unicode="2" horiz-adv-x="532" 
d="M226 181q45 2 86.5 7t92.5 10q15 1 32.5 4t25.5 -1q7 -4 11 -19.5t6 -31.5q1 -6 -1 -8t-2 -6q0 -5 2.5 -12t0.5 -12q-1 -3 -2 -5.5t-1 -4.5q1 -11 4 -17t3 -14q0 -7 -2.5 -8t-4.5 -13q0 -3 3 -9t-3 -12q-9 -8 -26.5 -6.5t-38.5 -0.5q-23 -1 -45.5 -2.5t-47.5 -3.5
q-45 -4 -89.5 -6t-96.5 -5q-10 0 -23.5 -2t-27 -3t-25 -1t-16.5 3q-2 1 -5.5 8.5t-5.5 15.5q-5 17 -5.5 36t-7.5 36q-4 9 -2 14.5t2 19.5q-1 11 -1.5 17t0.5 11t4.5 10t9.5 14q2 3 5 7t6 7q3 4 5 7t5 6q11 14 24.5 26t23.5 23q2 2 1.5 5t1.5 5q3 3 8 7.5t10 9.5q10 13 20 27
t21 28q5 6 10.5 12t10.5 12q5 7 8.5 15t8.5 16t10 14t10 13q10 15 18.5 31t16.5 31t15.5 32t15.5 34q5 12 10.5 25.5t8 27t0 25.5t-12.5 21q-2 2 -6 2t-7 2q-2 2 -2.5 4t-4.5 3q-14 3 -25.5 0t-20.5 -8t-15.5 -10.5t-10.5 -9.5q-5 -4 -12 -10.5t-12 -13.5q-2 -2 -2 -5t-2 -5
t-5 -3.5t-5 -3.5q-5 -6 -8.5 -14t-12.5 -10q-15 -4 -22.5 1.5t-15.5 8.5q-17 7 -33 14t-32 17q-2 2 -5 1.5t-5 1.5t-7 6.5t-7 14.5q-2 9 5 19.5t16 25.5q7 11 13.5 23.5t10.5 17.5q6 7 16.5 14t21.5 17q4 4 8 8.5t9 8.5q7 6 13 11t14 10q12 7 30 15.5t36 15.5q11 4 16 4.5
t21 2.5q24 2 53 2.5t44 -2.5q1 -1 3 -4t3 -3q10 -3 19 -6t19 -8q14 -7 27.5 -21t24.5 -31q14 -21 24 -53t7 -74q-1 -8 -3 -15.5t-4 -15.5q-5 -21 -10.5 -43t-13.5 -43q-11 -26 -22.5 -50.5t-25.5 -45.5q-3 -5 -4.5 -8.5t-6.5 -8.5q-12 -16 -25 -34.5t-26 -37.5
q-23 -33 -50 -69.5t-50 -74.5z" />
    <glyph glyph-name="three" unicode="3" horiz-adv-x="554" 
d="M187 796q10 2 27 3.5t35.5 2t35.5 0t29 -2.5q5 -1 6.5 -3t3.5 -4q3 -1 7 0.5t7 -0.5q8 -3 13.5 -8.5t14.5 -11.5q3 -2 8.5 -3.5t8.5 -3.5q2 -2 3 -3.5t4 -3.5t9.5 -8.5t10.5 -11.5t6 -10.5t5 -10.5q2 -5 6.5 -8.5t6.5 -8.5t3.5 -12t3.5 -12q6 -17 9 -37t5 -42q0 -1 -2 -4
t-2 -7q1 -2 3 -4t1 -6q-2 -8 -6 -18.5t-8 -19.5q-4 -10 -7 -19t-7 -15q-2 -4 -8.5 -9.5t-11.5 -11.5q-2 -2 -2 -5t-2 -5q-8 -9 -18 -14t-9 -14q0 -11 14.5 -17t23.5 -14q3 -2 7.5 -7.5t9.5 -9.5q5 -5 11.5 -8t8.5 -5t2 -7t2 -7q5 -7 8.5 -10.5t8.5 -17.5q10 -28 16 -67.5
t1 -79.5q-2 -14 -7 -32.5t-10 -33.5q-2 -5 -3.5 -10.5t-3.5 -9.5q-5 -12 -17 -24l-2 -2q-1 -1 -1 -2q-2 -2 -2 -5t-2 -5q-4 -5 -10.5 -8.5t-13.5 -8.5q-5 -5 -10.5 -11t-10.5 -10q-6 -5 -20 -10.5t-24 -10.5q-31 -13 -78 -14.5t-91 4.5q-15 2 -30.5 6t-30.5 11q-19 8 -37 21
t-32 27q-2 2 -5 3.5t-5 3.5q-5 5 -10 14t-8 17q-5 16 -4 27.5t15 24.5q5 5 12 7t15 7l5 5l5 5q5 2 8 3.5t6 3.5q8 5 14.5 8t16.5 2q9 -1 12 -3t9 -7q9 -9 21.5 -23.5t26.5 -21.5q4 -2 6.5 -1.5t7.5 -1.5q2 -1 5.5 -4t4.5 -3q11 -2 29.5 -2.5t35.5 2.5q6 1 13 5t15 8
q15 9 22.5 17.5t14.5 27.5q14 38 0 79q-2 6 -4.5 10.5t-5.5 10.5q-5 11 -8.5 19.5t-11.5 14.5q-2 2 -5.5 2t-5.5 2q-1 1 -1.5 3.5t-1.5 2.5q-4 2 -8.5 2t-8.5 2q-9 4 -15.5 8t-12.5 6q-11 2 -22.5 2t-22.5 1q-9 1 -24 0.5t-20 3.5q-3 2 -6 9t-5 15.5t-3.5 18t-2.5 15.5
q-2 14 -3.5 34.5t3.5 27.5q3 5 13 9t22.5 8t24.5 7.5t19 6.5q9 5 18 12t19 15q8 7 14 12.5t10.5 11.5t7.5 14t6 21q5 20 0.5 34.5t-17.5 26.5q-7 7 -15.5 13.5t-15.5 7.5q-9 2 -11.5 -1.5t-8.5 -5.5q-7 -1 -14.5 0t-10.5 0q-12 -3 -29.5 -11.5t-28.5 -15.5q-5 -3 -12 -8.5
t-14 -11.5t-14 -10.5t-11 -4.5t-11.5 3.5t-15 9t-14.5 10.5t-11 8q-6 4 -14 10.5t-14.5 14.5t-9 17t3.5 20q0 2 3 2t3 2q1 1 0 3t0 3q5 5 10.5 7.5t10.5 6.5q6 5 10.5 9.5t10.5 7.5q13 8 29.5 16t33.5 15.5t33.5 13t30.5 7.5z" />
    <glyph glyph-name="four" unicode="4" horiz-adv-x="596" 
d="M376 804q-1 0 0 1.5t3 1.5t10.5 -0.5t17.5 -1t16.5 -1l7.5 -0.5q1 -2 1.5 -21.5t0 -43t-1 -45.5t-0.5 -28q0 -44 -1 -77.5t-1.5 -65t-1 -65t-0.5 -77.5q1 0 2 -1q2 -2 2 -3q-2 -7 -4.5 -14.5t0.5 -15.5q5 -14 18 -14.5t37 0.5q8 0 20.5 3t20.5 -3q5 -3 7 -13.5t4 -21.5
q0 1 -1 -3.5t1 -9.5q2 -14 5.5 -35t1.5 -34q-3 -13 -6 -16t-22 -5q-16 -2 -26 1.5t-25 2.5q-5 0 -14 -1t-11 -3q-6 -4 -9 -16t-4 -21q-2 -23 4 -54t3 -63q-2 -13 -3 -20.5t-5 -11.5t-11 -5.5t-19 -3.5q-6 -1 -21.5 -3.5t-32.5 -4t-31 -2t-18 2.5q-3 1 -4.5 9t-2 18
t-0.5 20.5v17.5q1 14 3 31t0 44q0 15 -1 30.5t-6 18.5q-3 2 -9.5 2t-15.5 -1t-18.5 -2.5t-17.5 -2.5q-19 -2 -32 -3t-25 -2t-25.5 -2.5t-34.5 -2.5q-17 -2 -34 -5.5t-25 1.5q0 1 -3.5 13.5t-6.5 24.5l-4 20t-3 18q-3 22 -4.5 39t1.5 33q2 14 12.5 30.5t21.5 34.5
q9 17 17.5 32.5t16.5 29.5q17 29 31.5 55.5t30.5 54.5q8 14 14 24q15 26 32 58t33 59q5 8 16 24t22 35q4 5 7 11.5t7 12.5q1 1 5 6t8.5 10.5t8.5 10t5 4.5q6 2 14.5 2t18 -0.5t18.5 -1t15 -0.5zM279 501q-2 -2 -1.5 -3t-1.5 -4q-9 -15 -17.5 -34.5t-16.5 -33.5
q-1 -2 -0.5 -3.5t0.5 -3.5q-1 -2 -3.5 -2t-3.5 -2q-8 -13 -15 -30t-13 -28q-4 -8 -10 -18.5t0 -16.5q3 -3 10.5 -4t16.5 -1t17 1t11 1q9 2 23.5 6.5t17.5 10.5q2 4 2.5 13.5t-0.5 21t-1.5 22.5t-0.5 19q1 16 2.5 32t2.5 30.5t1 25t-2 15.5q-2 2 -7 -1t-4 -3q-3 0 -4 -4
t-3 -6z" />
    <glyph glyph-name="five" unicode="5" horiz-adv-x="615" 
d="M388 786q16 2 29 4q11 2 21.5 2t15.5 -2l1.5 -3.5t4 -8.5t5 -9.5t2.5 -6.5q3 -9 4 -18t3 -16t3.5 -15.5t3.5 -18.5q2 -8 3.5 -18t-0.5 -13q-5 -8 -19.5 -11.5t-33.5 -5t-39.5 -2t-37.5 -2.5q-2 0 -6 0.5t-4 -0.5v-4v-3q-6 -2 -18 -2t-20 -1q-14 -2 -27.5 -2t-24.5 -2
q-4 -1 -10.5 -3t-13.5 -4t-12 -4l-5 -2q-3 -4 -5.5 -12t-4 -17t-1.5 -18t1 -15q1 -5 1.5 -12.5t1.5 -8.5q6 -4 16.5 -0.5t21.5 9.5t20.5 12t13.5 7q13 2 27.5 0.5t27.5 -0.5q15 0 27.5 2t24.5 1q3 0 14.5 -0.5t19.5 -2.5q1 -1 5.5 -5t8.5 -6q5 -2 8 -5t6 -5q8 -5 15 -9
t12 -8q6 -7 14 -17q4 -5 7 -9t7 -9q3 -5 4.5 -10t5.5 -10q3 -5 7.5 -9t6.5 -8q3 -7 3.5 -16t3.5 -19q2 -6 5 -13t5 -14q8 -31 13 -67t1 -74q-2 -17 -7 -34.5t-11 -34.5q-5 -17 -10.5 -33.5t-13.5 -28.5q-4 -6 -11 -13t-13 -14q-11 -14 -20 -23.5t-24 -21.5q-11 -8 -16 -11.5
t-19 -8.5q-10 -4 -25.5 -8.5t-33 -8t-36 -5.5t-35.5 -2t-40 3t-43 7q-16 3 -27 6t-24 8q-26 8 -50 20t-46 28q-7 4 -15.5 11t-16.5 15t-14 16t-6 16q-1 12 4.5 17.5t12.5 13.5q12 12 24 21q17 13 30 23.5t25 10.5q18 0 25.5 -8.5t15.5 -15.5q8 -6 14 -12t14 -12
q12 -9 33 -17.5t42 -13.5q1 0 5.5 0.5t9.5 1t10 0t6 -1.5v-4v-3q29 -5 47 2t39 19q11 6 23 12.5t19 14.5q1 2 2.5 7.5t3.5 9.5q3 5 5 7.5t3.5 5t2.5 6.5l3 12q1 5 1.5 10.5t2.5 10.5q0 2 2 4t1 6q0 2 -2 3t-1 4q1 5 4 9.5t2 7.5q0 8 -2 18l-4 20q-2 11 -3.5 20.5t-3.5 17.5
q-8 25 -26 46t-29 26q-5 2 -15.5 2.5t-21.5 0.5t-22 -1t-17 -2q-9 -2 -20.5 -8t-22.5 -14.5t-20 -17.5t-12 -18q-2 -2 -0.5 -5.5t0.5 -5.5q-2 -3 -6 -6t-8 -11q-1 -4 -2 -7q-1 -2 -1 -5q0 -1 -1 -2q-2 -1 -13 -1.5t-14 -1.5q-8 -2 -12.5 -4t-8.5 -3q-11 -2 -25 -2t-26 2
t-22.5 3.5t-15.5 6.5q-1 1 -2.5 6t-2.5 10.5t-1.5 11t-0.5 7.5q0 3 3 6t4 7q1 5 -1.5 9t-1.5 9q1 25 2.5 56t2.5 63t0.5 62.5t-2.5 55.5q-1 7 -3 17t-4 20.5t-2.5 20.5t2.5 17q1 4 7 8t13 7.5t14.5 6t13.5 2.5q5 1 10 0t11 0q5 2 9.5 3.5l10.5 3.5q4 1 7.5 0t6.5 0
q3 2 3.5 4t3.5 3q11 2 23.5 2t21.5 2q3 1 9 2.5t11 3.5q11 4 27.5 5.5t34.5 5.5q5 1 13 2t11 5q2 2 1.5 2t2.5 1q18 4 35.5 4t32.5 3q2 1 3.5 2t3.5 1z" />
    <glyph glyph-name="six" unicode="6" horiz-adv-x="625" 
d="M354 814q-1 0 6.5 3t17.5 0q9 -2 15 -13t12 -21q1 -1 4 -1.5t3 -2.5q1 -2 0 -5t0 -5q7 -11 11.5 -18.5t9.5 -22.5q3 -12 -1.5 -20t-13 -13.5t-19.5 -10.5t-21 -11q-48 -29 -83.5 -67.5t-64.5 -83.5q-3 -5 -9.5 -13t-11.5 -18q-1 -3 -2.5 -9.5l-3 -13t-2 -12t0.5 -6.5
q3 -5 4.5 -4.5t2.5 2.5t2 4.5t2 3.5q4 3 8.5 4t8.5 3q8 5 17.5 9t13.5 5q14 4 30 1t25 3q2 1 1 3t2 3q5 2 17.5 2t20.5 -2q2 -1 3.5 -3.5t3.5 -2.5q15 -5 30.5 -6.5t31.5 -7.5q8 -4 18.5 -11l19.5 -13q2 -2 5 -2t5 -2q13 -12 25.5 -26t25.5 -36q8 -13 14.5 -25t10.5 -26
t5.5 -31t0.5 -41q-1 -21 -3 -36t-6.5 -28.5t-10.5 -27t-14 -29.5q-4 -8 -8 -15t-9 -15q-4 -7 -6.5 -12.5t-7.5 -11.5q-5 -7 -13 -13.5t-21 -17.5q-4 -3 -7 -7t-7 -7q-2 -2 -5 -2t-5 -2q-2 -1 -4.5 -4.5t-6.5 -5.5q-10 -5 -24 -10t-27 -10q-21 -8 -53.5 -11.5t-63.5 0.5
q-19 2 -33.5 5t-31.5 9q-3 1 -5.5 3t-5.5 4q-8 3 -16 7.5t-18 9.5q-6 3 -12.5 5t-11.5 5q-2 2 -3.5 5.5t-3.5 5.5q-2 1 -5 1t-5 2q-4 4 -5.5 8.5t-4.5 8.5q-7 8 -15 14t-13 14q-5 6 -7.5 15.5t-6.5 18.5q-9 22 -19 53.5t-12 59.5q-1 20 0.5 42t3.5 41q0 5 3 8.5t4 8.5
q0 5 -2 8.5t-2 8.5q1 4 2 8.5t2 8.5q1 11 5 25t8 30q6 22 11 42t13 41q2 5 3.5 10.5t3.5 10.5q1 1 4 3t3 3q1 2 0 5.5t0 5.5q2 3 5.5 5t5.5 5q4 8 8 17t9 17q26 42 58 79q5 5 8.5 9t8.5 9q8 8 14.5 17t16.5 17q11 9 25 18.5t27 19.5q5 4 8.5 7t8.5 6q11 8 23 13t28 12
q3 1 8 5t10 5zM261 316q-11 -6 -20 -11.5t-14 -12.5q-3 -4 -6 -6t-5 -5q-17 -24 -14 -53.5t18 -49.5q8 -11 14 -15t17 -9q13 -6 32 -10.5t40 0.5q1 0 4.5 3t5.5 4q8 3 10.5 4.5t6.5 5.5q2 2 5.5 1.5t5.5 1.5t4.5 7.5t5.5 10.5q9 13 17 27.5t10 30.5q3 22 -2.5 40t-10.5 29
q-9 15 -26.5 18.5t-42.5 1.5q-12 -1 -19.5 -1.5t-12.5 -1.5t-10 -3.5z" />
    <glyph glyph-name="seven" unicode="7" horiz-adv-x="542" 
d="M401 814q23 2 42 3q16 1 30.5 1.5t17.5 -1.5q5 -3 4 -11t2 -23q2 -9 6 -18t5 -13q2 -8 2 -18t1 -20q1 -11 2 -18.5t0.5 -13.5t-3 -12t-6.5 -14q-2 -5 -4 -9t-6 -8q-2 -2 -3.5 -5.5t-3.5 -5.5t-3.5 -5t-3.5 -5q-1 -1 -4 -5.5t-6 -8.5q-5 -5 -8.5 -14.5t-8.5 -19.5
q-2 -2 -3.5 -6.5t-3.5 -7.5q-4 -5 -8.5 -8.5t-8.5 -11.5q-8 -20 -22.5 -40.5t-25.5 -42.5q-7 -12 -12 -24t-12 -24q-11 -18 -22 -35t-20 -37q-2 -4 -1.5 -8.5t-1.5 -8.5q-2 -7 -9 -16t-12 -19q-3 -6 -5 -13.5t-5 -13.5q-2 -3 -5 -5t-5 -5q-2 -4 -2 -7.5t-2 -6.5
q-6 -11 -12.5 -22.5t-11.5 -25.5q-2 -5 -1.5 -9t-1.5 -8q-6 -12 -14.5 -28.5t-16.5 -33.5q-5 -13 -14 -32.5t-14 -36.5q-2 -7 -4 -12t-6 -12q-1 -2 -3 -5.5t-4 -4.5q-6 -3 -15 -2.5t-18 3t-17 5t-12 4.5q-5 2 -9 3.5t-8 3.5q-9 3 -19 7t-19 8t-16 8t-8 8q-2 6 0 14.5t5.5 18
t8 18t7.5 14.5q6 14 11.5 29t12.5 29q2 5 5 9t5 9t3.5 10t3.5 10q7 14 15 27.5t16 27.5q11 20 22 45.5t23 47.5q16 31 38 68.5t44 72.5q8 11 14.5 24.5t16.5 26.5q2 4 6.5 7t7.5 7q4 6 4 11t3 10q2 3 6 6t7 8q3 4 4 5.5t1.5 2t1.5 2.5t4 7q0 -1 5.5 7t4.5 10q-5 6 -17.5 4
t-30.5 -4q-13 -2 -26.5 -2t-21.5 -2q-5 -1 -7 -2.5t-7 -3.5q-12 -5 -31 -4.5t-38 -2.5q-6 -2 -12.5 -5.5t-14.5 -5.5t-17 -1.5t-17 -1.5q-14 -3 -24.5 -8.5t-20.5 -1.5q-10 3 -14 12t-5.5 21t-1 26.5t-0.5 29.5t-5 30t2 28q2 6 14.5 11.5t26.5 9.5q13 4 27 4t28 3
q6 1 10 4.5t11 5.5q6 2 13 0t14 0q6 2 12.5 3.5t11.5 3.5q6 2 11 4t10 3q6 1 15 0t16 0t14 3t13 4q5 1 9 -0.5t8 0.5q3 1 4.5 3.5t6.5 3.5q19 2 47 3t49 4q4 0 5.5 1t4.5 2z" />
    <glyph glyph-name="eight" unicode="8" horiz-adv-x="677" 
d="M302 807q51 5 97.5 -2.5t81.5 -28.5l10 -6t10 -8q7 -6 13.5 -15.5t14.5 -18.5q3 -3 7 -3q0 -2 -0.5 -4t0.5 -3q2 -2 5 -2t5 -2q0 -1 2 -7q1 -3 1 -6q2 -6 3 -12.5t4 -15.5q1 -2 4 -5.5t3 -4.5q2 -9 2 -20t2 -21q1 -10 2 -17t1.5 -13.5t0.5 -14t-1 -17.5q-1 -8 0.5 -15
t-0.5 -13q-2 -7 -6.5 -13t-7.5 -14q-3 -9 -3.5 -19t-3.5 -16q-1 -2 -4.5 -3t-5.5 -3q-5 -7 -10.5 -19t-13.5 -19q-5 -4 -14.5 -10.5t-9.5 -13.5q0 -8 4 -13.5t10.5 -9t13 -6.5t10.5 -6q23 -16 36.5 -32.5t25.5 -46.5q8 -20 13 -37.5t0 -41.5q0 -2 -1.5 -4t-1.5 -6
q1 -25 -5.5 -47.5t-18.5 -45.5q-11 -20 -24.5 -36.5t-30.5 -32.5q-16 -14 -28 -21.5t-34 -15.5q-12 -5 -28 -10.5t-34 -7.5t-39.5 -2.5t-44 0t-43.5 2t-38 4.5q-16 2 -26.5 5t-24.5 9q-6 2 -11 5t-10 5q-12 5 -24.5 8t-23.5 9q-1 1 -1.5 3.5t-1.5 3.5q-2 1 -4 0t-3 0
q-2 1 -2.5 3.5t-1.5 3.5q-4 2 -9 4t-11 10q-4 4 -5.5 8t-5.5 9q-6 8 -12.5 14t-11.5 13q-2 3 -1 9t-2 8h-4h-3q-2 4 -2 12.5t-1 15.5q-3 13 -8 34.5t-3 41.5q1 8 3 16.5t4 17.5q4 17 6.5 26t10.5 22l3.5 7l3.5 7q2 3 5 4.5t5 5.5q3 5 4.5 8t3 5.5t4.5 5.5l9 9q2 2 5 1.5
t5 1.5q2 1 2 3.5t2 3.5q2 2 5 1.5t5 1.5q4 5 8 9q2 2 3 2.5t3 2.5q2 1 3 3q0 4 -3.5 9t-8.5 10.5t-10.5 10t-8.5 8.5q-5 7 -9.5 15t-10.5 16q-5 6 -7 14.5t-7 23.5q-1 4 -1 8.5t-2 8.5q-2 3 -4 5t-3 5q-1 5 1 7t2 4q1 5 -3 15.5t-4 15.5q1 6 3 10l4 10q-3 2 -0.5 12.5
t4.5 15.5q2 7 5 13t5 14q7 21 12.5 33.5t18.5 28.5q11 14 25.5 28.5t29.5 26.5l8 6t9 8q2 2 7 4.5t10 5.5q6 4 17 8.5t21 8.5q16 7 35.5 9.5t43.5 4.5zM292 656q-6 -1 -13 -4.5t-14 -8t-12.5 -8.5t-8.5 -7q-2 -2 -5.5 -1.5t-5.5 -1.5q1 1 -2 -4.5t-5 -9.5q-4 -6 -8 -12.5
t-5 -11.5q-3 -13 -1.5 -28t6.5 -29t12.5 -24.5t16.5 -14.5q1 -1 1.5 -3.5t1.5 -3.5q13 -7 32 -10t37 0q4 1 7.5 4t9.5 6t13 4t11 3q2 1 3.5 3t3.5 4q14 10 21 19t14 22q3 7 8 16t5 15q0 1 -1.5 3t-1.5 0q2 11 5 13.5t2 7.5t-4.5 8.5t-6.5 8.5q-6 13 -10.5 18t-13.5 13
q-3 3 -7 8t-6 6q-11 4 -26.5 3t-28.5 -3q-6 -1 -12 0.5t-12 -0.5zM261 299q-3 -2 -6 -5.5t-8 -5.5t-11.5 -3.5t-9.5 -3.5q-11 -8 -20.5 -21.5t-13.5 -22.5q-8 -21 -6.5 -42.5t9.5 -36.5q2 -3 9 -8.5t15 -10.5l16 -10t12 -6q8 -2 15.5 -1.5t11.5 -1.5q5 -3 15.5 -4.5
t22.5 -1.5t22.5 0.5t15.5 1.5q5 2 10.5 6t13.5 8q7 3 16.5 3.5t14.5 3.5q3 2 8 7.5t9.5 11.5t8.5 11.5t5 7.5q7 14 8 25.5t-1 22.5q-3 11 -5.5 19t-8.5 19q-5 9 -8 14t-6 8t-7.5 5.5t-12.5 6.5q-20 9 -39.5 9.5t-46.5 -2.5q-14 -2 -26.5 -1.5t-21.5 -1.5z" />
    <glyph glyph-name="nine" unicode="9" horiz-adv-x="574" 
d="M230 807q8 1 22 3t30.5 2.5t33.5 0.5t31 -2q15 -3 33 -12.5t36 -18.5q13 -8 30 -17.5t28 -20.5q5 -5 10.5 -15t10.5 -20q4 -7 7.5 -13.5t6.5 -13.5q6 -14 8.5 -33t3 -40.5t-0.5 -44t-1 -44.5v-82q0 -41 -5 -79.5t-9 -75.5q-2 -20 -1.5 -38t-1.5 -37q-2 -17 -5 -34.5
t-5 -37.5q-2 -16 -3 -33t-4 -36q-2 -8 -3 -18t-2.5 -19t-3.5 -15.5t-5 -9.5q-4 -3 -12.5 -4t-18.5 -1t-20 1t-18 1q-16 -1 -36.5 -3.5t-28.5 6.5q-6 7 -3.5 18.5t3.5 19.5q1 11 1.5 18.5t1.5 15.5q3 22 6 40t5.5 35.5t5 37t4.5 45.5q0 5 2 17t3.5 25.5t1 25.5t-3.5 15
q-4 4 -13.5 0.5t-20.5 -8.5t-20 -10.5t-11 -5.5q-12 -3 -29.5 -3.5t-32.5 -0.5h-21.5t-22.5 4q-2 1 -2.5 3.5t-1.5 3.5q-4 1 -8.5 -0.5t-8.5 0.5q-7 2 -13.5 5t-13.5 5q-9 3 -18 4t-13 3q-3 1 -5.5 4.5t-5.5 5.5q-13 9 -26 16.5t-22 21.5q-4 5 -8 12.5t-9 14.5q-4 5 -9 12.5
t-8 15.5q-3 7 -4 16.5t-3 17.5q-2 9 -5.5 15.5t-4.5 12.5q-8 40 -1.5 81t18.5 73q2 5 3.5 7t3.5 7q1 4 1 7t2 7q1 1 3.5 1.5t3.5 1.5q5 10 11.5 20.5t16.5 20.5q15 18 32 34t40 28q18 11 42 22t50 16zM241 656q-6 -2 -14.5 -8.5t-16.5 -12.5q-9 -6 -15 -10.5t-9.5 -9
t-6.5 -9.5t-7 -12q-3 -5 -6.5 -9t-3.5 -5q-5 -20 0 -42t10 -30q2 -3 4 -8t3 -6q3 -3 10.5 -8.5t15.5 -11t15.5 -9.5t9.5 -5q5 -1 15.5 -1.5t22 -0.5t21.5 0.5t14 1.5q3 1 10 7.5t15.5 14t15 14.5t7.5 9q2 2 0.5 6.5t-0.5 6.5q2 7 3 7t0 4q-1 2 1 2t3 1q7 34 3 62
q-1 5 -1.5 11.5t-1.5 9.5q-9 32 -30.5 38.5t-59.5 2.5q-7 -1 -13.5 0.5t-13.5 -0.5z" />
    <glyph glyph-name="colon" unicode=":" horiz-adv-x="310" 
d="M105 672q4 1 6.5 2.5t10.5 -2.5q5 -2 18 -1t23 -2q7 -2 14.5 -8t13.5 -9q9 -6 16 -9.5t11 -8.5q9 -10 14.5 -29t13.5 -36q3 -7 0.5 -14t-7.5 -24q-2 -9 -3 -17t-4 -14q-1 -1 -3.5 -1.5t-3.5 -1.5q-3 -6 -6 -9.5t-11 -11.5q-8 -7 -22 -14.5t-30.5 -12.5t-35 -5.5
t-36.5 8.5q-8 5 -12 8.5t-12 9.5q-6 5 -8 8.5t-9 11.5q-1 1 -3.5 2t-3.5 2q-2 5 -7 14.5t-7 16.5q-2 13 -0.5 32t4.5 33q2 11 5.5 20t8.5 18q6 12 25 26t40 18zM122 284q26 4 51 1.5t42 -15.5q1 -1 1.5 -3.5t1.5 -3.5q5 -2 10.5 -6t10.5 -11q2 -2 1.5 -3.5t1.5 -3.5
q1 -1 4 -5.5t6 -9.5t5 -10.5t3 -8.5q1 -8 -2.5 -13.5t-4.5 -14.5q-2 -8 0 -17.5t0 -16.5q-1 -2 -6 -11t-8 -13q-1 -1 -3.5 -1.5t-3.5 -1.5q-6 -8 -9 -13t-6 -9t-8 -8t-15 -8q-14 -7 -34.5 -11.5t-40.5 1.5q-18 5 -38.5 17.5t-30.5 26.5q-2 4 -3.5 10t-3.5 11t-5.5 9t-4.5 8
q-5 25 -2.5 45t11 35.5t20.5 27t26 19.5q7 5 13.5 5t20.5 2z" />
    <glyph glyph-name="semicolon" unicode=";" horiz-adv-x="327" 
d="M108 691q4 2 8 3q8 2 16 0q1 0 1 -3t2 -4q5 -1 18 -1t20 -2q9 -4 17.5 -13t16.5 -18q8 -8 13 -14t8.5 -12.5t5.5 -15.5t4 -23q3 -21 1 -36.5t-14 -32.5q-1 -1 -4 -2t-3 -2q-4 -7 -8.5 -11.5l-12.5 -12.5q-5 -5 -9.5 -10t-7.5 -7q-2 -1 -8 0.5t-13 -0.5q-2 -1 -3.5 -3.5
t-6.5 -3.5q-2 0 -8 -0.5t-13 -0.5h-13t-7 1v4v3q-4 2 -8.5 0t-8.5 0q-23 7 -42.5 21t-30.5 34q-5 11 -6.5 34.5t3.5 41.5q2 5 5 10t5 10l6 13.5t4.5 8t7 7t13.5 9.5t17 14q3 2 13.5 5l17.5 5q2 1 2.5 2.5t1.5 1.5zM139 309q19 2 32 1.5t29 -8.5q9 -4 23.5 -16t21.5 -21
q2 -3 3.5 -8t3.5 -10q6 -11 13.5 -33t0.5 -42q-2 -3 -4.5 -11.5t-2.5 -12.5q0 -2 2.5 -4.5t0.5 -6.5q-2 -5 -6 -11.5t-7 -12.5q-16 -29 -34.5 -53t-44.5 -50q-4 -3 -10 -8t-11 -9q-8 -7 -11 -10.5t-6 -4.5t-6.5 2t-10.5 10q-11 8 -16 13.5t-12 20.5q-7 16 -7 24
q2 13 9.5 16.5t14.5 11.5q1 1 4.5 5t6.5 9.5t5 11t1 8.5q-2 5 -6.5 6.5t-9.5 1.5t-11.5 -0.5t-13.5 2.5q-1 1 -3 3.5t-4 3.5q-25 15 -37.5 48.5t0.5 75.5q0 2 1 4t1 3.5t1 2.5q1 2 3.5 2t3.5 2q3 6 7.5 12t12.5 12q4 2 9 6t12 7q11 5 23 5.5t29 1.5z" />
    <glyph glyph-name="less" unicode="&#x3c;" horiz-adv-x="452" 
d="M314 653q1 0 1 0.5t2 0.5q14 0 20.5 -11t20.5 -25q6 -12 9.5 -18t5.5 -11t4 -10.5t7 -15.5q2 -8 2 -11q0 -5 -2.5 -8.5t-7 -7.5t-11.5 -9t-16 -14q-32 -32 -64.5 -60t-67.5 -61l-6 -5t-13 -11t-13 -12t-6 -9t10.5 -9.5t24 -13.5t26.5 -13.5t18 -9.5q10 -6 26.5 -14
t31.5 -17.5t26 -21t11 -23.5q0 -10 -1.5 -16l-3 -12t-2.5 -12.5t-1 -16.5q0 -5 -0.5 -6.5t-2.5 -5.5v-4q0 -2 -1 -5.5t-2 -8.5q-2 -8 -4.5 -20.5t-9.5 -12.5q-10 0 -22.5 4.5t-23 10t-17 10t-4.5 4.5h-4q-2 0 -2 3q-8 6 -26.5 12.5t-33.5 13.5q-6 0 -9.5 2.5t-9.5 4.5
q-32 14 -62 26t-64 29q-11 3 -19 7.5t-8 13.5q0 24 0.5 44.5t0.5 43.5q0 5 -0.5 10.5t-0.5 10.5q0 8 7.5 19t18.5 22.5t23 22.5t21 20q31 31 62.5 61.5t62.5 61.5q16 16 27 26t20 18t18 14.5t21 15.5q3 2 6 4.5t7 4.5z" />
    <glyph glyph-name="equal" unicode="=" horiz-adv-x="664" 
d="M445 672q1 0 18.5 1t39 1.5t40 -0.5t22.5 -5q2 -2 3 -12.5t2 -23t1 -25t1 -18.5q1 -11 2 -19.5t1 -21.5q0 -10 1 -22t-4 -16q-3 -3 -14.5 -4t-27.5 -1.5t-32.5 -1t-28.5 -0.5q-33 -1 -59 -1.5t-50 -0.5t-48.5 -0.5t-52.5 -0.5q-28 -1 -55 0.5t-51 -0.5q-7 -1 -12.5 -3.5
t-15.5 -3.5q-8 -1 -21.5 -2t-26.5 -1t-24 0.5t-14 2.5q-5 2 -8 9.5t-5.5 16.5t-4 19t-2.5 17q-4 33 1.5 55t32.5 30q11 4 26 5.5t30.5 2t31.5 1t29 2.5q5 1 10 3t11 4q18 4 41.5 5t48 1t48 -1t40.5 1q8 1 14.5 3.5t13.5 3.5q11 2 23 1t25 -1zM397 380q7 1 35 3t57 1
q11 0 23.5 -0.5t24 -1.5t20 -2t11.5 -3q5 -3 7.5 -12t4 -20t2 -22.5t0.5 -21.5q0 -2 -0.5 -6.5t0.5 -10.5q0 -2 0.5 -9.5t0 -17t-2 -18t-5.5 -10.5q-3 -2 -22 -2.5t-41.5 0t-44 1.5t-29.5 1h-275q-14 0 -34.5 -1t-40 -1.5t-36 0.5t-23.5 6q-8 5 -11 20t-3.5 33.5t2 36.5
t5.5 30q1 2 1.5 7t2.5 7q2 1 16.5 1.5t27.5 1.5q78 3 160 6.5t160 3.5h7z" />
    <glyph glyph-name="greater" unicode="&#x3e;" horiz-adv-x="442" 
d="M131 646q11 0 25 -9t17 -12q8 -6 16.5 -10.5t24.5 -18.5q11 -10 34 -25.5t42 -32.5q21 -16 33 -25.5t18.5 -15t8.5 -7l2 -1.5q1 0 6 -4t11 -9t10.5 -10t5.5 -7q1 -3 1 -11q0 -28 -0.5 -50t-0.5 -48q0 -7 0.5 -14t0.5 -13q0 -7 -6 -13.5t-14 -11.5q-9 -6 -19 -11
q-6 -6 -20 -14t-29 -16t-28 -14t-16 -8q-5 -2 -13 -10t-16 -8q-12 -8 -26 -15t-27 -14q-23 -12 -42.5 -25t-49.5 -27q-5 -2 -13 -5t-10 -3q-5 2 -11.5 14t-12 29.5t-9.5 36.5t-4 34q0 6 8 15t17.5 17.5t17.5 14t9 5.5q30 15 44 29l17 17q7 7 16.5 13.5t17.5 12t13.5 8.5
l5.5 3q3 3 9 7.5t12.5 9t11 8t4.5 5.5q0 4 -11.5 12t-27.5 18l-32 20t-25 19q-15 7 -33 20.5t-33.5 27t-26.5 24l-11 10.5q0 8 9.5 14.5t11.5 8.5q12 12 25.5 23.5t25 20.5t19.5 14t11 5l-1 -1q2 1 2.5 1.5t4.5 1.5z" />
    <glyph glyph-name="question" unicode="?" horiz-adv-x="586" 
d="M230 885q9 1 30.5 2.5t34.5 0.5q16 -1 31.5 -1t27.5 -2q8 -2 17.5 -7.5t20.5 -10.5q10 -4 19.5 -6t17.5 -7t15 -12.5t16 -15.5q2 -2 5.5 -1.5t5.5 -1.5q13 -12 24.5 -32t19.5 -40q11 -26 15 -50.5t-1 -59.5q-2 -11 -3 -22t-4 -20q-2 -9 -7.5 -17t-9.5 -17q-3 -8 -6 -18.5
t-8 -19.5q-1 -1 -3.5 -1.5t-3.5 -1.5q-11 -25 -31.5 -45.5l-40.5 -40.5q-11 -12 -20 -21.5t-18 -26.5q-7 -15 -9.5 -30.5t-7.5 -41.5q-1 -4 0.5 -9t-0.5 -9q-1 -2 -3 -2.5t-4 -3.5q-2 -8 -1.5 -15.5t-1.5 -9.5q-3 -2 -15.5 -3t-28 -1t-30.5 0.5t-22 0.5q-26 2 -48.5 7.5
t-27.5 13.5q-4 6 -3.5 18.5t2.5 26.5t5.5 27t5.5 20q5 13 11.5 24t13.5 21q2 4 4.5 8t5.5 9q2 4 4.5 8t5.5 9q8 14 19 29t22 26q15 16 31 28.5t24 26.5q5 9 10 23t8 26q8 30 3.5 47.5t-24.5 34.5q-15 12 -36.5 19.5t-49.5 1.5q-9 -2 -19.5 -7.5t-18.5 -10.5q-13 -8 -21 -16
t-14 -17t-11 -20t-12 -26q-2 -2 -4 -8.5t-6 -8.5q-8 -3 -18 0t-20 9t-20 13.5t-18 12.5t-17 10t-17 10q-5 3 -9.5 5t-8.5 6q-2 2 -6 8.5t-4 8.5t2 11t5 16q2 6 7 12.5t10 11.5q2 2 3.5 5.5t3.5 5.5q1 0 4.5 5t5.5 8q4 6 9 13t12 15q1 1 3.5 1.5t3.5 1.5q0 2 -0.5 4t0.5 3
q2 2 5 2t5 2t3.5 5t3.5 5q1 1 3.5 1.5t3.5 1.5q2 5 7 10.5t10 10.5q2 2 3.5 1.5t3.5 1.5t5 3.5t5 3.5q3 3 10.5 6.5t16.5 7.5t18.5 7.5t16.5 6.5q11 4 22.5 4.5t25.5 2.5zM240 197q8 2 26.5 2t32.5 -2q13 -1 20.5 -5t20.5 -12q10 -6 15.5 -11.5l12.5 -12.5q8 -8 11.5 -21
t3.5 -28t-4 -30t-11 -27q-5 -7 -13 -16t-15 -15q-4 -4 -10 -5.5t-11 -5.5t-7 -8t-6 -5q-14 -4 -33.5 -3.5t-32.5 3.5q-8 1 -18 6.5t-20 13t-18 16t-12 15.5q-3 4 -6 13.5t-5.5 21.5t-3.5 24.5t1 23.5q1 3 4.5 7.5t5.5 9.5q8 14 22.5 30t36.5 21q3 1 6.5 0.5t6.5 -0.5z" />
    <glyph glyph-name="at" unicode="@" horiz-adv-x="1081" 
d="M515 893q6 1 17 1.5t23.5 0.5t25.5 -0.5t23 -1.5q6 -1 10.5 -3.5t10.5 -3.5q5 -2 10 -2.5t10 -1.5q11 -2 23 -1.5t22 -1.5q5 -2 11 -5t13 -5q33 -11 61.5 -24t55.5 -31q5 -4 10 -7.5t10 -6.5q14 -11 28.5 -22t26.5 -26q3 -3 4 -7t3 -7q5 -6 10.5 -11.5t10.5 -12.5
q2 -4 5 -7.5t5 -6.5q5 -6 9 -14.5t12 -16.5q2 -2 6 -11t7 -16q9 -20 15 -38.5t13 -40.5q4 -12 7 -25t7 -30q3 -16 4 -28t3 -31q1 -17 1.5 -30.5t-1.5 -34.5q-2 -7 -2 -15.5t-2 -15.5q-1 -5 -4.5 -10t-5.5 -10q-2 -8 -2 -14t-2 -11q0 -1 -3 -3t-3 -3q-1 -2 0 -5.5t0 -5.5
q-1 -1 -3.5 0t-3.5 0q-2 -2 -2 -6.5t-2 -6.5q-1 -2 -3 -3.5t-4 -3.5q-14 -24 -44 -45q-8 -5 -17.5 -11.5t-17.5 -9.5q-4 -1 -8.5 0.5t-8.5 -0.5q-3 -1 -4.5 -3.5t-5.5 -2.5q-15 -3 -35 -2.5t-34 2.5q-5 0 -8.5 2.5t-8.5 3.5q-14 5 -22 6.5t-23 11.5q-3 2 -6.5 6.5t-6.5 6.5
q-7 3 -13 7.5t-12 13.5q-2 2 -4.5 5.5t-5.5 8.5q-1 2 -6.5 11t-7.5 9q-4 1 -9.5 -2.5t-10.5 -9t-9.5 -11t-7.5 -8.5q-1 0 -2 -3t-2 -3q-2 -1 -3.5 0t-3.5 0q-1 -1 -1.5 -4t-1.5 -3q-2 -1 -4 0t-3 0q-7 -5 -10.5 -10.5t-6.5 -7.5q-5 -2 -12.5 -4.5t-15.5 -5.5t-18 -7.5
t-19 -6.5q-11 -1 -26.5 1.5t-28.5 -1.5q-4 -1 -5.5 -3.5t-5.5 -2.5q-6 0 -6.5 2.5t-3.5 3.5q-4 1 -11 1.5t-14.5 0.5t-15 0.5t-11.5 1.5q-11 2 -24 9.5t-24 14.5q-28 16 -48 41q-7 8 -11 16t-9 22q-2 4 -2 7t-2 7q-2 3 -3.5 4.5t-3.5 5.5q-2 8 -4 22.5t-3 25.5q-2 27 4 57
t14 53q7 19 13 30.5t17 27.5q5 7 9 15t9 13q3 4 8 6.5t9 7.5q3 3 11.5 7.5t15.5 9.5q1 1 2 3l2 4q4 4 13 7l18 6q16 8 51 11q16 1 32 0t30 -4q16 -3 33.5 -12t28.5 -5q4 2 5 3.5t1 3t-0.5 4t1.5 6.5q5 11 10.5 12t23.5 6q3 1 7 -0.5t7 0.5q1 0 0 3t0 3q2 2 10.5 2.5t18 0
t17.5 -1.5t9 -1t3 -4t4 -6q3 -4 7 -11.5t7 -15.5q2 -6 1.5 -12t1.5 -12q5 -24 13.5 -54.5t13.5 -59.5q3 -16 5.5 -34.5t6 -37.5t9 -36t14.5 -29q2 -2 1.5 -5.5t1.5 -5.5t5 -1.5t6 -1.5q5 -4 7 -7t10 -3q24 -2 37.5 19t17.5 43q0 -1 -2.5 1.5t-1.5 4.5q3 7 3.5 20.5t-0.5 28
t-3 27.5t-3 21q-4 16 -10.5 34.5t-13.5 37.5q-5 13 -9 25.5t-12 25.5l-5 5t-5 6t-3.5 8.5t-3.5 8.5l-3.5 3.5l-3.5 3.5q-8 13 -23.5 27t-31.5 24q-3 2 -8 3.5t-9 3.5q-3 2 -5.5 5.5t-4.5 4.5q-12 6 -30 10.5t-32 10.5q-5 2 -10 5.5t-7 4.5q-11 3 -27 1t-32 3q-5 2 -4.5 3.5
t-9.5 3.5q-13 2 -34 2t-38 -2q-6 -1 -12.5 -3t-14.5 -4t-15.5 -2t-15.5 -2q-11 -2 -23 -8.5t-25 -11.5q-5 -2 -8 -2t-6 -2q-29 -12 -59.5 -36t-50.5 -50l-3.5 -3.5l-3.5 -3.5q-3 -4 -5 -10t-5 -10q-3 -5 -7 -8.5t-7 -8.5q-7 -12 -15 -27.5t-16 -31.5q-16 -34 -26.5 -83.5
t-4.5 -101.5q5 -38 20 -77t35 -68q12 -17 23.5 -27.5t28.5 -23.5q4 -3 6.5 -7t7.5 -7q13 -8 34 -15.5t38 -15.5q13 -5 32 -10t40.5 -8t44.5 -3t44 4q14 3 28 7.5t31 9.5q20 6 41 20t41 28q7 5 11 7.5t13 3.5q14 0 17.5 -4.5t10.5 -9.5q4 -3 7.5 -3.5t5.5 -3.5q2 -2 2.5 -6
t4.5 -8q7 -7 16 -13.5t15 -17.5q1 -2 0 -5.5t0 -4.5h7q0 -4 -7.5 -15t-16.5 -19q-7 -7 -17.5 -13.5t-16.5 -10.5q-9 -6 -19.5 -11t-18.5 -10q-11 -6 -19 -12t-16 -9q-7 -3 -16 -3.5t-18 -2.5q-7 -2 -13.5 -5.5t-13.5 -5.5q-21 -6 -49 -10t-58 -5.5t-61 0.5t-59 8
q-21 5 -42.5 13t-43.5 15q-18 5 -32 9.5t-30 14.5q-3 2 -6.5 5t-7.5 5q-2 2 -5 2t-5 2q-2 1 -2 3t-1 3q-3 2 -6 2t-5 2q-1 1 -1.5 3.5t-1.5 3.5q-2 2 -5 1.5t-5 1.5t-2 4t-2 3q-2 2 -5 2t-5 2q-4 3 -9.5 9t-11.5 11q-6 6 -13 15.5t-14 19.5q-14 18 -24.5 35t-20.5 40
q-4 9 -6.5 17.5t-7.5 20.5q-5 16 -9.5 33t-7.5 42q-1 8 0.5 15.5t-0.5 15.5q-1 6 -4 11t-3 10q0 8 3 16.5t4 17.5q1 8 0.5 16t-0.5 15q2 33 8 62.5t16 61.5q2 7 5 13.5t5 14.5q3 8 3.5 15.5t3.5 14.5q4 8 10 15.5t11 15.5t7 17.5t7 17.5q1 1 3.5 1.5t3.5 1.5q0 2 -0.5 3.5
t0.5 3.5q0 1 3 1.5t3 1.5q3 7 8 12t10 13q8 10 14 19.5t13 17.5q10 12 26.5 25t34 24t35 21t31.5 16q8 4 15.5 5.5t15.5 5.5q14 5 28 11.5t31 12.5q8 2 15 5t12 5q21 5 45.5 3.5t43.5 3.5q5 1 7 3t11 4zM463 494q-12 -7 -20.5 -16t-13.5 -18q-5 -8 -8.5 -14.5t-5.5 -16.5
q-3 -20 -1 -27.5t4 -17.5q4 -14 5.5 -16.5t8.5 -10.5q8 -10 11.5 -12t12.5 -6q14 -5 32.5 -7t36.5 1q14 2 21.5 4.5t12.5 5.5t10 7t14 10q8 5 17 8.5t14 8.5q14 11 26 27.5t12 31.5q0 7 -3 13l-7 14q-5 8 -7.5 12.5t-5.5 7.5t-7 5t-11 6q-5 2 -8.5 5t-8.5 5t-11.5 2t-12.5 2
q-7 2 -11.5 4t-9.5 3q-13 1 -25.5 -1t-15.5 -3q-23 -4 -45 -17z" />
    <glyph glyph-name="A" unicode="A" 
d="M335 809q6 0 24.5 1t41.5 1t46 -0.5t39 -1.5q14 -2 28 -1.5t17 -1.5q2 -2 4.5 -15.5t5.5 -26.5q5 -19 9 -37.5t8 -41.5q2 -10 0 -18.5t3 -15.5q4 -5 3 -18t1 -27q1 -8 3 -15.5t4 -15.5q1 -5 -0.5 -10.5t0.5 -9.5q1 -3 3.5 -5t3.5 -6q0 -2 -2 -3t-2 -3q1 -2 3.5 -7.5
t3.5 -10.5q1 -4 -1 -5t-2 -5q0 -16 4 -41t6 -45q5 -52 10.5 -95.5t10.5 -93.5q2 -23 4 -42t3.5 -37.5t3 -38t2.5 -43.5q1 -21 0 -40t-3 -22q-5 -5 -16 -2t-22 -2q-1 0 0 -3t0 -3q-1 -1 -12 -2t-27 -1h-34.5t-34.5 0.5t-27.5 1t-12.5 1.5q-4 2 -6 17.5t-4 30.5q-2 30 -2 56.5
t-1 49.5q-2 17 -4.5 30.5t-2.5 21.5q0 7 4 18t3 23l-4 16q-2 6 -4 11.5t-3 6.5q-6 4 -21 3t-31 -3.5t-30 -6t-17 -3.5q-14 -2 -29 -2t-23 -8q-7 -7 -7 -15t-3 -20q-2 -4 -3.5 -6t-3.5 -7q0 1 2.5 -0.5t0.5 -3.5q-5 -4 -5.5 -11.5t-1.5 -12.5q0 -2 -1.5 -4t-1.5 -3q0 -2 1 -9
t-1 -15q-1 -5 -3.5 -7t-3.5 -7q-2 -7 -1.5 -15t-1.5 -19t-5 -24t-6 -27q0 -3 -1 -11.5t-1.5 -17.5t-1.5 -17t-2 -9q-3 -3 -12 -3.5t-20.5 0.5t-22 2t-14.5 1q-16 0 -32.5 -0.5t-32.5 0.5q-14 0 -30 1t-22 9q-2 2 -2 9.5t0.5 17t1.5 21t3 21.5q1 4 3.5 6t3.5 7q2 5 0.5 9
t-0.5 9q5 23 10.5 46t10.5 46q2 7 3.5 13t3.5 18q2 13 2.5 23.5t4.5 21.5q0 1 -0.5 3.5t0.5 3.5h3h4q2 6 0 12.5t0 11.5q4 20 9.5 40t10.5 42q2 6 2 12.5t2 11.5q8 30 17 70t17 75q1 4 3.5 8t3.5 9t-0.5 12t0.5 12q2 10 7.5 20.5t9.5 24.5q2 6 1.5 12.5t1.5 14.5
q2 5 3.5 11.5t3.5 12.5q2 8 6 21.5t8 26.5q4 16 6.5 24.5t6.5 13.5t12 7.5t23 6.5q20 5 52 6.5t55 3.5zM331 644q-3 -3 -5.5 -9.5t-4.5 -14t-4 -14.5t-3 -10q-3 -9 -7 -17q-6 -20 -7.5 -38t-6.5 -38q-1 -6 -3.5 -13t-4 -14.5t-2 -14t3.5 -9.5q3 -3 11 -2.5t17 2.5t17 4.5
t10 2.5h15t20.5 0.5t19 1.5t10.5 4q4 5 3.5 19.5t-3 30.5t-5 30t-2.5 17q-1 4 0 12.5t0 18.5q0 4 -2 13t-4 18.5t-3 16.5l-1 7q-2 1 -8 1h-13.5t-14 -0.5t-9.5 -0.5q-3 -1 -2.5 -2t-0.5 -2q-2 -1 -5.5 0.5t-5.5 -0.5z" />
    <glyph glyph-name="B" unicode="B" horiz-adv-x="667" 
d="M249 785q10 0 27 1t36 2t37 0.5t31 -3.5q5 -2 9.5 -5t11.5 -5q5 -2 11.5 -3.5t12.5 -3.5q26 -11 42.5 -24t29.5 -38q2 -5 5 -9t5 -8q3 -8 4 -18t3 -20q2 -8 5.5 -16t4.5 -15q3 -26 -1 -54.5t-12 -48.5q-2 -4 -14 -21q-8 -11 -15.5 -18t-19.5 -16q-6 -5 -12 -8.5t-5 -8.5
q1 -4 7 -7t13.5 -5.5t14.5 -5.5t10 -6q4 -6 10 -11q8 -6 12 -7.5t9 -9.5q3 -5 9.5 -11t10.5 -13q2 -3 2 -4t2 -3q4 -4 6.5 -14.5t7.5 -19.5q3 -8 7 -14.5t6 -13.5q4 -12 6 -30.5t2.5 -38t-1.5 -37.5t-7 -28q0 -1 -3 -1.5t-3 -1.5q-2 -5 -1.5 -8.5t-2.5 -8.5q-2 -5 -4.5 -10
l-5.5 -11q-8 -14 -15.5 -22t-19.5 -19q-10 -10 -15 -15.5t-19 -12.5q-14 -6 -32.5 -13.5t-36.5 -13.5q-14 -5 -26.5 -7.5t-31.5 -6.5q-4 -1 -9 0.5t-8 -0.5q-1 0 0 -3t0 -4q-2 -2 -13 -2.5t-24.5 -0.5h-26.5h-19q-21 -1 -39 -1.5t-36 -0.5t-37 0.5t-42 1.5q-20 0 -38 3
q-2 1 -5 0t-5 0t-2 4t-2 3q-7 3 -11 1.5t-6 2.5q-2 3 -2.5 11t0 19t1.5 24t1 25q3 140 0.5 276t6.5 273q1 10 1.5 19t-1.5 19q-2 6 -3 10t-1 11q0 5 0.5 14t2 19t3.5 18t5 11q4 5 10 3.5t17 3.5q1 0 3 3q1 1 1 3q14 3 37.5 2.5t44.5 1.5q29 2 50.5 0.5t38.5 -0.5zM212 651
q-4 -3 -4.5 -10.5t0.5 -16t2.5 -16.5t1.5 -12q0 -11 -0.5 -22.5t0.5 -22.5v-10.5v-13t0.5 -11.5t2.5 -6q2 -2 10.5 -2h19t20 1t12.5 1q8 1 21 4t25.5 7t22.5 8.5t13 7.5t5.5 11.5t5 18t3.5 18.5t0 14q0 3 -3 9.5t-6.5 13.5t-7 12t-4.5 7q-1 1 -12 6t-18 7q-9 2 -20.5 2.5
t-22.5 0.5t-20 -1t-13 -2q-3 0 -15 1.5t-19 -4.5zM222 324q-4 -3 -5 -12.5t-2 -18.5q-2 -23 0 -37.5t3 -34.5l0.5 -4t1 -8.5l1 -9t1.5 -5.5q4 -6 14 -8t22 -2t24 1t22 2q11 2 28.5 3.5t23.5 3.5q5 2 8.5 7.5t8.5 9.5q1 1 3 0t4 0t5.5 5t4.5 5q7 7 11 20.5t3 24.5
q-1 19 -12 33.5t-26 21.5q-20 9 -37.5 10t-44.5 0q-20 -1 -37.5 -0.5t-24.5 -6.5z" />
    <glyph glyph-name="C" unicode="C" horiz-adv-x="645" 
d="M267 786q4 1 23 3t42.5 3t45.5 0t34 -6q4 -2 13.5 -1.5t16.5 -1.5q11 -4 20 -11.5t18 -12.5q11 -6 20.5 -10.5t17.5 -10.5q10 -7 21 -17t20 -21q2 -2 8 -12.5t6 -14.5q-1 -11 -9.5 -18.5t-17.5 -16.5q-4 -3 -9 -7t-9 -6q-9 -8 -16 -12.5t-18 -12.5q-6 -4 -13 -11
t-15.5 -13t-18 -8.5t-18.5 2.5q-2 0 -2 3t-2 3q-4 2 -7.5 4t-5.5 7q-2 2 -2 5t-2 5q-8 8 -17 16t-17 12q-3 1 -10.5 2.5t-16.5 3t-18.5 1.5t-16.5 -1q-8 -1 -16.5 -5t-14.5 -8q-26 -16 -42.5 -49t-22.5 -72q-1 -4 1.5 -5.5t1.5 -4.5q0 -1 -3 -11t-4 -16q-2 -26 0.5 -55.5
t6.5 -58.5q8 -59 30 -103t70 -65q7 -3 20 -7t24 -3q14 0 27.5 5.5t24.5 11.5q10 5 21 13.5t20 17.5q11 10 20.5 22t17.5 12q6 0 15 -6.5t18.5 -15.5t18 -18.5t13.5 -14.5q8 -8 14.5 -16t13.5 -15q10 -11 16.5 -15.5t7.5 -18.5q1 -17 -10 -27.5t-25 -24.5l-15.5 -15.5
t-18.5 -15.5q-14 -10 -34 -19.5t-41 -18.5q-5 -2 -9.5 -5t-8.5 -5q-5 -2 -11 0t-9 0q-4 -1 -4.5 -3.5t-6.5 -3.5q-27 -4 -55.5 -3t-54.5 3q-8 1 -9 3t-8 4q-5 2 -10.5 0t-9.5 0q-5 2 -10 5t-11 5q-40 15 -76.5 39.5t-57.5 53.5q-1 1 -3.5 2t-3.5 2t0 3t0 4q-1 1 -3.5 1.5
t-3.5 1.5q-1 2 0 3.5t0 3.5q-1 1 -3.5 1.5t-3.5 1.5q-5 11 -11.5 25t-12.5 27q-5 12 -10.5 24.5t-9.5 26.5q-2 7 -2 15t-2 16q-1 4 -4.5 10.5t-5.5 13.5q-1 5 0 9t0 9l-2 10t-1 10q-1 2 1.5 4.5t1.5 5.5q-1 5 -3.5 12t-3.5 16q-1 19 1 39t3 40v38.5t3 37.5q2 8 5 16t5 18
q2 9 3 19t4 19q3 8 7 15.5t7 15.5q2 4 1.5 8t1.5 9q1 1 3.5 1t3.5 2t0 5.5t0 5.5q1 1 4 1.5t3 1.5q1 2 0 3.5t0 3.5q1 1 3.5 1.5t3.5 1.5q1 2 0 4t0 3q3 5 8.5 9t8.5 8q2 2 2 3.5t2 3.5q4 5 10.5 15t13.5 16q2 2 5 2t5 2q2 1 2 3t1 3q13 9 32.5 17.5t36.5 17.5
q14 7 21.5 10.5t26.5 6.5z" />
    <glyph glyph-name="D" unicode="D" horiz-adv-x="681" 
d="M146 806q16 2 39 3.5t47.5 2.5t47.5 -0.5t38 -5.5q5 -2 6 -1.5t4 -1.5q7 -5 22 -4.5t26 -2.5q3 -1 12 -6t16 -8t21.5 -7.5t22.5 -9.5q5 -2 7.5 -6.5t6.5 -7.5q2 -2 5 -1.5t5 -1.5q4 -4 9.5 -8t11.5 -9q11 -9 19 -19.5t19 -25.5q3 -5 6.5 -8.5t7.5 -8.5q2 -2 1.5 -5
t1.5 -6q2 -2 3.5 -3t3.5 -3q2 -5 1.5 -11t1.5 -14q2 -7 7.5 -15t10.5 -19q11 -34 14.5 -80.5t5.5 -94.5q1 -21 1.5 -41.5t-1.5 -37.5q-1 -12 -3 -24.5t-4 -23.5q-2 -13 -1.5 -25t-1.5 -23q0 -1 -3.5 -2t-3.5 -2t1 -5.5t-1 -11.5q-2 -5 -5 -10t-5 -11q-7 -17 -11.5 -33
t-16.5 -28q-6 -7 -13 -20t-14 -22q-4 -5 -7.5 -9t-6.5 -8q-10 -9 -23.5 -17.5t-28.5 -16.5q-6 -4 -13 -7t-14 -7t-12.5 -9.5t-11.5 -7.5q-3 -2 -9 -2t-12 -2q-17 -6 -51 -10q-20 -3 -31.5 -3.5t-34.5 0.5h-23.5t-20.5 -4q-3 -2 -13.5 -3t-23 -1t-25.5 0.5t-21 3.5l-24 2
q-9 1 -17 1.5t-7 0.5q-2 1 -3 6l-2.5 12.5t-2.5 15.5t-2 14q-2 13 -2.5 24.5t-1.5 19.5q-1 14 -3.5 26.5t-2.5 25.5q-1 14 0 27.5t0 27.5q-2 14 -4 26.5t-3 25.5q-1 2 0 8.5t0 11.5q-2 6 -2.5 12t-1.5 12q-2 26 -0.5 51t-2.5 52q-2 11 -4 17t-3 11q-2 24 -2 48t-1 45
q-2 21 -3.5 43.5t-3.5 45.5q-2 14 -4 39.5t-3 49.5q-1 13 -1.5 28t0 28.5t1.5 23.5t3 13q8 9 30 8.5t42 1.5q5 1 10.5 3.5t10.5 3.5q7 1 13.5 0.5t10.5 -0.5zM215 648q-4 -6 -4.5 -17.5t0 -25.5t2.5 -30.5t2 -32.5q0 -15 1 -29t2 -30q2 -23 0.5 -39t3.5 -33q5 -23 4 -48.5
t-1 -47.5q0 -11 2.5 -31.5t4.5 -40.5q1 -10 2 -20.5t2 -19.5t2.5 -15t3.5 -7q1 -1 8.5 -1h16t15.5 0.5t8 0.5t3 3q1 2 1 4q5 1 11 0t9 0q40 7 61.5 19.5t35.5 45.5q1 3 1 8t2 9t4 7t3 7q4 15 5.5 35.5t1.5 42t-1 42.5t-3 38q-1 11 -1 22t-2 19q-1 4 -3 7t-4 7q-2 5 -2 10.5
t-1 10.5q-10 35 -22 56.5t-33 39.5q-12 10 -22.5 16t-25.5 11q-6 2 -18 5.5t-24.5 6t-24.5 3t-19 -3.5q-3 -2 -4 -1.5t-3 -2.5z" />
    <glyph glyph-name="E" unicode="E" horiz-adv-x="540" 
d="M415 787q13 0 24 1q9 0 17 0.5t10 -1.5q4 -4 1 -15t-1 -16l4 -2q2 -1 3 -1q0 -2 -1 -7.5t-2.5 -12t-2.5 -14t-1 -11.5q1 -5 1 -15t-1 -20.5t-1.5 -18t-1.5 -8.5q-4 -5 -17 -8.5t-24 -5.5q-28 -4 -66.5 -1.5t-71.5 -1.5q-1 0 -5 0.5t-5 -0.5t0 -4t0 -3q-2 -1 -9 -1h-14.5
t-14 -0.5t-7.5 -1.5q-2 -2 -3.5 -8.5t-3 -14.5t-2.5 -15.5t-1 -10.5q-1 -10 0 -27.5t7 -23.5q4 -4 15.5 -5.5t25 -1.5t28 0.5t24.5 -0.5q10 -2 27 -3q7 -2 14 -2t14 -2q9 -1 18 -2.5t17 -4.5t13 -8.5t6 -15.5q1 -5 -1.5 -8.5t-1.5 -8.5t2 -10.5t1 -10.5q1 -7 1.5 -22
t-1.5 -29v-7.5t-1 -11t-2 -10t-3 -5.5t-9.5 -0.5t-18.5 0.5q-25 -1 -56.5 -1.5t-63.5 -2.5q-10 -1 -22 -2t-19 -5q-10 -5 -14 -15.5t-5.5 -23t-1 -27t-0.5 -27.5q0 -5 -2 -11t-1 -9q1 -27 9.5 -33.5t38.5 -4.5q8 1 14 2.5t17 0.5q9 0 19.5 -2.5t24.5 -3.5q18 -2 36.5 0.5
t35.5 2.5q19 0 37 -1.5t25 -8.5q2 -2 2 -7t2 -10q3 -17 -1 -29.5t-6 -32.5q-2 -16 -2 -28.5t-2 -23.5q-1 -11 -0.5 -21t-2.5 -20q0 1 -3.5 -1t-3.5 -3q-2 -2 -2 -10t-5 -10q-1 0 -5.5 -0.5t-10 -0.5h-10t-5.5 1t0 3.5t0 3.5q-5 2 -22.5 2t-28.5 1q-37 4 -84 1.5t-95 2.5
q-3 0 -7 -1t-7 1q-1 0 0 3t0 3l-7 1t-16.5 1.5t-19.5 1t-15 0.5q-20 0 -39 -2.5t-26 2.5q-2 10 -5 19l-4 16t-2 13q0 10 3.5 18.5t3.5 19.5q1 5 -0.5 13t-2.5 14q-4 43 -2.5 98t-1.5 112q-3 74 0 148q2 42 -0.5 80t0.5 67q2 11 4.5 19t2.5 16q1 18 -1 32t-1.5 25t6 19
t20.5 13q5 2 10.5 0t10.5 0q1 1 1 3.5t2 3.5q7 2 19 2t24 0.5t23 2t17 5.5t17.5 5.5t25 2l27 1t23.5 2.5q5 1 10 3t10 3q27 5 63 4t68 0z" />
    <glyph glyph-name="F" unicode="F" horiz-adv-x="554" 
d="M65 781q8 2 23 1t36 -1q31 0 69.5 1t77.5 2t75 0.5t63 -3.5q1 0 5 0.5t5 -0.5t0 -4t0 -3q8 -3 22.5 -3t18.5 -4q2 -2 3.5 -10t3 -17.5t2.5 -19t2 -15.5q2 -12 1.5 -27t-1.5 -28q-1 -5 0 -12t0 -12q-4 -14 -22 -14.5t-44 0.5q-16 1 -37 2.5t-43 3.5t-41.5 3.5t-32.5 1.5
h-11.5t-17.5 -0.5t-17 -1.5t-9 -2q-4 -3 -4.5 -12.5t0 -20.5t2.5 -21t2 -14q0 -3 1.5 -8t1.5 -10q0 -7 -1 -13.5t1 -17.5l2 -6q1 -4 2 -7q4 -5 24 -7.5t34 -3.5q14 -2 30 -3.5t28 -2.5q21 -2 39.5 0t36.5 -4q14 -5 17 -12t7 -29q2 -11 2.5 -19t0.5 -16t-1 -16.5t-2 -20.5
q-1 -10 0 -19t-3 -12q-3 -2 -10.5 -2t-16.5 0.5t-17 1t-11 0.5q-35 0 -66.5 3t-60.5 -7q-2 -1 -5 -1.5t-6 -2.5q-4 -2 -7 -3q-3 -3 -2.5 -16t2.5 -28.5t4 -30.5t3 -24q1 -5 -1.5 -9t-1.5 -8q1 -11 3.5 -19t3.5 -16q2 -17 3.5 -36.5l3.5 -45.5q0 -2 0.5 -15t1 -28t0.5 -28
t-2 -15t-17 -2.5t-33 0t-34.5 1t-22.5 1.5q-2 0 -5 -0.5t-5 0.5t-2.5 3.5t-1.5 3.5q-3 1 -10 1h-15t-15 0.5t-8 1.5q-3 2 -5 12.5t-3.5 24.5t-2 29t0.5 27q1 16 1 44.5t-1 51.5q-1 18 -4 33.5t-3 28.5q0 9 2 21.5t1 16.5q0 11 -3 19t-3 15q-5 47 -3.5 92.5t-0.5 89.5
q-2 48 1 92t-1 90q-1 9 -3.5 22t-3.5 20q-1 8 -2.5 13t-0.5 11q2 9 8.5 16t18.5 8q2 0 3.5 -0.5t3.5 0.5z" />
    <glyph glyph-name="G" unicode="G" horiz-adv-x="726" 
d="M293 802q7 1 24.5 2t34.5 -2q1 0 5 0.5t5 -0.5q1 0 0 -3t0 -4q6 -2 16 -1.5t15 -1.5q12 -4 30 -7.5t32 -9.5q14 -7 28.5 -16.5t29.5 -21.5q4 -3 7.5 -5t6.5 -5q2 -2 7 -8t10.5 -12.5t9.5 -12t4 -8.5q0 -9 -8 -15t-16 -16q-14 -15 -22 -27.5t-23 -24.5q-2 -2 -5 -1.5
t-5 -1.5q-9 -8 -14.5 -16t-13.5 -8q-8 -1 -16.5 5t-17.5 13.5l-18 15t-16 10.5q-3 2 -6.5 2.5t-4.5 1.5q-35 11 -65 0.5t-51 -31.5q-20 -20 -34 -47.5t-21 -66.5q-2 -5 0 -11.5t0 -12.5q-2 -5 -4 -6.5t-3 -6.5q0 1 2.5 -0.5t0.5 -3.5t-4.5 -12t-2.5 -15q0 -11 1.5 -22.5
t2.5 -22.5q1 -26 1.5 -48.5t8.5 -44.5q1 -2 3.5 -5t3.5 -5q2 -7 3 -13t4 -11q6 -12 14.5 -24.5t16.5 -20.5q8 -7 19 -12.5t22 -11.5q11 -5 21.5 -11.5t19.5 -8.5q14 -3 36 -3.5t36 3.5q1 0 7 3t13.5 7.5t14.5 9.5t10 10q2 2 1.5 5.5t1.5 5.5q3 4 8 7.5t6 5.5q2 4 0.5 9
t-0.5 9q1 6 6 16t1 18q-7 12 -23 13.5t-32 3.5q-17 2 -33 1.5t-25 9.5q-11 10 -9 28t2 40q0 4 -1 13.5t-1.5 20t0.5 19.5t5 13q3 3 15 3.5t26 0.5t26.5 -0.5t18.5 -0.5q7 -1 14.5 -3t16.5 -4q21 -3 49.5 -3.5t53.5 -3.5q2 0 5.5 0.5t4.5 -0.5q2 -2 1 -3.5t3 -3.5
q7 -2 16.5 -2t18 -0.5t14.5 -4.5t6 -13q0 -4 -2 -6t-2 -5q1 -1 4 -3t3 -3q2 -5 -0.5 -7.5t-2.5 -3.5q2 -33 3.5 -73t-3.5 -71q-2 -10 -6.5 -21t-7.5 -24q-2 -6 -1.5 -12t-1.5 -12q-5 -17 -14.5 -38t-20.5 -37q-1 -2 -3 -3.5t-4 -3.5q-5 -8 -9.5 -14.5t-14.5 -13.5
q-5 -3 -13.5 -13.5t-13.5 -13.5q-2 -2 -10 -3t-14 -4q-5 -3 -9 -7.5t-8 -6.5t-8.5 0t-9.5 0q-3 -1 -4.5 -3.5t-5.5 -3.5q-17 -2 -36 -1t-36 1q-10 0 -22 -1t-23.5 -1t-21.5 1t-15 5q-5 2 -14 1.5t-17 1.5q-5 2 -10.5 5t-10.5 5q-15 6 -33 11.5t-32 13.5q-2 0 -2.5 3t-1.5 3
q-4 2 -6.5 3t-7.5 4q-10 8 -24.5 19.5t-23.5 21.5q-3 5 -5 10.5t-5 10.5t-7 7.5t-7 6.5q-2 2 -1.5 5t-1.5 5q-3 5 -8.5 11t-8.5 13q-7 14 -11.5 31t-9.5 34q-2 5 -3.5 9t-3.5 9q-2 7 -3 16t-4 18q-1 4 -3.5 7t-3.5 7q-4 22 -5 47t-1 49q-2 69 3 124.5t24 109.5q2 3 3.5 6
l3.5 7q7 20 15 36t19 33l3.5 7l3.5 7q1 1 4 1.5t3 1.5q5 10 16 22.5t22 22.5q12 12 23.5 22t24.5 16q18 8 43.5 13t45.5 7z" />
    <glyph glyph-name="H" unicode="H" horiz-adv-x="620" 
d="M384 780q8 5 29.5 4.5t46.5 -0.5q9 0 20.5 0.5t22 1t19 0t10.5 -1.5l1 -3t2.5 -7t2.5 -7.5l1 -3.5q3 -15 3.5 -34t-1 -39.5t-3.5 -41.5t-3 -40q-2 -35 0.5 -70t-0.5 -70q-1 -11 -3 -22t-4 -23q-3 -37 -2 -82t-1 -90q-1 -20 -3 -49t-4 -61q-1 -16 -1 -34t-0.5 -33.5
t-1.5 -27.5t-4 -15q-7 -10 -28 -9.5t-44 -0.5t-47 -3t-32 6q-4 4 -2.5 13.5t-0.5 21.5q-2 9 -4 14.5t-3 12.5q-1 12 0.5 30.5t3 41t3 46t0.5 44.5q-1 7 -2 15l-2 16v24q-3 3 -15 5t-27.5 3t-33 0t-30.5 -2q-7 0 -17 -1t-14 -5q-9 -10 -7 -30t3 -39q2 -20 2 -39.5t2 -36.5
q0 -7 2 -29t3 -46t-0.5 -45t-8.5 -27q-4 -4 -14.5 -3.5t-19.5 -0.5q-7 0 -23.5 -1t-35 -2t-34 -0.5t-20.5 3.5q-3 2 -9 15.5t-9 29.5q-1 5 2 12.5t2 14.5q-1 6 -3.5 9.5t-3.5 14.5q-2 30 -1.5 60.5t-1.5 56.5q-2 9 -4.5 16.5t-2.5 14.5q-2 26 -2 61t-2 70v68v258
q0 20 0.5 36t3.5 19q4 4 13.5 4.5t20.5 2.5q8 1 17 1.5t17 1.5q7 1 17.5 3.5t21 4.5t20 2.5t14.5 -3.5q1 -1 2 -7t2.5 -14.5t3 -16.5t2.5 -13q4 -30 4.5 -54t2.5 -49q0 -7 1.5 -14.5t1.5 -13.5q0 -11 -1.5 -19t1.5 -19v-5v-2q2 -7 4.5 -11t2.5 -9q1 -9 -1.5 -18.5
t-1.5 -19.5q0 -8 1 -18t5 -13q8 -6 19.5 -3.5t25.5 3.5q9 1 20 0t18 4q4 3 12 2.5t17 -1.5t18 -1t15 3q5 3 6.5 11.5t3.5 19.5q3 20 0.5 50t-0.5 63q1 17 3 36.5t4 39.5q2 19 1 38.5t2 30.5q2 4 6.5 11t7.5 9z" />
    <glyph glyph-name="I" unicode="I" horiz-adv-x="471" 
d="M47 768q9 4 29.5 5t45.5 1t51.5 -1t48.5 -2h20.5t23 -0.5t21 -2t14.5 -4.5q7 -4 24.5 -3.5t30.5 -2.5q11 -2 22.5 -7.5t12.5 -6.5q7 -9 6 -31t-3 -41q-1 -7 -3 -21.5t-4 -16.5q-1 -1 -6 -2t-11 -1.5t-12 -0.5h-8q-15 1 -19.5 4t-11.5 -4q-4 -3 -5 -9.5t-1.5 -15t0 -16.5
t-0.5 -14q-3 -17 -3 -40t1.5 -48.5t3 -50.5t1.5 -46q0 -5 -3 -9t-4 -8q0 -5 2 -9t2 -8q0 -30 -1 -64.5t-3 -66.5q0 -6 -1.5 -16t-2.5 -20.5t-1 -20t2 -12.5q3 -4 7.5 -5t9.5 -0.5t9.5 1.5t7.5 1q4 0 10.5 -0.5t13 -0.5t11.5 -1t7 -2q3 -2 3.5 -9t0.5 -15t-0.5 -16.5
t-0.5 -14.5q0 -5 1.5 -10t1.5 -7q0 -8 1 -18t-1 -20q0 1 -1 -3.5t-2.5 -10t-3.5 -10.5t-3 -6l-6 -0.5t-14 -1.5t-16.5 -1.5t-14.5 -0.5q-13 -1 -26.5 -2t-25.5 -1q-33 -2 -66 2t-54 5q-27 0 -54.5 -3t-41.5 6q-6 4 -9.5 12.5t-5.5 19t-2.5 21t-0.5 19.5t-0.5 17.5t0.5 13.5
q0 -1 1.5 4t3.5 11.5t4.5 12t4.5 6.5q-1 0 5.5 0.5t14.5 1t15.5 0t9.5 -1.5v-3v-3q4 -2 11 -1t9 4q2 2 5.5 1.5t5.5 1.5q6 6 6.5 21.5t-0.5 35t-3.5 40t-2.5 34.5q-2 37 -2 72.5t-2 68.5q0 3 1.5 2.5t2.5 0.5q0 3 -3.5 15t-3.5 20q0 6 1.5 12t1.5 12q0 10 -0.5 24.5t-0.5 31
t-0.5 33.5t-1.5 31q0 5 -1 15.5t-3 11.5q-5 4 -12.5 4.5t-16 -0.5t-17 -2.5t-15.5 -1.5q-21 2 -23.5 19.5t-4.5 39.5q-1 9 -2 17t-1 17q-1 6 -2 17.5t2 17.5q-1 -2 0.5 -1t4.5 3.5t5.5 5l2.5 2.5q2 1 3.5 0t3.5 0z" />
    <glyph glyph-name="J" unicode="J" horiz-adv-x="669" 
d="M408 775q3 1 14.5 2t26 2t30.5 1t28 -1q3 -1 8 -3t13 -4t14 -3t7 -1q4 -4 4.5 -14.5t1.5 -19.5q2 -10 1 -17t-1 -14q2 -21 5.5 -41.5t5.5 -40.5q1 -23 -0.5 -46.5t0.5 -46.5q1 -29 4 -57t3 -57q-1 -14 -1.5 -28.5t-2.5 -29.5q0 -6 -1.5 -13t-1.5 -14q0 -6 2 -12.5
t1 -12.5q0 -5 -2.5 -10.5t-4.5 -13.5q0 2 3 0.5t1 -3.5q-5 -3 -3.5 -7.5t-0.5 -13.5q-2 -11 -5 -23.5t-5 -24.5q-4 -18 -10 -38.5t-14 -40.5q-5 -11 -15.5 -25.5t-18.5 -25.5q-9 -12 -16.5 -22.5t-14.5 -15.5q-2 -2 -7.5 -3.5t-10.5 -3.5q-8 -5 -18.5 -12t-22.5 -12
t-26.5 -5t-28.5 -5q-5 -2 -7 -4t-7 -3q-17 -2 -39 -2t-40 2q-6 1 -12.5 4.5t-14.5 5.5t-15.5 2t-15.5 2q-10 2 -19 5.5t-19 7.5q-14 6 -27.5 15t-27.5 20q-20 15 -31 26t-24 32q-2 4 -3 8.5t-4 8.5q-4 6 -9.5 10.5t-10.5 13.5q-3 5 -6.5 13t-5.5 17t-1 17.5t6 14.5v1
q0 2 1 3q1 2 2 3q13 5 27.5 16t27.5 22q1 1 2 3.5t2 3.5q1 0 3 -0.5t4 0.5q5 3 8 8t9 9q5 3 11.5 4.5t12.5 5.5q1 1 1.5 4t1.5 3q5 2 18 8.5t27 1.5q6 -2 9 -5t5 -8t1 -10t2 -11q2 -4 7 -6.5t7 -7.5q3 -5 4 -10t3 -7q6 -10 15 -22t22 -21.5t30 -14.5t39 0q5 1 12.5 5
t15.5 10t14.5 12t9.5 10q2 3 4.5 11.5t5.5 16.5q4 9 8 20.5t6 24.5q0 3 -2 3h-2q2 6 4 11t3 10q1 2 -1 4.5t-2 5.5q0 4 3 15t4 19q1 23 -2 51t-5 59q-2 30 -1.5 62t-2.5 59q0 3 1 6.5t-1 6.5q0 2 -3 4t-3 3q-4 16 -3 32t-1 30q-1 16 -3 41q-1 6 -2.5 13.5t-2 15t1 12.5
t6.5 7q4 2 13 4t15 3z" />
    <glyph glyph-name="K" unicode="K" horiz-adv-x="632" 
d="M38 786q4 1 18.5 2.5t33 2.5t36.5 0.5t29 -2.5q6 -2 15.5 -6.5t8.5 -3.5q3 -4 4.5 -25t2.5 -37q1 -21 2 -38t2 -33.5t1.5 -34t1.5 -38.5q0 -9 -0.5 -20t-1.5 -21.5t-0.5 -18t2.5 -9.5q4 -3 11 0t14 9t12.5 11.5l6.5 6.5q4 5 8 13.5t10 14.5t15 16.5t16 17.5q5 6 12 11.5
t12 12.5q8 12 16 26.5t18 28.5q5 8 11.5 14t9.5 10q4 7 10.5 24t13.5 28q2 2 3 5.5t4 8.5q0 1 3 1.5t3 1.5q1 1 3 5t5 8t5.5 7.5t4.5 3.5q1 0 5.5 -2.5t10 -6t10.5 -7.5t8 -5q8 -4 17 -10q14 -8 28.5 -19.5t26.5 -28.5l4 -6t6 -8q9 -8 5.5 -20t-11.5 -24q-11 -17 -25 -36
t-27 -36q-3 -5 -5 -9t-5 -9q-8 -11 -17.5 -22.5t-20.5 -25.5q-3 -4 -5.5 -8.5t-4.5 -8.5q-8 -10 -18.5 -21.5t-19.5 -23.5q-8 -10 -14 -17t-7 -17q-1 -12 7 -22t17 -23q16 -23 27.5 -41t27.5 -41q9 -13 18 -24t17 -24q2 -3 1.5 -4t1.5 -3q2 -3 5.5 -12.5t8.5 -15.5
q3 -5 8 -8.5t9 -8.5q3 -5 4.5 -10t5.5 -10q5 -8 12.5 -19t15.5 -23t14.5 -24.5t5.5 -19.5q-1 -13 -16.5 -23.5t-27.5 -18.5q-10 -5 -17.5 -8t-20.5 -9q-5 -2 -12 -6t-16 -7.5t-18.5 -5t-18.5 1.5t-13 11.5t-11 22.5q-21 38 -41.5 77t-41.5 75q-3 5 -5 10t-5 10
q-6 10 -14 19.5t-14 25.5q0 1 -1 4.5t-2 5.5t-6 5.5t-8 8.5q-2 3 -3.5 9t-6.5 8q-10 2 -24 -8t-17 -19q-3 -8 -2.5 -27t2.5 -35q1 -8 3.5 -16t2.5 -15q1 -6 -1 -13t-2 -15t3 -15t4 -15q2 -17 2.5 -37.5t0 -37.5t-1 -29t-1.5 -13q-4 -5 -17 -7t-28 -3t-29.5 -1.5t-21.5 -2.5
q-3 -1 -7.5 -3.5t-6.5 -3.5q-21 -3 -35.5 -0.5t-19.5 17.5q-1 3 -2 4.5t-1 6.5q-1 2 1 6l2 4q-1 5 -3.5 10t-3.5 10q0 5 2 10t2 11q-2 14 -4 29.5t-3 32.5q-2 17 -2.5 32.5t-1.5 32.5q-2 35 -5.5 67.5t-4.5 56.5q-2 46 -1.5 88t-2.5 87q0 11 -2.5 24.5t-3.5 30.5
q-3 48 0.5 83.5t-0.5 67.5q-2 0 -3 1q-2 2 -1 3q4 3 0 14.5t-3 19.5q0 4 1 11.5t3.5 16t5.5 15t7 9.5q2 1 5 0t5 0z" />
    <glyph glyph-name="L" unicode="L" horiz-adv-x="542" 
d="M110 779q3 0 17 1t30 1.5t30 -0.5t19 -5q1 -7 2 -13q2 -12 5 -22q4 -24 5 -54.5t-0.5 -63.5t-3 -67t-1.5 -65q0 -34 -0.5 -70.5t-3.5 -81.5q-1 -10 -3 -29.5t-4 -42.5q0 -11 -1.5 -23t-2 -22.5t-1 -18t1.5 -8.5q3 -4 20.5 -5t38.5 -0.5t40.5 1.5t27.5 1h65h35.5t26.5 -4
q5 -3 7.5 -12.5t4 -21t2 -22t0.5 -16.5q2 -16 0 -41q-1 -12 -0.5 -24t-2.5 -17q-1 -2 -6.5 -4.5t-11.5 -5.5t-12 -5t-8 -3q-13 -2 -26.5 0t-25.5 0q-6 0 -13.5 -2t-17.5 -4q-4 -2 -8 -2t-9 -2l-6 -2t-8 -1q-27 -3 -65.5 -3.5t-71.5 -0.5h-72q-9 0 -20 0.5t-20.5 0.5
t-16.5 0.5t-8 2.5q-2 1 -5.5 11t-5.5 16q-5 23 -1.5 41.5t5.5 44.5q2 38 1 79t-1 86q0 79 -2 162t-2 164q0 19 -1 43.5t-1.5 47.5t1.5 41.5t8 26.5q5 6 14 9t20 3.5t22 0.5h20z" />
    <glyph glyph-name="M" unicode="M" horiz-adv-x="823" 
d="M389 279q19 27 29.5 58.5t21.5 61.5q3 8 6.5 15.5t7.5 15.5q3 8 6.5 14t7.5 14q11 24 17 46t17 47q5 13 11.5 28t12.5 30q5 11 8 19.5t9 18.5q2 2 2 3.5t2 3.5q2 4 1.5 8t1.5 9q2 7 6.5 13.5t7.5 13.5q5 11 9 21t11 21q4 6 5.5 8.5t4 2.5h6.5t15 2q2 1 4 0.5t3 -0.5
q1 1 0 4t0 3q2 2 15 2t20 -2q5 -1 8.5 -3t8.5 -4q12 -2 19.5 -2t12.5 -1t8.5 -4.5t7.5 -12.5q5 -12 5 -25t2 -30q2 -11 5.5 -24.5t4.5 -27.5q2 -28 0 -59t0 -61q3 -65 2 -123.5t-2 -123.5q0 -5 -1.5 -10.5t-1.5 -10.5t1.5 -10.5t1.5 -10.5q-1 -26 -1 -49.5t-2 -46.5
q-1 -5 -3.5 -14t-3.5 -20q-2 -23 -0.5 -46t-6.5 -30q-4 -3 -11.5 -3t-16.5 1.5t-18 3.5t-16 2q-29 1 -52.5 -3t-33.5 6q-5 5 -6 14.5t0.5 20t3.5 21.5t2 20q1 15 0 31.5t0 33.5q1 15 3.5 29.5t3.5 28.5q2 29 -0.5 55.5t7.5 47.5q-8 -3 -12 -9t-6.5 -14t-4.5 -16.5t-5 -15.5
q-2 -5 -5 -8.5t-5 -8.5q-4 -10 -5 -21.5t-5 -22.5q-3 -10 -8 -19.5t-9 -18.5q-2 -5 -3.5 -10.5t-3.5 -10.5q-4 -8 -9 -17t-9 -21q-1 -3 0.5 -6.5t-0.5 -6.5q0 -2 -3 -4t-3 -3q-5 -13 -12 -27.5t-16 -27.5q-2 -3 -3.5 -6t-3.5 -5q-2 -3 -3 -6q-6 -3 -18 -1.5t-23 1.5
q-12 -1 -20.5 -1.5t-16 -0.5t-16.5 0.5t-23 1.5q-11 0 -22 -1.5t-16 1.5q-1 0 -3 4t-5 9t-5.5 10t-3.5 8q-2 4 -4 12t-3.5 16t-3.5 15.5t-3 11.5q-4 12 -9 22.5t-8 21.5q-5 16 -7.5 35t-9.5 37q-2 5 -5 10.5t-5 10.5q-5 11 -6 24t-5 24q-2 8 -7.5 21t-9.5 24q-3 7 -3.5 11.5
t-1 7.5t-1.5 6t-4 9q-6 10 -7.5 6.5t-0.5 -13.5t2.5 -23t1.5 -21q1 -11 -0.5 -21t-2.5 -21q-2 -36 1.5 -82.5t1.5 -92.5q0 -27 -3 -51q-1 -5 0.5 -9t-0.5 -12q-3 -11 -7 -14t-9.5 -3t-13.5 0.5t-18 -4.5q-3 -1 -16 -2.5t-29 -2t-30 0.5t-18 4q-8 6 -10 19t-1.5 29t2.5 31
t2 24q2 48 0.5 108.5t-0.5 122.5q1 60 -1 115.5t1 100.5q1 13 1 32.5v41.5t0.5 45t2.5 43q0 5 2.5 8t3.5 9q1 1 -1.5 5t1.5 9q5 5 15 8t20 5t22.5 0.5t25.5 -0.5q21 1 43 4t36 -4q2 -1 5.5 -1t4.5 -2q2 -2 0.5 -5t-0.5 -5q2 -3 5.5 -4.5t5.5 -6.5q2 -3 1.5 -7.5t1.5 -9.5
l3.5 -7l3.5 -7q11 -29 17.5 -48.5t16.5 -43.5q4 -8 6 -15.5t5 -15.5q5 -17 12 -32.5t12 -26.5q1 -4 1.5 -7t1.5 -7q7 -22 18 -51t20 -55q3 -8 5 -17t5 -17q2 -7 6.5 -13.5t7.5 -14.5q2 -4 1.5 -8t1.5 -9q3 -8 8 -20.5t10 -24.5z" />
    <glyph glyph-name="N" unicode="N" horiz-adv-x="730" 
d="M484 282q5 19 1.5 41t-5.5 48q-2 28 0.5 58t-0.5 56q-1 8 -3.5 15.5t-3.5 15.5q0 7 2 15.5t2 18.5q0 12 -4.5 32t-6.5 43q-1 12 -1.5 29t-0.5 33t1.5 28.5t4.5 16.5q2 3 11.5 1.5t12.5 1.5q0 1 -0.5 4t0.5 3q5 1 13 1.5t14 -1.5q2 0 3 -3t4 -4q13 -3 28 -2t28 1t22 -4.5
t12 -18.5q0 -2 2 -3t1 -3q-2 -5 -2 -7t2 -11q1 -2 0.5 -3.5t-0.5 -6.5q2 -17 4 -33t3 -29q2 -33 2.5 -69t-0.5 -72.5t-1.5 -73.5t-0.5 -73v-138q0 -38 -2 -71t-1 -59q0 -6 2.5 -16.5t0.5 -21.5q-1 -5 -2.5 -5.5t-4.5 -8.5q-1 -2 -1.5 -7.5t-1.5 -6.5q-3 -2 -10 -2t-15.5 0.5
t-16.5 1t-13 0.5q-14 0 -29 -0.5t-26 0.5q-4 1 -9 3t-12 4q-6 1 -9.5 1h-6.5t-5.5 1t-5.5 5q-11 11 -21 29.5t-21 35.5q-4 7 -9 11.5t-8 9.5q-7 11 -11.5 25t-12.5 26q-2 4 -5 5.5t-5 5.5q-2 3 -2 6.5t-2 6.5t-5 5t-5 6q-4 7 -6.5 12t-7.5 12q-2 3 -3 6.5t-4 7.5
q-2 2 -5 4.5t-5 5.5t-1.5 6.5t-1.5 7.5q-2 2 -5.5 4.5t-5.5 5.5q-2 4 -1.5 7t-1.5 7q-2 2 -5.5 4.5t-4.5 5.5q-2 4 -2 7t-2 7t-5.5 8.5t-8.5 8.5q-3 4 -5.5 13.5t-7.5 17.5q-2 4 -7.5 9t-9.5 11q-3 5 -6 12t-6 10.5t-5 0t-4 -18.5q-1 -8 1 -27t2 -32v-20q2 -23 2.5 -53
t1.5 -50t0.5 -42t-0.5 -51q0 -8 0.5 -22.5t1 -29.5t0.5 -27t-2 -14q-1 -1 -12 -1t-24 0.5t-25 2t-15 2.5q-1 0 -1 1.5t-2 1.5t-3.5 -1.5t-0.5 -1.5q-6 2 -10 3.5t-10 3.5q-22 3 -38.5 2.5t-23.5 7.5q-4 4 -5 11.5t-1 16.5v19.5t-1 21.5q-2 13 -4 17.5t-3 12.5q0 10 2 28
t2 34q-2 45 -3 98t-4 119q-3 64 1 126.5t2 127.5q0 11 -0.5 28t0.5 31q1 8 -1.5 13.5t8.5 16.5q2 2 3 5.5t4 5.5q5 2 12.5 -0.5t14.5 0.5q2 1 2.5 3.5t4.5 3.5q2 0 8.5 0.5t14 1t14.5 0.5t11 -2q1 -1 2 -4t2 -3q12 -3 22 -3t18.5 -0.5t15 -3t12.5 -10.5q4 -6 5 -13.5
t6 -14.5q2 -3 6.5 -7.5t7.5 -9.5q8 -16 17 -31q5 -8 9.5 -15.5l7.5 -12.5q2 -3 3.5 -8t3.5 -9t5 -6.5t5 -6.5q4 -8 6.5 -16t7.5 -15q2 -4 6.5 -5t7.5 -6q2 -3 1.5 -8t1.5 -9q12 -20 25.5 -41.5t26.5 -44.5q2 -3 5 -6.5t5 -7.5q1 -2 0 -5t0 -5t3.5 -2t3.5 -1q2 -5 3 -9t4 -8
q2 -3 5 -5.5t5 -5.5q2 -2 1.5 -5t1.5 -5q8 -8 14 -23t14 -29t18 -25.5t20 -25.5z" />
    <glyph glyph-name="O" unicode="O" horiz-adv-x="772" 
d="M309 795q16 2 47 2.5t60 -2.5q26 -3 51 -6t42 -8q10 -2 21 -7t20 -10q6 -3 13 -10.5t14 -13.5q4 -2 12.5 -6t11.5 -11q1 -2 0 -4t0 -3q5 -5 12 -11t12 -13q2 -3 2 -4t2 -3q1 -1 4 -5.5t6 -8.5q5 -5 5.5 -10.5t5.5 -16.5q0 -2 3 -4t3 -3q11 -35 21 -77t14 -81q2 -29 5 -65
t2 -69q-2 -27 -6 -57.5t-8 -59.5q-3 -20 -7 -39.5t-10 -39.5q-2 -5 -3.5 -12.5t-3.5 -11.5q-1 -2 -4.5 -4.5t-5.5 -5.5l-3.5 -7l-3.5 -7q-2 -2 -3.5 -6.5t-3.5 -7.5q-1 -1 -4 -1.5t-3 -1.5q-5 -10 -17 -25t-21 -23q-2 -2 -5 -2t-5 -2q-3 -2 -8 -10t-9 -10q-3 -2 -11.5 -4.5
t-16.5 -6.5l-18 -9t-20 -8q-16 -5 -35 -5.5t-37 -4.5q-6 -2 -10.5 -4t-9.5 -3q-15 -2 -40.5 -3.5t-42.5 3.5q-2 1 -4 4t-3 3q-17 3 -37.5 2.5t-37.5 4.5q-5 1 -10 4.5t-11 5.5q-13 5 -29.5 12.5t-28.5 15.5q-4 2 -6.5 5.5t-7.5 7.5q-4 3 -9 5t-8 6q-12 11 -23 27.5t-22 30.5
q-5 6 -8.5 9.5t-5.5 7.5q-2 5 -3 11t-4 13q-1 3 -3 3.5t-3 3.5q0 -2 1.5 0.5t1.5 3.5q0 3 -1.5 2t-1.5 1q-8 26 -14 54t-11 59q-3 25 -5 54.5t-2 59.5t1 59t3 54q1 10 3 18.5t4 19.5q-1 1 -1 4v4.5t1 5.5q2 11 4.5 24t5.5 27q1 4 3.5 7t3.5 7q2 5 0 11t0 10q1 2 6 7t8 10
q2 5 3.5 10.5t3.5 9.5q0 2 3 2.5t4 1.5q17 37 54.5 63t82.5 40q5 2 10.5 4t10.5 3q12 2 27.5 1t30.5 2q4 1 5 3.5t5 3.5zM313 627q-16 -8 -34.5 -17t-27.5 -18q-7 -6 -16.5 -19.5t-14.5 -24.5q-4 -8 -5.5 -18.5t-4.5 -22.5q-2 -6 -3.5 -10t-3.5 -11v-2v-5q-5 -13 -5.5 -33.5
t-1.5 -38.5q-2 -32 1 -58t6 -49q2 -14 1.5 -25.5t1.5 -18.5q2 -8 9 -16.5t12 -18.5q7 -12 11 -19t8.5 -12t11 -9.5t17.5 -10.5q7 -4 16.5 -10t14.5 -7q7 -2 16.5 -2t17.5 -2q11 -2 19 -4.5t16 -2.5q8 1 9.5 3.5t3.5 3.5q5 2 10.5 0.5t10.5 -0.5q9 2 19 3.5t15 3.5
q12 5 23.5 15.5t18.5 18.5q3 5 7 8t6 6t3.5 8.5t3.5 8.5l3.5 3.5l3.5 3.5q2 3 1.5 5t1.5 6q5 8 10.5 17t7.5 17q5 19 3 41t0 45q0 4 1.5 8.5t2.5 8.5v17q-1 48 -7.5 94t-20.5 78q-3 8 -5.5 12t-5.5 6.5t-6.5 5t-9.5 7.5q-5 4 -9 9.5t-9 7.5q-3 2 -9 3.5t-11 3.5
q-6 2 -10.5 5.5t-6.5 4.5q-16 5 -32 3t-34 -3q-14 -1 -29 -0.5t-22 -2.5z" />
    <glyph glyph-name="P" unicode="P" horiz-adv-x="571" 
d="M209 760q9 1 23.5 2t30.5 2t32 1t28 -1q6 -1 11 -3t13 -4q7 -2 17 -3.5l20 -3t19.5 -3t15.5 -4.5q14 -6 25.5 -18t22.5 -23q2 -2 5 -2t5 -2t6.5 -7.5t7.5 -9.5q2 -3 3.5 -8t3.5 -9t5.5 -5.5t4.5 -4.5q5 -12 6.5 -26.5t3.5 -28.5q3 -17 5.5 -36.5t-1.5 -39.5q-3 -9 -7 -34
q-1 -5 -1 -11t-2 -10q-2 -5 -8 -10t-10 -10q-4 -6 -5 -13t-5 -11q-2 -3 -8.5 -6t-12.5 -8q-5 -5 -9.5 -10t-10.5 -11q-2 -2 -7.5 -5.5t-11.5 -7t-11.5 -7t-7.5 -4.5q-10 -5 -21.5 -6t-23.5 -4q-6 -2 -10 -3.5t-10 -3.5q-16 -4 -30.5 -7.5t-35.5 -6.5q-6 -1 -13.5 -1h-14.5
t-12.5 -0.5t-7.5 -1.5q-3 -3 -5 -12t-3 -20t-1.5 -24t-0.5 -23q-1 -25 -1 -44.5v-38t-0.5 -39t-1.5 -47.5q0 -7 -0.5 -20.5l-1 -27t-1 -23.5t-1.5 -11q0 -1 -14 -3.5t-24 -3.5q-9 -1 -20 1t-21 3q-13 0 -27.5 -0.5t-27.5 0t-23.5 2.5t-14.5 8q-2 3 -2 9.5t0.5 15.5t1 19.5
t0.5 20.5q3 94 1 176t3 168q1 17 2 33t1 32v27q0 35 4 68.5t7 72.5q1 20 1.5 36t4.5 33q2 5 3 11.5t4 9.5q6 6 24 9.5t39.5 5.5t43 3t34.5 2zM223 616q-2 -2 -2.5 -13.5t-1.5 -17.5q-1 -10 -2.5 -21.5t-0.5 -19.5q0 -5 2.5 -11t4.5 -13q2 -11 1 -18.5t2 -9.5q1 -1 7.5 -1
h14.5t16 0.5t14 0.5q22 2 36.5 8.5t28.5 15.5q12 8 19 15.5t9 19.5q2 16 -4.5 28t-13.5 20q-6 8 -10 12t-9 5.5t-13 1.5t-23 1q-16 2 -30 2t-21 -2q-4 -1 -12 0t-12 -3z" />
    <glyph glyph-name="Q" unicode="Q" horiz-adv-x="735" 
d="M253 770q20 3 45 4t49.5 0t47 -4t37.5 -7q2 -1 5.5 -4t4.5 -3q18 -4 31 -8.5t24.5 -10.5t22 -14t22.5 -19q17 -14 27 -23.5t18 -27.5q5 -11 12 -24t12 -24q7 -18 11 -37t9 -39t8.5 -40t5.5 -42q3 -43 4.5 -90.5t-4.5 -98.5q-2 -16 -4.5 -27t-5.5 -25q-5 -20 -11 -39.5
t-17 -35.5q-3 -5 -9 -10.5t-12 -12t-11 -13.5t-6 -13q0 -6 3 -14.5t7.5 -17t9.5 -16t8 -13.5q3 -7 6.5 -15t7.5 -16q3 -9 6.5 -18t3.5 -13q-2 -17 -20 -32.5t-32 -26.5q-5 -4 -13 -11t-18 -13q-5 -3 -13 -11t-24 -2q-9 3 -8 5.5t-3 11.5q-3 7 -9 16t-11 18q-7 13 -13.5 27
t-14.5 28q-5 11 -10.5 21.5t-9.5 12.5q-9 1 -16 1h-12t-7 -1q-1 0 0 -3t0 -3q-2 -2 -6.5 -1t-6.5 1q-20 -2 -41.5 -2t-41.5 0.5t-37.5 2.5t-27.5 5q-6 2 -12.5 3.5t-11.5 3.5t-10 5t-11 6q-9 4 -16 6t-15 7q-4 2 -8 4.5t-9 6.5q-5 3 -15 12t-16 15q-23 25 -38.5 57t-26.5 70
q-12 40 -16 82.5t-1 99.5q1 18 3.5 35t2.5 34q1 5 -1.5 10.5t-1.5 10.5q1 9 3 18.5t4 19.5q3 18 9.5 46.5t14.5 52.5q14 40 34.5 67t47.5 47q10 7 23.5 14t29 14t32 12t32.5 8zM288 618q-3 0 -8 -4t-10 -6t-10.5 -3.5t-9.5 -3.5q-5 -2 -7.5 -6.5t-6.5 -6.5q-2 -2 -5 -2
t-5 -2q-5 -2 -7 -7q-14 -14 -22.5 -35t-14 -46t-8 -53t-3.5 -55q-2 -45 0.5 -80t13.5 -61q9 -23 18.5 -36.5t29.5 -28.5q6 -5 17.5 -13.5t16.5 -10.5q3 -1 9.5 0.5t11.5 -0.5q0 -1 1 -3l2 -4q2 -1 5 0t5 0q13 -3 21.5 -5.5t13.5 2.5q7 7 5.5 15.5t-6.5 16.5t-10 14t-6 9
q-5 12 -3 22t7 18t12.5 14t13.5 11q11 8 28 15.5t31 5.5q4 -1 10 -4.5t12 -8.5t11 -10l8 -8t8 -10t10 -13.5t10.5 -11t9.5 -3.5q-1 0 1 5q1 2 2 5q2 2 3.5 5t3.5 6q7 13 8 18.5t3 15.5q2 7 4 18.5t2 19.5q1 9 -1 19.5t-2 21.5q-2 32 -2 58t-5 52t-13.5 46.5t-17.5 35.5
q-12 22 -20.5 31t-27.5 17q-1 1 -1.5 4t-1.5 3q-5 2 -10.5 3.5t-10.5 3.5q-6 2 -12 6t-9 4q-14 4 -31.5 3t-33.5 -3q-7 0 -14 1t-13 -1z" />
    <glyph glyph-name="R" unicode="R" horiz-adv-x="620" 
d="M228 792q-1 0 8 3.5t16 0.5q1 -1 0 -3.5t0 -3.5t3.5 -0.5t3.5 0.5q30 -5 62 -3.5t55 -6.5q4 -2 8 -5.5t9 -5.5q11 -4 22 -6t19 -7q2 -2 4.5 -5.5t5.5 -5.5q8 -5 19 -12.5t19 -18.5q2 -3 3.5 -8t3.5 -9q3 -4 6 -6t4 -4q4 -8 6.5 -19t4.5 -22q1 -4 1.5 -10t1.5 -11t2 -11.5
t2 -9.5q0 -4 -3 -7.5t-4 -9.5q-2 -8 1.5 -15.5t1.5 -15.5q-2 -2 -4 -5q-3 -5 -3 -8q0 -2 2 -3.5t2 -3.5q-2 -8 -5.5 -17.5t-5.5 -17.5q-3 -12 -4 -19t-3.5 -12.5t-6 -10.5t-10.5 -13q-3 -4 -6.5 -8.5t-6.5 -8.5q-8 -9 -17 -15t-11 -19t1 -24t8 -21t10.5 -18.5t8.5 -15.5
q3 -9 4.5 -18.5t5.5 -19.5q2 -5 3.5 -8.5t3.5 -8.5l3.5 -7l3.5 -7q3 -8 4.5 -18.5t5.5 -19.5q1 -1 3.5 -3t3.5 -4q6 -21 14 -45t17 -47q3 -8 7 -14t6 -17q0 1 -1.5 -0.5t-1.5 -3.5q1 -2 5 -13.5t2 -17.5q-2 -5 -9.5 -9t-17.5 -7t-20 -5.5t-18 -5.5q-5 -2 -9.5 -5.5
t-8.5 -4.5l-10 -1t-22 -2t-22 -1h-11q-5 2 -9 15l-8 26q-3 11 -5 22.5t-5 22.5q-4 11 -9 20.5t-9 20.5q-3 11 -5 23.5t-5 21.5q-4 12 -9 19t-8 15t-3.5 19t-3.5 23q-5 18 -10.5 33.5t-13.5 34.5q-4 9 -8 19.5t-6 11.5q-5 3 -17 3t-25 -2t-24 -5t-13 -6q-6 -8 -2 -25t6 -34h2
q1 0 1 -3q0 -1 -2 -1t-1 -2q2 -9 4 -15.5t3 -12.5q0 -8 1 -18l2 -20q2 -13 4.5 -25.5t2.5 -18.5q0 -9 -2 -20t-2 -15q2 -14 5.5 -28.5t5.5 -36.5q1 -9 1.5 -20t0.5 -21t-1.5 -18.5t-4.5 -12.5q-5 -7 -20.5 -11t-35.5 -5.5t-39.5 -0.5t-31.5 3q-21 5 -31 13.5t-13 31.5
q-1 4 1 8t2 9q0 1 -1.5 5.5t-1.5 8.5q-2 18 -4 36.5t-3 35.5q-2 19 -3.5 36.5t-3.5 35.5q0 2 0.5 11t-0.5 20q-2 9 -4 16.5t-3 14.5q-1 6 1.5 12.5t1.5 14.5q0 9 -3 16t-4 12q-1 14 0 29t0 29q0 17 -3 33t-3 33q-1 5 1 6.5t2 6.5q0 8 -1 21t-2 27q-2 27 -4 51.5t-3.5 49.5
t-2.5 51.5t-1 57.5v42t4 23q4 5 20 8t36.5 4.5t43 1.5h41.5q20 0 33.5 -1.5t24.5 1.5l4 2q1 1 3 1zM190 658q-5 -4 -6 -12t-0.5 -16.5t2 -16t1.5 -10.5q2 -14 1 -18.5t-1 -15.5q-1 -15 1.5 -23.5t5.5 -17.5q-1 1 -2.5 -0.5t-1.5 -3.5q1 -15 13.5 -19t29.5 -3t34 5t26 7
q7 2 14 3.5t10 3.5q1 1 1.5 3.5t2.5 3.5q2 2 5 1.5t5 1.5q10 8 23 21.5t15 20.5t1.5 16.5t-2.5 18.5t-5 16t-5 10q-8 13 -23.5 18.5t-34.5 7t-39 0t-37 -1.5q-6 0 -8.5 1t-8.5 -1q-3 -1 -9 0.5t-8 -0.5z" />
    <glyph glyph-name="S" unicode="S" horiz-adv-x="654" 
d="M241 785q2 0 15 2t29 2.5t30 -0.5t19 -7q2 -3 12 -4t19 -3q18 -5 34 -10.5t31 -13.5q5 -3 12 -6t12 -8q1 -1 1.5 -3.5t2.5 -3.5q4 -3 9 -4t8 -3t10 -9t14.5 -15t13.5 -15.5t6 -11.5q0 -3 -2.5 -10t-6.5 -14.5t-8.5 -14t-6.5 -9.5q-3 -4 -7 -6.5t-6 -4.5
q-11 -11 -26 -25.5t-29 -15.5q-9 0 -19.5 6.5t-21.5 15.5t-21 17.5t-17 12.5q-7 3 -18 7t-20 6q-10 3 -18.5 6t-26.5 1q-17 -2 -37 -16t-25 -32q-6 -27 3.5 -45t27 -30t38.5 -20t38 -15q6 -2 12 -5t12 -5q21 -8 35 -14t34 -17q17 -9 31.5 -16.5t29.5 -17.5q9 -6 18 -11
t20 -13q2 -2 3.5 -5.5t3.5 -5.5t5 -1.5t5 -1.5q3 -3 4 -6t3 -8q2 -3 5.5 -5t5.5 -5q5 -7 13 -17q2 -3 4 -9.5t7 -14.5q1 -2 4.5 -5.5t5.5 -8.5q1 -3 1.5 -9.5t1.5 -11.5q2 -11 3.5 -27.5t1 -34.5t-2 -34.5t-5.5 -27.5q-2 -6 -3.5 -12t-3.5 -12q-2 -5 -5 -10t-5 -10
q-5 -9 -9 -18.5t-12 -19.5q-2 -4 -6 -6.5t-8 -7.5q-11 -14 -16.5 -23.5t-20.5 -17.5q-5 -2 -7.5 -3.5t-6.5 -3.5q-12 -7 -23.5 -12.5t-28.5 -11.5q-6 -2 -14 -5.5t-13 -4.5q-14 -2 -35 -1t-48 1q-20 0 -41 -1.5t-41 1.5q-13 2 -29 8t-33 12t-32.5 12t-25.5 12q-2 1 -2.5 4
t-1.5 3q-2 1 -3.5 0t-3.5 0q-6 5 -14.5 14.5t-16.5 16.5q-2 3 -6.5 4t-6.5 3t-3.5 7t-3.5 7q-8 8 -14 15.5t-7 22.5v9.5t4 7.5q5 10 14 20.5t20 20.5q2 2 5 2t5 2q4 3 9 9t11 12.5t13 11t15 4.5q11 0 16.5 -5.5l11.5 -11.5q5 -5 10 -12t10 -12q6 -5 13.5 -8.5t14.5 -8.5
q6 -5 11.5 -9.5t12.5 -7.5q6 -3 15 -5.5t19 -5.5q5 -1 10.5 0.5t10.5 -0.5q2 -1 4 -3t10 -3q13 -2 30.5 -3t31.5 3q11 2 24 11t23 23t15.5 32.5t2.5 39.5q-4 21 -19.5 35t-32.5 27t-42.5 24t-49.5 21q-25 10 -53.5 23t-53.5 28q-8 5 -18 10.5t-20 13.5q-2 2 -3.5 5t-3.5 5
t-5 2t-5 2q-4 4 -6.5 10t-7.5 11t-10 9.5t-10 10.5q-1 1 -4 5t-6.5 9t-6.5 10t-4 7q-2 4 -3.5 11t-3.5 13q-6 20 -8.5 48t1.5 55q3 20 8 31t13 28q9 17 14.5 25t19.5 19q10 8 23.5 18t28.5 17q20 9 43 14.5t46 12.5q2 1 3.5 0.5t3.5 -0.5z" />
    <glyph glyph-name="T" unicode="T" horiz-adv-x="588" 
d="M295 801q2 0 10 0.5t18 1t20 0.5t17 -2q13 -4 32.5 -4.5t40.5 0t42.5 0.5t39.5 -3q10 -2 19.5 -6t11.5 -8q4 -6 5 -17.5t0 -23t-2.5 -21t-2.5 -13.5q-1 -5 -4 -13t-6 -18q-3 -7 -6 -18.5t-5 -12.5q-6 -3 -21.5 -3t-34.5 1.5t-36.5 3t-27.5 1.5q-8 0 -20.5 -1t-13.5 -2
q-5 -4 -6.5 -12t-1 -17.5t2 -19.5t1.5 -17q1 -6 0.5 -11.5t-0.5 -12.5q1 -46 1.5 -93.5t2.5 -98.5q1 -23 3 -46t4 -47q2 -57 3 -112t3 -121q1 -17 3.5 -30t0.5 -15q1 1 -6 -2.5t-11 -4.5q-12 -2 -27.5 -2.5t-31.5 -0.5t-32.5 1t-29.5 2q-5 0 -11.5 -0.5t-12.5 0.5
q-2 0 -10 4q-4 2 -7 3q-1 1 -1.5 10t-0.5 20t-0.5 22.5t-0.5 19.5q-3 52 -2 112.5t-2 117.5q0 3 -1 10.5t-2 16.5t-2.5 17.5t-1.5 14.5q-1 13 -1.5 36t-0.5 49.5t0.5 53t1.5 46.5q0 3 2 16t2.5 29t0 30t-4.5 18t-13.5 4t-20.5 -1.5t-21.5 -3.5t-16.5 -2q-10 -1 -25 -0.5
t-30 0.5q-14 -1 -28 -3t-20 3q-1 1 -4 9t-6 18.5t-5 20t-2 13.5q0 5 1 18t-1 31q-1 11 -3 23.5t0 17.5q4 9 19.5 12.5t36 4.5t42.5 0.5t39 -0.5q50 2 89.5 3t68.5 4z" />
    <glyph glyph-name="U" unicode="U" 
d="M98 810q19 2 47 2t49 -5q9 -2 17.5 -3.5t10.5 -3.5q3 -5 3 -14t-1.5 -20t-3.5 -22.5t-2 -19.5q-1 -22 -1.5 -46.5t-1 -47t-0.5 -42v-32.5q0 -17 2.5 -36t4.5 -40q1 -29 2.5 -63.5t5 -67.5t9.5 -61t17 -45l3.5 -3.5l3.5 -3.5q1 -2 1 -5t2 -5q3 -3 10 -7t15 -8.5t16.5 -7.5
t13.5 -4q17 -3 30 -0.5t25 10.5q17 10 26.5 24.5t18.5 37.5q4 10 6.5 28t4 38.5t2 42t1.5 38.5q2 65 4.5 125t-4.5 123q-1 0 -2 1q-2 0 -2 2q0 1 2 3q1 1 2 1q-1 19 -1.5 32t-2.5 33q-1 19 -3 36.5t3 21.5q3 3 14.5 4t25 0.5t26 -2t17.5 -2.5q2 0 3 -2.5t4 -3.5
q5 -2 12.5 -2t14.5 -2q10 -2 25 -2t16 -1q1 -2 3.5 -13t4.5 -25.5t4 -27.5t2 -17q2 -25 2.5 -50.5t0.5 -42.5q1 -11 -1 -22t-2 -22q1 -24 1 -56t-1 -58q0 -6 2 -11t1 -9q0 -5 -3 -8.5t-3 -8.5q-2 -15 -0.5 -34.5t0.5 -38.5q-1 -11 -3.5 -21t-3.5 -20q-1 -6 0 -12.5t0 -11.5
q-2 -5 -4 -8.5t-3 -8.5q0 1 2 0t1 -3q0 -2 -2.5 -11.5t-4.5 -13.5q-3 -8 -5 -21.5t-5 -26.5q-2 -8 -6 -16.5t-8 -17.5q-6 -17 -8.5 -29t-11.5 -23q-2 -2 -5.5 -4t-5.5 -6q-5 -8 -9 -15t-8 -12q-12 -14 -31.5 -25.5t-36.5 -22.5q-8 -5 -20 -10.5t-25 -10.5q-11 -5 -31 -7.5
t-41 -2.5q-17 0 -37.5 2t-34.5 8q-11 4 -19.5 8t-18.5 9q-18 9 -38 26t-34 36q-2 2 -4 3.5t-3 3.5q-8 11 -15.5 22.5t-15.5 25.5q-11 16 -19 39.5t-16 46.5q-2 5 -5 11t-5 13q-3 11 -4 22.5t-3 22.5q-2 10 -3.5 19.5t-3.5 21.5q-2 15 -5 33.5t-5 41.5q-2 27 -0.5 55.5
t0.5 58.5q-1 26 -3.5 51t-3.5 48q0 15 1 33l2 36t2.5 34.5t1.5 27.5q1 12 -2 23t-1 22q3 14 6.5 16.5t13.5 7.5q6 2 19 2t26 1z" />
    <glyph glyph-name="V" unicode="V" horiz-adv-x="662" 
d="M139 811l1 1q2 2 3 2h7t13 -0.5t13.5 -1t7.5 -1.5q2 -2 4 -10t4 -18.5t4.5 -22.5t4.5 -21q17 -74 35 -140.5t37 -141.5q4 -13 6.5 -26t7.5 -29q4 -12 8 -32t9 -40q1 -3 3.5 -7t3.5 -7q1 -4 -0.5 -8t0.5 -9q0 -2 3 -9t6 -15q4 -10 8 -21l2 3.5t5 9t5 11.5t2 11q0 2 -2 4
t-1 6q1 3 4.5 8.5t5.5 11.5q2 8 0.5 17t-0.5 14q2 8 7 20.5l7 17.5q2 11 1.5 22.5t1.5 22.5t3.5 21t3.5 20q1 5 3.5 9t3.5 8q2 7 0 12.5t0 11.5q2 8 4 13.5t3 10.5q2 11 3 24.5t4 27.5q1 5 3 8.5t4 8.5q1 5 -0.5 12t0.5 12q1 5 3 9t3 8q4 13 4 29t3 33q1 5 3 11t4 13l3 18
l4 24t4.5 22t5.5 12q4 3 17 4t28.5 0.5t30 -2t21.5 -2.5q5 -1 9.5 -3t10.5 -4q16 -5 34.5 -8.5t24.5 -15.5q2 -4 1.5 -9l-1.5 -15q-1 -2 -2.5 -4t-1.5 -6q0 -2 2.5 -4.5t1.5 -6.5q-2 -4 -5.5 -8t-5.5 -9t-2 -12t-1 -12q-7 -30 -13 -57t-12 -53.5t-12.5 -54t-14.5 -58.5
q-1 -5 -1 -12t-2 -12t-5.5 -9t-4.5 -9q-2 -8 -2 -17t-2 -17q-3 -15 -7 -27q-1 -3 -3.5 -5t-3.5 -6q-2 -11 -3 -22t-4 -22q0 -3 -3 -5t-3 -6q-2 -11 -3.5 -22t-3.5 -22q-5 -18 -10.5 -33.5t-10.5 -35.5q-6 -21 -11.5 -45.5t-12.5 -50.5q-2 -5 -3.5 -12.5t-3.5 -15.5
q-2 -7 -3.5 -13.5t-3.5 -13.5q-2 -6 -3 -13.5t-4 -14.5q-1 -4 -3.5 -8.5t-5 -8.5t-3 -6t1.5 -1q-3 -2 -16.5 0t-24.5 0q-7 -1 -12.5 -3.5t-11.5 -3.5q-8 -1 -17 -0.5t-14 0.5q-5 1 -12 3t-16 4q-10 2 -17.5 1.5t-12.5 2.5q-5 2 -9.5 10t-9 18.5l-9 21t-7.5 18.5t-5.5 12.5
t-4.5 8.5q-3 6 -4 13.5t-3 13.5q-3 8 -5.5 13.5t-4.5 11.5q-11 28 -18 48q-9 26 -17.5 49l-17 46t-16.5 47t-17 53q-4 13 -8.5 25.5t-8.5 26.5q-5 12 -7.5 25.5t-6.5 26.5q-8 25 -17.5 49t-17.5 47q-5 17 -7 29.5t-6 25.5q-7 22 -15 46t-16 53q-5 17 -8 29.5t1 22.5
q3 7 6.5 10.5t8 5t11 2.5t15.5 3q2 0 5 -1t5 1q2 1 1 3.5t3 2.5q21 4 42.5 4h39.5z" />
    <glyph glyph-name="W" unicode="W" horiz-adv-x="786" 
d="M225 298q4 5 9 11t8 13t3.5 15t3.5 16q2 5 6.5 12t7.5 12q5 11 9 19t8 22q2 9 7 20l10 22q7 14 12 27.5t16 20.5q2 2 13 0.5t18 2.5q2 2 0.5 4t2.5 3q14 2 35.5 2.5t33.5 -5.5q6 -3 12.5 -15t12.5 -26t11 -28t8 -21l6 -12t5 -12q6 -17 13.5 -33.5t13.5 -35.5q11 15 14 41
t7 49q0 3 -2 4.5t-2 2.5q2 9 4.5 16.5t2.5 14.5q1 11 0 23t0 25q2 27 7 59.5t7 67.5q1 14 1 39t2 50t3 50t8 33q4 4 15 6t25 3t29 1.5t27 2.5q5 2 5.5 4.5t4.5 2.5q7 1 22.5 1.5t19.5 -1.5q2 -2 3 -8t2 -13.5t1 -15v-11.5q0 -20 -3 -26.5t-3 -17.5q-1 -11 1.5 -19t1.5 -19
q-1 -17 -4.5 -35t-5.5 -37q-1 -7 -2.5 -15t-1.5 -13q0 -2 2 -3t2 -4q-2 -8 -4 -15.5t-3 -15.5q-2 -17 -4.5 -34.5t-6.5 -37.5q-2 -17 -3 -35.5t-3 -36.5q-3 -21 -9 -41.5t-9 -41.5q-2 -11 -1.5 -22t-1.5 -22q-1 -5 -3.5 -8.5t-3.5 -8.5q-2 -11 -3 -26.5t-4 -28.5q-2 0 -3 -1
q-2 -2 0 -3q5 -4 1.5 -6.5t-5.5 -10.5q0 -2 2.5 -4.5t1.5 -5.5q0 -1 -1.5 -3t-2.5 -4q-2 -11 -3.5 -21t-3.5 -20t-5 -19t-5 -19q-2 -12 -2 -26.5t-5 -28.5l-1.5 -5t-3 -10.5t-3.5 -10.5l-2 -5q-2 -2 -11 -5t-19.5 -5t-21.5 -4t-17 -3q-8 -2 -19 -3t-19 -1q-12 0 -18.5 1.5
t-10.5 4.5t-6.5 9t-5.5 16q-2 6 -3.5 11t-3.5 10q-2 10 -4.5 24t-5.5 24q-3 11 -8 20.5t-9 20.5q-5 15 -8.5 33.5t-8.5 35.5q-1 2 -3.5 3t-3.5 4t0 7t0 7q-1 2 -3.5 6t-4.5 7.5t-3.5 5t0.5 -1.5q-6 12 -4 14.5t-6 2.5q-9 0 -6 -3t-1 -11q0 -1 -3 -1.5t-4 -1.5
q-2 -4 -3 -10.5t-3 -10.5q-5 -8 -12 -23.5t-12 -27.5q-2 -3 -2 -6.5t-2 -7.5q-3 -7 -7 -12.5t-7 -11.5q-2 -5 -1.5 -8.5t-1.5 -8.5q-3 -6 -10 -16.5t-11 -18.5q-1 -2 -3.5 -6.5t-3.5 -7.5q-1 -4 0.5 -8.5t-0.5 -8.5q-1 -2 -4 -5t-6 -8q0 -1 -3.5 -7.5t-7 -14t-7 -14
l-3.5 -6.5q-4 -1 -8 -1q-4 -1 -8 -1t-8 -1q-7 -2 -10.5 -2.5t-9.5 -1.5q-11 0 -22 4.5t-26 6.5q-23 4 -43 3.5t-29 10.5q-6 7 -5.5 17.5t-1.5 26.5q-1 7 -4 8.5t-3 8.5v18q-5 57 -10.5 108.5t-10.5 114.5q0 5 -1.5 10t-1.5 10q0 7 2 11.5t1 9.5q-2 26 -7 50t-7 50
q0 6 2 11.5t2 12.5q0 5 -1.5 12t-2.5 12q-2 38 -5 75t-5 76q-1 13 -1.5 25.5t-1.5 26.5q-2 21 -3 37t3 38q3 17 5 21.5t19 6.5q24 2 52.5 0t53.5 -4q11 -1 25 0.5t17 -0.5q3 -8 5 -14q2 -5 3 -10t2 -7q2 -12 -2.5 -25.5t-4.5 -25.5q-1 -21 4.5 -43.5t5.5 -46.5q0 -11 -3 -22
t-4 -22q0 -17 4.5 -35.5t6.5 -36.5q1 -25 0 -51t-2 -50.5t-0.5 -47t5.5 -40.5q0 -1 2 -1t2 -3q0 -4 -1 -10.5t4 -13.5z" />
    <glyph glyph-name="X" unicode="X" horiz-adv-x="713" 
d="M157 799q8 0 12 1.5t12 -1.5q6 -2 12 -9t11.5 -16t11 -18.5t10.5 -18.5l22 -34t19 -31q5 -8 8.5 -17.5t8.5 -20.5q2 -2 3.5 -3t3.5 -4q7 -11 13 -24t11 -31l2 -4q1 -2 1 -3.5t1 -2.5q2 -4 6.5 -6.5t6.5 -7.5q1 0 3.5 -8.5t3.5 -8.5q4 -1 10.5 6t12.5 16.5t11 18.5t8 14
q5 10 7.5 18.5t5.5 16.5q5 9 9.5 16t8.5 14q2 6 5 15.5t8 19.5q4 7 9 15t8 16q2 5 2 10t2 10q3 9 7.5 16t9.5 15q5 9 4 12t3 5q2 1 8 1.5t13.5 0.5t15 -0.5t11.5 -1.5q5 0 19.5 -4t30 -10t28.5 -13t15 -14q1 -3 -0.5 -10t-4 -14.5t-5.5 -15t-4 -11.5q-14 -35 -29.5 -68
t-32.5 -66q-5 -10 -11.5 -20t-12.5 -22q-9 -17 -16.5 -32.5t-17.5 -32.5q-3 -5 -5.5 -10t-5.5 -10q-8 -14 -15.5 -22t-8.5 -16q-1 -11 8.5 -24.5t15.5 -23.5q8 -13 15 -22.5t13 -19.5q3 -5 4.5 -11.5t5.5 -12.5q3 -5 8.5 -8.5t8.5 -8.5q4 -5 6 -12t5 -12q1 -1 3.5 -1.5
t3.5 -1.5q0 -2 -0.5 -4t0.5 -3q0 -1 3 -2t3 -2q1 -1 0 -3t0 -3q2 -2 5.5 -3.5t5.5 -3.5q2 -3 1.5 -7t1.5 -7q7 -11 16 -25t19 -27q0 -1 3 -1.5t3 -1.5q1 -2 0 -3.5t0 -3.5q3 -4 4.5 -8.5t6.5 -8.5q2 -2 3.5 -5t3.5 -5t3.5 -5.5t3.5 -5.5q2 -3 6.5 -10.5t8.5 -15.5t6.5 -15.5
t2.5 -9.5q-2 -8 -12 -15.5t-23 -14t-26.5 -11t-21.5 -7.5l-18 -6t-23 -5q-10 -1 -16 -1t-11 2.5t-10 8t-11 14.5q-4 5 -6.5 12.5t-7.5 15.5q-14 23 -34 51.5t-35 54.5q-5 8 -8.5 17t-8.5 18q-4 6 -9.5 16t-10.5 18q-6 8 -13 18t-12 10q-3 0 -7.5 -7t-9 -16t-8.5 -17.5
t-5 -11.5q-8 -17 -15.5 -31t-12.5 -24q-7 -13 -13.5 -27t-13.5 -28q-2 -3 -5.5 -5t-5.5 -5q-2 -4 -1.5 -9t-1.5 -8q-2 -4 -5 -5.5t-5 -5.5q-5 -8 -9 -16.5t-12 -17.5q-6 -8 -10 -11.5t-9 -4.5t-12.5 0t-20.5 2q-26 2 -42 4t-37 10q-11 5 -21.5 9.5t-12.5 11.5q-4 11 6.5 30
t20.5 31q1 1 4 2t3 2q1 1 0 3t0 4q5 5 10 9t7 8q7 11 12 25t13 26q9 17 22.5 35.5t25.5 40.5q5 9 8.5 17.5t8.5 16.5q4 8 8.5 15.5t8.5 15.5q9 17 20 34.5t14 31.5q3 13 -1 28t-11.5 29.5t-16.5 28t-15 24.5q-19 31 -33.5 58t-32.5 55q-5 9 -10 19t-14 19q-3 3 -5.5 11
t-7.5 16q-4 5 -9.5 13t-11.5 15q-2 2 -3.5 5t-3.5 5t-3.5 5t-3.5 5q-4 5 -11.5 17.5t-5.5 24.5q3 18 23 25t42 12q15 4 27 6t35 1z" />
    <glyph glyph-name="Y" unicode="Y" horiz-adv-x="603" 
d="M104 795q11 1 19.5 3.5t18.5 -3.5q1 -1 0 -3.5t0 -3.5q2 -2 5 -3t5 -4q3 -5 5.5 -13t5.5 -14q5 -12 10.5 -28.5t13.5 -30.5q4 -8 9 -14.5t8 -12.5q-1 2 -2.5 -0.5t-1.5 -3.5q0 -5 5 -12t9 -15q5 -11 10 -22.5t11 -25.5q1 -2 3.5 -4t3.5 -3q2 -8 5 -15t8 -16q5 -7 8 -6
t10 9q3 5 3.5 9t2.5 9q4 7 7 10l5 5l4 4t5 8q2 5 2 10.5t2 10.5q2 4 5 7t5 6q12 24 24.5 45.5t26.5 47.5q5 8 12.5 21.5t15.5 23.5q1 1 0 3.5t0 3.5t3 0t4 0q3 2 9 5.5t18 1.5q3 -1 3.5 -3.5t3.5 -3.5q9 -3 23 -3.5t25 -3.5q5 -2 8.5 -3.5t8.5 -3.5q11 -4 26.5 -8.5
t18.5 -15.5q2 -7 -2 -17t-8 -17q-2 -5 -7.5 -14t-9.5 -14t-8 -7.5t-6 -6.5q-3 -5 -3.5 -11.5t-3.5 -12.5q-2 -3 -7 -6t-7 -7q-3 -5 -3 -11.5t-4 -12.5q-1 -2 -3 -3.5t-4 -3.5q-5 -10 -11 -23t-13 -25q-6 -12 -11 -25t-13 -24t-17 -30.5t-17 -34.5q-5 -9 -8.5 -19.5
t-8.5 -21.5t-10.5 -21t-6.5 -17q-5 -23 -2.5 -55.5t2.5 -64.5t1 -63t-1 -57q-1 -11 -4 -19t-3 -16q0 -4 3 -10t4 -14q0 -2 -1 -8.5t-3 -14t-4 -14t-3 -7.5q-6 -7 -25 -8.5t-33 -5.5q-1 0 -6 -2t-11.5 -3t-12 -1.5t-8.5 2.5q0 1 0.5 4t-0.5 3q-8 2 -17 2.5t-17 1t-14.5 3
t-9.5 7.5q-2 2 -2 10.5t0.5 20t1 25t0.5 26.5q0 52 0.5 98.5t2.5 94.5q1 19 3.5 43t0.5 36q-2 9 -11 21t-17 27q-7 13 -12.5 25.5t-11.5 22.5l-3.5 7l-3.5 7q-1 1 -3.5 1.5t-3.5 1.5q-2 5 -5 12t-8 12q-5 4 -11.5 19t-9.5 23q-1 2 -1.5 6t-2.5 7q-1 3 -4.5 5t-5.5 6
q-2 3 -1.5 6.5t-1.5 6.5q-2 4 -5.5 6t-5.5 5t-1.5 6.5t-1.5 6.5q-2 4 -5 5.5t-5 5.5q-4 7 -8.5 16.5t-9.5 17.5q-3 6 -6.5 12t-6.5 12q-4 7 -5.5 14t-5.5 14q-5 9 -15.5 22t-8.5 26q1 8 8.5 13.5t17 9t21 6.5t22.5 5q4 1 8.5 -0.5t8.5 0.5q3 1 4.5 3t6.5 4q4 1 9 0t11 0z
" />
    <glyph glyph-name="Z" unicode="Z" horiz-adv-x="591" 
d="M439 802q1 0 6.5 1t13 2t16 1t15.5 -1q-1 0 1 -3t3 -4q3 -1 11.5 0t12.5 -3q1 -2 0 -5t0 -5t3.5 -2.5t3.5 -1.5q3 -9 1.5 -25.5t-1.5 -29.5q0 -20 1.5 -36t-1.5 -33q-2 -8 -7 -16t-10 -18q-2 -2 -2 -5t-2 -5q-1 -2 -3.5 -2t-3.5 -2q-2 -3 -3.5 -8t-3.5 -9
q-2 -2 -4.5 -5.5t-5.5 -8.5q-2 -4 -5 -7t-5 -6q-2 -2 -2 -5.5t-2 -5.5q-1 -1 -3.5 -1.5t-3.5 -1.5q-2 -5 -3 -9t-3 -8q-14 -23 -37 -55.5t-42 -61.5q-15 -23 -35 -52.5t-44 -64.5q-9 -13 -23.5 -31.5t-25.5 -33.5q-1 -2 -6.5 -9.5t-11 -16t-10 -16t-2.5 -10.5
q5 -10 23.5 -8.5t41.5 -1.5q11 -2 17.5 -4t13.5 -3q26 -2 57.5 -2.5t55.5 -0.5q5 0 13 0.5t17 1t17 -0.5t12 -5q8 -8 5 -18t-2 -20q2 -26 5 -55t-5 -58q-4 -14 -9 -18t-29 -6q-9 -1 -19 -0.5t-19 0.5q-20 1 -41 2t-34 1q-35 2 -77 1.5t-74 2.5q-3 0 -7.5 -1t-6.5 1
q-1 0 -2 3.5t-2 3.5q-13 3 -31 2.5t-34 0.5q-10 1 -21 0.5t-22 0t-20.5 2.5t-15.5 7q-5 5 -5.5 14.5t-1.5 20.5q-2 37 0 89q1 15 2 25t4 17t7 14t11 16q16 23 36.5 48.5t35.5 47.5q2 2 2 5.5t2 5.5q1 1 3.5 1.5t3.5 1.5q2 2 1.5 5.5t1.5 5.5q1 1 3.5 1.5t3.5 1.5
q2 3 3.5 8.5t3.5 8.5q5 7 12 12t12 12q2 2 1.5 5.5t1.5 5.5q14 14 25.5 34.5t26.5 40.5l3.5 3.5l3.5 3.5q16 23 35 51t37 56q4 7 10.5 16t11.5 17.5t8 16t1 11.5q-5 9 -23 7.5t-39 -3.5q-35 -2 -65 -3t-69 -4q-7 -1 -17 -2.5t-19.5 -2.5t-17.5 -1t-11 2q-2 1 -4.5 8
t-4.5 15.5t-3.5 17t-1.5 14.5q-1 11 0.5 25.5t2.5 26.5q2 11 2.5 22t4.5 16q6 6 25 8.5t42 3t45 0.5t36 2q2 0 6 -0.5t4 0.5v3v3q7 3 22 3t23 1q45 3 90 3h75q4 0 4.5 2t2.5 2z" />
    <glyph glyph-name="bracketleft" unicode="[" horiz-adv-x="410" 
d="M322 1015q-1 0 5.5 1t15 1.5t16.5 0.5t11 -3q1 -1 1 -11.5v-23t-0.5 -24t-0.5 -14.5q-2 -19 -9.5 -36.5t-21.5 -21.5q-20 -5 -42 -3t-47 0q-12 -1 -19 -2t-11.5 -5t-7 -12t-4.5 -23q-3 -30 -2 -66.5t-1 -67.5q-1 -11 -3.5 -20.5t-3.5 -20.5v-17q-2 -23 0 -52t0 -58
q-5 -105 -6.5 -191.5t3.5 -169.5q1 -14 3.5 -29.5t3.5 -25.5q0 -8 -2 -18t-2 -20t2.5 -27.5t4.5 -33.5l3.5 -35t6.5 -20q6 -7 24 -9t37.5 -2.5t36.5 -3t23 -9.5q3 -5 3.5 -13.5t0 -19t-1.5 -21.5t-2 -19q-1 -2 -1.5 -9t-2.5 -16q-2 -11 -3 -23q-1 0 2 -5t-2 -8
q-1 -1 -8.5 -2t-17 -2t-20.5 -2t-20 -1q-44 -3 -83.5 0t-81.5 7q-12 1 -19.5 0.5t-12 1t-7 6.5t-5.5 16q-5 16 -6 41.5t-1 53t0.5 53.5t-0.5 44q-1 12 -4 23.5t-3 17.5q0 10 2 20t1 21q0 81 -7 168.5t-3 175.5q3 67 3 130.5t4 127.5q0 5 1.5 10t1.5 10t-2 9t-1 9
q1 8 3.5 16.5t3.5 17.5q4 42 2.5 79t4.5 79q2 14 3.5 26.5t6.5 18.5q7 9 19.5 11.5t28 2.5t32.5 0.5t33 5.5q5 2 8.5 4t9.5 3q34 6 67.5 4.5t59.5 -0.5z" />
    <glyph glyph-name="backslash" unicode="\" horiz-adv-x="404" 
d="M17 859l1 1q0 2 2 2q3 0 10.5 0.5l15 1t14 0t8.5 -1.5q-2 1 2 -5t5 -8q5 -11 5.5 -22.5t5.5 -25.5q2 -6 5 -13t5 -15q19 -70 39.5 -133t42.5 -128q9 -27 20 -53.5t22 -56.5q8 -26 17.5 -50t19.5 -50q3 -6 5.5 -12.5t5.5 -14.5q2 -9 7 -18.5t10 -19.5q3 -7 5 -14t5 -13
q3 -7 7 -12.5t7 -11.5q1 -2 0 -5.5t0 -5.5q1 -1 3.5 -1.5t3.5 -1.5q3 -7 4.5 -13t5.5 -15q2 -4 1.5 -4t2.5 -3q5 -6 8.5 -21t11.5 -23q2 -2 5 -3t5 -4q2 -4 2 -8.5t2 -8.5q3 -9 9 -17t11 -18q3 -4 7 -11.5t7.5 -15.5t5.5 -15.5t1 -12.5q-2 -10 -20.5 -18t-34.5 -16t-31 -19
t-31 -8q-13 1 -24 17q-2 2 -3 6t-4 7q-6 10 -14 24t-13 28q-4 8 -8.5 20t-8.5 21q-1 2 -4 2t-3 2q-2 4 -1.5 11t-2.5 13q-1 2 -4.5 5t-5.5 5q-5 9 -7 14q-3 7 -3.5 15t-3.5 16q-2 7 -6 14t-7 13q-6 12 -11.5 26.5t-12.5 28.5q-1 2 -4 2t-3 2q-2 4 -3.5 9.5t-3.5 10.5
q-11 27 -20.5 56t-20.5 61q-12 32 -23 59.5t-22 53.5q-11 28 -19 57.5t-19 63.5q-2 6 -5 14t-5 17q-5 14 -8.5 28.5t-8.5 32.5q-5 14 -9 28.5t-9 33.5q-2 8 -5.5 21t-6.5 26.5t-5 25.5t0 17q3 6 11.5 11.5t19.5 10t23 7.5t22 5z" />
    <glyph glyph-name="bracketright" unicode="]" horiz-adv-x="342" 
d="M-26 1022q3 1 12.5 3t22.5 0q5 -1 10 -3.5t10 -3.5q37 -3 81 -3t81 -7q18 -3 27 -5t14 -6.5t7.5 -14.5t6.5 -29q4 -23 5.5 -46.5t4.5 -49.5q2 -12 4 -23.5t3 -21.5q0 -1 -0.5 -8.5t0.5 -12.5q6 -90 8 -187t-1 -191q-2 -57 -1 -107.5t-3 -98.5q-1 -11 -3 -23.5t-4 -24.5
q-2 -23 -1.5 -50t-1.5 -53t-1.5 -53t-1.5 -50q-2 -8 -4 -15.5t-3 -15.5q-2 -11 -0.5 -24.5t0.5 -27.5q-2 -12 -3.5 -26.5t-3.5 -17.5q-3 -5 -12.5 -8t-22.5 -5.5t-27 -4.5t-27 -3q-19 -2 -39 -0.5t-41 -2.5q-3 -1 -12 -6t-22 -1q-2 1 -3.5 3.5t-3.5 3.5q-7 1 -17 2t-20 1.5
t-17.5 2t-10.5 4.5t-4 11.5t-2 19t-1 20v14.5q1 13 2.5 25.5t4.5 22.5q1 2 1 7.5t2 6.5q2 2 12.5 2.5t24 0.5h27.5t22 1q6 0 14 1t10 2q1 0 3 4t4 9l4 10t3 8q4 15 4 33v37t0.5 37.5t5.5 33.5q3 8 3 21t1 24q3 53 3 115t-0.5 125.5t-1.5 124.5t-1 112q0 10 0.5 20t-0.5 18
t-3.5 16.5t-3.5 17.5q-1 10 1.5 21.5t1.5 23.5q0 21 -3.5 41.5t-6.5 40.5q-2 16 -2 24.5t-5 13.5q-7 6 -23 6.5t-34.5 -0.5t-36 -1t-26.5 6q-5 3 -8.5 12.5t-6 22t-3 26t0.5 24.5q0 5 3.5 19t6.5 19q1 2 7.5 5.5t9.5 5.5z" />
    <glyph glyph-name="asciicircum" unicode="^" horiz-adv-x="584" 
d="M282 776q4 0 12 1t17 1.5t18 0t15 -2.5q8 -4 19 -17t19 -21q5 -5 11 -18t13 -20q5 -5 10 -15.5t10 -18.5q9 -14 16.5 -25t14.5 -24q2 -3 2 -3.5t2 -2.5t3 -7.5t4 -10.5q8 -14 17.5 -32t20.5 -36q2 -5 5 -10.5t5 -10.5q5 -13 9 -29t1 -22q-1 -3 -6 -6t-11.5 -6t-13 -5.5
t-10.5 -3.5q-2 -1 -5.5 -1.5t-8.5 -2.5q-15 -5 -30.5 -10t-27.5 0q-11 5 -21 24q-7 13 -13.5 27t-13.5 28l-7 14q-2 5 -2 9.5t-2 7.5t-4.5 6t-5.5 8q-5 6 -7 12.5t-7 14.5q-4 8 -11 18t-13 20l-10 16t-7 8q-5 2 -12.5 -4.5t-11.5 -12.5q-3 -5 -13 -17t-14 -17
q-8 -10 -14 -19.5t-14 -18.5q-6 -6 -11.5 -17.5t-12.5 -20.5l-9 -9t-8 -12q-2 -4 -4.5 -8t-6.5 -9q-2 -3 -7.5 -9t-9.5 -11q-2 -4 -3.5 -9t-3.5 -9q-5 -7 -9 -12.5t-9 -8.5t-12.5 -4t-20.5 1q-11 2 -21.5 9t-23.5 15q-11 7 -23 12t-15 19q-2 14 4 27t14 21q2 2 3 5.5t3 5.5
q4 4 8 11.5t10 12.5q2 2 5 3.5t5 3.5q2 4 4 14t6 17q4 5 10 10t11 10q4 5 10 9.5t11 11.5q2 2 1.5 6.5t1.5 7.5q4 9 14 20q1 1 3.5 2t3.5 2q4 8 10 16.5t14 17.5q0 1 1 1t2 1t3 1q6 14 21 32t28 30q5 5 10 11t7 7q11 3 27.5 1t30.5 -1z" />
    <glyph glyph-name="underscore" unicode="_" horiz-adv-x="886" 
d="M732 31q3 0 19 2.5t29 1.5q12 -2 25.5 -5t12.5 -2q3 -4 -1 -7.5t-3 -13.5q1 -5 4 -9.5t3 -7.5q0 -11 -1.5 -22t-1.5 -19q-2 -18 -4.5 -33t-6.5 -29q-2 -7 -1 -11t-2 -6q-2 -2 -10.5 -2h-19h-21.5t-18 -2q0 -1 -1 -3l-2 -4q-2 -1 -5.5 0t-5.5 0q-42 -4 -86.5 -2t-91.5 2
q-106 0 -218.5 -1.5t-225.5 1.5q-11 1 -23 -0.5t-21 0.5q1 0 -1 3.5t-3 3.5q-5 2 -14.5 1t-12.5 3q-3 3 -5.5 12t-4 20.5t-2.5 21.5t-2 14q-2 9 -5 21t-4.5 24t1 20.5t12.5 10.5q15 2 34 2.5t38 0.5q33 1 69.5 1.5t72.5 1.5t69.5 2t59.5 2q38 2 72 2.5t67.5 1t67.5 0.5h71
q47 0 97 3z" />
    <glyph glyph-name="grave" unicode="`" horiz-adv-x="368" 
d="M89 1034q20 6 34.5 2t30.5 -12q3 -2 6.5 -3.5t7.5 -3.5q3 -2 5 -5t5 -5q12 -8 26.5 -13.5t28.5 -14.5q2 -2 4.5 -5t5.5 -5q9 -6 18.5 -11t19.5 -13q14 -11 27 -23t14 -18t-4 -14t-9 -14q-9 -15 -28 -27q-7 -5 -11.5 -8.5t-9.5 -5t-12 -2t-18 1.5q-14 2 -29.5 9t-29.5 15
q-28 14 -51.5 27t-58.5 28q-15 6 -26.5 11t-18 11t-6 15t9.5 25q1 2 4.5 5t5.5 5q11 14 28 29t31 19z" />
    <glyph glyph-name="a" unicode="a" horiz-adv-x="713" 
d="M292 720q1 0 10 1.5t20 3t22 1.5t16 -3q2 -1 1 -3t3 -4q10 -2 23 -1t25 -2q4 -1 9.5 -4.5t10.5 -5.5q12 -5 23 -8.5t22 -8.5q39 -20 67.5 -53t49.5 -75q7 -14 13 -30.5t11 -34.5q6 -20 9.5 -38t7.5 -44q1 -2 2 -3.5t2 -3.5q0 -3 -2 -5l-2 -2q1 -6 4 -8t3 -6q1 -5 -1 -8
t-2 -9q-1 -10 2 -25.5t5 -29.5q2 -29 -1 -58t-3 -59q0 -4 -0.5 -11t0.5 -13q1 -4 4 -8t3 -6q0 -3 -3 -7.5t-4 -12.5q0 1 2 -0.5t2 -3.5q0 -8 -3 -27.5t-4 -34.5q-1 -8 -1.5 -21t-2.5 -27q-2 -15 -3 -24t-5 -14t-12 -7t-24 -3q-20 -2 -40 -1.5t-43 1.5t-33.5 4.5t-11.5 26.5
q0 8 4 16.5t0 11.5q-3 3 -9 1.5t-11.5 -4t-9.5 -5.5t-5 -3q-32 -14 -77 -22.5t-98 -4.5q-7 1 -15.5 1.5t-15.5 1.5q-28 3 -49.5 10.5t-46.5 17.5q-8 3 -12.5 5.5t-8 5.5t-7.5 6.5t-10 9.5q-3 3 -6.5 4t-6.5 3q-7 5 -12 14t-12 17q-5 5 -8 8.5t-5.5 7.5t-5.5 9.5t-6 15.5
q-9 29 -8.5 67.5t8.5 70.5q4 12 12.5 23.5t18.5 24.5q3 3 4 7.5t3 6.5q5 5 12 8.5t12 8.5q11 9 16.5 14.5t18.5 12.5q17 10 40.5 19t45.5 19q6 3 17.5 5.5t24.5 5t26 4t24 2.5q17 1 30 1t25 -1t24.5 -3t27.5 -4q3 0 9 -1.5t12.5 -2t12 -1t7.5 1.5q3 3 1.5 12t-5.5 19t-8 19
t-5 12q-10 20 -21 32t-31 23q-2 1 -5.5 2.5t-5.5 3.5q-4 2 -6 4q-8 2 -21 2.5t-28 0.5t-28.5 -1t-21.5 -2q-11 -2 -27 -10t-25 -14q-5 -4 -14 -12.5t-17 -14.5q-2 -2 -0.5 -4t-2.5 -3q-5 -2 -15 -1t-16 4q-3 2 -6 6.5t-8 7.5q-3 2 -5.5 1.5t-4.5 1.5t-3.5 4t-3.5 3
q-4 2 -9 3.5t-8 3.5l-3.5 3.5l-3.5 3.5q-8 5 -15 10t-16 11q-2 1 -9.5 9t-7.5 11q-1 8 8.5 19t15.5 19q2 4 3.5 8t3.5 6q11 11 23.5 20t20.5 14q5 4 10.5 8t13.5 9q7 4 12.5 7.5t11.5 6.5q8 4 15.5 5.5t15.5 4.5t13.5 7.5t10.5 6.5q13 3 30.5 3h28.5q3 1 4 2.5t3 1.5z
M298 280q-8 -1 -15.5 0.5t-14.5 -0.5q-4 -1 -8.5 -4.5t-9.5 -5.5q-14 -7 -23.5 -12t-17.5 -16q-2 -4 -3.5 -9.5t-3.5 -10.5q-2 -8 -4.5 -11.5t-2.5 -9.5q1 -11 7.5 -21.5t16.5 -19.5q9 -8 21.5 -15t23.5 -9q17 -3 38.5 -3t40.5 3q5 1 9.5 4.5t11.5 5.5q6 2 13.5 1.5
t13.5 1.5q7 3 14 8.5t14 9.5l22 12t19 12t16.5 21t4.5 27q-2 6 -9 8t-19 9q-8 5 -15 10t-12 7q-3 2 -9 2t-12 2q-12 2 -22 3t-19 3q-7 2 -11.5 4.5t-9.5 2.5q-13 2 -24 0t-14 -3q-1 0 -2.5 -3t-4.5 -4z" />
    <glyph glyph-name="b" unicode="b" horiz-adv-x="682" 
d="M151 804q-1 0 1 1l5 2.5t6.5 1.5t5.5 -1q0 -1 -0.5 -4t0.5 -3q1 -1 5 0t5 0q2 -3 3 -11.5t1 -19t-0.5 -21t-0.5 -17.5q1 -13 2 -33t1.5 -41.5t1.5 -43.5t2 -40q1 -11 0 -20t0 -18q1 -5 3.5 -11.5t3.5 -12.5q2 -11 -1.5 -14.5t1.5 -6.5q4 -2 13 2t18.5 10t18 11.5
t12.5 7.5q9 5 20 7.5t21 6.5q11 4 20.5 8t17.5 6q27 4 49 2.5t41 -7t35.5 -13.5t32.5 -16q4 -2 7 -2t7 -2q1 -1 1.5 -3.5t1.5 -3.5q6 -2 10 -5t11 -12q2 -2 1.5 -3.5t1.5 -3.5q1 0 5 -4l6 -6q3 -4 5 -10t5 -11q4 -5 8 -7t6 -6q3 -7 5 -15.5t5 -15.5q3 -8 7.5 -15t6.5 -13
q3 -11 4 -24t3 -27q2 -13 4 -25.5t2 -23.5q1 -5 -2.5 -10.5t-3.5 -13.5q-1 -7 1.5 -14t1.5 -13q-1 -7 -3 -13.5t-4 -14.5q-1 -7 -1 -16t-2 -14q-1 -3 -5 -6t-6 -8t-1.5 -9t-1.5 -8q-1 -2 -4 -4t-3 -3q-4 -12 -7 -19.5t-10 -18.5q-5 -8 -10 -12t-11 -12q-3 -4 -4 -8t-3 -6
q-3 -3 -7.5 -5t-9.5 -5q-2 -2 -3 -3.5t-4 -3.5q-7 -5 -19 -12.5t-22 -11.5q-4 -2 -11.5 -2t-12.5 -2t-9 -4t-8 -2q-24 -4 -52.5 -0.5t-50.5 6.5q-22 4 -36 5t-33 9q-10 4 -14 9.5t-13 1.5q-6 -3 -7.5 -8.5t-1.5 -11.5t-0.5 -12t-4.5 -10l-5 -1t-11.5 -2.5t-13 -2.5t-8.5 -1
q-5 0 -10.5 -0.5t-10.5 0.5q-2 1 -3.5 3.5t-9.5 3.5q-5 1 -7 -1t-4 -2q-3 -1 -12 0.5t-19 2.5q-11 1 -22 0.5t-19 6.5q-6 5 -8 18.5t-2 30.5t0.5 35t-0.5 33q-1 13 -3.5 26.5t-3.5 28.5q-2 21 -0.5 43.5t0.5 45.5q-2 53 -2.5 110t-1 114.5t-1 114t-2.5 108.5
q-1 14 -4.5 32.5t1.5 29.5q3 7 17 14t31 10q8 2 17 2t17 1q12 2 22.5 4.5t18.5 2.5zM251 333q-10 -8 -18.5 -14.5t-15 -14.5t-10 -18t-4.5 -25q-1 -14 2 -32.5t8 -25.5q2 -3 9 -6.5t15 -7t15.5 -6.5t12.5 -4q5 -2 10.5 -4t9.5 -3q11 -2 25 -1.5t24 -1.5q4 -2 4 -4.5t6 -2.5
q3 0 5 2.5t5 4.5q15 4 32 4t23 2q6 3 15 13.5t13 14.5t6 8t4 9q2 3 4 5.5t3 4.5q4 12 4.5 28.5t-1 33.5t-4.5 31t-6 21q-7 14 -12 18.5t-19 12.5q-16 9 -27.5 10.5t-30.5 -0.5q-38 -5 -60 -18.5t-47 -33.5z" />
    <glyph glyph-name="c" unicode="c" horiz-adv-x="580" 
d="M267 660q10 1 30.5 2t41.5 -2q5 -1 12.5 -4.5t14.5 -6.5q41 -14 74.5 -36.5t59.5 -55.5q10 -13 11.5 -22t-3.5 -15.5t-15.5 -13t-22.5 -15.5q-15 -10 -27 -19.5t-28 -7.5q-9 1 -13.5 3.5t-7 6t-5.5 8t-9 9.5q-3 2 -13 5.5t-18 8.5q-6 4 -11 4.5t-20 2.5q-10 1 -16.5 1
t-12.5 -1.5t-13 -4.5t-16 -9q-6 -3 -11.5 -7.5t-12.5 -9.5q-14 -9 -25.5 -28.5t-19.5 -40.5q-10 -29 -10 -64t14 -73q5 -17 12.5 -29.5t18.5 -25.5q6 -8 9 -13.5t11 -10.5q2 -2 5 -2t5 -2q5 -3 8.5 -7.5t5.5 -5.5q5 -2 12 0t12 0t4.5 -4.5t9.5 -2.5q2 0 7 -1t7 1t0.5 3.5
t2.5 3.5q12 2 18 1t17 5q1 1 1.5 4t1.5 3q6 3 13.5 7.5t13.5 10.5q12 10 21 22.5t21 11.5q4 -1 6 -4.5t7 -9.5q4 -4 6.5 -7.5t4.5 -6.5q2 -2 6 -4t8 -6q8 -8 15 -16t15 -18q2 -3 6 -7.5t8 -10t7 -10t3 -7.5q0 -7 -5 -15t-13 -15.5t-17 -14.5t-16 -13q-14 -12 -29.5 -22
t-35.5 -19q-6 -3 -14 -5t-14 -6q-7 -3 -11 -7t-9 -6q-9 -2 -23 -3.5t-30.5 -1.5h-33.5t-30 1q-11 1 -18.5 3t-14 4.5t-12.5 6t-14 7.5q-6 3 -15.5 5t-15.5 5q-3 2 -6 6t-7 8q-31 26 -56 57.5t-41 76.5q-6 18 -11.5 37t-8.5 45q-1 7 0.5 13.5t-0.5 14.5q-1 5 -4 9t-3 8
q0 8 3 17.5t4 20.5q2 24 2 41t5 38q1 4 3.5 6.5t3.5 7.5t-0.5 10t0.5 10q2 6 7 16t10 19q0 4 1 8q0 7 2 9q1 1 4 0t3 0q2 3 2 5.5t1 4.5q5 8 11.5 18.5t13.5 19.5q6 9 10.5 16t10 12.5t12 10.5t15.5 12q11 9 27 18q11 5 20 9t25 8q4 1 8.5 -0.5t8.5 0.5q4 1 4.5 3.5t5.5 3.5
q7 1 14 0t14 0z" />
    <glyph glyph-name="d" unicode="d" horiz-adv-x="679" 
d="M511 810q2 1 15 3.5t30 0.5q5 -1 10 -3t11 -4q9 -2 13.5 -1.5t6.5 -1.5l1 -2.5t2.5 -6.5t2.5 -8.5t1 -6.5q1 -14 -4 -37.5t-6 -38.5q-3 -48 -2.5 -92.5t-1.5 -93.5q-2 -43 -0.5 -85.5t0.5 -79.5v-20q2 -21 -1 -39.5t-5 -43.5q-2 -20 -1 -46.5t2.5 -55t2.5 -57.5t-1 -54
l-1.5 -16.5t-5.5 -10.5q-2 -2 -1 -3.5t-2 -3.5q-4 -2 -13.5 -2h-20.5t-21.5 1t-16.5 1q-5 0 -14.5 2.5t-20.5 4.5q-20 2 -27.5 2t-10.5 15q0 1 -2 2.5t-1 4.5q1 2 1.5 5.5t-1.5 11.5t-4.5 12t-12.5 -2q-2 0 -2 -3t-2 -4q-1 0 -3 1t-4 -1q-1 0 -1.5 -3t-1.5 -3q-7 -3 -18 -8
t-20 -10q-6 -3 -10.5 -8t-6.5 -5q-4 -2 -11 -2t-13 -2l-10 -4t-7 -3q-11 -2 -26.5 -2.5t-30.5 -0.5t-28 2t-18 5q-2 1 -4 3.5t-3 3.5q-5 2 -10.5 1.5t-10.5 1.5q-4 2 -8 5t-9 5t-10 3.5t-7 3.5q-5 3 -12.5 11t-15.5 13q-1 1 -4.5 1.5t-5.5 2.5t-3 6.5t-4 7.5
q-5 6 -15.5 14.5t-15.5 15.5q-2 5 -4.5 11.5t-5.5 13.5q-1 2 -3.5 5t-3.5 5q-1 3 0 6.5t0 7.5q-2 5 -5 10t-5 10q-2 4 -2.5 8t-1.5 6q-3 10 -5.5 26t-4 33t-1.5 34t1 31q2 25 9 53.5t15 52.5q2 3 4 7t3 7q2 5 1.5 9.5t1.5 7.5q4 7 12 16l16 18q10 12 18.5 21t22.5 17
q8 5 17 12.5t17 11.5q3 2 8 2t10 2q7 2 20.5 8.5t23.5 8.5q18 3 40.5 3t45 -2.5t43 -6t33.5 -8.5q7 -2 17.5 -9t20.5 -11q2 -1 5.5 -3.5t7.5 -0.5q5 2 8.5 16.5t2.5 28.5q-1 5 -2.5 8t-1.5 6q1 4 3.5 7t3.5 6q2 16 1.5 36t2.5 36q1 7 0 13.5t3 14.5q3 7 0.5 11.5t-0.5 15.5
q1 6 3 15.5t4 19.5q2 9 3.5 22.5t3.5 15.5t7.5 3t12.5 1.5t13.5 1t10.5 0.5zM195 384q-6 -13 -11 -35t-7 -46t-0.5 -47.5t8.5 -39.5q1 -2 4 -7.5t6 -9.5q5 -8 12 -12.5t12 -8.5q5 -3 13 -9.5t11 -7.5q32 -8 55.5 0.5t41.5 16.5q16 8 28 15t23 16q11 10 23 20.5t15 24.5
q2 8 -1 18.5t-3 19.5q0 14 2.5 26.5t3 23t-1.5 19.5t-10 16q-12 10 -26.5 16.5t-28.5 11.5q-8 2 -16 5t-15 5q-5 2 -7.5 4t-6.5 3q-16 4 -35.5 4.5t-26.5 -0.5q-20 -5 -38.5 -18.5t-23.5 -23.5z" />
    <glyph glyph-name="e" unicode="e" horiz-adv-x="571" 
d="M282 636q3 1 17.5 3.5t26.5 0.5q2 0 6 0.5t5 -0.5q0 -1 -0.5 -4t0.5 -3q6 -2 18.5 -1.5t19.5 -1.5q5 -2 11 -6.5t13 -7.5q14 -7 23.5 -12t20.5 -16q11 -9 21 -21t21 -23q2 -2 3 -5.5t3 -5.5q3 -2 6 -10.5t6.5 -19t6.5 -21l5 -17.5q7 -20 9 -40.5t2 -56.5q0 -2 0.5 -11
t1 -18.5t0 -18t-1.5 -10.5q-2 -2 -17.5 -2t-34.5 0.5t-36.5 1t-21.5 0.5q-30 1 -56.5 3t-46.5 0q-18 -1 -32.5 -3.5t-22.5 -2.5q-18 -2 -38.5 0t-37.5 -4q-4 -2 -10 -4t-7 -3q-2 -2 0.5 -4t2.5 -3q0 2 -1 0t-2 -5l-2 -6t-1 -2q0 -6 3 -16t6.5 -20t7.5 -18.5t7 -11.5
q8 -9 19 -15.5t25 -11.5q7 -3 19 -5t26 -3t27.5 -1t23.5 2q23 3 46.5 14.5t43.5 23.5q8 5 19 14.5t15 9.5q2 0 11 -6.5t17 -14.5q5 -5 10 -13t10 -14q2 -3 5.5 -7t5.5 -7q1 -2 1 -5t2 -5q2 -4 6 -7.5t8 -13.5q1 -3 -0.5 -7t0.5 -7l7 -3q-1 -5 -8.5 -19t-15.5 -22
q-4 -4 -10 -7t-11 -7t-9 -7.5t-8 -6.5q-5 -3 -10.5 -7t-10.5 -7q-11 -5 -22.5 -8.5t-25.5 -8.5q-5 -2 -10.5 -5.5t-10.5 -4.5q-10 -2 -21.5 -1.5t-22.5 -1.5q-25 -4 -46.5 -6t-53.5 2q-5 1 -11.5 3.5t-12.5 3.5q-16 2 -25 2t-23 5q-5 2 -9 3.5t-8 3.5l-19.5 6.5t-15.5 6.5
q-1 1 -1.5 4t-1.5 3q-11 5 -21.5 16t-19.5 22q-6 8 -12.5 16.5t-11.5 21.5q-2 4 -2 8t-2 9l-3.5 7l-3.5 7q-2 5 -1.5 8t-1.5 9q-2 7 -7 20t-7 25l-2 14t-1 13q0 4 1 5l2 2q-2 14 -5.5 24t-1.5 28q1 5 3 15.5t4 21.5q2 14 3 26.5t4 25.5q4 15 9 31.5t12 33.5q1 3 3 6t4 5
q4 8 6 15.5t7 14.5q2 3 5 6.5t6 7.5q4 6 12.5 13t14.5 15q2 2 2 5t2 5q5 5 13.5 13t16.5 15q12 9 28.5 17.5t36 16t40 12.5t40.5 8zM254 498q-6 -2 -9.5 -4.5t-11.5 -7.5q-5 -3 -14 -5.5t-14 -10.5q-1 -1 -4.5 -7.5t-6.5 -14.5t-4.5 -15t0.5 -9q1 -1 9.5 -1h17.5t16.5 0.5
l7.5 0.5q3 1 5.5 1.5l7.5 1.5q7 2 26.5 2.5t40.5 1t37.5 1.5t18.5 3q7 9 -1.5 23t-17.5 22q-17 16 -37 18.5t-41 0.5q-4 -1 -13.5 -0.5t-12.5 -0.5z" />
    <glyph glyph-name="f" unicode="f" horiz-adv-x="504" 
d="M226 811q13 3 32 4.5t36 -0.5q14 -2 33 -11t33 -17q13 -8 18 -11t16 -16q6 -7 11.5 -14.5t12.5 -16.5q5 -6 9.5 -10t7.5 -11q3 -5 5.5 -14t5.5 -17q5 -14 8 -20.5t-1 -16.5q-2 -5 -6 -12t-8 -12q-5 -7 -11.5 -12.5t-12.5 -11.5q-3 -3 -5.5 -8.5t-5.5 -9.5t-6.5 -5.5
t-6.5 -4.5q-1 -1 -5 -4.5t-8 -8t-7.5 -8l-3.5 -3.5q-4 0 -10.5 5t-13 12.5t-12.5 15t-9 12.5q-1 2 -6 6.5t-11.5 9t-13 8t-10.5 3.5q-11 0 -25.5 -13.5t-19.5 -24.5q-2 -5 -2 -13t-1 -18q-2 -11 -5.5 -28.5t-1.5 -32.5q0 -3 1.5 -7.5t3 -8.5t2 -6.5t0.5 -1.5q2 -2 8.5 -2
t15.5 1t19 2.5t18 1.5q12 1 28 2.5t24 -5.5q1 -1 2.5 -9t3 -18t3 -18.5t1.5 -9.5q1 -4 -1 -9t-2 -12q0 -2 1.5 -10.5t2.5 -19t1 -20t-2 -12.5q-5 -8 -21 -9t-35 -1t-35.5 -2t-21.5 -12q-4 -8 0 -28.5t7 -40.5q2 -20 3 -35.5t4 -29.5q1 -5 4.5 -11.5t5.5 -12.5q4 -14 3 -28
t0 -20q3 -13 8.5 -27t8 -26.5t-1.5 -21.5t-21 -11q-8 -1 -15 1.5t-16 1.5q-4 0 -11 -1t-14.5 -2l-15 -2t-11.5 -1q-6 0 -15 -1t-18 -1.5t-16 0t-9 2.5q-4 2 -3 8t-1 12q-2 5 -6 10t-4 4q-1 2 0 12.5t0 18.5q-2 13 -8.5 35.5t-8.5 39.5q-2 21 -3 39t-4 37q-1 5 -3.5 10.5
t-3.5 13.5v5.5v9v8.5v5q-5 3 -11.5 1t-14 -5t-15.5 -5t-14 2q-3 2 -5.5 16.5t-4.5 24.5q-2 11 -2.5 22.5t-1.5 22.5q-1 15 -2 26.5t0.5 20t7 14.5t18.5 11q5 2 14.5 2t13.5 5q1 1 2.5 8t2.5 15t1.5 16t0.5 12q-1 9 -4 16t-3 15q0 7 3.5 16.5t3.5 17.5q0 5 -2 6.5t-2 4.5
q1 5 3.5 10t3.5 10q1 6 -1.5 12.5t-1.5 11.5q1 6 3 11.5t4 12.5q2 15 5 37t8 36q3 8 9.5 15.5t11.5 15.5q2 3 3.5 8t3.5 9l3.5 3.5l3.5 3.5q3 5 13 13t18 14q11 8 32.5 19t39.5 15z" />
    <glyph glyph-name="g" unicode="g" horiz-adv-x="713" 
d="M522 711q1 1 17 3.5t31 0.5q2 0 2 -3t1 -4q5 -2 14.5 -1t13.5 -2q1 -1 2.5 -7t3 -13.5t3 -14.5t1.5 -10q1 -13 -2.5 -25t-4.5 -23q0 -6 1.5 -14.5t2.5 -16.5q0 -9 -0.5 -18.5t0.5 -15.5q1 -10 3.5 -17t3.5 -14q1 -14 0 -28.5t0 -26.5q1 -13 3 -23.5t3 -21.5
q3 -26 4 -50.5t3 -49.5q2 -8 4.5 -20t2.5 -21q0 -2 -1.5 -3t-1.5 0q1 -6 3.5 -10.5t3.5 -10.5q0 -2 -2 -4.5t-2 -5.5q3 -19 3.5 -50t3.5 -60q2 -11 4 -19t3 -19q1 -12 -2 -24.5t-5 -27.5q-1 -5 -2 -12t-1 -12q-1 -7 1.5 -12.5t1.5 -11.5q-1 -5 -3 -11t-4 -13
q-2 -11 -5.5 -23t-8.5 -25q-5 -17 -10 -25.5t-14 -22.5q-5 -8 -7.5 -15.5t-5.5 -11.5t-9.5 -6.5t-11.5 -7.5q-2 -2 -1.5 -3.5t-1.5 -3.5q-11 -8 -28 -23.5t-31 -21.5q-14 -5 -32.5 -9.5t-35.5 -10.5q-8 -3 -22 -5t-30 -2.5t-32.5 0.5t-29.5 3q-3 1 -7 0t-7 0l-2 4q-1 2 -1 3
q-11 2 -23 1.5t-25 2.5q-6 1 -11.5 4.5t-12.5 5.5t-14 3.5t-14 3.5q-14 4 -26 8t-25 9q-12 4 -26 9t-26.5 11t-22 13.5t-11.5 17.5q-1 4 0 10.5t3 14.5q3 14 6 21.5t8 19.5q1 1 4 3t3 4q1 2 0 5t0 5q4 9 6.5 19.5t7.5 18.5t13.5 17.5t10.5 9.5q1 0 12 -5t24.5 -12t26 -13
t16.5 -8q14 -6 31 -11t34 -13q11 -4 17.5 -7.5t23.5 -5.5q34 -6 62.5 -6.5t58.5 16.5q8 5 18.5 12t15.5 15q4 8 5.5 19.5t4.5 22.5q0 1 2 0.5t2 2.5q-2 6 -0.5 15.5t3 20t2 20t-1.5 16.5q-1 3 -2 6.5t-1 4.5v5.5v9v8.5v4q-5 3 -13.5 0.5t-17.5 -7t-17 -9t-11 -5.5
q-6 -2 -13 0t-14 0q-13 -2 -30.5 -6.5t-35.5 -6.5q-24 -2 -50 0t-49 7q-2 0 -5.5 3t-5.5 3q-8 2 -16 2.5t-18 4.5q-13 5 -23 14t-22 17q-2 2 -6 3.5t-7 3.5q-11 7 -22 14.5t-20 19.5q-1 2 -1 5.5t-2 5.5q-1 1 -3.5 1.5t-3.5 1.5q-9 13 -17 28q-7 10 -12.5 20.5t-11.5 23.5
q-5 10 -6 19t-4 26q-2 5 -4 10.5t-3 10.5q-5 27 -5 48t5 44q1 5 0 9t0 9q2 6 6 16.5t7 20.5q2 5 2 7.5t2 6.5q2 5 4 12.5t6 15.5q2 2 3.5 1.5t3.5 1.5q1 2 0 3.5t0 3.5q2 5 4 8.5t6 8.5q3 3 8 10.5t10 13.5q25 34 66 58.5t92 37.5q4 2 8.5 0t8.5 0q1 1 0 3.5t0 3.5t16 1.5
t33.5 0t35 -2t21.5 -2.5q8 -3 17.5 -5t20.5 -5q5 -2 12 -5.5t14.5 -6.5t14.5 -4t11 2q5 3 5 15t2 19q2 9 3.5 16.5t6.5 11.5q8 5 24.5 5t30.5 1zM240 485q-11 -8 -22.5 -15.5t-18.5 -15.5q-3 -4 -5.5 -13t-4.5 -11q-2 -1 -4 0t-3 0q-11 -8 -11 -19.5t-3 -25.5q-1 0 -3 -1
l-4 -2q-3 -7 -2 -21.5t2 -20.5q2 -10 11 -21t13 -16q3 -5 4 -8.5t3 -5.5q3 -3 10.5 -7.5t16.5 -9t17.5 -8.5t13.5 -6t11 -5.5t10 -4.5q6 -2 13 -0.5t15 0.5q0 -1 2 -3.5t4 -3.5q17 -5 28.5 1t23.5 9q11 3 20.5 3t20.5 4q3 1 6.5 3t7.5 4t12 5.5t15.5 7t13.5 6.5t7 5
q4 8 1 21.5t-4 26.5q-2 13 -2.5 25.5t-1.5 22.5q-1 17 0.5 35.5t-3.5 29.5q-1 2 -5 3.5t-6 3.5q-2 3 -3 7.5t-3 6.5q-8 8 -17.5 12t-17.5 9q-3 2 -5 5t-5 5q-4 2 -8.5 1.5t-8.5 1.5q-6 3 -8 4.5t-6 2.5q-8 1 -18 1t-19.5 -0.5t-17 -2t-10.5 -1.5q-17 -4 -27.5 -9.5
t-24.5 -14.5z" />
    <glyph glyph-name="h" unicode="h" horiz-adv-x="637" 
d="M95 874q0 1 1 2q0 2 2 2q4 0 15 1t23 1t22 -0.5t13 -1.5q4 -2 5.5 -16.5t4.5 -28.5q6 -34 9 -71.5t5 -69.5q1 -23 1 -47t2 -52q1 -10 4 -22t3 -26q0 -15 -1 -25.5t0 -16t6 -4.5t19 8q10 5 16 8.5t18 8.5q6 2 11 4.5t13 5.5l6 4t5 3q5 2 10 0t10 0q3 1 4.5 3.5t6.5 3.5
q20 3 41.5 2.5t37.5 -2.5q4 -1 8 -3t9 -4q6 -2 11 -1.5t10 -1.5q2 -1 4.5 -3t5.5 -4q8 -4 18.5 -11t19.5 -17q1 -1 -0.5 -3t0.5 -4q1 -1 3 0.5t3 -0.5q2 -1 2 -3t2 -3q3 -4 12 -13.5t12 -14.5t5 -12.5t5 -14.5q15 -32 24 -79q2 -12 3.5 -22t3.5 -23q0 1 3 -0.5t1 -3.5
q-7 -5 -3 -8t6 -9q2 -8 2.5 -22.5t1.5 -25.5q1 -26 1.5 -58.5t-1.5 -61.5q-1 -4 0 -8.5t0 -8.5q-1 -3 -4 -5t-3 -6q-1 -5 1 -10t2 -10t-1 -10t-2 -11q-2 -9 -2 -17.5t-5 -13.5q-8 -8 -27 -8.5t-42 -1.5h-20t-22 0.5t-19 2t-11 4.5t-3.5 10.5t0.5 16.5t2 17.5t1 13.5
q0 2 2 3.5t1 3.5q0 1 -2 3t-1 4q2 18 6 36.5t4 35.5q0 8 -1.5 15.5t-1.5 12.5q0 16 2 38.5t1 33.5q-2 26 -7.5 47.5t-12.5 34.5q-5 9 -18 25t-27 20q-8 2 -19 1.5t-22.5 -2.5t-21.5 -4.5t-16 -4.5q-40 -17 -69 -52q-2 -2 -1.5 -5t-1.5 -5t-7.5 -8t-6.5 -9q-5 -21 -2.5 -43.5
t2.5 -42.5q0 -18 0.5 -39t-0.5 -44q0 -4 -2 -7.5t-1 -9.5q0 -4 1.5 -8t1.5 -9q0 -4 -3.5 -7t-3.5 -7q0 -5 3.5 -8t3.5 -6q0 -1 -3 -4.5t-4 -8.5q-1 -6 -1 -14.5t-0.5 -16.5t-1.5 -14.5t-4 -9.5q-4 -4 -20 -4.5t-35 -2.5q-14 -2 -29.5 -3.5t-28.5 -0.5q-8 1 -24.5 5t-20.5 9
q-5 8 -3 30t3 42q2 23 0.5 46t-0.5 47q1 20 3.5 41t3.5 42q4 82 0.5 170.5t-3.5 179.5q0 57 -0.5 109t-6.5 101q-2 8 -4 16.5t0 14.5q3 8 11.5 13.5t19 9t21 5z" />
    <glyph glyph-name="i" unicode="i" horiz-adv-x="320" 
d="M128 823q21 2 33.5 0.5t28.5 -11.5q5 -3 7.5 -4t4.5 -2.5t3.5 -4.5l4.5 -9q2 -4 2 -4.5t2 -2.5q8 -9 12 -30.5t2 -38.5q-1 -4 -3 -7.5t-4 -9.5q-2 -4 -2 -9t-2 -8q-1 -2 -4.5 -4.5t-5.5 -5.5q-3 -5 -4 -8.5t-3 -5.5q-4 -3 -10.5 -5.5t-13.5 -4.5q-10 -5 -17.5 -9.5
t-20.5 -1.5q-2 1 -3.5 4t-3.5 3q-10 2 -16.5 1t-14.5 3q-3 1 -9.5 6t-13.5 10.5t-13 11.5t-8 9q-6 11 -10.5 26t-3.5 26q0 9 4.5 16t9.5 18q4 8 6 13.5t5 10t7.5 8.5t12.5 9q10 7 16 8t25 3zM104 544q4 1 20 2.5t35 1t35.5 -3.5t22.5 -10q2 -2 5.5 -15.5t5.5 -22.5
q1 -11 0 -25.5t0 -29.5q1 -18 3.5 -35.5t2.5 -29.5q1 -23 -2 -50t-4 -56q-2 -26 -0.5 -54t0.5 -56q-1 -16 -3.5 -38.5t-3.5 -44.5q-1 -5 -2.5 -9.5t-1.5 -10.5t2 -10.5t2 -10.5q-1 -4 -3.5 -8t-3.5 -9q-2 -11 -2 -15.5t-1.5 -6t-6 -1.5t-14.5 -1q-7 -2 -12.5 -3t-11.5 -1
q-11 1 -22 4t-23 3q-7 0 -17 -2t-21 -1h-9t-12 0.5t-11 1t-6 1.5q-6 6 -5.5 25.5t3 42t6 43.5t3.5 30q2 15 0.5 27t-0.5 25q1 7 3.5 13t3.5 14q5 32 3.5 71.5t0.5 76.5q1 17 3 38t3 44q2 25 2 49.5t5 33.5q4 5 13 8z" />
    <glyph glyph-name="j" unicode="j" horiz-adv-x="417" 
d="M157 791q-1 0 7 3t14 0q1 0 1 -1q0 -2 1 -2q1 -2 1 -3q5 -2 10.5 -2t10.5 -2q10 -4 18 -6.5t13 -7.5q16 -13 23 -38.5t4 -43.5q-1 -7 -4.5 -14l-8.5 -17q-4 -7 -8 -14.5t-9 -12.5q-2 -2 -7.5 -4.5t-10.5 -6.5q-8 -6 -17.5 -9.5t-26.5 -4.5q-20 0 -32 3.5t-23 10.5
q-9 5 -21 15t-14 23q-2 10 -2 23.5t1.5 27t4 25.5t7.5 20q0 1 3.5 5t7.5 9t7.5 9t5.5 5q5 3 16.5 3.5t21.5 3.5q2 0 3 1.5t3 1.5zM192 509l13 1t29 1.5t30 0t17 -2.5q1 0 3 -6.5t4 -15t4 -16t3 -10.5q9 -33 10.5 -62.5t9.5 -64.5l4 -10t3 -11q1 -4 -1 -7.5t-2 -9.5
q0 -13 3.5 -36.5t3.5 -45.5q0 1 2.5 -0.5t0.5 -3.5q-5 -5 -3.5 -18.5t3.5 -22.5q2 -11 1 -27.5t-1 -34.5q1 -26 2.5 -50t-2.5 -56q-1 -9 -3 -19t-4 -19q-9 -73 -31 -134q-6 -20 -15 -37.5t-19 -34.5q-10 -19 -34 -38q-11 -8 -28 -22t-34 -19q-7 -2 -16 -2t-19 -2
q-8 -2 -14 -5t-13 -5q-8 -2 -18.5 -2.5t-19.5 -0.5q-17 -2 -31 -1.5t-27 4.5q-2 0 -4 -0.5t-3 0.5t0 3.5t0 3.5q-5 2 -14 1.5t-17 1.5q-14 4 -32.5 13t-32.5 18q-12 8 -26.5 19.5t-25.5 25.5q-2 2 -1.5 5t-1.5 5t-5.5 2t-5.5 2t-1.5 5t-1.5 5q-5 5 -12 14.5t-12 19.5
q-2 5 -3.5 10.5t-3.5 10.5q-5 20 0 31.5t21 23.5q2 2 5 2t5 1q7 5 17 11q8 5 19.5 11t25.5 13q8 4 17.5 10.5t20.5 2.5q4 -1 7.5 -6t6.5 -11t6 -13t7 -11q6 -6 17.5 -22t20.5 -22q3 -3 9.5 -4t11.5 -3q4 -2 7.5 -6t5.5 -5q30 -8 59 2.5t41 28.5q4 7 6.5 19t7.5 26q3 11 7 23
t6 22q3 17 3 37t1 42q0 17 0.5 37.5t-0.5 37.5q-1 14 -4 27.5t-3 27.5q0 5 2 9t1 8q0 9 -2.5 17t-3.5 18q0 -1 2.5 0.5t0.5 2.5t-4.5 11t-2.5 13q-3 37 -5.5 69t-8.5 62q-1 3 -3 6t-4 8q-4 15 -3.5 37t-2.5 38q-1 2 -1.5 8t0 13.5t2 14t5.5 9.5t13.5 4t19.5 0.5t19 -1
t14 -0.5z" />
    <glyph glyph-name="k" unicode="k" horiz-adv-x="656" 
d="M101 817q6 1 22 1.5t33.5 0t32.5 -3t19 -8.5q1 -2 1.5 -11.5t0 -22.5t-1 -27t-0.5 -25q0 -77 -3 -153t-4 -139v-21t3 -13t3 -3t1 0l4.5 4.5t12.5 11.5q19 16 42.5 38t43.5 38q7 5 13 9.5t14 11.5q14 11 35.5 28.5t43.5 32.5q8 6 19 12t23 12q4 2 8 7.5t9 6.5q6 2 16 2
t15 -2t5.5 -3t4.5 -7q3 -6 6 -11t8 -13q6 -11 13 -34.5t11 -41.5q2 -7 3.5 -12t-0.5 -12t-5 -11t-8 -9q-2 -2 -3.5 -2t-3.5 -2q-5 -4 -10.5 -10t-10.5 -10q-2 -2 -5 -2t-5 -2q-5 -4 -13 -11t-15 -13q-11 -10 -29 -21.5t-33 -23.5q-9 -8 -18 -15t-14.5 -13.5t-5.5 -14
t8 -15.5q1 -2 3 -4l3 -3q5 -4 11.5 -8t12.5 -9q5 -3 10 -5.5t8 -4.5q3 -3 5 -8.5t5 -9.5q5 -6 11 -11.5t13 -12.5q3 -3 7.5 -5t6.5 -5q2 -2 1.5 -5t1.5 -5q1 -2 3.5 -2t3.5 -2q2 -3 3.5 -8t3.5 -9q5 -7 12 -12t12 -12l21 -27q1 -2 1 -5.5t2 -5.5q1 -1 3.5 -1.5t3.5 -1.5
q2 -3 3 -8t4 -9q1 -2 3 -3.5t4 -3.5q2 -4 7 -10.5t10 -14.5t8 -16t2 -14q-1 -10 -3 -13.5t-5 -4.5t-7 -1.5t-9 -4.5q-6 -5 -12.5 -10t-14.5 -11q-4 -2 -9 -3t-9 -4q-3 -2 -4.5 -6.5t-5.5 -6.5q-3 -2 -8 -3.5t-9 -3.5q-7 -4 -9.5 -6t-7.5 -1t-11.5 7.5t-13.5 16.5t-15 21
t-15 20q-12 14 -21.5 24t-19.5 24q-18 24 -42 48q-3 4 -8.5 7t-8.5 7q-2 2 -1.5 5t-1.5 5q-3 3 -6.5 4.5t-7.5 6.5q-5 5 -12.5 9.5t-15.5 10.5q-8 7 -17 16t-17 8q-6 0 -14.5 -6.5t-17 -15.5t-15 -19t-8.5 -17q-2 -11 -2.5 -32t-0.5 -33q-1 -13 0 -31v-21q-2 -8 -5.5 -20
t-5.5 -14q-1 -1 -6.5 -2t-12 -2l-13 -2t-9.5 -1q-11 -1 -27 0t-35 3q-18 2 -36.5 1.5t-21.5 2.5q-4 4 -4.5 19.5t0 35t2.5 38t2 27.5q1 23 -0.5 44.5t0.5 37.5q1 7 3 14.5t4 20.5q4 37 2 78t1 83q1 10 4 21t3 21q1 14 -1.5 26.5t-1.5 21.5q0 8 2.5 15.5t3.5 18.5
q2 18 2.5 38.5t1.5 43.5q2 38 2.5 80.5t4.5 84.5q0 6 0.5 15t2.5 16q2 8 6 19.5t5 11.5q3 2 10 2.5t13.5 0t11 -1.5t2.5 -1z" />
    <glyph glyph-name="l" unicode="l" horiz-adv-x="310" 
d="M113 885q2 0 11 1t20.5 1.5t22 -0.5t15.5 -6l4 -16q2 -7 3 -14.5t3 -13.5q6 -33 8.5 -66.5t5.5 -71.5q4 -69 6 -120q1 -14 0.5 -31.5t-0.5 -37.5q1 -24 3.5 -49t3.5 -50q2 -26 2.5 -52t1.5 -52q2 -54 1 -107t2 -102q1 -9 3.5 -23t4 -28.5t1 -26.5t-4.5 -18
q-3 -3 -11 -4.5t-18.5 -2t-22.5 -1.5t-21 -3q-2 0 -2.5 -2.5t-3.5 -3.5q-11 -4 -25.5 -1.5t-33.5 4.5q-6 1 -13 1.5t-14 1.5t-11.5 2t-5.5 2q-2 1 -2.5 7t-1 14t-0.5 17v17q2 152 2.5 310t-5.5 301q-1 18 -1.5 48t-2.5 62q-1 14 -3 29.5t-3 29.5t-1 25t4 16q5 7 12.5 4.5
t18.5 2.5l3 7q6 1 10.5 -1.5t10.5 -2.5q8 0 12 1.5t12 2.5z" />
    <glyph glyph-name="m" unicode="m" horiz-adv-x="1067" 
d="M735 629q2 2 5 3q7 2 12 1q2 -1 4 -4t3 -3q16 -3 37.5 -1t38.5 -2q3 -3 13 -7q15 -5 30 -12t29 -16q13 -9 18 -13t16 -18q25 -31 41 -92q9 -34 14 -83q8 -69 6.5 -146t-6.5 -153q-1 -11 -1 -23t-1 -23t-2 -19t-3 -10q-1 -2 -8 -4t-12 -3q-10 -2 -22.5 -3t-22.5 -1
q-5 0 -10.5 2t-10.5 2q-20 -1 -42 -3t-30 6q-5 5 -4.5 18.5t1.5 33.5q1 46 1 91t2 87q1 13 4 26.5t3 21.5q0 9 -3 18.5t-4 19.5q-1 11 0.5 22.5t-0.5 22.5q-2 20 -8.5 41t-15.5 38q-2 3 -3.5 5.5t-3.5 4.5q-4 8 -7.5 10.5t-16.5 10.5q-5 2 -13 8.5t-18 1.5q-1 0 -1.5 -3.5
t-1.5 -3.5q-6 -2 -12.5 0t-11.5 0q-4 -1 -5.5 -3t-4.5 -4q-8 -2 -11.5 -1.5t-9.5 -4.5q-9 -8 -14.5 -11t-13.5 -13q-2 -3 -1.5 -6t-1.5 -5q-1 -1 -4.5 -5.5t-7.5 -9.5t-7.5 -10.5t-4.5 -8.5q-2 -7 -1.5 -21.5t-1.5 -30.5q-2 -14 -3.5 -32t-3 -37.5l-3 -39t-1.5 -35.5
q0 -5 -0.5 -24.5t-1 -43l-1 -47t-0.5 -36.5q0 -8 3.5 -22.5t-3.5 -22.5q-3 -3 -11.5 -4.5t-19 -2t-22 -0.5h-19.5h-21t-23 0.5t-19 1t-9 2.5q-4 3 -5.5 18.5t-1.5 29.5q0 17 1 37t2.5 40.5t3 40t0.5 36.5q-2 17 -4 35t-3 38q-3 37 -5 69t-13 61q-8 21 -16 33t-25 22
q-3 2 -8.5 6t-8.5 4q-17 5 -38 4t-34 -4q-8 -2 -18.5 -7t-19.5 -10q-8 -5 -17 -10t-14 -10q-8 -8 -15 -21t-12 -24q-6 -13 -6.5 -39t1.5 -56.5t4.5 -59.5t3.5 -48q1 -10 0 -23.5t0 -27.5q2 -22 4.5 -40t2.5 -50q0 -12 1 -28.5t-1 -19.5q-2 -2 -14 -2.5t-26.5 -0.5h-28h-17.5
h-17h-14t-18 1t-16.5 2.5t-10.5 3.5q-6 5 -10.5 23.5t-6.5 31.5q-3 32 -2 67t-1 70q-5 66 -6 130.5t-1 141.5q0 15 -1 36t-1.5 40.5t-0.5 35t3 18.5q2 3 15.5 5.5t22.5 4.5q5 2 15.5 1t15.5 3q2 2 0.5 4t2.5 3q10 2 25 3.5t29.5 1.5t25.5 -3t13 -9q2 -4 0.5 -8.5t-0.5 -8.5
q2 -8 3 -14t3 -9t7 -1.5t14 7.5q3 2 5.5 3t5.5 3q5 5 11 8.5t16 9.5q11 5 17 7t21 6q9 3 26 5.5t36.5 3.5t38.5 0t30 -5q4 -2 4 -1.5t2 -2.5q5 -5 9 -2t12 -1q4 -2 8.5 -8.5t8.5 -8.5q8 -5 15 -7t9 -4q4 -3 5.5 -5t3.5 -4.5t4.5 -6.5t7.5 -11q7 -9 12 -16.5t12 -7.5
q6 0 14 6.5t16 15.5t16.5 18.5t15.5 14.5q3 2 9 4.5t11 5.5q9 5 17.5 8.5t20.5 8.5q5 2 9.5 6t7.5 5q11 2 20.5 1.5t17.5 1.5q2 1 3.5 2t3.5 1z" />
    <glyph glyph-name="n" unicode="n" horiz-adv-x="758" 
d="M425 636q6 0 16.5 0.5t22.5 1t24.5 0t22.5 -1.5q7 -2 14.5 -2t12.5 -2q4 -1 14.5 -7.5t16.5 -9.5q5 -2 9 -3.5t8 -3.5q20 -11 37.5 -33t28.5 -46q2 -7 3 -15t3 -16q2 -3 4 -6.5t3 -6.5q3 -8 5.5 -20t5.5 -25q1 -8 3 -15.5t4 -15.5q1 -9 -0.5 -19t0.5 -19q1 -8 3.5 -14
t2.5 -13q2 -27 0 -57.5t-3 -59.5q-1 -20 0.5 -38.5t-0.5 -33.5q-1 -10 -3.5 -20.5t-3.5 -21.5q-1 -13 0.5 -28.5t-0.5 -29.5t-5 -30.5t-9 -21.5q-9 -8 -30.5 -6t-41.5 3t-42.5 0.5t-29.5 6.5t-7.5 20.5t1.5 29t5 31t4 25.5q1 5 -1 9t-2 9q0 10 3 22.5t4 28.5q2 33 2 71.5
t-1.5 75.5t-6 66.5t-11.5 44.5q-2 5 -7 11t-10 13q-5 5 -11.5 12t-9.5 9q-7 2 -22 2.5t-26 0.5q-26 0 -40.5 -3.5t-31.5 -10.5q-11 -4 -22.5 -8t-22.5 -9q-9 -5 -21.5 -12.5t-24.5 -17t-22 -20.5t-14 -22q-6 -15 -6.5 -42.5t-0.5 -57.5q-1 -29 -1.5 -53t-1.5 -47.5t-2 -49
t-2 -56.5q0 -3 -1 -15.5t-2.5 -27t-3.5 -26.5t-4 -13q-1 -1 -6.5 -1.5t-13 -1l-15 -1t-13.5 -0.5q-11 1 -23 4t-18 3t-14.5 -2t-19.5 -1q-7 0 -20 1t-15 2q-3 4 -4 18.5t0 33t2 39t2 36.5q4 67 6 128t5 130q2 53 -1.5 97t-2.5 92q0 7 -1 12.5t1 11.5q1 4 2.5 10.5t4.5 10.5
q4 4 12 4.5t16 5.5q5 3 18 4.5t28 1.5t30.5 -1t26.5 -2q2 0 6.5 1t6.5 -1t1 -3.5t3 -3.5q8 -2 13 0.5t8 -0.5q-1 1 0.5 -10.5t2.5 -16.5q-1 -8 -1 -14q0 -5 -0.5 -10.5t1.5 -6.5q4 -4 8.5 -2t8 5.5t5.5 7l2 3.5q7 4 14 6t10 4q14 8 25 16t20 12q11 4 24 6t24 4q16 3 28 4
t27 3z" />
    <glyph glyph-name="o" unicode="o" horiz-adv-x="676" 
d="M290 626q22 2 48.5 2t52.5 -3t49 -8.5t39 -14.5q8 -4 15.5 -11t15.5 -13t15 -12t12 -12q3 -4 7 -14q5 -9 13.5 -16.5t14.5 -17.5q1 -2 2.5 -8.5t3.5 -12.5q10 -26 18 -61t13 -69q2 -14 1 -29.5t-1 -32.5q1 -29 0.5 -57t-10.5 -56q-2 -5 -5 -10.5t-5 -10.5q-2 -7 -2 -14
t-2 -13q0 -2 -3 -2t-4 -2q-7 -26 -27.5 -48t-44.5 -41q-8 -7 -15 -13.5t-16 -10.5q-7 -3 -16.5 -5.5t-17.5 -5.5q-18 -6 -31.5 -10t-40.5 -7q-22 -2 -42 -2t-44 2q-11 2 -22 2t-19 2q-5 1 -10.5 4.5t-10.5 5.5q-15 5 -35 10.5t-34 13.5q-1 1 -1.5 3.5t-1.5 3.5
q-17 8 -31 19.5t-27 28.5q-6 8 -11 17t-10 17q-3 5 -7.5 9t-6.5 9q-1 2 -2 5.5t-1 4.5q-2 3 -2 5t-2 5q-2 5 -1.5 11.5t-1.5 12.5q-2 5 -5.5 8.5t-4.5 8.5q-3 14 -4 33t-3 36q-5 36 -5 68t5 70q0 3 1 4l2 2q0 2 -2 3.5t-1 3.5q1 4 3 7t4 7q2 9 1.5 18.5t1.5 15.5q2 5 7 10
t7 11q3 8 3.5 15.5t3.5 12.5q1 2 4.5 3t5.5 3q2 3 1.5 6t1.5 5t5.5 3.5t5.5 3.5t1.5 5t1.5 5q7 7 16 13.5t18 13.5q22 16 43.5 25t53.5 20q13 5 31.5 6.5t40.5 3.5zM297 479q-6 -2 -11 -0.5t-10 0.5t-8.5 -3t-8.5 -4t-7 -4.5t-7 -6.5q-4 -2 -9.5 -3t-7.5 -3t-3.5 -8
t-3.5 -10q-1 -2 -3 -3t-4 -3q-2 -3 -1.5 -5t-1.5 -6q-11 -24 -13.5 -43.5t-0.5 -52.5q1 -24 4.5 -47.5t9 -45t12.5 -38.5t15 -27q7 -8 22 -18.5t23 -12.5q6 -2 16 -2h20.5t19.5 0.5t13 1.5q6 2 18.5 8t18.5 9q5 2 11 5.5t7 4.5q4 5 9 8.5t8 5.5q8 7 12.5 12.5t7 11.5t4 14.5
t3.5 20.5q2 10 4 20.5t3 20.5q2 28 -1 48t-6 38q-1 8 -0.5 16.5t-2.5 17.5q-2 6 -8.5 13t-8.5 11q-9 14 -20 28.5t-22 19.5q-9 6 -24 11q-7 2 -15 1.5t-16 1.5q-5 1 -6 3.5t-4 3.5q-8 2 -15.5 -0.5t-8.5 -3.5q0 -2 -1 -3l-1 -2q0 -1 -1 -1z" />
    </font>
</defs>
</svg>
